<mxfile host="65bd71144e">
    <diagram id="NgLo4n3gQTSK2y4iW0jZ" name="Page-1">
        <mxGraphModel dx="1953" dy="1298" grid="0" gridSize="10" guides="1" tooltips="1" connect="1" arrows="1" fold="1" page="0" pageScale="1" pageWidth="850" pageHeight="1100" background="#ffffff" math="0" shadow="0">
            <root>
                <mxCell id="0"/>
                <mxCell id="1" parent="0"/>
                <mxCell id="10" value="" style="shape=image;verticalLabelPosition=bottom;labelBackgroundColor=default;verticalAlign=top;aspect=fixed;imageAspect=0;image=data:image/png,iVBORw0KGgoAAAANSUhEUgAABLAAAAFYCAYAAABDDgWHAAAAAXNSR0IArs4c6QAAIABJREFUeF7svWeQXeW57/lbYafOuaVWK2dAApOjycEgcsYGjPP1OefOvVNTNTU1NV/OrTn33PvFU7fOcTgGY0ywCSbZImPAxmByFCiHlrqlznnHFaaed+3daoQQUuOWtuBZVCPR7L3Wu35v/r9PsMIwDNFLCSgBJaAElIASUAJKQAkoASWgBJSAElACSkAJlCkBSwWsMq0ZLZYSUAJKQAkoASWgBJSAElACSkAJKAEloASUgCGgApY2BCWgBJSAElACSkAJKAEloASUgBJQAkpACSiBsiagAlZZV48WTgkoASWgBJSAElACSkAJKAEloASUgBJQAkpABSxtA0pACSgBJaAElIASUAJKQAkoASWgBJSAElACZU1ABayyrh4tnBJQAkpACSgBJaAElIASUAJKQAkoASWgBJSACljaBpSAElACSkAJKAEloASUgBJQAkpACSgBJaAEypqAClhlXT1aOCWgBJSAElACSkAJKAEloASUgBJQAkpACSgBFbC0DSgBJaAElIASUAJKQAkoASWgBJSAElACSkAJlDUBFbDKunq0cEpACSgBJaAElIASUAJKQAkoASWgBJSAElACKmBpG1ACSkAJKAEloASUgBJQAkpACSgBJaAElIASKGsCKmCVdfVo4ZSAElACSkAJKAEloASUgBJQAkpACSgBJaAEVMDSNqAElIASUAJKQAkoASWgBJSAElACSkAJKAElUNYEVMAq6+rRwikBJaAElIASUAJKQAkoASWgBJSAElACSkAJqIClbUAJKAEloASUgBJQAkpACSgBJaAElIASUAJKoKwJqIBV1tWjhVMCSkAJKAEloASUgBJQAkpACSgBJaAElIASUAFL24ASUAJKQAkoASWgBJSAElACSkAJKAEloASUQFkTUAGrrKtHC6cElIASUAJKQAkoASWgBJSAElACSkAJKAEloAKWtgEloASUgBJQAkpACSgBJaAElIASUAJKQAkogbImoAJWWVePFk4JKAEloASUgBJQAkpACSgBJaAElIASUAJKQAUsbQNKQAkoASWgBJSAElACSkAJKAEloASUgBJQAmVNQAWssq4eLZwSUAJKQAkoASWgBJSAElACSkAJKAEloASUgApY2gaUgBJQAkpACSgBJaAElIASUAJKQAkoASWgBMqagApYZV09WjgloASUgBJQAkpACSgBJaAElIASUAJKQAkoARWwtA0oASWgBJSAElACSkAJKAEloASUgBJQAkpACZQ1ARWwyrp6tHBKQAkoASWgBJSAElACSkAJKAEloASUgBJQAipgaRtQAkpACSgBJaAElIASUAJKQAkoASWgBJSAEihrAipglXX1aOGUgBJQAkpACSgBJaAElIASUAJKQAkoASWgBFTA0jagBJSAElACSkAJKAEloASUgBJQAkpACSgBJVDWBFTAKuvq0cIpASWgBJSAElACSkAJKAEloASUgBJQAkpACaiApW1ACSgBJaAElIASUAJKQAkoASWgBJSAElACSqCsCaiAVdbVo4VTAkpACSgBJaAElIASUAJKQAkoASWgBJSAElABawptIAxD5Ecuy7LMj15KQAkoASWgBJSAElACSkAJKAEloASUgBJQAtNDQAWsKXAtiVelr6qANQWI+hUloASUgBJQAkpACSgBJaAElIASUAJKQAnsJwEVsPYTlH5MCSgBJaAElIASUAJKQAkoASWgBJSAElACSuDQEFAB69Bw16cqASWgBJSAElACSkAJKAEloASUgBJQAkpACewnARWw9hOUfkwJKAEloASUgBJQAkpACSgBJaAElIASUAJK4NAQUAHr0HDXpyoBJaAElIASUAJKQAkoASWgBJSAElACSkAJ7CcBFbD2E5R+TAkoASWgBJSAElACSkAJKAEloASUgBJQAkrg0BBQAevQcNenKgEloASUgBJQAkpACSgBJaAElIASUAJKQAnsJwEVsPYTlH5MCSgBJaAElIASUAJKQAkoASWgBJSAElACSuDQEFAB69Bw16cqASWgBJSAElACSkAJKAEloASUgBJQAkpACewnARWw9hOUfkwJKAEloASUgBJQAkpACSgBJaAElIASUAJK4NAQUAHr0HDXpyoBJaAElIASUAJKQAkoASWgBJSAElACSkAJ7CcBFbD2E5R+TAkoASWgBJSAElACSkAJKAEloASUgBJQAkrg0BBQAevQcNenKgEloASUgBJQAkpACSgBJaAElIASUAJKQAnsJwEVsPYTlH5MCSgBJaAElIASUAJKQAkoASWgBJSAElACSuDQEFAB69Bw16cqASWgBJSAElACSkAJKAEloASUgBJQAkpACewngS8mYIWABYQBWPIX+dFLCSgBJaAElIASUAJKQAkoASWgBJSAElACSqB8CIiAI9fhq9tMXcAKIHp9H0LfCFghNmBjWVakZ+mlBJSAElACSkAJKAEloASUgBJQAkpACSgBJXCICfjF54tuUxRsDjNNa+oCVigCVgDmxzL/hCFYwsLAUAXrELdOfbwSUAJKQAkoASWgBJSAElACSkAJKAEloAQAr6jTfFLACoykE2LbkYYThqExSirHa+oCFj4BAZ4fkstaWKFNKmXhOKLqOcYSSy8loASUgBJQAkpACSgBJaAElIASUAJKQAkogUNNYLeAJcZH0WXhFQLC0MeNOdi2TRAE5s9yvKYmYEnMKzx8y2c8a7GjI4uXDVgwv5rKKh/LihVFrHJ8ZS2TElACSkAJKAEloASUgBJQAkpACSgBJaAEvkoEJgtYuy2s8jmPIPRIJOJfVgErJAzyeLbPyLjDm2/0M9Sb5pSTZtI+28K244D7VWoJ+q5KQAkoASWgBJSAElACSkAJKAEloASUgBIoUwKfdiEU26R0OkcYelRUporxzMvTfVCgTs0CyyQeLJC3AnoGLJ57upPOzYNcfOE8Vh6Two2JgCVuhHopASWgBJSAElACSkAJKAEloASUgBJQAkpACRxaAp8WsAI/ZHR03Fhg1dRUT7gOfrliYEkAdz8gHfps2JrjyT9sp78rw+Wr5nDSKdXEE2J9pQLWoW2c+nQloASUgBJQAkpACSgBJaAElIASUAJKoDwITASeOkRJ7/YUsEJ8L2RwcIQQn4aGOhzH+RIGcQ8gn/PpGhznldf7eOm5QazA4uqr2zjttEZSSddkJdRLCSgBJaAElIASUAJKQAkoASWgBJSAElACXx0CkthOrknZ/pA44vL7koglBj+TjX7k9yYd4DQmxCvdX8omzwvxCxZ9vRlCApqaK3FjpSyEpbKVylUeBkpTciEM/ZCuHSO8v34nr781zPvvWNTWuFx9fQtfP72VKhWwvjp9U99UCSgBJaAElIASUAJKQAkoASWgBJSAEigKQyWhSkQfEbFKIpBYQJWsoCTxnXiulQx/5DsiMMnnp1EsMvpZCJZvLK38gkt3V0GCS9E6M44bL5VdlCwpXkl4k/Ie+mtKAlY+6/P6a5t4f10327virP3Ioq7G5RoRsM5ooSoZUwusQ1+3WgIloASUgBJQAkpACSgBJaAElIASUAJK4KASEJFK1J+SgFUUjYwFlghCcu1pgVX6f5O/Mw2F3kPA8vIuXduzprxts1PEEj4hIRZfIgFraDDHU0+9z7adHoOj1Xz0QZqGWhGwWvn6GU1Up+IqYE1DW9NbKgEloASUgBJQAkpACSgBJaAElIASUALlTKBkxSTWVPJTuibHwJLflayvShZa8uee3/k7v+ceAlYh59CxZRzLhtlzK4knA+NOaBE/fC2wxLRMotDLn3Lt6BzhD39cy66+OCPpCjZtGKehxuaqq5s4+6wWqivUAuvv3Mz0dkpACSgBJaAElIASUAJKQAkoASWgBJTAQSBQ0kCm9iixsiqJVVEcLJFSggDsomZlFf80YpH5+yc/P7Xn7se3JgQsz5SpkHXYsmkY24Y582tJpEplP4wtsCYLWPL3jZsHeXz1NtauzzM8ZjM6bNPSGOOqK5s55+wmqitVwNqPpqMfUQJKQAkoASWgBJSAElACSkAJKAEloATKjEAQiLAUqUyigdii8Oz3FQVInyxKhYGF72Gy/rmuhSMhpSaEK7HYkv+Y/LPfDzuwD04SsKSIuazLxnX9OI7FvIV1JCtK5f6SCFie5/Hxun4ef6Kbt94eZmgswAoraGtJcPWVzZx7bmNRwDqQCj4w5vppJaAElIASUAJKQAkoASWgBJSAElACSkAJTAcBEbAymQypVMrc/sAELPnGJCus0IbQIj3u09U1SHVVBc2tKWxXBCsRjEoC1uSshdPxViVNLSS0JE4XZMcd1q7pxo05LF7aaASswzQGlgk5P6E4WlZgTMzyeY8PP+5n9VN9vPVOmpG01I3DrOYEV13ZxLnnNlBTJTGwVMCapiant1UCSkAJKAEloASUgBJQAkpACSgBJaAEponA6FiaLVu2sWjhfFKpxIQ11v4/riRghYRFAau3N8ubb6yjubmJo4+ZiRsX1UQyApbcByWAeyku1v4/6YA+WbTAKglY6XGbj97fheu6LDuyidSnBKySwCYZEw/99RlZCEUB9CB0jTiFVQB7jBCb8fFKXn11J2+8Psabbw8wmq0Cy6WlMeDyVU1ceH4dtbViD1dSD6e5Ag49Qy2BElACSkAJKAEloASUgBJQAkpACSgBJXA4EZgcU30P2WJzZ563393EeWcvozrp44gLYWhRDFj1+W9ZuncYEFoFCoR0dLk8/sha5sxr4/zzqknEsyStJISxSMQyZZg+/UTCs1v4WCKomb/5jKZt3n1vjKQdsGJlDRUV/qQMhJGVltGFpq9Yn89y0ic+Q8AStdCH0AF5ORGwrCxBEGPTlpBX/rqdLdvyvP/hIKPppHkZEbAuvqiFCy9oprE+iUV5KHQHREM/rASUgBJQAkpACSgBJaAElIASUAJKQAl8NQjsRcQKfPhgXYZ3PljL5auOobYywBbRw2gjpS98jqIzIWCFhHaBfBCyZm2Bhx78gAXz27jyqlnUVnm4opsEIhAdZAErtPBtn5Fxm7feHCLlwDHH1lJRIRkIS/GvDhsBqxi4SxRGk8kxb3w4R8cSrF7dyZoP+8n5cTZsGmI8YxHi09Rgcd45M/jGRTOZ0ZzEljyMe712uyZ+NXqEvqUSUAJKQAkoASWgBJSAElACSkAJKAElULYEJglZhULIa2+P8/6atdxw3XHUVYuAVbTAMi5/8hb7KWCZiFIeWQ/+9sYQD93/IfMXtHPjTfOY0QyOua94ve2nMPYFAH7CAqsoYA2PWrz2Wi8VrsNxJzZQWREYiytL3q8YJ+swsMCaFDTfCsDKG2Ozjh1xfvnzD9m0KUPgOAwN+fiWVKVPXY3N8cc3cuGFrSxdmCIRNxrlpMj6YtVVusS3Uy8loASUgBJQAkpACSgBJaAElIASUAJKQAkcWgIS71v0iyAA3w949oVhPl6/mW/fcix1NT4O4p0mok4pZlUpY+BnlbsoSIUhAR6Zgs2LL/Xx8APrmDe/jZtunsfsWRZxW4yGRMCS+0yvsc+eLoSBFTA0Cq+8sssIWCec1ExllSTpO+wFrIJ4SvLBhzY//bcP2LZNGFuExlfTwyYg7lq0tMApp9bxjfNbaG1JmVSMUsGWURNLApbUjApYh7Z76tOVgBJQAkpACSgBJaAElIASUAJKQAl8VQkUvc7M6xfFqBB8T0SsgLvv2872rp384z+eRH2Nj23iRslPCLZoG5+XMbAYxD2UjH8h41mHZ57p5uEHNzFjRiPf/u5ClixxiRvh6gBcE79Ade1NwBoeg7/8uZOUa3PSKTOoqgqxrcPOhXBPCyyfQmDx17+l+em/f8jAQDU4xqgMixy2iFSBi+PkWbbc4Zs3tHPkEU3E4k4xxlkxptaEoihB3vVSAkpACSgBJaAElIASUAJKQAkoASWgBJTAwSZQMrKRP4vZ/4LIAiuTyfPTn22gp3+Q//P/Oo3GOh8rEFc/EZqCooD1eRkDJTFeJJLJv0fTDqtXd/PYQ9tIVTjccttiTjuthpiJC1+8b0lImyYUe7fACnnhhQ4qXJfTzmijqlpS9x2WAlY4YcEWWj6ZgsUzz+/iF79YQ8GbgaRdtEMfy8qagGZWkCIIfNpnF7j5xjZOOrGdZDIWCViWVF5JxBKlMj5NVaK3VQJKQAkoASWgBJSAElACSkAJKAEloASUwL4IiKwkOoVcNqGIU0WnsYGBcX7yk48ZGB7j//5/zmRma9ECywhYPtiTRK/iHYwL4ifCYsm9o/tLOKbhUYfHHtvJHx7ZARS4+vrZXHJJG9UV4q4nmknJfXD60v3tTcAaHAl49tktVMRinHX2bKqrpcDOYRgDS2pPfDxFMbQCRrM2Dz+ynfvv30zBqyO0PaxQ3AOjShE/Sam01haLb149gzPPaCUllWFqUczsRHmUe1lRADS9lIASUAJKQAkoASWgBJSAElACSkAJKAElcJAJRHZRIi1Fllhh4CC2R4EFO7ty/Ov/XMt4eoz/438/iWWLLVwTq8qOdA2xwjJil2X0jVwuIJ/xqa0rBXq3CEXkKsXVskL6hy0efbiL1Y934QUBZ549kxtvaGdmqzi3SbY/8VKb3lBLUmR53yhefEBg+QwMWTz9VCeJuMO558+kptrBEQi2lCkkDF3zrU+Kcwe5siY9zgpDkZ32dhUFLEuq1mdg1OW+327hiSc6KXiVkencHpe8VHNjjOsua+LccxqprpJbywvHjFuncChplYfulfXJSkAJKAEloASUgBJQAkpACSgBJaAElMBXlUApApbE8wYJfOUQWA6eBVu3FPjv/2MdIyN9/PgHR/H10+qJGW3JNoKV0UJ8SXZnk/ct1n28y4gdK1Y2GHEoxC0mFozCLvlWQO9AyMMP7eDpJ3tJFzyWLa3mB99fyvKlAa5VAFIHScAqJTz0CCyP/kGHp5/chRu3Of+iVuqqXBwT4isXyV1h3Ng1lYsJ0j4ErJKuFQlYu3odfn33el58oRc/3EPAkjo0Wl5Ic0OMKy6p54LzG6irzRt3QYukoSSKZhglitRLCSgBJaAElIASUAJKQAkoASWgBJSAElACB53ApwSs0CEgErDWr8vzL//9A4aG+rn+2tlcd/VSUkmxSIr0DLmswDd/HxmDJ1e/R011FedfOAdHjLAk2Z0YaxW90STb367egAfv7+ClF4YZSWdpavD40Y+O4/TTYsSMtVPi4AtYePQO2jz1xE7cmM2FF8+krtrBNRZYh52AVWpDUjEBHZ0Od/xqDa++OgxOpRG1opqLxCu5xJirttrh66dUc8mlLcxqd4jZSeMyaNlRHKyQuApYB7176gOVgBJQAkpACSgBJaAElIASUAJKQAkoAaNdFH8mLLCKApZvwQcfZvnnf36DXM7n7LNr+M6tx9BQl0e8CCNXP3EtCwhDh55eizvv+ButMxq57qaFFHIegWdRUxfDdSKNRASszl0B99+3jVf+OspYNk9VRZZv33I0F1xQSSohWsnBciHcbYHl49E3YPHE6i5c1+GiS9uor3JwjcnVYShgCezQKhgBa8uWGP/2b2/z0VofX6yqTOrIT1+uFbBgVozzLmpmRrtDftyltjrFoqVJqiqkqsWlUC8loASUgBJQAkpACSgBJVBeBMzaNwyxbQnoG5pU6nI5zvTGJSkvCloaJaAElMCXn8C+LLDefTfNf/vn1ykUEhx/QiU3f+tI5s8LcG2PMHCLMb1FJXF45x2PO37xKjX1CW79/koG+gfEgZBjj52F60pg9wA/hI4dPvf/bhuvvDxM3odkLM/F32jnxhtnUl1tfPZALLeMgdD0XFEMrEkCllWgr99i9R+6wLa55PJ2GmtdHB8s57AUsAJCK28m8HXrHH7y/73J1m0x7FgCPxT3wE9fkpGwtS7G8pU2I+ketq7L01Rbw/d+eCQrVtbiGGLTUyF6VyWgBJSAElACSkAJKAElMBUCJfFKEhBFSYj0UgJKQAkogS8rARO6XQ4sLAnk7pnMeyUXwrfeGudf/983KRSqWby0ggsvmsVxxyVorBfXwSgpnWVDIbB58cURfva/3iKWggsvayc7Ps6c1jrOPWceiZRvDH/8wGHzNo/779vKG6+Pk/PBCbOceUYT3/v+PBoapTSHRsDq6bNY/fgOsB1WXdFOU13scBewcgQhfPB+yE9+8ha7eiqxXPezBSwroKURlq9IMDiYZv17SSwv5PqbGk2ayJramKlsvZSAElACSkAJKAEloASUQLkQKOU1EvHK96NQGWp5VS61o+VQAkpACfx9CYh4FQSRgGVLuKOigCX+Z2++Ocb/+Je3yGUbqKwqsGhpyKpL2znx+BbiEttKimL55DybJ5/q42f/9iG19XWcfk4DvTsHWDSnhiuvWEhVjV+0wHJZtzFnBKx33s6R9QJs32PFETb/+b+uZPYcsfKV6O8H2QKLAj19IX94bDtYMS69craJaX74WmDhE4Y5PN/mrbcK/Pu/v0dPf7X8FssEGvv0ZVsezU1Zlq9M0dcXsP6dOsgHnH1+yC23LKK1NVG0WSupWJOTIOpp19+3W+rdlIASUAJKoLwIlOY8me9KxutqmlxedaSl+coSkC5phQRhQDZTIJv1qayME0+4E/Fev7Js9MWVgBJQAoc9geIaTOI7ATkvIJP1ScQgkZB0c2KBZZMPQ15/bZj/8a9vk802kYj51DeOcunls/nGRfOpToXY4m5u+6QLNk8/3c8vf7aOREUty1bEGOwbYeWSem64YSH1jYERsDzfZc3aDL+9dwvvv58n79vErJD2meP8l/96AkccGcMy6QunW8ASazMLKxQWEhrKo7s34PFHOwiJcdlVs2ltiuFKIDDjQiju9LHDJQshxu/fCwoUvBgv/3WEO371EX0jEsBdjOuKQdz3aMhSQc1NDiuOrGSgO8vatT7pIM3RR1fy4+8dwaL5oi6KwhnHkLC8KA1l6BrVUyO8H/Yjg76AElACSkAJ7JVAAIFHGIqzvcx3eXN6J9l6MRlt9BBHG44SOGACk89BjQA19a4USne0cviWz87OkC0bsyw7spqGBnAtySilffSA60e/oASUgBIoCwLGYZDAlyhQDmFgsW1HlrffH2LhwkqOWFxF3MQ6KuDZFs8/381Pf76V0UyKmOtTXQGnntzA1VfNZk6bY7ILhjZGwHr8j7u481cfYdktJCvBdcY59uh6bv3WItpmeMbCSwyCXn9rjLvu3sbGrWIOJHG0CtRWj3PLrSs5/9xa4o78trgenJbpJiDAxwpdI6rJFWCxqy/Low914eVTXHFdC22t4EpAeatgBLVQ/rFE2iuPWJBWWLKX3kvDCgIfL/DIF2I891wf99y3iYGxVFHA2nsQ90jAslixooL+XWOsWxeQLoQsWZLih7ct5eijKqIl+uRDaAOwuOKYlsoqi16jhVACSkAJKIGvNAExVZfgnza2JWmYC1h2iGWJgBUtIyIhSy8loAQOjICcWhe/YdaRU1xMmuVoTiKhsG1rwF9e2szxJ7SybFl9tKnQ7nlg1aKfVgJKQAmUDYFIwDKGR6GNV4B33+/nsdXrWbGilYvOn0dNhcS18owF1lNPdXH7rzoYy1bi2BB3AubPDbnqyrmcclILqYTECvcZzTo88thO7r1nA57fgO3kiccLHH9MPbfduoS5c32xYaLg2bzy2hB337uNLdvFHEgssCwcu59rrlnItdfMpTJp4QT2FzqI2TfuvQhYoQhYGR5+oJNcNsnVN7bSPtM+nAUsDy/wyWZjPP54Jw8/2slQJmEqy5l84jWJlGX5NDWHHLWigoHuYdatDUkXEsxsjXHbtxZy5unVxKQVTL4mrzOmuOYom76hBVECSkAJKAElsBcCcoLlBx6ZccikobLaIpUSo45i3ANj2SwplPVSAkpg/wlEm5LJCdGnrDSJQ4CVx7McNqwrsPrxNZx0cgunnjobV9anGsN1/6tFP6kElIASKCsCewhYXsibbw/wwEPrWbiwjmuuXERrU9wIWGk/YPXqTu6+ezvj2WosS2yPQmqrxjn/3BauuHwBTU0B2AGDYw4P/76Thx7qwA8bCMnh2AWOPrKa731nMYsWY9wNc3mHv7wywD33bWNHN3gBxCyX0O/jootmcOvNy2isd41jmpFDpmW+2buA1dWT4ff3byc9HuP6m9uYM8s9fAUsWWh7vkcmE+eB323liaf7Gc27BFYeR9z99nIZAasFjjAuhENs2OCRzldRnbK44ZrZXHFpPamkNIHoEh/M4l8mfjPVti7GZJo1Zqr09HtKQAkoASUwnQTkvC3nFVizZoQNH49x1MoGFixOkYg5SD4bS+JLTs+KZTpf61P3Ls3FOicfVOxf4YeJeDXZK0DWlVM0lTIClk8eif2a4/cPvMupp7Ww6uIFJOSW07Kh+ApXnb66ElACSuCgEdgtYIklfOCHvPHWIPf+bhNz59Ry0w3zaZsZN6GNxvI+jz7SxYMPdJDJVyEOdaJZJNwMJxxbxU03LWTBAsu41Q2OuNx371ZWP9GNH9SALW53HkcuSfGD7y1m+REmXyGZrM0LL/Xx2wc62NlnmVnL9mM4jHLyyZV857YjmT0rZqYZ4w0/LUY9exewOnvSPHDfVkaHbW769mzmz03iipuhxDw/3FwIfYl/VSgwOprgrjs38MKfR8haMQIrixN8ximx5dPQ5HDEsnoGekbZuHmUtJcibllccn4Tt948g5oa8TsVYzqwbQlsVgpaIIv4/a8tidE1+dK0xwdtBNAHKQEloASUwAESCAgZzuR56skd/O2lHs44cw7Hn1JFS2OKeCxuwut8GfbHMjfLfCwClm1/Gd7oACtaP34QCJTWjfKokFBOrK1JXoRTXfkbAStgOAtPPDnCM09+zJlntnL91QuoSIQaA+sg1Kw+QgkoASUwPQRK1roYHaKQD3nj7UF+ffdmZrZWcdu3FzBndgwxiu8MdpeXAAAgAElEQVTu97jnN5t48YU+CkEloZlgxArLY/mSCm66aS5HH5MwOkZvn8uvfrWOv7w8ihcksewCYRiwZF6C739vESuPcXCwGR93eebZXTz0aCfdg3LOYkMuRtzOs3Spz3e+cxRHLE8hYbgOhYD1u3s2MzwIN357LksWVEQClnOYCljZXJ7+vgR33vExr72Zx66swLfS+JkoxXBJNJoIpWUFpKqgraWazEhAd/84WSzcwOGko5N89zvzaGyI0dudJVXh0jIjhhvLF0/L4kah3N+r9MzJaY/VAmt/6ennlIASUAJK4GASkCOXrbvSPPC7LXz09ignnNzKnPkZli+ZyZw5NcQlRnTRcuRwtV6Sck8uu87JB7OFfZWeJe62Io5GK33fCxkfLxCPOSRTXyAhkBGwoLM/z9337uL1v+3k619v4Ds3LaS2WgSs4jO/Sqj1XZWAElACXwoCn3QhzGV9/vZGP7+5r4Pa6hjfuW0xy5YlsW2LNR+P8dN/e48tW21CJ24ONozhTWAze2aSq66Zxde/Xk8yBh+vzfKbu9bx/hqPwJZMgllzqLKgPcltty7g+BMTxGyb4WGXJ57s4rEndtE7HCJKlVVI4QZ55s7NcsstyzjppFrcaZ1m9rDAkvkTi67uNA/8ViywLK771mwWL6gghlu0JjtcgrgX/fvEhTCdybBrp8sdt3/MB2tsKpvr8RljfKhAPp83p6ulk1bTtsWayslT4cYJcknyVkDWyhALYixqC1h1cSuuHbB10yBLls3ghFObqazOGgHLCpMmov/+XrJIljKMjY2Ry+Wor68nmUyar+vJ7/5S1M8pASWgBJTAwSBQCOCtNf385tdr6euCY45tBLo4duViTj+jhVSFhx1WmPmrZMXkOFN0hToYL7SXZ5QErNHRUWPB3dDQoFZYh6guvtyPNekCo/TePgwNZlm3djuNjfUsWNiEU8qLcKAQfFnMh6zfnuGOO7fzwfvDnH5KFT/67mKa68VEUrOFHihS/bwSUAJKoDwIFLMQBhKuwSGTLvDyq93c92AXduhzyy2LOfmkOhzH4vU3h/lfP3mXoeEqQleMrwoSxRQ7SFBX7XLJqhmsWtVG0rV59tnNPPjQVvr66/BtC8vOmHlpTmuCW26ezymnVpFwbfr7XR5fvYMnn+mmf0z0EtGHqrA8j5bmQVZdOoOLLppHXY07Xf6DURbGyVkIwxA/tOjsTpsYWGNjNtfcNItF85LEJPPuYZWF0AhYAXk/z8Coz/vvhfz+oU1s3TZOc2sjQRgwOJCjUPBwHKlVi8CcukYxrcSr07bzZhEu6cH9IIZtZWlqSXPU0c0M9xUY2Rlw7tkzueCSBqrrJHtMJFxZAutzrbBEBfXIe45RPf/2Wj8DQwXOOLGGk05pIObmIUhEsURsqShJEHlg7onl0dG0FEqgvAgEQVjMIl5Uuc0fkTuwdNsD0J8/48VMapDiT8lFWMYGd+ogJjxNPpGiqmifO/XbTt83Jf+VIHANiaCo6UelD3BkPJMYhGbMFIsA2cjJ/xVG+38A8NnlN8lyJ0Iim6KY0OLqCrb/dS51Ij9ST46ZM8XMPJOzeOHVfn5z78eMDdnMmtlIWOjnlOPbueqaVmpqc/h+Bbl8jP7BMRqbK41FSSmiz9+jdvf/HQ7gk6Uua0l79cn7Fq++McCODvjGWQ00NllYlpihF9uoHbWvaL2glxLYG4GSq8fuyOlmSSlx4sxE40djYGibk+6uXVmeenoztc1VnHf+LOpSxUmplOF64hEm6sg+hj+PvA9vvp/lrru3s3HjKCccl+SffngEs1plt1F+LXZ3MA3ZlEXB7OVvJQs1Hbm1hx04ATFFlIy54kLkEwYyVos1hqxPZM+2lzAyEynmD7CP7JkU7AC/Xnq3om2NcfGSDWmIK3KD6e12qdtP8d4Hzk+/UU4ESmOkGQuNXpEzLoG9PSGrn+rmyWd7yOcsrrhsHpddWkF1lc/zL/Tys//YTt6rJJWKMzKWM6Nq6FskXZ8zzpjJ1dfOorLC4sH71/Ps892k8xUguoiMw6HPjCaL66+ZzQVnt5CKW+zsDfj9ozt44U89jI77xrKLMAG+TUUyy5HLHW69ZQmLF8lhiY8VxrFkLxAGWE6h2JATXzAYo6y/QqzQMjZH0p99K6RzV4Yn/tDJ0CBcfvUsFsx3Sdii8USHNqEdzSwH4ik3nW3ACid8//Z4TBgwnsvy0YZB/vSnEd54bZSxMY+WllqCwGJgII3n+zi2i227xOMJI2DlsnkTFA07F6l2QZIwSGHZ49Q1j7P0yCb6utOM7XS44Nw2Vl3eQF29hK51jPWWCE2fvQkTdAajST8+OBzyxJO9rH6ig4ERnzOOS/HNby9n7mwXWwZXgW4FBJYKWNPZiPTeXx0C0QZC+lNRFZLNg9Gfo03F1AWs0g44uv/uq6Q+/T0ErMOlnmSBKAxkDJMAkTJpRKbL8je7JGCZNLsy1hbAJH0XRvtzAPD5HErrycm1cnjZAX3+O07vJ6Q+inUSuviBj+0EDA1ZPLK6m0f/uJVcxiEmi5f8KGec0sZ3vzeL+uYM+EmGBhN8uG4nRx7dSk21uNZHIanLc+0tA0BRaRUByw4Yz1s89Mg2/vbqELddP5sTTqjHsSVUgCy8ROkOjTCrAtb0tsLD++7SqCa5CX6q9csmVRpclBRoe2eG3/5uE26VyzXXzmNOk7hxRPPTgbmxFsjlLV56dYx7f7eDHdvTfO0Yl3/60QrmzJJ7lifVTx7PlASs6LcqE5dnnZVzqcLQJwwL2IjrlBf1IYl9LAcRZnMuga73eIP97hullcUkaXWyiLXf9/nk80vSrY1nlkaBzL2yLg1CHN/Dik2nVUs516aWLTowk71LKbhUgYIfsG6dzBtbeOu9DEEY5/iv1XHbze20tQU88cwm7rx7gHi8garKFD194/i+CD+SObDAkkUJLr18Dq4b8Ogjm1m/AfLECORQ2Vh4eTTWh1x52WwuvXAWlSmLjl157n9gC6/+ZYBsDjxj0SvKkIsdhDTV5bj+mgWcf2E9yQpx7JP/J+t6mcjyRSsB+e8vdixhDHuMgBUdhMvBY1dPgeee2UXPrjyrrmhj4YIYCSmf6ffmrChyoSyT5rRPAWtkPMefXtrCo4910tVZieO6NDVXUFmZJJ0pINYY8kZewcdxYiYm1sjwOJ7nmABmkYCVIDQBzdLUNeVYuqKBnl2DDHbYnHFaG1dcO4OZM2xsSzZfn6frlQQsoxeyq7vAvfdu5YU/D1Hw4rQ3pbnte0dwyqn1OEa0knvqQrlM2poW48tAwOxVw6LxzyTBSmxlZWqwpjq0layIBNLke0z1fiXYnz7FL/9qkAWi8ChNUqUMW/I7+btY9UTilplJLfm9iFhylUSsqbxlKQ29TFhFtWSykqUK1gFAlTopCVgO4o4vFljd3Rb33L+LZ1/oJvDloMUlzGU59ug6/ul/m8nM9gwELls3VPDm29s59+LZ1NZJhhqp6j0z9h5Acab1o2IJI1NtdAgVWCFjOZu77t7AM0/v5MoLG7nuhmVUVsqmQvy6VMCa1ur40ty8JGDttiQysa7M3iDEdQuRmBTEZa/A1o40v75zI6OFHN+6eSnHLK3CcUTAKoo4+6s8hR7pnGxeerj/wV0MDIasOCrkH35wFIvmVTDlKW5a66U0z0VyVbTbKM4PpcOmMpW/pxWL3vwLETB9x5w0SIaE4vht/i7jvR0dXEb/UXzO/ipPpbVMKdBPcZ13oLfZ4+1KKxhbrFXC0AjR/cM+FSmH6so8jvEr/qJryi+EVL98iAhEnliFoiAUWUhlCvDG6wPcd88mNm7zCWyLpnq47MJ5LFse8v7HO/n9YxlSyQZqqivY2T1EviA2fRKQvUBDfZYTTmhgfGyc997OMTJeT8EJIv1DzILDPNVVIasums01V8ymtsZi07Y09/52A2++lqbgufhiGihr+NDB9hNUuAVOPaXWZDicMUuaqwSDFwMBF9uKFY0HSgf7U1+Uf0LAknUbATt7C7zwfC+dO9KsuryNRQvjJCSEhS/C72EkYInLw3g65Jlnt/Hwwzvo66vCiYU0NMWYObORQBbnAcYaK5/3TKPI5QoMDowyPiYuhX6k1EvqxSCGZWepbQxZcmQTPT199GwNWbmiietvbGfRIgfXljuIgLWvwWWSgBXCjh15br99M6+9kaEQxqlNZLnqullcflUrVcnI6sq4N5qT3nI9vT5EvVkfqwSmSMDIJT6k0z6FvG98wWUzYVsSD+8zspN+7rOKbnPmc8bgO/rGF1zQREpMyXZ8z7GlNAl8buEO8gekvJPcAiVjq5nAZEwtEApnI1TJ+FaMO2hOREXMmsTugEodbRZlGhNzZXPUUqqAknAy9bnygEry5fhwyYUwOpgRi2GxTN7eEXLnb7bz8muDWJJ9RhYGBZg3x+HH/7mNo1YUcAKXl561efvdrXzzO8tpaRXnTTn1E4FofzcIB5OiiKcll5LowGhgDG7/DxGwujn71Apu/d6RtM9ysI3ra0noUgusg1lLh+ezSltSGZ8ke7VFLhuQzRaorsXEKRFLEBGwtmzNcscdW9jRPcrNty7lrJNqiMUie/3I7XDSnLKvbhT4jGd8Hnysg98/0ks6G2P5Eo9/+OGRLF1UHcVwL7fLiHTFQ2Oz2i16IJhT+9KcWo5jR7mB1PKUCEifGhryyGUsmlvlcDKPbSWj5iTGWKJtmbAvYhUerVfM2qF4QLHvHVdJwCqJ03+f9d6EXVdRz+3uyfHSKx3Mm9fIyqMSJBNiAfwFrPm1eRy2BALyRQFL6j+OF4QMjYY89eROnvjDLvqHRd7KEbctWusCVq6ARE2c516UmFcV1Ncl2dkzRM4PCEMXJwxobPBYvqyKsZE0G9bBWLoGOyFroGxx6xGQTBW44LwZ3HjNbBoaLNZuTPPb+zfx7ttpCjk3smpycsbl2/IriROwaAFcdtlcVhxdRywRGksxN+ZSkXKJORJGpHTAPfXq2FPA8vHp3JXnhed76NqR49LLZ7FoSYykCFhBUcAqGq+VyxT4GRZY4h8qApbNU8/s4NFHd9LXG8eK5WlqTjBzZh22MSON1HNZVIShZCUMGBuTrIUBI6NpE/NCVENzYhbkqK13qWtOmEwxo/0OM1vjnHNBLWee2URzg0tMQlYVMzDtvVqipYhs1ILQYvPGLHf8soN3Psjh2w5J2+L4kyy++/25zGx1cSUPZijm5VFK7y8iYR3wKd7U25V+UwmULQE/DCmEFj19OV55ZTuFrMdpp8yjfZZFzJVYPVNbHIg1pyyEioflXyjocyn4temz4oInBxwSVLEUo2tiHV+eAlY01kiGV58gcBgbChnoz1BTnaS6zo3CCIngb4MjJsB7Cn1T3KdIXEHx2bcsh1DGTc+KrGxlgRoTU2bxww9N3RyuGfIOTseabA0hLKVte3gerF2T4fa7NrNmQ9bMS1K/ThijrjrDrd+dz5lnpSikLe759S42berith8dz7JlVcQkHIK0CbN7LjclsRQTJTrVFAusnoGAX/zHRl58boSliwN+/E9HcMTyCpMa2irGTpHPRS6EU2ywB6cy9SmHlECpL8ncICt9m9HhPEPDWRqaHSoq41hBDI+AjVty3P6LHXR0jXPttbO45Jx6Kiokfs9kV8SiD8S+mlwIg0M5fvf7jax+epR02mWZCFg/WMrypXUmO1XZXbKfIU/gZPBDG9+PY/mujNjYkuXKLbcxo+wIaoH2IFAowJ9f7mDbljEuvWIhtfUBMStljLFkyB5JF9jVm6ayIk5To7jD+9gSy0f2hcYq/LPbnMyJsl+UtUTpMns0EcXE3c+dWh/bU8Daui3Nbx/4mLZZNSbYtogQtuwL9frKEZBDRAsJYxAJWLKP2d45zr33bOaVv4wRkMJz8kaETVp5jlxm0b6ggaef20lNRT11tRX0DaUZHB0l8GPYoU19fchRRzWQHsuw5v0xcl4tvohXVoGYVQG+hRVLc8YZdXz7pnk0N1m88+E4Dz7cwYcfDBEUKkx/8Z1oPSgW6jEC2ttCvnZMDbXV0tdcegeyNDbVcuoZM5jVZpMQDzOxZv8CStInXQjFJMmnq1sssHrYucPjvAtbWLmygpjxZovchaMsjFFMuXK49i1gjds89Wwnjz3WSX+/gx33aGhM0tpch+tIQ4jU88hqKvq7WGV0d3sMDo4WB7HIIiAICtiOj4wdfhgn9BPYdpb22R7nn9fG6afOoKUxTkwOZ/dBJjLI8Al8i4/XZLnzzg4+XJuNzPBCl2XLCvzwR4s4YkkFTiRtElpiai53ndrmOtLMotTgckWxfqY2wJZDpWsZlMDUCMgQ6zGed3nltQF+/8BH4DtccN48zpJAzfXxKbsQSgr00sZgt9Y8Nfe/krgif2bTISODBaqqXSqqotTqIpR9ETF7auwO4FtmmIkSVRRyDu++PcSfX9pCW3sLi5Y1EEv61NbFaZ2RJBmLogZORFwvHWgewOMmPmqCnkZWWIHv0NcbsmnTMKHjsWhpHa31ifI0AJrKu07rd/YmYBXw8hbvvDXG7XdtZHOnCD1m12mssKpSeVZd3s5xJ1WzeeM4TzzcSdYbZdWVi1i+pIGZjRU01tu4rlg5lsvyoQSxGAPLuCz5+FZAZ7fHL36+nldfLtDe5vD9f5jHicdXErfllD5KDyeLoWj9oHPptDbHw/7mkbVGScAaHijQ3T1GfWuSpkaJ1G7hBQEfbxjn9p/vZMfOAqsubeSqi+qpq0+YoLdWadc9YbW6DygB9PXnuO+h9Tz97Di5QoJFCzP8p+8uYcURjUYQKrtLDokJSXseQ+MBPTuzZEeyLJhTQ0tzCvvvExqx7F5bCzR9BMbGAn73wAbWrunjR//4NebMd3CJY4vBArCje4zX3+ykpamGo49pojIVYIu3jYznE/EO914+vwB9vWMkkzGqq2UjHvUpEw5owuX1wN9tt4AVzUkbxMjhzvUmG+53f7CMpYuqEMNnvb6KBEphHaQBuOQCWLtxiLt+vYkP3hExNYHneITEiAVZViyrZmZ7Da+80UFTXQO11VX0DIyxs7eXghfDClzq6xyWLasjM57l44/GyXlJQnscxw1w/CRh3sFJBaw8JsWtN8yjtdXihb8MsvrJTnbuyoEvyeYcCkHBrLxFV4g7HjOaHRYuqCHm5PE8m60doxT8GJdcNp9zz66hvjLA8mNfRNKIkttNxMDaLWC9+HwvOzoKnHl2I8efUEPcKVpWioGBJaUUAas8OtF+CFjbefzxDsbSKapq4+bEq6YigWsGqKKANeG2YpHLwa5uj/7+UbMBE2uI6NQ+MuUWy6nQFo1RRK2QuJNh4TyLc8+cwRmnzaClRYStz+5ckYTk4fs27701xl13bWXdlhyBW8D3XebOyfHd7y3jxOPqiIU2ViCbVgkoL2WdWl7lyRvi3e9jfyErka/i8KHvfLgTCPDCPDv7bR78/XZeeGYAPJdjj4lx/Q2zWbqkJnLpmMKVHffI5wtUViZwxBTT3KYUC2pqfVf66o6tadZ9NMDcebXMX1yDG5fNTOSOEsUImUJhp/srJoa9pLX1GB1zeO6ZPp58Ygt2IkVNnUxwWY4+uoWzzm2jod4xokApi6sp2hQFDhPGTMZsK6CvL+TFF4Z58cUdBLE0l129nPNOriaRmNoYOt3Iyuv+k9xWjSummADmyWdtXnl5iNt/vZHuwQpCqTdbDmNCEk7A0qVxGltDNm7w2L4NGloCVh5bjV0IWDCrlrPOaqW1NY5TbhYgpV2DaXsiYPls3p7jFz9bw7tvuTQ3VfDN21o466xqUq7M/LJok/WAWPWVb2j68mpTX9HSmLOGkoAVBWwf7C+weVMfjW3VtM+uMot+Lwz54MMBbv9FN53dIeeeXcmNlzczo63StDMxG4ksPIrtbZ8uhNDZleae+9fyymuyq65hTns/t31rAcesEAGrPBbvk1tEUICRMY/1W0d55/1xNq0fIzfWz3nntHP2We1U1XzOyfBXtHnpa3+SwOScXn19eX5913bWfTTIj//Lco5c6SLRGE1GNALWbx7lqWe2MmtGLWedM5v62sC4v0cCVgYQ65K9X+nRkNdfXUdVdQXLls804WncmIMbE+tu3yQGm8o1EXEiWsyw5uMsv/j5VnZ1j/Ctb7dzwbmzSMbLr/9O5V31O1MhEMXqFdvvrA/vfdTHr+7YwKZ1MVw7TsGJcri64ThzWhPU1qTY2T9KW4sItJXs6h+ms7uXvBcj9OKkUj4zWl0KWejeaVOQ/hEbpqrKJsy65MdDiDvMmxfjikuaqa8Leea5fv721gh53yYVTxo393Q6IOdFub/jboHKJDTXV1JTHVBVG2Pbjgw7d3qsXNnMTTe1csTCOGJfyxQtFYXcvgSsjq15TjmtnlNPrycl5v/FhFGSzCESsMrDinEfApbPWNri6We6+MMft+EFlTS11BGLuSaNuyPR8CcJWMZbR9yLCtDbX6C/f4xCQRbu0lSiFa7EyzLZBh2HwLIIfBGYfFKxMdrbfC6/bDlnnNlERYXYdEn6SNnIymATDUsmLbDxB/IpeDav/W2Ee+/ZypbtXiRgBTFmzSzwrZsX8PVT60nJIGgErMmR+w+00UduTYVCiAzoA0M5KipiNDfFqayU4PPFzfCB3rb4+dKAu7evl+PeeoqvqV87iARK+8kJp9liI4uy2X2e1enEEmCixFEWJ5M7lpyf4/V3cvzm7k1s3uSaoIOL5+e5/oZWTj65mURiz4FtUgsvxVIydw4iCwxJAuGFvPvuMNu393DssXNon1OBI6fmxTS0UUyFYhaOiWh28t3IgsPk+vCi5ziuBBYN8IOQ8VGPt18f5I1XOll+VCMnn95GZRXGyjMWi2HLxsio5SULkqJwJicNRWUr6oO7e2L0lCguy27L031U7u4V1aSTxc/o2aXP+nLSEVIIArZ3BTz4YCevvjJExguw3SwxP8vKFfVcd+NiFi+pJGHc+yyTTCOTDvE8l1QlJBOWiUu2W9yaZHlmTIGLFjCl1CJh9LucpJB/e4SH7u9i7TqfvDXGSae38A83NxtTfGtCeChmQdxrkOBSoysFfJUNVNHiaGLy+1RL3TtI0wAj4rtrpijaFS1hP1FD5tHF3+wVdWk+kQOV0DQjx55sCVSKG/PJuo8KV4rJsw9TN2OpK3UYBVKOlkQFMlmLPz0/wK/u2szwWF3UEeXETzIUEpBMjmNZObLZJnwvTrJqnJYZMTIjWWpSFldePZ8zTm8yi5votYp9LcqDHMVQmLZx5tPjQulRQTFcm7FysQOxj+bj9Wl+9vMPWP9xisb6Sq65qYELLqynMubjWCUBS/q4XCUL7ugtdmchnfz7PV+szK0op60evlo3jvq79PUoC6scgPb3Fvjwg15mtlexeFGdEaZkrHztnX7uvKObnT0Bp52c5JbrZjJ3biRgRe7jkQuiuec+RP4wCNm4aYx77lvPmvU2iVQdzQ2jXH9NGyccW4PrTo8508Q8u3vmnTT3RCQm+ndR2JM/5DC3tyfgjbeGeOmvW9iy1SczniBujfH1M+q59tpFtM+Wg2E5TI5WBdGwOdlysrTMLiYFkTHFrL+LY0ypu00q5N+rB5bmVBkl83lIjwX4voUbD0klbeTMRMaWkti9B4mvVoeYlrfdPbZHAlZg+tnWrVl+8ctOdnaO8/3/tIATT5Y2JfOkg+f5vP3eKI893sGi+TVcfOksmhotHGOBJQcz2eL8FP/E+qMYBIbhIY8/PPoBIRXMXdhAejzH3Dm1LF1ebUInSLDqz7xMwyutHT4pRk3MhJJBEXhvTZqf/7yDbVvHOfHkFN+9ZRGz2yuifWnRZTF6TmnOn74ZdFqqTm96gATkUDzSITKy71jTz6/u2MSWDTaO7ZiMgBLD07EypBwP1w5IVCaZ09ZCwk3Q0z9E7+Aonh8jl7MJgxzxeAH8GIV8yizJEhVpGhvi5OVQPiuzT4JYLM1Ry6G1NcWHa/Js2SZZqRPUN9TgOh4DAznG0sXkJGZNWDDC0YyZMHN2iu1dOTq2BdTX2WYeuuicZioTthGwSj1hcp7qib3fPrcmYoElc2I05hfCkI4dBV78Ux87OjIcd0I9Z53dSFXSmMtH3IqWzPuOVX6AVfIFPv4ZApZocwUD9OmnB1j9x+34lk1zcwNxR9xIJGjr7lT30WlqNHT4QcDwWIaenjSisosAJfE/zGYpiBFSVOhl42k2xvKvHI6T54QT5/HNm2cwu90hYWWwAnmWBA+TxUspBL6IUR6ZQoI//3mI+x/oYEdnSGjbeKFDS0OWKy9r5ZKLmqmpjBWDjxUHp325/U3aZ5sXkceZ2CUhhTxs2jzGSy/3sXFzjto6h9NOrjfpNqsqQ6wp2mebbG5mEVEKzlNawEdNUhrJdG5JvkC70a+WMYHICUyG6BDbpBkXUQfjZivtTSTovU/Tpc2j/BmdVBf34sW39ekZyfLQg708+Ww3o2kLN4zTUudx1VXNXHThLKoro2B/u6/Shj8aJ42Sb1q3Z/qxF9jGHeSBR8Z47/3tnHPOHFatmkl9lYUjp+VmmJETvWKmjmjXD+QglEQSSUYzITu7RsjlLOqbxbKlQP9Ahm1bcrz1WoZNGwaZM9/mxJNaqa6wzcA/Z24tTc0WsYQsuCRjiARQjBdfW6yQIoEiyosaxU2R4stJvwz2thWYDHJmIN8bzNJ4Ulrll1JPG8uvkvAwCVPp8waXR2gHpHMWr70zxr33bWLbNgcvsHCcAjGvwMyZNuec386RK6toqIsRs2Ps6hply6Yx0pmQxcsrWLykivqqRBRc37hBFw8FjFe3RI2R5BsuVhCPIrJa4gXvs6vP4bkXennqqZ309TkUvBytM1x+fNssTj29iZiTBl9OV91ivUjsLHmn3af8ZrwXZSgoxm2SIJASqNIMbcloA2UELfmJAp3v9TInI5EIJrjkGO4AACAASURBVHUiOmUgAS2lSZh7RO00qgIRo0Ij5HkFy4ipzsRec3IlRRYdQmB83Keve5zmhmqqq0VYKS4HxDqqZFk8sb43LaD4Izf+jFPi4tRYbOpIRiRZxoyMWzzx3IDJnJseqyy6Ikk/KAa0NVmewDYudlH/sM3cIjFBMpxy2gxuunYOs9tkgSXpj4tpzG1jfC7HStN4LlYSH4txL83cGCnimUxguCdSkn0nwPNdXn5lkF/e/j7dPdU01cW58ppmLl41g6pEYGKQTEiRstEIpP6cqE1IPzeM5T+kr+zRLiaqsZQmUzccZTwVfeGimZVfFIbPiPrSa3f2eLz26iALFyRYsazRHCJmvZCnXhrg7nt3MTSY54TjKrn1W+0sXpxAQmDZJgitWP9Hs6NtMrzu/fJCn/feHee+e7bR0ZsmVZkkablceskMzjkvQUWi4nOSDU3ttSPxYPdYFt0lyiQY/VOMGFccokKJeWXB9k6P5/80yF9fHWVH5yiB2ZRIj8qauHO33LyYFctTOLGigBU4RswywYx8u5hlLnqWxL71gzyWuPpK8F4rEvzsQPqnWRSbQ5/SYdj+bJQ+i8buKVJGR99kfvx4zRBr3hsjk3GoafRZOLeaZUsqzcbNtuLm9F9Cgthm7NW+P7WWNvlbpTVftL+KVo4efujw3rtpfnZ7J6NDI3znu4s45+w6XHNmFZLJBrz81zSPPNLJkcsrufqaZmOJYuIbmg4r4/MohNXRHswc6Ej7E0tIm97Bce6+s4Ot20O8+DBDPUmOP7qVH/54BhXm4G0fFlhmLSaHdnJ9+sDUZEY0cZLhnTVj/OyXG9i0ARrrUtx8bS0XXTQLV+Yh8y7F9Z3JrCgs9nVo8sVp6x0ONYFcsY5d0nl44+1B7rprG9s7CsRiEhrdphDIcWKII2t2f5zGhhRzZ7XiWjbDI+OMjOUIwjjDwxnyYqQjuwQZJ0O5h09dXYzmxipy2axZ24yOhYyOjZj9RtusJvp60/R0Z4i5FbS0NJr+1r1rxHwuDBNmDeWTx41laW+D9tl1dHTl6ejIEXOynHlaDTdcuYjZbSkT1skLZMVkYTsSozaSlpyik9++Ix1FBgSRMUGeXMFizccFXnqhn76+MY49ronzz2umtqoU47SYQbo4LR3qmjTFCCfbjE6USAQsj5Hx0AhYT67uxLdDI2AlHNl8eGYztLdLhoB0zqO7O43EKjAnPkbwklFH1PgoA1G0KbTMHkHuF4RZZrVXc8u32znh+FpSTknAkgExOn0zsIM8gS1pjhM891w/Dz20ne5euY9rNjcViQxfP6WSa6+Zzbw5Vbt9Nc1Mu48Jbw8BqyTISRl37vJ47PFtvPxqN70DBeIJWLm8gWuvWsARR6RIiEnqlOZSWUwVU61PDMRRBrJoI7WPjV05tB4tQ1kSkN5bakMmc5kRF0ICScdqtrkSaPOzGuxEIuJIEpCNatHkVpIxvPnBIL+5ayPrNhfMncRFt66iwMXfaObyS+fQ1BA3fXp3kO+SO5UsXvJmgA5CF88LGBvPkc0X6Nixk4ceyfHhB/0sWVTF936whCOWVhGXMvrFTHvungKWWIBCZtxm7YYc77zTRXd3hpr6SiPOdHaN0N0VMtjvks0VSFVmaG1JkXBsE5Rw0eJqTjptJkuW1hGPeSa4dJRpIxJydgtYpQVNlGZWJgvhIAG5kzHbZE+dGFYmTgVLZyLFxZFhXeJQ3Jh/ouVM7Eii34ayMbHY1QN/fLKTJ5/uZGS02vjmy+mk40laaI+Zc1waG0OaGipJuJV0bBmiq2vMnJ4uWFjJKac0cfzxDdTXRVK4GW+NlUxkUhdZmYkQIkJhZL48Ml7g9TcHee5PvaxdX2A87RD4BVIVHjdc0cDV1y0klchiBamoXZmNkBxQiGvBZDcVCUAvry3m0T4xxyFeURSsgqKAZe+PgGXMLszGU4J+j6ahc/soDbUpmprF7DuKsRjNEYHJmLRl8yg9PSMccVQzzU3CrLTQLbX5yCIqHwZs35rnpee3cMQRbXztuCZiMVlgF7eRRsAqmi1OTNqlOArFLJB7GwE+JWBFbPuGQh5+fBePPradXLaiGPOttHAuZnGSGUui9BsLZxGGogOfgDHmLUjyzevncdLxtSQTYr1cFIvtyKx7egWsUpbQiPeEW70PgwMehYJPfZNFLA7prMtjj+3g7ns/Il9oo6E64LKrmrn0sjZqUsVteDGLVS4TUsgFVFSI2FjsS0atKIItbZon+JfqcOIDZTkGa6H+PgR2C1jR6a8s7XfszPPiCz0sXVzF8Uc34roeYxmXBx7bxf0PdVPIh6w8KsYtN8/lyCNSUQKESQJWdLjz2Rtkyfj0+muj3P+7HQxlA2Ipl8xghgvPa+GKaxqorYjibv39r90Wqsa4uHT4YUTd3f9puoccShEyMOSx+slNPPtcF939SQIJoi3WpIGMCDkTDPjWW5dx8gl1xONRqvZowxW558v4Esi9AhNCmKHBAjs7M8aVq7ktTk0dxgpBxHJzoGSmjMhCuDR/fBGHLBEizGoltNmyJcv9v1vHh++M4XspklVZZs9KcNGF7Zx4YjMVKYlnK9NYrihAfpEn//1r7/C8Y0nAkgYWJbySODeFgsOrrwzwy7u6yI6nufXbC7nwgkZist4JQ8YzAc+/MMLDv+9k+dJKbrixlTlz4sW5q7iMMQGzo/Y2cRUtObp60tzx8w5j6Z1zhvEyjcxrj/Hf/mUhM5ol0Pq+6jY6qBKPHhFVo7hZxUssqicELIu3Pxzlp79cx9bNUUKDrx2Z5/vf/xrz58eM0URUNtljlvqXtqnDsx3vb6lFwIoOW0fTAX96qYf779/GyEiM6pqkWd+PjHvkCuJlFhoBS9bXc2c1mT2CJKcbGc0RWnGGhsfJ52UclAM52fTkSaVEJ6mkqbGawJMQSiG9vWkGh0aJJ32qqyvJSvb2AlRX19DQWIPn5dm1a4iREVkzy95MzvkL2G6Omc0ObW217OjOsLMrh2NnWL4EvnHOfBYvaCBeIQHe88bjpLUtSUODg2uJkYJbjNW9Ly5FAUsOWK0CmTy89U7aWGCNjuVYeXQ9F180g4baaD9p9JtSX56O6W9/q3DS5z7ThVAWCsOjPk89NcAzT3cZU7XGxlpcK4YlG49SurBPPdQinQ/o3pVhSAQskcHtyWm2ZYAoZqgw6p/8eOaelZUB11zXyqpVs6iIZ7HFAssMLtGgFOWbLBBYsmCJs/qPvTzy6DYGh2NYjkzE0iwLLJjjcf318zn11EbisiEx/ptGKds3ogkRq2gZJTkLsvDX19Lc+9vNdO70yYdZXNulJpngootauGRVAzMmNkkHWgOlDdwkq4ySi4pZvOxHmQ/0kfr5Lz+Bohl49KJFFzIjzBR9ffZxelkSbqNzYN8I1WZzHLpGyH3kse288KcuRrNxE6xZ9JCKWIHTTm3g+mvmM29O0liWfFrAkvuk8f1KxsYdNm4aZltHH4lUnExukD+9CJs2BKTcHNfdNJPLLmunKu5j+Umj/YTSj43YG1lliPAr5dqyJcejf9zOxg3j9PZIeWWR7ZHNiRVOhRF9ohh4WRxLzt2TRpCprBzna8e3cOml81i4KEncEYuq4uJFBBkj8Mg5hlxRvB6xShW/9U2bxhjs8zhyWSN1tY5ZQJWsNXe7mJUsVCeL0KUdySe2IxMB280ppdjNhTA6FvDGG8P88YmtrF2fNS7clpjVy/80llg+jivWqAVcWyatSvI5h3zew3J8krGQRQtdLr5kBscdX0NNpUyxkua1ePJu0qxHJ6NF8yxjwbZ+wzB/+OMW3np3nNHxlNlYiKWTRZYLz63m5m8vpale6r2YcdKcXEaZSczGyLxiJNaFgcPwcMDLL2+kob6O405sJhYrmM1QFCcjsoaIMld+xtgs9/MDAicvCV3YtNnjuac2M3tWAyefNoOmBttYI5lFdwBbt+T54+Nb6Rkc4PIrl3LC0XJqXDpZLcU9M84qJojnmvdy/Ob2D5mzoI6LL1/AjJmSptgiIeJkKdbNJ7SS0oJ/Hye1xc+L4CbvZbaafkBnT8B9D3Tw/J+68AvJKJvjxJtHX4oWQsU2W7RalqyQfpChsirDZatmctml84zVXdReozhakaNVqb1OxxD3SQHLtGBjDRfStSNPJuPTPsclWekwOGTxu/u38djjW/GCFiNwX3ZVE5dd3kZdpWyAooMrzw/Z1ZU37iOzZleSSsmUJ21okmhoNu+TrASK7Ww63lDvWX4EjJ1dyQJLxmArZNv2LE890cnCxdWcdfoM4rEcPb0uv7qni+deGDIi/dLFFt+8cT5f+1olCUcskaMxRixbIwHrs2N45LyAV/4yyiMPd5OzY0ZY7eno49yzmrj+W2001ExPHEA54JGyB2HkniJjpBuT+LHiAhkdOETu2+LN75LLw19eHuCBB96ns1viU1YSiJWSHDpJHwvyNDflueXW5ZxxWiMVicgNLzL0kjnOJ5t36ev1GR2PrGM/XjPIe28PGMvPBcsqOOb4eubPrqAyKQJW6bAmGvMjG0iZB6a6m5H5Tg7CAvJeguefGeDe32xkeLACy04SWhlzIH3WmfVce50EQI6yboVWNsqKVSaBhMuv1xxoiXYfWppkVZZv1hLPPbeL3/y2G7/g8a2b5/KNixqJO9EcPzbu88SzAzz8+67/n733AJarSvM8f3lvevO8t3LIIoQRRngjBKKwMoDwVNvtjeno6YndiImNmNid2Y3ZiJnd7p2emOqqoigDFMJ7IxAIIzwCBMh7Pe9f+sxrd75zMiVVgSigi+6iRlmlooB8+fKee+453/l/f8Ps3rhSzghTTmRYlSJA7Q1Si8i+XCwEcG2fZNJEAjEPHirx03/s45PPStiBAr5TT0OqwH/4j7OYe1KiwrD78usQpottGYwOl6hvjOhwniPmGLoZqBlYAT7YmuHH9+7m8EGZvy6RcJYbrpvF9dd2Ul8nPl2yuETxFLx1IlLkm86c79/7dQqh1KuT6TJPPd3H088MYphJWluSlG2fodEspbKv5rLvlGhuSNDT1aBsTTKKgSUpgxrAEmshzxd2alCt03W1EfU5sahu/MpnTE6WmJgUVmmxwtyV9Nw4zc01JFNhXFckhAXGx4uUBF+ThqWcrQyHVAySiSCZoks26ynQdc7MIKfMbyIoa3gkzIG9RWzbYek59Vx0UQtNtYZq2ATkWfxKPLbS0FDPvEOx7PPu+1lef22CQsFm3vwE113XRXO9fCd5r7CWvy1Z57uZKV8BYHlMpl2efWaYt9+aJhQLkUhG1HWYZpV69sUvJYtAviRJhEXSkyItCWAGpcD2cZ1Kel9AmBiabqqi2ZXJrUc4ZHPVVY2su7WHVLys4sUV6ncEwJLCVjZej6lMkCefEH+uAXLFiAZVpaB3oTZpsfKqFq6/vp2GOg1gKSDsK81vj16T6kIo5onB2HCZB58Y56VXJ7GcMA6TGH4U04mzeAncdmcHi+emdDy4FBlVaUWFvaKm43GBM/mdFWBO6UslLVG6YlIU6K7At64Nvpv5cuJTvwcjoBRXFclFFUxQ+7SwVZSvxfELzirsYiipnGZaeoSYygR45ZUBnn16hLFxHzcQwqVMwJdOhc3C+bXcedtMFi9MqqQ07TNyLPPIw/PKZLJRPvhomtff6GNyqkRPTzO2M8nnOzwmRmsJ2BZnLrP4679ZRHO9LMQRDViZGsASlo+kUUnRW3YMNm0a5YFHdjM9FcSxEurZEXBCaLiyUanQCAHupOPsifWgAGKyqhdI1bhccUUj11w7g+YGWYkqgECV8alYRbo0ks8QacnwmM3zz+wkMxXkxjUL6ekWQF+n9+nHtbpjVDy+VHkv3/nY5NIqG6vCZqmAY3KFrhtiZLjEgf0l3nsvzQdbxphKewRMDSTJeiobpv41sk4pfEetpYYhhxeRntnIEp2M2Zx+WpKVV3Uyb16CeEyo+fq+Kj8RkQ5Wr82B/r4yG185zJtvjTIyHsGRbn5AqNTyqxzmz/O4+88WcvL8uIacqmxadZjRgI7CilR331c+AVu3pvnxj1+js6OFH/7pqXR2VIEXQx0m9bhVZeVf8nAp7MLBNYqUXIPNbxZ58pGDhEMGFy9v46Lzmqiv1WDqRNrimWf6eWnDOJ7pct31PVx7eTs1yapxf7DCAK4AWK7BO5tL3PuTbUQScNb5HTQ0BKivDbB4UTNN9VG9/Kpx/83vpi7zeI+Rpgurw7YeE+kWy8Hb5t7797NlywSBQEQZYToCzqnzg+wdMleE3WQSMEsaCHaD+F4IzxM5YZrzzqvnllvm0NMV093wCjD9LwVgiVxz356yMiGdPT9EPBlicNDhFz/fx+Z3p7CdJA1xj5XX1HHD6h7qk5X8mgDYjsf27WmmpnKccmorNbUy12QEZN+v7KVqQsk814f4I9LCE4fX78FO9E//ikeEolIqVQCsA4fKPPHoQdp7klxzVRepuMP27WV+8vM+tu+SNaXEnJkmN984k7POThEPVVKUjgBYGnY53qtYdtn0Sprnnp3Ai0QIBH0G9g5z0flN3PHDHhrrpW79Ll5l1ZgpWSEOHbawyjazZtYSF2luhZGimzjCAjYZHQnws3t28u77k7gSvm4EcBV7s+LP6Fg01NvcdNMcLru0mZSAx4q1ImuTrTxPBoY8Xn99gExG16m7dk7Qd9DG86Mkan1Omhfh0gs7WHp6A4mYCnzXth46kkkzeL+1cFk+o6z21alMmAd+eZiNG8bVmhGQGkIAB8NRITG33DqDOSclME05bJVPAFi/z+lXLRgrzFp5zgoFg+ef7eOhJybVGeWWW7v4wVXNCsCSv89kHZ7bMM5jj4/Q3hTk9jvbOP20esKmsOTkYZU6xVPM6XTWYMsH4xQLec49t0slt+3YkePn9w6ybYeFazp4TpzaWIF/93/M5tTFQlw4vgG8R5n0lM+7mw9z5rKZNDRWvTj1vBTwSgFYBHj34zQ//fkeDh0IKmaK7DlzZgW4fV0Py84WT2c5TwZVjStPzYlIkd/nxPpD/CzdBJdaa3SixEMPH+DljaPEkkna25JYNgwOZygUZJoHQOwzmmrp6qxTuMf0dIZcoYQZilEoWliWS6ns4Tom4RA0t6RoaY4rf13fc5S3ai7nMjaWJzNdVr7fEoTU0JRU4GswpLERUSmMjmZJZ8qKXSvScMESFGRkiLWH1NMCkln09sTobq9jZGiUTBnSE3HF9lq42OfGtT0sObmekFhryJ5xLPmxQjo6ikdIdK0Gf+V8UyihrB82vyF2LC5z5ka5/rpOmhu0Su57BmD5TEx5PPlkP1u25IkmI8oUWFB1QdBlkL/0FYCi5TI0lCM95WIaQaIxSRx0KeRtBVQFw45KInJsQSmPdrJDQYeLL2rg9ru6aW6wVNqF8mdR8mzxU9FOHyKvGRmHRx8+zEsbRylZMXyRUQhbwDcJBV3OOCPBulu6mDvbwJSfM8T59qtOHOKDowtnzSgQmqrB3p1ZfrZ+kA+3FlTGq+dPY/gJsGN091rccns3F57ZSDT8zUsaFVkvm4cqOuSgLehwSR/S0Qec44Nff4iLw4nv9AcxAoKoCzuiUrBX0/xkUxfvCMXkOU4J/hsAlrCcAi5lJ8wHH+VYv34H+/YEVViCBpUrgKtv0dtdw9239XDWGSlC4Uoh8RsAlg5C2LHL5uHHDvPJZ9NgBGmoi2Bb00zlfMr5JlH/MW/BFP/Lv11MV1tUJ20IYGUIRKIBLF1G+4xMeNx//142vT1MuRxVsjbtSVVWZtjSrfZ9AXVkDdFeQwKcGwLMCCjml1m0wOZP/mwJ8+bGVE9XAxbHSpZ1x943ApRsn3ffm+T5Z3dh+DXcfcc85s2LYJgaIFNroiT0uAFVKEWiAQwl16vybLSMT4OKFRaquhbhu7q4nkF/n8dzz2zj0MEy4xMxJqcDlG1hqJYqwRYB5UeoSSr6QK/xj2ofXJhkmk1m+j71NQEWnlzDWec0smhRLc31YQKmo2Q1GsCSVUhSY11e3zTMpk0D9A3alN0UXkDmioy7r8I2Esk8d9x9EiuWtxFVGFql8ylKz0ofXgNY0qDwKJYjPPZYP/fd/zEdHQ385V8t4ozTalSpqLpgAnyJn9hXAVhKem7hBFz6hz0ee2SIN1/NYNkO3b0eN6+ezVnnNOMHfd5+b4QHH9jPQH8Mwi6nnxrlthu6mT8viRmSeyTdY73WCshZtAK8+EKWB+7fgR3waWyJ4dolOtuCrF09j5MX1BE8ojTS91At177KITl+c0EBWHJt2h9BOYs4sHe/xU9+voeDh8vU1NTguQEy6Tx5YT9IxaLGQdiOHrGkTywWUab8IovU5st55s+PccutMzllcZJoSLO71Lz+Z2ZgVf16rLLDts9z5PM+i06NkagJs2+3xT/+aCfb95QIhGMkA3DJ8hg3r5tFY62GiWXqSvH3/gcTHOqb4NwLeunoCBMy3AqPTJ5PAfC0W5YhAHbFQPSIN9Y333L/IJbnE1/i64/AEQCr4nvj+sLCLLP+gX0kGsLcuGYWLXXCRJrg0afGGJkMY5WztDV5rL5hJhdcWE9KPJulUFc1lgbbvypDKZu3eXnDBK9szOBFwhhhGN4/xtlL67nrT3tpafwKg+mvf2lffKcv0hSbfCnEa6+Pc/DgECuvXER3pzwXBgHVwdB+eSqFe6vHj/7bxwyMRHAlhlCxy6oAgjR/fFLxEldd3c0113TSWBdUe4J6X8AmXQyw6bVxnn/2IE45ofaQick8pbJcnwAIJuFwmYVz4Oprulm6tIZE9ChgpVQRFQjrW1221ClKyu2re/qze3aw7XMPyw1hhHRTO+iYLDgpyLp1PZx6ei0hZQkoa8F3Y6T/ra7j+/5DCsDSe5Vq1vke6XSAJx/bz5MvZFTjbN26Dq65ulXZJoiqJp21efrFMR5/fJy6ONx6eyvnnddMXAoDVdFILVRWTadt2yx+fd9uorEyd9y5kNkzY3z80TS/+OUB9u638cMGnhMmGbL5238zhwvOjxCk5rij6lBgeMDl+af2cvX1i2lpl2apvF2zLKX+kVpXapK3P5zinl/upf+QpLZJMI5JOJjl3KUp1t08l1mzwhhBea/e0E8AWN/3yfy7vr/2nJZ5PjJe5P77D/HmW5PUNyVpaojguAYjIvmbKuOIjBCX1sYa2ttrMYM+k1PTFMsWqdoG1RwvWzbT00VyGYeg6dPWXktTU0yfVRRrKUCx5DI6kic9pS0h4okQza1xUnVyvpczlARZBZiaLjI9XSBfcHHkRz3BM6Rx7SqGlC+En4BDqsYjHg2SSVuUnCCuXauIBM0tGa69ppUrL++mJlnBDo6pkY51i9LPiwBYlQI34JEv+rz2xgTvvJVX4zDnpLB65luaVUTUEfn5d9S9+V037svhpi/3wFI9TyamfJ588jAfCYCVihCJSDPcIyidYYXcfclLACzbVqZkmWmXUCiqaHJlq0QhZxMMB1QSmEGUbMahVJSFU3+WUPROPyXBnX/SzeyZGoxShywFYMmJXCeTeQFDdbMfevAAb72ToWzH8AxLQtIw5MTh+vT2hrntth7OOStCJCBGwsImOB6fTqazmELLwbbC2BDE0zL55P1xfvbIELsOFNRh1PcsgqSU+WVtg8VVP+jkupWaBVB9fV3QSQ6tQlcfHrCZnnRoaBJkNkBELBaEl+AHlezpxOvECHyTEfA8D8v2GRwuM5WxqWsI09IcJBIS8+sKw+E4q9ARq2bVxZKFU7x7gjz8WD/PvzhEuZjQUkTV5XUJmFJMW4o2e8fNrVx0Xr06eH+RgYU65G7cOMmDjw0zNBmAoEOQMkHPwDFsPLsOw/aZNWeKv/1fT2V2T5KQ8k/XvV7ZTBQA4YMTCPDZrgL3/nw/O/Zk8dyQArdEOqE3D7uy6IbxiFRYWNqTT0U0e0Ec16Gzw+LOuxaw7Jx6ouIzXmHPVCXLvhheGdKxNukfdHng/l18/NEYba3t3HVbD6edGsUICTCvNwPXDnJob4mBgUnmLWymtSOsNp8jPkwKiDi2YNRgnOv7DI+4bNoonoM7yJcEKEzgevL9pRQTRqqr2TyGBq0U5iFprprAc0SOJnZh2nNQe19FYy4t7QaLFzdx8TntzJkbJiaAjrDbAsJkc/n8syyPPnSQPXtsCraDHRCAScZUQSoKwJLEPDHjvnntTGpisj5XqUkVYYuoApUiUXjQLtO5KP/P3+3krbcLNDaFuePOVlZc1kREimUJ9BCzSgWQifTteGiE7ERiMBnk/Y8yrH/wkDJkleIhGM6weF6Em9Ytwox7PHDfTj7f6iu5pUWJtgabdVd3sPyKThI1Mmflv9KkEJBTUnZd1q8f5Ykn+inKfA4GCNgmDTUua1Z1ceXydpIpQ3lVyTMlu5YMQ6koYJ751duJ2qfkadKMI8+CHbtL/Oie3aQzBq1tDbh2gOGhCaan8/jK660CroUcWloTJJJRxsfyZKe1HFN8uxoafa65vp0Vl7dSX1MVQmlpsA5I+a5eX+KBhfiblfloywT5Ipxxdh2JVJQP38tzz093MJkLE64xCaRh6Tked9w5n7amyBE8t1R2eOutDB9vHWLhwhbmL0zR1REmHNTphK5tMD2pn5W6hhCmmtgVOai6h9/VtZ743D+UEfgigBVgx448D9y3Fz8a4KLzG2lKeWzbbvP+VpEFx8ll0ioE6KqVnVxxRRv1teIJpZnHKtPkS6yfj73edMbilY0TvPO2hR3Sxu+Z4QLz54a4/c5u2tukUfJdvMSQt0TBDvPC8xNs3vw511y9kHOWtpCKC9O3oqcUL0Y3wAsviAHxdop2HZZTVECDrKayX8jhJyR841CBSy5tZc2NvbS3yD+Rq3dwAj59wwb3/nIPW97Laqm+4eJ4rjLw9qWdo0JKPGKBNPMXhLlx7TyWLEkSlu7HF5J6v/l4KJ8vEeb7sOWjaX70B2zVAgAAIABJREFUjx8xOJLEDUiYiqXSw41ilBkdPjfd1M4FF7Uq7z+1h1fCO775bz3xE78xApVmy28CWDA+5vHQgzvZ8FpR+XyuvbGNVde3E5EIZx8mp8o88dwQTz+bJWo4rFrdwIoVHdTWap9OWcEDfpGpXJhHHhnmuadG6OiCO384kyWLanj3rQkeeHA3A6M+ToVpLO3KW29qZ83NzcRMiT778pdDjn27HZ557BA33baI1m5lYa28rBS8WgGwJPRm8wcT/OxXexnsixKUgAKpJz2PmrDNJRe3cvU1XXT1hDFN3QD8SpHOianzxzECFVXF0GiRX/z8EFs+ztPeVaMYqq5nMp1xGB5JUyqUSESDdLY2UlsXVU2CbF58r2xq6htUyIUAWGNjOTLTlrKeaG2voUGY+7400PUvKls+E+NlJsdtRdiJJw2aWyOkaoUIICQfaa6EKJY9MukyY6NZCqUKsUVALHXe0gQbYc/6gVzFZD6B6xiadet7pJIWF17QxKrru+nqMrU/728x1Y+CWAL6yhmg0owJ+OQKHhtfGeXdd0oEAmG6e+DKKxqZNVOeRfn9FT+772bz+1Zz6zgSQr3JawaWAFgFoqnQMQCWjNdxulBC0/QdMhmLfDagIofjiTCFQk7RnlOpKOGojVWWOOQ82Yy+qQo5F3PlXpO7/2wmS5bEMJVp+7EAlhxg5dBjsntPkfUP7mPLRxZlVySEtj7RKX+uIKkkXHFFHauubaW5Tg4G8uerAKySSsfSDAlXdcGL+QCbNhzgoWenGZqQ2Es5yIUxZLPHwgyVWHZuG7fd3EBXp8S/6jurdOTCdjHk8HN8AMr2PfYfyrLhuUPs3V6iqbmO+YvjLDmrgY6OKDFTZ62ceJ0YgW8yArbrc+BAgWef2cfe/XnaOus47bQGTju1jtZmSaz78jkptcwRG1ltcKOOizv3lrnnFwf57HPNDpHFVApbncWg0+waGpLcsqqOFZc2KX23dPH03K/K5XwmJ4s8/Og4z7yYIWuH8UN5gr6D6URxzRw4KcQwYcaMaf7mb89g3km1hCtG3wLh6FRF3WUrOh4bNg3z6wcHmJgUoFsv1gK4SJdZAS9K262ZaAoEV0W3AFK6cHZcWxkUXr6yheuvm02jAALVZFT1IAvjVNhPAdJ52Pxmmgd/vZ2JqSDNLXFWX1PPJRe3kKqTHxJvpwiZySAvPbePLR9u59IVp3Lpil4CQVszdo6kqlVTehS3Sbl5TWcdXtpwiNdeyjDQL6uLprb7hvYYkWsJesKs0mwrkacpmnHl+gRgE36d6RnIOV86+QpUkyVU0el9JUU5/8wwq1Z3MXtGomLmD/myrXTv6+8/zPhkBMcs4Mi4B8JqvRPgTCfJRlm+MsxNa3vobIqpVBZFSapAhjLGavwQjwDxEjD43//9p+zd30g0ZrNmbYSbVncSU3LQiGIoCYAlMMzxASxNxR4dC/D0s/28+PIw6awGSH2KJEIlLruiAy9Y4vWXshRy7XhGGdcokzQ9rr20iVVrZtDQqtdv1MFMgx+ZnMU9P+3nhZeyWIJrCTPNTRIhz5UrUty4ppvmZl3c6jXdIJsuc2D/ADNmtVFXfxyZwxEGljxNWlbplmH7LgGw9lK0QrS11qjiY3R4SnXwHNtQfy9vDsVdOrvqicZCDPZPkZ32cRwZIQ8jWGDZecIuns2MriShY1iO/+wAViBANpPn3XeHKVkGZ53bTCwRY8NzYzz+2GGi9e0QzVMahPkLM9z5w0X0tCeOAFjFos3rrxd4aeMBHDvNySfXce31CxXYLvMon/XYszNNKCJSpgbC0WPYjCcArG+yJXxv3/vbAJYcSrduzfDAr/YRSEXo7SjgFsZw3R72DoAZT1DIFHDzOS69uJkfCPOoXtYX6Uhr5urvArAmpkq8+so4Wz8OUBbJmmFTnvbpai+z7tZOurtqvhsAS8n1bTIlk2eeyfDGa5+zbFkj557ZzKyeJsLCblFNCx/L8Xn0sSHWr99DyZX9VpobQaVOENa0MBdNP0g0VOTsZbVce30PM3viJMQHy3BUYvfbHxW492f76T+ojX8JWgr8Er9LXwFE2kIgZEvNUOSSC7u46eYeunqrLOJ/WhKgBrBQ4PeGjYM8uH4XU5kaXCNGICRAWgazVENno8Xq1fUKIJGwBwHzVW3xB3SQ+t4+YMcAWIrxWiGLjw573P+rbbyy2VKg1arVjSoYKxrWydDDowUeerKPja/ahFyL5SvCXHf9LFpbtXxKnlM5xO/aX+S//sM+9uyK09ktz08T5y7t4M3Xp3n6hT6Gx1zyjpAPDIJ2lEsvTPE//+teaiLHP/lYZPjkgyJPPnyQO8WQ/SSpSWUyhHUCW0VCaLsB3nxvjJ/ft4+hwTiG5+IYBYLUYjgR6monueDiMNdcdxKdLSkMYbGf4At8b6fy1/7iFQCrf6jAvfcc4rP/Lj/v6E6qhHLPC1K0TPJ5m0wmrXymOlvriUTDWHYZ29UgfyQaU7YeAmCNjGTIZyGVjNLYFEcyPgyxMakAWAKK5XIwOlSgUCwrAk9za5SUIr3ohpx4DorfrFgxDA5MkcmKH2JUkXKUdYpq3ksKq4CwBTXdfS+iSC5S63q+qzxbezrDrLiiRSnZGutExfXF50jXsnI+041k9ZKApLzHixuGeP9dC8OMUFuX5rJLmlm6tBlTpDFV/9E/oHX3uACWLGSTUz5PPXmYLR/liSaEgWXiOYbSgmoLxy++1MCKpMQVzyu9GoonjuNoDwtJNxHPGMeSxJOSipQUmYSYMsoe2tRY4E/+pzmcf14DhjCu5MCqDrFKp6KQQMdw+GBrngfu72PPXjmghfBcl6AXVYw4UYyawSlOXxLm7nULWDBHukuyMv3WzTxyI6rJUjKztUm0HK4mplyeeOQAL78yRskOEY1GiITj5LI5tbE7rsX8eY2su7GNU5ZoerN0vsRMenS8THuvQV1KjtUCwsnxQya1GNpr/698PqCo4k880Ud/n1C7A9TUOZx5dpOifS+YE8L0ZfLK96oUC8pvR17HP/J97Qf5xBu/lyOgbSr1PFB9I9m/lZ+QpFF4FIphpet+4vEDyq9KGEcSBXvxRR1ctbJBJVscSW5Rz0AVZNKfK0CLSj7zbcqOyetvTHL/A30Mj8g8LmKIz4Ekw6nfq4ueuroYq6+rZ+UV9dSmIrqhJ59lliqa8xCjYyXuvXeAjW9lKQkr0iwS8oOE3Ai+WcaxxJ8qSGdXjr/+1ws4dWGCkNJsaX8Pxe5ReInNVM5l/cPjPPPCmALDlRRXniz13XSXTT0lAj4oo3F9q/XbtPROrjXqx5gz12P1mlbOWlqvk5oUVCY6eUu9f2zM4IMtRV7ccIADBzK4TohYNMKsOSGWL2/j3HOS1NSICW6QvXtC/Oq+nXz6yRAXXNjNn//VPJXaFw0KfbWqN9drpP5OYtoLn3xa4mf3buXAYZEMSrqhpvOr76yjl44ynrROT3WhFZhVoWAdkxdZMScVHy4tJ63seKRqTM5Z2s51VzUxd44sixkymTgvbbB55NHDjKfFe0mvRdVxkg9wXVtJ1pacEWPZeS30dsSpS4ZprA8TjTuq+JOevwCHsja6hsP2nTb/57/fwUQmQNiIsWxZmLvv6qGrXdZ1WY9lQ5Y5cqw/2G8/khaOm+XTz6L88oEBPts9oTb6oGdiiqeiWaapPaG+nyRoOY40KrT/WNAPsGxpIzfd0snsWZGKZ5SW4Agdeyxr8w9/v4t33rZxJR88aGN4IcxAiQvPreWOW3roUp5dmiHsmz79g45KXrr4km4WLNKJMVWv9yPbScUXXxvEyu+zKFmwfYfL/Q/sVkkzsXhIeV1JSEg+6zA9VSCfs5S8s60zSWNjo2J95TIWo6NprJKwiIOUrDI9vWHuumsWZ5yWJBaWvUG+RyV96TvyhtJRDpVOtyfPh6uYKROTPpteGadsOVx2WYpwLKTWijff8OjqbCceHyYzYtLQabH6lplqLw4rBa10HEu8+laBZ14cY/+BCbo74M/vns9Zp9UqZud02uX9T8YIRwzOOK2FZFRLoDX7oyr4+F4u4Se+9NcdgSOBJLJeeyp44f2PJnni0SGaG8skYrVs2z6BbdcoZr54i7hWkUIux6mn1HHtD9rp6jLUnuWIJFr9Rywsjn9AHhsusOH5ET7fCW5E5KsmhYkYva1lVt9cy4wZNUfcKFTimVqPq6v1V4Q7qPdUg1QqhXI1ZEVZvanjCZNFjwcePMjHW0ZYuLBVNXXPOqOd9q6I8kNR42CbPPjgGI8/MUjeFjZoUQnAqodw5afnQyhsMHdeK7Nnh9W6e/G5LSSTcggL8vTzwzy4/iCZdEKlvolEV9KsVG1paNuPoABZjm5W1dUZ3HzrXC69PEAyVsZwRSpQ8Z/9uvfz2Pep5Fub4UmP9ev7eW3TNGUnSCRuEA6aFLLCTDWoSRmsuKKJa65poKk+QMCJykZ/AsD6NmP+Wz+jue2KL1WRVklQgsvAoMvPf/E573wYwrQ91t7Qzdq1NUQTFrYT43C/zUOPHubTj21Cps2SJSFuWDODGb1hTKkJ3YjybXz++XHF8suVUjTVh1m7toGLL4qx5e0imzal6RtxGM2KAZtPsFTL4gUm/9t/mEVdvKJoUQu9TjrWDUCxcXF48vFRpQi44y/mcPYZQcLibarsI/RZUZaNsmvz1jvjPPjAAEODIZ0ebRbxDalTohi++BtZrFk9m+WXSsql1DHal1Sxrav2DJUx+608xd/D6J/4iH/eERByiw61ElVEf3+RX/7iIIcHfWobkyhyoVe1axA59SRWuURLcxPhsPiQVqxFKn7X8t2FjTU0NEa55NPU1EhdXcWnTyFPmjEujZN8TmSEOTLpolKotHfUk6iR/UikeVUvXJNyyWN0RJqaOQXUe4GQZtV6VZMO3aBQ5zPx9JUGdyCnJLM4oljxWXhKkDU3d3LKyeL7FmJ6XCxNfBqbo5hBGB6cVKyw9q4EoZCs4dI4cZjOebywoZ8tH7jEjRQmOWbPDbBqbS8JCYFyw9oSRZEbNNIr1k0SwCfAn4QNiQ2SqByO+oFrk5IKtUcfwHzxfpUmiZzPxENZzogCpklIxzeThn8lgDWlAKxDfPRRnkgiSjgSxLeDisrvKiDmq19VutoXJHXCCvAM8lmbifEc2YylkEA5iNXVeNx6Zy8rrmiueKVourJ6SQwVNkXf5o13p1n/6376ByoJg4Io2mHEtMSR1Bkjx6weuGXVbJadlSQclYl7THrMb6CIVTCumnQoJtU+fQM2jzw0yCefTBFPJInFYphSzBSKKlFA0gOku7fi8louuridRFxf156dFq9u2s9JpzRy3jktSpqk/FfUzbfVoc0Ro85DDk88eZB33p2mJAWY3Go3R21NnstXdLDqutnKQE2W0iMAltLDSjGnU2r+gMDQ3zUdTvz739MIHAtgKQhLsYZk47bxPJPDgx6PPHqQt96aVJH2IrcyPZPmRosbbuhixcWt1NRprwxlAl0BdKoJenpuSTlsky8HVVDCI48MkM3GlbeUodAvzTLUKfc+iUSIlVfWKg12c4P4TGkgWCcAChgUYmC4xD0/PcjmD/KUJZrbtAh5AmAF1RLnOLLwQUfXNH/11wtYuqhWYG1tZC0pgTJ+SgpiMzxucf+vJ3jtzTSuIwuoMHWOfh/5TvKsygFDpLp6tVUk8WP+CIEsQjKe5ozTTdasnsfs2ckK6KWPJEODRZ599gBvvT3B2JTIFwR81qWMMDBnzw5ww3UzOfOMZrVRvfNejvt/vZOBPpv582L8q79ZwMzeIOHqeChwpeJfVQWwvADvvFvgJ/d8yuCo3AUTs2KUK1+7uhkoW9JKUITCRtShQ5vaH0HE1Dyoyr3URR9ZP2XdkJ5C1Cxx2Xlt3Ly2k+ZWg5HRAE8/kWbTa8MUHGHXVYzrK4EUcihSBxvXoLHFJxYtKklhQ02C005r5fyLmunskMJVB2HI4ckNOLy6aYp/+Pv9WL6B6wZobYSVK1pYsbyZpqaILhZ/Z1XokM3m2bChyEOPjzAmrpWGsNGCBF0Tz3BUg0SAW2limHKwqbBgZXVcfHKKdbe3s2h+gnDlkKaYBYQYnrL4T//3VrZ+LGSziGJuCc8vaJRZdlYdd93SS29PlICS95Xxwx7bd7n8/d99zHnndXLDqplExRhfSgzZjBVroTLmqqlVZSpYFJ0AWz8t8+gjuwmQVAdL2SukkSGbfy5TYnIije0W6ehOkUrW4jiogmZ6Mo1pRtTcG53M4pNm7eoZXHdth9ovA77SnOv48O9oR9BiSAGw5BmU4sPB8mz6+uDZJ4dVeMDV17VghuHen+/is61RejpbaaifIDsRpGxkWXZJvZJlNsaDBOwghZLFy5tzbNiUZe+BNMlIjj+/YwYrLmnFCLlMZ+HND6aUbP/cZa00JCvy54rn17c3j/49LcQnPua7HwFZd3Q3RAH9BTvAprfG2PTKGL3tYopby5ub+ymWwzQ21dHakiIowOrUNPGYzaXLGjj7rAYFciuXXT9ASPlAHb9yGh0qsuH5Ybbt0iprqd1KUzHq4qPcdEsTCxa16X6oAo2r1qrHAljHG5ZjOM7Vt2vhkj5USViFH2DXgRL3/fpzBoeyzJ3bRMTIs2zpLJae2UY0KmuXS7lscv/9Izz2xGHsQIRguKx8UWpSNWoNLBUlmcpWe3VI6nYvS31thrtvP4NFJyewnQBPPjXI448Pkc3K+qFl7grIqjQvZD1V+43lEolEKJfznHNuE7ff2cuMHmG6yP6jkwG/1Ut5YDkMjNn85Kc72f6ZSW19HbGkbtqWcwGKBUmKc5i7IMy11zWzcK40tQQ0OwFgfasx/60fOgpg6YAfWdflMHuo3+HB9Xv5dEcUK1Pg0nMb+OGfNhNL2VhWnB27Sjz6SB+D/QbRmEdTs8NFF7dx6mn11NcE1eMlEv1f3HOYZ188RCAkIQBBrr6qngvOT/LJ+3k++aTIwaECU4UisVQINxunozHHv/u/5tLamKoUIV8EsMqWyy/vHeCp5w5wx1/O5vqV8oxUrAGUF7LSB1B0bTa/OcrTj00yPh4mW7CwfPGKk6sWjzhTpV5fcG49t97aS0e7W9nDq4CCBrG087KmP3zbqf77uFcnPuOfOgIVsEjNc5v+/hK/+uUBhsYMEnXxivm/3hdk3Uun02oNra+v12eJIybolSpPMCPHYWoyrWq52tpaYnGp0yqEgAqApfaPosPkuHhrFQiHwrS1N5BMCZFAfHkVEqQAWs8JKAP1bFbeq6WEwqw/sl1U1F169xFyTwgjkFdnQMNLKd/D2oYMy69q5sor2zF9k7de3096usjKq08hHDF5ZePHxKIxLl1xEtGQYCLar3Ui7fDCixUAy5SGu000NsX1a2co+xG13isyjYSNSEUYVQCWeOh6bgTHMZVPmBk8SroRz0qpSVVWnZB8JRRKLlUpSWT/kDq5gr/IX8Xe5RvUsL8DwPKOAbAihCOhYwCsYw9JXz6xvswLqtJoUocv25IOc4FCwcIT5NMNEA6GuPCSGtau7SAZkwus3roK9zvgq0jJlzeN8cijh5iako1M4iV9wl6Esu9gqfNqgI5mk6uvbGX5ZSkaGsIV48djPu83LPqPaaJJJLvv8fm2Mo+tH+dw/zSNrXVEI2IILedxmZBFhciaRokzloS5dHkXLc0hlQj2+dYS63+9m2gqxrobZyiDaEEp1QYhS6LhUMiZvP12lkeeOsjBwxaeL0b0woiQyPUs7e0Bbl4zh4svbCYmnWc1wfVirg/A4q1yAr76py5p38ef1zP46DzWDBud6FYomLzx1hSPPXGQgQGh4UuynfCJYgQCWRbMNbnrpvksPi1FsOLdJHIujSQIz0JLwjSA5ZDJmzz86AGeemoQy6qtMAilK63nqix+4XBQAVjnnJVQh+rOdikOZJJK8meFPOnDgf4sP/vpAbZstbEV7uxgegHEA90njusKu6JIY9s4f/JnC7nwrA6iUkCLkbMp3bFqlCvs2Zfnl/f188m2IuVSWaV9BIPauFDYngJoSfHuKhlkFerVxUi14yFrhAB+ZqBITTzLxRd0sHLlTHp6I5ghj3TG4+WNQzz33F6Gx0I4vjzH+uzj2pL+5xGP5zltSQ0rV8yhoTHBxlcHeWXTAMVcjJpkhtvvmskVl3cRVib0FWhIljIFQmvwr1iShMdR1q/fx8hEANOU9LtqNLS+J8KwU/p3tdjrTqSeAvKZVetR+f/VbuVvz2z9+4SgZLg2LTUu557dwtx59Rw4nOO9d9IMDzsYQWH6aMmcbNqyxskmrVhegRp8X6KAPUw3guE7tLZLwlw3l17cRGNDpUsUMFV09q9+sZ+H109BRNzLyurg0drocdGFDZx/YRvd3XHMsKvYZr+t1a9+e5E/Hj5c5Nf3D7D5vZzisIrMRjZT8U6T7+lKEqapZSWuK1JBbTTrux5z50W59c52lpySJGpIl0iPkcyDg/1l/v7vtrFrZwBPGBqesBgk5tvhzNNT3HX7TGbOSGBI48TL40Vctmz1+M//6T16O5PcffcS5swVVoR8K5EpVWMApEkhpW+1YeJQsAK8836a554+SChYTzAkY6vZdQqE9AKUSmVsu0Q8CaFQRP0zAf7EKD0cjlEuuRzqn6JQSHPJRe0q2ryjTZL7qmy2b7L1f7OVTwNY1Z60lhKnsz5vb07z4vNDNDSEuPLqdoJheGj9Tg4fTtDaUk9DfZbidIzByWHaeh1uu2Uei+fUqcIql7d56bUMr7yZZf9B8eGZ4oe3zlAR52bYZjJt8PKmSXKZDFes6KGzNawPGErO+k9JP/tm137i3f+CI6DWOOlmu9iueJ/CSxuH2bd/mtk9Lrad4s3NffhGipa2BpIJAxybkXFJUipy2vw4c2eHOGlRE71zmkhETUwp0oRxeZzXyHCRl14YYcfuALIlKZ5QXnwDB7h+TROnntatCUBKmS7rcKUO+53lWIWpdeT9iopY2csl0CjA5LTHU88M8vKmXUTiARYtaiY/JV5/PVx++QzF0JfTSiFncN8vDvLCSwOEk9LNN5RVR1z0KyrNVvZASTj1mJosMDGWJhnNcssti7hiZZsKJHnssf0885REpkfUoUOk0qlUglRNQgHShWJO97RsA8ux1frU1Ag3rJrNxRc1UpuqeKx8K92V7GXS+Yd9h4v85MefMjSUoK29GTMsBzIPz4piO6J08IhFylx0YT0XXdBCKiF7XCXS/V9wav4x/OovAFiiX/E9duzK8+TTh+gbSWDnHBbMNvnhn3RR3ygJhCHefHOa114ZwXPjCImjaGeIRV3OO6eTiy5opK7GZmTS4L/9l318tj1LNFmPY5U5fUmKzjafwcNl8sUogxMlSvg0NEZx8xECbj//5t+exKzOpPK00nJ/XWfqstdQ+8Y9P+7nmRcGuGpVC39290xqIsKKMJVPpwacAhRsm9c2jbHxRUl3izA+maFkS/qxnF0rdjCew6mLw9z1wx7mzRWPODlAVx7uKivtGH/R3/mI/zFMij/aa/hNAKvvcIn77jvA8LhJvDb2BQCrXC6rdTQajara8jdN0PVMkH8v9ZnUcJFIVDW/5exRJQPoM7u8T+wWykxN5jCDQZoaa4glKgCWJPyoOl4aDboWLpVsxkanmM6IbFFwEMUUUPV/BUdTKhHPiGojeKWNDyuf8Ei0QFevyfnntagExa1bRhganGDZ+SeRTIX48IN99Pa0cN01raQSEZ2iHvAYm3DZsGGYTz+RelN2tjCF/BinnB7h6mtnU18XQnsClxU+4roJHE8SFB127Zyivy/HrDnNzJ6bUOFH01Nl5YVeLMrVhRTeU1sTpKc7Rl2tSSQoGEZl/1SCDyXp+Uaz77gAljbqc3nm6T4++jhPOBZW6WJHGVhVt5zjg1cy6DLuEiFefVUBrOqEsG0X15EJIB2oAHbJoHemxW23zaStRdDFCiW0uph4Bof7LR5/6hDvf5AmYKQIGGIO7xIzE+QKWTJ5B7scJhYOcMriANfd0MLJCxsULfmoXKoqKdSrk+peVwyWBZ2VDf7994s88cgk6WyO5raUOhjJ966yIFxXut8O3R0hlp5Zy7z5KcIR+PjDHA//eojRCZsLz4uyZm0v9Y0OwUrMvevb9B80ePKpcV57b5x8SRgEwhqrxqjLDbe48NwYt98+j66OYEXUpRNk9GhqBtaJ1/+oI1CFsSoSMjHE9jyGBj0eWL+f199O49gqd0XN14AkZ/o+0fA0q38wkxtWt1NbJyxKOXzHFcNPp6bJ1q/nlgBiEoG8/qGDPPfCEOVyHFOlYbiEwyaxeJhwJKBoqabh09UW4uqru1l8cpyIGGJXfGrksZIj/e4D0/z8p/vYsdPHMyUS1sOXZ99zCJkpFWVsWTniNZOsuXEuVy7voSFhEpD1Q4qOgI3vhbGcAB9tTXPf/Qc42C/sTUnliFJTU0swGMQql7FsYaO5FEsi7dNyOAEMHGkJVGQSqh9umPiOQch3aW6wufSSVi6/vJOWtgC7dpV5cP0BPt2Wo+TEFbwni7diRErUrSeMTJuaRImZvXWkapIcODzF6LiNa8Uw3AmWr6jlh3cvob5WwJ2K+F5JoHRnRYwbB0fKvLRhgNdeHWdy2tDghbB+FBglrCJfHU6CQUk9EdaBZl0J80zWINn0FIYpHRK1PlSbCxUZYOX6VRRvUFL/QpiWTV3KpbbOJJu3mE7L/QiTSpqEQhroiUSj2JZFPifJVBYl8QiUzVb8LeTaZVsKp5m7MMbqG3o4fUlUmexKASim6//l7z5n40s2gYhI9ET6kcT0yzTUFzljaTMrVnYzc7ZPPBRS3+nLXuWyJD+muf9XhznU7ykLK0PATOV1ZiipmUhdk8mkArFKxZIqOORZyGWKihl2610dLD0jRcyUb6wlaDJK23dY3P+rA+zeKz6KPpZbUvM+bPicsjjCHbfhaCZSAAAgAElEQVTPZs6sJEHFKivgmj4vvVrgnp/uVOLHq6/uZeU1naRSZQUiGYHIESakZjHKNYnY3iJfNNj46jibNo4RizWrDV55EVRW8yqTUT1/hg4bkCaPlvNqWWyxZDM4mCc9nWfOnAR33DWLkxdHiQblGRYJvlzbd7MeKglhlXGJR6kMH3+S5snHBuk77NHUEqR7pkEyFWX3zgylYi2JuCTuFChn4wyMTRGMZblpzUwuvaCJaAjSadjwSprX3p7k4OE8vp3jjpt6Wbu2CyNYZmTC4Omnx5mcGGfVqjnMmZnQ3TtZB44AWN/RBX83w3jiU7/pCCjgXBj/DiNjPq9vyvLe++OYEZeTZgjoG2Pz24cIxxpobZcaz8GzbcYmLcXwW9AbJhrKEo6bXHjpfBYvlPTONBh1x/0mA0MlXn5xjD17UM+8rKlOMUB9XZYLLklxypJ24sK8FAYzFbZx9dN+13RUrWjtyajlTjKXZUsKMjEBG18Z5KWXD5LOBGjrStHREWNicIpFc9u47oZuGptt1UCZHAvy4P27ePeDaVKN7UqOojz+pN4+xn9VMQQmSowNlcDLceGFXVy7ql0BeC++uI/XX53EKom0RPaZAA0NNdTWSVCLg2UVdGPBCSmJsO1AKZ/mpDkR1q49ibnzwhUl37dxapWVr4TtBfnk0wwPPbybYrGBmpoknp9RRvESTa/AQ9sgO5Vj7pw4N9zQw4wZFqYh/oPf5vd+0wn4x/1+vf9UJYRSR7hYDrz73gjPv9BHzkoq+X9ns8kPrmmhszfE0LDFC8/0c2CnTSIRx41YTGYtRoeyzOiIcfcds1h8Spjdhy3+8f/bw+R0iJrGOjxbQoRyWIUsYTNOTUNKMSpdwyAcK2M6CTJTh/jhX8zhzFNqK425KiPjaMN2fLzIP/7oMG+/X2buIpt/9VfzmNmlgxW0vEq3WrJFh40vj7H5tTyZPIyOixQ/jm9a+KIM8OKYboge5c3VxrJzGokGtcxY76PHPKuVZ/ZoONEf97z447y63wSwVGP0gcMKwIqlxHi9Up9XLl61G6rn8qryofLvftPvWjcyBB/QeIeATEcxDy2RMSkVHCUNDIVC1NUlVV2vzNmVjFCf6VW95xsKGCoVLXJ5h2JRYy2ylgsjTGp+OcuJUqPsCamm4hRZSXISYoGcS+rrSqTiMcqFKNPpDImUpMoKOOawYG47d9/eQldXoiJL9xkbD7Dp1RG2b7OxfRvDT1DKl4nFxrjp1nksOLlWJ4K7AfpHHQ7tL5PPe/QPZNnyYR8jQ0Va2ps546wWkvEg27cPcvjQMK4bIhxMUiraJFNw+hmNXHhel6rn4lGtTDtKyvlmM+/4ABYCYDm8/NKoonpqdpCOXhfmRBVG+apfd+xNPvq+CguiukBU/XfkJkvkZNEhlcyzZtUcFi4UXao2D9M9c7CKQd57P8uTT+1nfNqkpq6RoCmsgRJhwtieTS7vkkmLhr5AU0uBK69p59ILO2kUzWnlgCeyGLUBKjmQSAYFxdSpK9Lhn0zDm2+mefONjGJ0xOJSIIj/lxxcdSdNzXc3QMB1aG4tc86ydrpnpPh4ywQbX8wxPOpQk5xg3bpZLD2rllRcNKQO+aLDe+/kefzxMfb0WcoDRmtLtXeYsELEJH9WT4l1t8zi3HMalD5XNQ0V0+YEgPXNpvkf2bvVBKgskCLv0ugFluvx+dYiP/3ZNvb3BwkHZc5aauFznbDyisPNcfrJtfzwT+Ywd66wjyQxTsuTdCx2FcDSneep6QC/fvAAGzYO4bgRYmrRFUAlQk1NnEhUg2SObRExPZZf3sZ559eTiIqsqhpdHqDswNZtUzz+8AD9fQZmOKg6voVcQUW0JRIJzFCcTLaAZY9zypIUa1bNY8GcuH6+ldeTq+KdB4azfLotzSuvjpHJG0RMuY4ATU1NBM0gtiPBEHLILimTRSMoQkRDgVnFogBAasB0pzrg45RDKj0wSJ6ZMzxWruxlyZJ6PvwwwxNP9jM6YeL4IcyoMAHyOqzZl6I+rNYCM2BV1iCwXVk/JOUwjOnlOe20CH/5F6fR3SVsTc1u0wwg6Y6bjEwU2L5rnA/ez/HRBznFoAtFwkIiwHFs5asXiQWpqY2rMZcNzHM0e6dYKJHPl7BtR3WCgsEwoZCwY8S7S+SUsraZav0SP0LlTSgO76JXd0PIrRTfNGHTBSNhYhGDxvoI4bCwVcW7UDpCwhArks3lGc/KoUIKPx2UIQ0HAUBrawOsWN7K1T9oUabn8nuzGY9/+H938MF7BmaqhOOFsS0xxRcAzaa2xuTS5U1ceXUNXS1JpdWvvo7d/NMZl6efGeHpJwYpliME4y6xhDRSZD00ladXvjCt5N3yR+Z6JBJW3gSTY3lqUkFuXNfN2eekiKtIS02hEx+NTz6yVQLhwJCN5QnLQJJoIWwG6OpyuPnmmcyfW0s0KIV9iXwpwI/v2csrG3MYbojFi5Msv7KF9k6H2mSYhro40WiFVSEG+ArEsnEpkc0bPP3sEO9uLpBMNhMMVdmO1UJHDp8VhoYAyUfYdRrIkr1Gml8TE9o0NBxyuOLKHq6RkJJGAfTkTovX43ez1jmerTm/qpsI/QNlHnv8AG+/kyGZaCaRdMmVxxQbMxasJRap0QzLsI1XijKesSlaU1x+SRPXX91CbUquJcCGl9O8u2WSwdEybrnAmqs7WXtjN2bIpm8wwCOPjJCZHmXNjbM4eUGdOjAfBbBOHGC/m7v9B/KplcdBnqhc2eHDLdM8++Qo4+M+LR0BTpoRpFSOsPntfYTj9UqWofYK11PPW75YYlaXsGUtDhwqsHDRDFbd0MisGeMYRvuRrvpRvw6dNnrgsMVLL43Sd0iXh9LhlqCh2pRL90yXefMaFHNVnnVlD69k5cco8b9q+I4BsFQ0umK8mKSn4fU3pnnq6d1MTxs0NDZTXx/BKufJTuaYN7eWVWvamTHbUOEZhw/4PPf0AfYfdgjGagmFpa7Wth5a2i81pWakptM6AatcsGhuCqkOeWtnnP6BNPv25ggH6zFE2mGi9nPxnBNLAu1dIs2KsGJyO55BIV/Es6ZZflk3yy9vUb5Y30QJcFSG4+P5ZaazhpKuv7l5kGCohaAZVfuDacq4aG8W2zaZGCkTCxmsWt3JsvNCJGLxCkv5D2Sufk+/ht59dOprVSFSKgd45dV+3nhtHCcYIWzG1Dls3vw4vbNCTKcd3ts8QWEqSjIZpGwWSRcMxoY9oobN6hs6uOLKBj7ZNcX9P+sjYCRI1EbxHZOJsREyE0UaGxtoapMkYmmciqQrTcCNMTE6wqq1s7nykiaddK1IEFXbBz3Ihw/n+PFPDtA31EAsNc4ta1o5/yyRncuMlX1Ke4OOTZZ4/ukRtn0uYFaJkbE05XwcjBKOUQRP2NVR6mpyLL8ixcorZ9DcEK2kbErNqYED5etZYUkrQZT6Tr8Lqf6eTog/6q99FMCSM35/X5nHHxuhb9gjGJWV/BhhyzHWHV9vSI7OCd0wP+aljhqaSV8olAipYDthdQnYJQSDYxvOyt22os4IKG+tYsEmqJrK4iVuI8wwqXMFSErnfVXrCvMrYEitLw1tzSIMkFPNjoAfVw1dnWQoTNswHW0x7rilmXPOEX8vS33ZsdEAb7wxys4dRUqq0Z/ALprYpRGuvKaDSy5vIWg4ytphw6tDvPLiINmMSbFsUS6CKw1uwyModi+miW1Jc0ZLcOQsqIhpOCRiNqcsqmPF8jaWnFpDqpIQ7vkR1Qj+Jk/WVwBYcnh1ePXVSbZulU6JDLSvNjOV0vf17uqXvEsnbx31ZqnqRXW1IpRhnBynLalnxeU9inKmFo2guOa7TIz6PP/MBJveHCQUj9HQUK8OhlJkBH2REHlYdoBczmRiMoPlTnLSwhTXr5zBqQtriMR0UqFWNcuBRg7gPk6gREAc+X2fUsnns8+ybH5rkqExnaYmk00xsCpIbBVgFVP77HSZYmGYOXPqWHRqM/0D0+zaaZLJSeT6FKeeUstZS+tYNK+B2roQw+NFnnthgE2bJsmXTeJxg1g4jOvIobWs+BOOEyEeLnDJJQ2sXj2Hpnr53ZocewLA+taT74/jB9WjUnGKVuEAmgguRtFvbJrmF/d9SsFK0lCbJGgKkl+gbHkqeahYKlGX9Llt3Xwuv6yOWETTVyXxTpcx1SVHA1jDw3D/A/t55/1JQpEEdQlhXJlEwiGViiQglIrCti2sco5zz23isstbqa+Ruar7exLzKsDTWx9M8v7mLMWCBsEFDBZZlBQKobDIEsMUij75Qp5wMMO1V89h6Rk1NNYbinabyzp8+MEYew6OkisH2b9PrilMzAziOS7x+NFUOKkvFLAjQRBBUy2gsrbIYi+gc1Xb6IpUIu+SzbmKbRQJF5k7J8mihQ0c3J9h+44SthtTUd/S5fa8LIlITAFAU5kyluPhOUKn1VIQdScUw0r8jWxm9Ya4/bYFnHF6jEi4ujTrkRZq8O79I2zdPsqe3QF2fV7EMCSdJEE+X6RQLJCIR0kkY0QiIeWbpKRxFVNx2RAFkMvlCmpDi8cTxOMRHLeoNkvZqGQjy2flsyy9joX0z6vUO+l+uh7RmElDU1zJbxIRuafS+dYQn7BC5dpKZYexqRDp9Jj6fNmEq4EXcp/nzIbrbmjntFNbiEZMBgZy/PS/7mV4qIVQXRqnHGM6kyVXKCoATiRkJ80NsO6ODk4/pVGBkMe+qgedkTGLXz3Qx+bXx6itayRR66vDWikvfhUGdfXizZJV31m8BbT0UZoMnjLOlO3zksuauPDCOuqUrUZV9gLvbC7x9DN7KTvifxXGEXBNSVZd4tGCSr06++xGJWUX1mH/kMd//I/vcqg/qVIBa2o9OjshlSgye0YDp5zcRk9vlPp6ibyXTpqCSPECDlMZj2ee6eOjD8vE4nVKsqNfVQDriPP7cdcoYd3lC56KbZ6aytDTneSOu09i6elRQrL/KQDrm2z/X385dH1hmYlflxRU0twZ56GHDjKRNWnrqFcJxYOjkzi2Q2dTAw2pqPKe84Um7geZzjvk8lmWnppg7fVttDabyih448vT7NiTI1MCu1TmsvPq1SHVNzw+32HzzFMj+N40113fzZLF9YSCUpGdkBB+/Tv3PX6nAOzCmsXnQF+Jp57q4/2300Sicdo7DbW2Ok6cDz86RKK2kURKvHccJfm1LEmNKtDdKfYMEbZ+5mA5Ua5YHua6a6I01jWqdeKIp2DlwCLr6LZdZV59dYLRYVk+ZWcViXpMgfdle4yZM2pZceVsuntDBMWPzzd1wEaF8PqVI/5bAJbsGoWCwQfvTSlVwa69RSKROF1dDcSiJpnJvGo+JFNlzj2vjrPPFU9Vk0+2TPDpJ1PkrTC+GdVpuUe8HpVB4pFaVdhTpVKA9FSJ9HRW7b2ybiZro4TDESIh8X/R+7hgBVJDa48TvTZJY1egOmn22JZLZmKa7s4Qq1bPZv78OGEhfn7NA/2xzYmi5fLZZxlefWWQsUmHUDhBgJiShgsL1Q1Yau20vQBjQxb5KZvzzmvghhtb6O6IqabV1/293+On4Dv96l8EsCQV0uelF/t5790CflAsDcRc2iFfmKSpBVo7mhg4WMLKh0gkTBxTwn5CFPIRyrk8ixclWXFlK9v2TfD6y1MkknHCUY9SwWByfEoFkzQ1NNLQXDWVEquJDHgx+g9Ncf5FHayVJke9qRjWetc+6o2zc1eWn967k6LbC0yzZK7LjavmUdsgKkJLBTTITwwMFXj6sWEOHgzjmg6TU3lyUzLLiziBIrYbIuBGScVtFi0Kcvrp4uVZQ3t7gkQyQCTiYgZ0MIL2GRUCQ/AYL6TvZq/9Tm/4/9Af/lsAVn+Zp5+aoG/Qww/JClf1yf2nDNLRs8VRabmweLXliNRHsmYJC0uJysScveLx+MXfWlGlWZ46c8l+JUuy1La24yhfrYnpIpZVIhgWskKIXM7CsgRjkXmqPUvl2RGWlv49sjcYJKKw7MwY162aSe8MJQfg4L4yb20epq/fwlZYSBinFMQulTj19DjXr2knnoChEYuHHtvHGxvHKRUT+hlVyejS7RFvFVEiVE5/CoSWZr1cp278i5d5OJhn7kkmV/2gh6VL60il5JuamBKw8A2G/zgAlgaTBGl//bW0ArCKjhjcim5YBl4fmL/dSxuQHyneq13nitmwkJvsgk1tsqxSwTraxfA2TF1jiLpGg327cjz28Ah79hVINUWpFe2qYO6SOiXSFmXQJ677Io2xGZ+eVqkaF59dwzVXdtHemUTOXrKJ6xlUoSmL1MoP4ZQ99u3JKubZvv0u4VSYcFRPAz2w2h+m+hL5jlXymZ6cUOahs+encHyH8YmYkqWkpy0VQ99cY3Pmaa109SQYnijw1vvjHDhUUnKdupoQqUhKIjJwZXE1LQplg3LOYdYsl3W3zmXu7ISKTNfAW+WA/I1u9be7Wyd+6g9wBLTmoMK2EBaRzgQdm3B49slBNr3eRyiWorE2RdgI4tg2ZdeiJN3YXAnHcjjnjCbuWDeD9hYx0hZGpamYQ0eXX1/5ue3eXVQH1f2HAyRra0hFixWjV83G0EWugBzSXSgwb36Miy9ppadDunYBsvkyk5Mee/YU+GTnBLlJSTwSYCWnvJY8KSLUSd+u0EjluS3jWTlOXdLI7Fki5xJ/pSR9h8s88fhuRqeztHS2MzYWoGR5RFV3rFpEV7t2+mkVr54jianq+amwcI6Yc7mULJtsySKbd8jnysrbqaFWEkA9gsEEGDFKTpl4SpheFolQErdsMJXLYHlS1KNovgIuBYVNafp4hotju0SDJS44v57rr5tFR7vQdWXEPHXgkajpj7f1sXXbGIODMQYPeURCUeJJk5LIIC2LcEQYUTrVQ8GLSnamVyPNytEdGPmrADgqKdYXCaXE6kYUQJ/NFJWmXjbNqDDmfE/Ja3I5W9GaE6kwLa0xRedV4tEjIL3ImrXjongUFktxptMTuJ5FNBYlFAwro3EB2wzSnLMsyeUremlujrPt0wEef2gMx55BonkS7JgC/KazBYolD7vg0VBns+7WGVxyUStxtcZWdoWKUaVc64FDWX7x62H27S7Q1FRHLGEppkCpqLuysUhQH96OdGr1/Vf33jGxbIsZM32uWNHOrJkhlaArOkQBoDa9lOXV1/YSjCZxA2Ft7CoUcNulXMgzZ1aEy1e00tUZJfTfo8Q//azAj378GQWnkWypqO6RsG9DOMzpbaC3J8j8BXGWndtGbW0YuwSZ6aJK2ytYBu++P8bOHWUCRlx7IlZPvEcjKSv/7LfXHL3fyP9ajoCtNuPjJaxSmSuu7OCWde3Up1wFCuoUl9//S5h6KgHKC3D4YE6Fm7z1TgEzGVRsGCk8BkbKOGWf3rYkTSkDx/dxjIiKYM5bko5aYna3wdrrO+npjnDgQIFXN05zeKiMYwRxLZ/Fc4NcubJRyYQ3vZZmx/YSdfUuyy8XgLCesNCQKyzkEybuv//7/Af1iUop4ZEtO7zzXponHx+mv8+iriFIe3uE9mYxMw9z8P9n772f5LjObMGTpiqzfHW1bzQ8QJAAPUHvnehEjSY0mvdmd+Nt7G7sf7Sxv8xuzNtYEzHzRjNPbkTK0pMCSdCBDiDhgfbV5avSb5zvZlZVN7obDRpJo6dUUECjy6S597PnO+dCC5liEWlLieRQsCRw2dRoYmanB6RyePejEJcuA7NTbfyHv57CQ/eNoFAgz86g+EJ7Q5t77L0OXn29ieYqEw/uUwemkUe97mHu8hxGRy088fQM7rgrj4kxC7ZBpdKYmXbLQk7MZCvFrkgVZyINp78M8C//eBrHPlpB18shk7YwM2sjk/bh9ognsUQ0KJX2cMPhHEqFNE59toJez4JOhSCTeyeg9tOax5fwpkiDKwJq9a6ofrsOu+EhxidyGJ/MwNBZ6Fd8syxQr70EWh1OQKQQGR5If9FrhojcDh56cAqPPz6BSkVxT26nmJTEzkQKnDvfw89/ehEnT7rIUb0rrZIfjnWJljjPhyTBbAAsh1iZ8zE1EeIHfzeFe++qIGMp3sPtfO+f1Lr+EzqZKwpYEbBa9/Gzn57Hxx9o0NIUq2FTX8f5c4uwsi4OXDcqoiO+a0rDjPQOJGQOgzSa9a4gSphnNXo1OI0x2BkXkdZF6OUFyc14pZgvI1/gqDzXXgbQ20IEfemch3LFx18/ncc99++CleN6VIjvBF78wYdN/MP/8yF8Y6fQT1j+HP7jDw7j5qMlaFYPJqjcpuHM2TZ+/KMFXL5sw8gyzovgtpn7ufDhCH2D52iwzABjlQD5HKkMLMzuLAg/5+S0BTsdwdQ1WGlT1DsLRXJeqjX3l3X3J7SQt3UqawtYZ0738G//toJLC+RADRRFwlfKqROhpLX8uoprVwn5iICbcNgm4ldxt0MKKUPjhv1IT10QG8gM9AdrTf2djWffDUWBPYg60AwNrq9jdZVNFtGIhu+F0vwgPzD5y6UQzPyDfjXQUC7oeOCRLB55ZFz4vY+/vYD3jq/A8SnWxRzNF8qo0ElhYsLHd54bwcwOC3MLXfzi13N4+zUHjZqFSHcVqInXJ5NsigtWAE8aYKZ04XYVznDNhKmzwMVJkCYO7M/iuWd24+47KyiWPGh6rCa6refJW7pmWHPoXULSGuLVV6t4770uOi5RSwE0kYIXGpSveMQjhMm7+yTtcfLC2+wZCL0WrHQbxWJaZCdn9xRx5OZRnDm9jBd/dgmNloXCSBY2HwzHJ3TF0SHLQc7NEIRDrdHF8kods5M9fPfZ/ThwaAwZG8jlIhmxIpcPgx6OEHKkZ3GR3YdLeOO1VUTaCAqjTArZmR+ss4S3RIIfJsKhAafrIgq6mJ41oacowWnCCXV0OymsLjSE32O8oiOX19FxfTS6GnQzg2wmhYylIc2RE95bcjjoLnoe+QaAkUoHTz0zjdtvqSBnsZudtPmGHsBGz2L9nriW57X+veuf9Ff9rGt531dcXf+u35bAXja6iOSZKHsWC3OyasPyTAQvMHHsnSUZK1hZNZEr5WGbJKVUkMxAE60I9Bwm5y7Gyi7+w99cjxsOZZCyEu6MWBUiRk41msDv36ri1VdX0eplYFoaUho5pWJadCluxAWPEHBZJDE72LUnjf37xmDbFs6fX8K5c11cuugIn8hIcVrx2mkdxYIbGzvhbSJ/gW7CcXw43Q7GBM7dwG13TOOmW0Zx4WyIH/2XU2h2HezYMylJruM5MCgjHhfFr3BAYlQJq42dgFhwtXPl3OPxcZISth2OHnsy950yIhRzKRQLOelseKEviiEsUJmRKSTubuhKoBQEuiCU6CxSJjmsdOETY+e7WV3G5ISD5797PY7eMYNiSRXPBYHlpfDWO+fx1juX0W6PoNvJyMPl+ET/HONsQl2X6mqomXd1DXLd0skZLAwmXYpDiZ0VimUorix2D3n+glL1SdLrCTyZXGaFAsnL45Fo+U71XbJl4/+jkiThyzwUT5bi7mNA2m70kMu3cMfdI9i7dxwfHD+Dk58YsO1pmLklaL4lHU/HYyHDQavegZUK8OCDu/Doo6OYnqF0uiZd9ZASxOKAgXeOL+CffrwkPC3FAuH/5GXhqI8a/xbZeDnHgXHp11Whw3G7sDNNPPDADlx/QwG5PNeBiQ5RRL+p45NPllUCSNtL1JS0uGh7PdhpD9ddb2HX7hT27JvExx+v4L/++BSs7E70fJIjd9FuhDBCE6W8iUymibHxEM8+fwj79uVw6ZyLTz+6jGptEdO7xtHzqDzbgu+pMcuvUsDiWibYr9EIsLLUwPQ08IMf7sWRI1nkKT+vx526oRUiCmfDAK/+qOLaeUPZFpsAwaKoDkR5VFdCvPDCebzyUh3NbgHZkRCFMhMRE0srHnw3wtRoFqWsGm32NRKve2wPwXV9lHIOHnlwHLt253Hm9Cref6+OGpvvGlVvdBQyTdxwJA3LLuCtNxfR6WYxPWXhgQcKuOWmEjL018rLJyzaQwqc6wznpj5wyJj+e3MY8an3XcW/d5+6RazB5JYF2y/O9PCLX8zjveNtGeXh2FqpkIKhteF6OrzAQsq2oJuRKPmRG094+sDiJz1LCqfO+lhcootp4eDuDJ5+Oo/bb9+NUlET0QbFjUoUiY/X3mrjrWPkcUvUfdm9ttBuRVherstY2/iUj7vuKuOB+3dieoIIyER1NH4gGy6x5OGpYJKf0/M1vPzyCn7yo3NokLPSSMMy0xgZ4T4m32JafGSvG6G22gLQFiQvlXmL5SIMK4Ke0hH5mowR9831mkSMxTLaaTaZAnTbJN51US5nMVJRBeYkIReE79CnDJIrnpvy0aFnwO04mN2RwnPPzOLAQfIz8l7FnEFDDWrhJIoRw3yvXLXPONvFb3+zjFdemkeEAioTFPToKZtO5vxYBoNITBb6eh2gthyg01rE0bsr+OEPd2DXbFGoN5Rib2LwpLsXU4MMbe5kn1wttv33Zg+u5XyH70GyTOV+xFMwbPx7uhR+Xvi3c7h8KQ0jTVRvIAi+leU2XKqklzXJu6w0YyPGjMn7dbguSd57aLc6yOQjVEq7oRsdoSog5xSRI0yv0yb5Q9kUicVOSGURWWg1DTTqi9g93cXzf30Tbrgxr/KvmKeLcc7bx2r4l5+chBNOI5XOor16CbceLuB7P9grKsmMeRkTnzzVxo//eR5LyzbMXKwYGhKlScoYX6YSKJzgOw6c3ip6HQ3tVlrGIscmLBQLvDYfuayFUtHGxISL628Yw/ikQvoHvrqJFHLLZDRYKV1xNPbRi8MFjXUP6g9ltzdY71t5v+GXbxNU2XfHa65wq+v7Y+xBSYKUFA2jWj9ycPJkGy++sIyl1bTE6+TA+voFLH5RElfFBSxaVKEPiS2r5D2xpZaexuYFrIGI3WDqJjlH7gVp4hGpKnZVhyMFLQobBcI5ReENUoHkmcck/N1hpMf7qjYAACAASURBVBSuOz7S9goOHx7BSDmPs2dWsLLiI5OtCB+i7NmAdCNEuzYxOdvD5LRqkp455+Hkxz7qVYUkk+Ic7TuBCLHyIItvtA8sjpG7l+hm7g0rZSKVykjuoUXkD07jscdmcPsdBZQqVCdnVqO47JSIg6KRUmJVa48tSdwbrQivvDqH997roNMjpwe/kB/ABO3bW4VMMDzOi3Zb8DxHyJ6p8HXdDZMyhvDlyRUJpgm1lsqmSADHVfq+wotKartdF6u1BizLx74Do8jlNGRSGiqlNMbGLSHDrYxyLMqVGf8vzlCd5QK+ONVFrlBCNmsjJQnnYAGuu4UKXupHsK0epqaF4hmLS6yIEnaewspSTQIrPggZ+NJo9NLI5TJIpVSlcoDwUoTyUqkNyUngC1nmLbcUMTVOuLYJK6UhzUnORJhwm8Zw8ye2lryuLx03jAdY8x1fDX8XlxcHsca6ave3t6Kuxctf22vX3vrh0uaVn/PVjGPsH5LgNK5TKCSgIgYnofLKsoFf//YCjr+/AjPFbjTXvzo7FS4nf9EQEZ1jtnDkcBmHbygJkV8+T2PBQlgkjr3V8XH2TBfH361jcYnqLjQ9HVEzHAS18ecnBtnX0KzX4YdtFMp5mOk0VqotLK9wpC3CxFgFExMVgMFKf+5bFVnUzzxLjmtp6HUd9DpduJ6D6dkcDt2QQbuZx7vHllBvdlEezaIwYovqqiHB+xabQG7AZm472USE+BJNRc4NKh6qrpspiI/+HRzcz6GPE9lmUXxSQgzseCTA98ZqFYFbx4H9JRw9Oo2Dh/KYmEhBMznmbOLVV8/j5ZfPwA8owVtByEI8+UjonBI/189W4zW1UWIu15/8YvgN6r4kRceY7EIFYHRkni/wZDMmoExu09orTtby8L8mf1eIVKeTQrO1ilyphcmpMhbnO/DdPIrFHGA0EAWqsyKoMUKgXQavEYrFDPYdMLFvbwaToxlMjtsoFFUnp7Zi4Oc/v4zfv7eEbLYk3FZS3Oov5uHzWm+V1XoPQx+a4WBqOodMln6Ca0+HZRUwfwmor7JxQdLNtR1VqsZwDTruKgolHzfevAvNVhcfHL+McnG/NDvI19ass3GhEijxIUEDu/flMTOTx6WzPs6facALWrjuyBTGxguo1zsI/ER1cZuGe82lUWpYg+dwRNJDt9vG+KSBW24fw/R0GhNlHdMzRSlISlNHCnzkZFMlyVg6TRJRGUhn4dlTfI4cUWUBUY1sxMXLpPIV1eF2S3j77Rp+8nOq/9qw8znYGV869EQi9xzeS/pBkjsr1cukEKprKXg+g6wmiqUIpXIGjXoPvS6h5UQKsnjLEecqsrkA4+NjmGfjBxYqZQP33FXCnXcUkBPzoyStWcxLtqaseBYR4uKrWvRD93cY6d0fkP0q9//a/MO38uph2/OtfMHX/dC18cSWSIVEXXmDr2RQvrLq4pVXVvHKy1V0eylk8hoyVgRTo1CEEjswTI7sxojgvtS5UmPlOmFgz2YBR1+77a4gkiemQtx11yTuu2cUMzNAymRyk0J1JcArr7fw3gcNIS0frCPFL9LruWi7RK52MTFq4cEHZ3D3XSVMjOtICZWFRPN9U6x4JftA5SFbzJfoqDcivPDLi3jzjTo0MysFGSYa9Duqg02/rInN5Fg4lazcHpEgGSHlNUzVmOB96Pc1tnh8RGIRGUwfl0qnpOGyvUQ1tgtiU5U/ydoRHnxgFEePcuSKtsZXQhIxubrgAKSAZUneEGmOFBZqdR3Hji0J+pIN45ERRe2hJ2PV/TURd5dYYgnJBxOgurIiisdPPl3BA/fNoMJCHylBeP3SzFFj/ESU9Y9EO6VfwNmKKJDPa+Bgt4pJv671+Drx7jV/d+yur4xQE3W1AI6n4fz5Ht45toSTn7XhBfTdShiEa98h143TQxC4onY5TNkwSM51uJ6Pbqej+BAz+f4IkSoeqEMRpceIRPl3qhGnpMbQarXQaXRx4FAGjz4+LeJY+Sz9fijNxY/eJ73LEmrNMqJUDu1WHdl0G08+thM33lzAyGhKfMNHH9Tx8x/PodnKI5UxRX2Q3yQcRZJjqQIDG6+NRh3NZig8r/l8WjiPu92eUDSwcZbNa9BDBzMzWUxMk7CbPlhRFbBQt3PWxr49ZYyUyENKJL7yTXKd4pxibp9rfnCx+VhDCr79D7nilRvFjslGWfe7K1662dfK/lr76quh04bjzMQ8bh7NDRu0dQCYK9BL63PTwUlTDErtbg1OEOCTz5v43W+WUV2lJM9A6PLrer/B+4dvWJLAMXwb2B+ZKJeb8dWsQTyXEd9/xuJxvM8d5QdSMKY/scjx0I97lEHklEatSkRu3Jw3I2QyWeRyJeEglReRMkq4wh30vEXYWRczsxNwHeDyxQ7cXkYhKGVPEYnJ9ykfKP/TOIKsuBjpw6KIfF4aTD0Dj4DbwINp9lAshzhy0zhuurGIqQlblGaJfFR2go544FfWrIbNEViAKmBdjgtYFuuWiqmf40abzm1+/cefyKCTsJhqYsQ/6zGyQQpWEZ2WkigX4kq5aTRwvJFrq58kDqOzDkU1LESn1RKp1Fw2AyvTwaHDFm67cxw7pwmFM/DJZw5eemlRkm6is1KEtAmn7uYLjEGBFugoZANMzahAZ36Rc+GsJqaFbFk2tBQflNHWdUNUxRQEZOPPpskTFQSjjckpE1OTBWRsqtOksHtXDtkMEQixO5A1M9gwQt7W/3l9Bny1ZzRMSHflazef2e17p/6bhos2G93DfjX5aqf0J/z7flx0LUZok+Uk/zz0O7lnAjtVa5B/SgDJl1Gpog18eaqOL045OHfZR73F9cT9sfENY9WenDRR1APQxOiYiT17K6hUaCB8uI6FWi1CdbWBapUKdEwOMkJErRvcizSEGx96oIsx9AIaRBJpkv8qRLPVQrvbxVhxQhSONH4Og1u5qJigUwgzBz8T1VOvNZBO27AzJJYlKiuN6ooro1uZvIliJSdKeQb5+bYTvW942lfeKPUMklGKbTqWBAkUf0eiBOU6PXhuV0i3s7kQO3eVsH/fJLKFtIyknPhwCZ9+ughdz6NYKiEyYt6FLRK7b2orqK67sh9JF2gzQO7VvjMKbTi9HpqdBcVBFaSQy5aQL5CPoivjBf04qZ9kxnLvOhFvIUbyWRzaP4qDN5jIl4DTJyO89NsGVlt1ZLKE7qvCxfYPFbWTsJ1KhVS77XbIERAinyvLZ9KWDfPg9IMoorTaHqrVVeimh2KJMGwDnmMia08I+bIfOHAcbkYl6c7mRKtdlyA/ZdryWrenHHihmMLIaAYmARVRgvjY/pUMzosBnDIAvMfNhod6Y1VGFonuGx2JsHffKCanUsjmQ5RLLADlZQSShoOJIBthLDqx+LtS7eH8uVW4vRCjY1lMTRZFLpnceQq9HonogeNwbDHCy69exIlPmgjDsqhlEr0iggTxek0IpNdemSLi5Zhr0hVkQYsotAxRYxafE4MkU3jInF4bGco706cbQCGr4ejtIzh6tIBclv6cSAFlL6y0ru4pg6MkYegHUMMdGKbOydpJ/OH2E4Frf1LfzjuSM1bxxFftGH8757bRp0r9c8vbvPkvWUQ+e66HX704j9NfRoIGMVJUoKNoAUfekyLpIDQf7BOlxup5Co0j49RE5XuhqDvVW12UiwHuvWsC990/iqkpQxC0p79s4s23m7hwiWPZ8bklPipuCNG/uV0dfs/H+Dhw9z1l3Ha0hHJZXWyChhViXRZ84v0qdkaKP4E0OShqcfach1dfn8eZc4wJU9AEfXrlkaifka+x2+bYtwXLUiOOqsilmgPbOQZE6oNx8e28TzyFiKkoXljDCHD4BhsPPFjB+IQphSRDyIMVgkphzBhvKD5APg/HjfDl2R5effUCvjjJkcUMcjl2Y0n4qxASg9GbeOQnJjYQFWHyWvoBiiUXR4+O4/77x1HIeQq5SzJwlig0FrCGAJpDBV/1RIfXnEKn9teNFPnXvWTo5nxzFmObD2vTB3OVM4mLdsoeqw9R16liSPWzQsxR3p5cnisrAd55dwknPqjDc/MwUjYQC+gkr1cqaGyAUoQnUXUfnGSiLp+8pv89yfdtsdDU57HgHKHdBBx/Cbt2p3H7HTswNZMXsZ/aah1zF7s4f9ZHs83xRcYagNNzRVX5hsNl3HDzCHJ5Eyc+rOH3r1fhuvS7Ma8nx536t57FW/KKQtCJbOSEkQHLpoANSbcDKcZZlimiK36Po7JU6yQNADc2OVEDmGkfY2O6NIIrlRyKBRvZLBugvowbW7ZaUixcxOFWPx8crLuNn2dC03G1gtBmtzWJ77a7jAa5zJVp6WZ2PFlXw99xtfNVeU08InfFya29F2t2yrpG9WAaIV7TcYlK/ZTQbsT+QQSv1HTC5bke3nu/ik8/aaHbYZE2jU1M73ZN47Zfp2g5Bnvw2mLabX/NmhduFJfRnjo9Ih67cJw2cvkUisKbTI5iTlowAGRsq9a9F9SRL2mYnh4T8ajFhRZCn6Ibdryu41qMvGfwDNdcX9JIFFQuazLcT+T04hikj0rZxPX7p3HwQBq799rIZcnPTKAGB+SvzNW2gcD6wxewCFlVVaNYe5CqWZopDPzsSpHQOQkGYkhYvEL5nkEBS12wqrKzM0w0F5MZdsyj0FIO06xjbELD4f02rExBiHrnqErld6DDhRFkhBtoU8xRotwWpJBJszPmCe9OraGJRLBKupLVSoUwpfKWJI1bFYNITk+4NrvtVIHiZmXAP72bKlkGCiTRVm3nmGh+8IB5f2R+tn8k0rCxfx6qAsurhl6ril/xG+NZ78HPa3mCE26e2F7EhnkQJigFkaGzWD/qs+bnby48+Grb/NrftaYoF/MTDVmnNYXPpAglv08q78nYqzh4heJhgLjGwIUKEkreCvV7xUnEPzvNEB++P4eLFwOk86OwKAcrCJ5NK1gSWAqRt3TVPOE0IiqKUGhW3xGmpOjLvWSadkyKzcRBoXY2O8gDogpsaq2RyJrBpEdhAs+X2WdBhlEJNCk4JSOxfcOmokdB9TiszqcERcIitu9xvIzgUg+aESBFwnEqLfKcthu9X3Hy69dnPKIp63KdHO5Vlsdap81AURXpWJAXrioqCEpSFCBfpIqhh06bP1qwLVsS+YiEwRzl++oz2te0iL8pZxrjddS4IqH1kQ47w+JnTyTaiURNjuH7xLXu0Dn6XSHvLVpFFAuAZnVQqwXotHNImbyHa7m5tneRg7VE+DJtMYN1acAEGqwMFCeWJJbqz74FisdhOLoj7/NbSKV9mCmOxDEi9ZX8r+zDoXFNSbA0hOQeMCkoQv6cDKKQgTFRTgoVshEc+urXpAo9CsWrOBypjtbtUl2GSBT+QZXKAGHoIpVyMLMji337yigUibwEmg0NtVVPEuBcmaM8DZz5sgW3a8BO9bBv3xgOHKygUNSliEW+PDZgGr0GGi0Np8/2sLLKhLQgvD861zj/F/ugYdvVf96iCsXrpg1LqbUgfpr3M4Qu6BeVvGqRLWMoTGjNdCD8KhyF3jljYecuEynTQLttYrnaFf6xkbItwigROvIdonza50uJO5uxbVGuJmkYJfD+OJC8+s3/o79i0PxSHCxiF78l0v6verFXevCtuGKYXG/RGAyAxQUfn33moN6wZdSXz1mjkpKIjgw1FgWuOvxZ/Du5RyR1jB+yOjsmME2vC/ghJkdsXHfAxvQ0C9YhTn3WwvyKj8hg0K5iN+5xVYiLOZdYgA4phEGlXReTkyb2HsihWAa6PR2tFke2feRyFrJ5G47bEbJeK20jcOjDKc6RQrcLnPyiicsLBPDn4uvauIClYNRq9IPnY5gsICkKAVX0uXYXOGyHryWJSgr+tENjlTQOHsxjaiaFTCaCTXXhhK+R7WXGfyH5IKlU5Qvi7PxFF2fPdURxlzaMExYSi4vNVYVsFUDQriU0BUx25NXyDCkaMzIS4rabyygXObqlCXqZ44a0y2kjHkWRKryKR2SEhmMtw833mDuxH+4mgOt4A6xP2pl7DnzE14tXk2LGNe+19QMT6z5Amg6kmJE4kbc/iRmJeGChxhd/x+SRkyHkpyE/VL1h4sL5AKurhihjGimlo0ub3ueVjIuXah9t3nyXU+o3FDYak1p70uvXohcRJehKs4e+37Kp+Byg3W4LCXTeHpcimma0wGah51gSH6ftCMVSCikrQr3K0VNT/DDVuBWKIxnr4/dTnIv+Qu3vgbgYfZVC/8kd4IMyeK9YLOO9VEVjldtw3XK6xlUoMoOAB5Let1AshLjh8AQqRIQFvT6/KPOyNRxaiS3faCHETcbBStsG91a8aOW0BVk/nBcOf0nSwFT/dkXRaV2uJv5mk0NROQ3s71avFQ5Lcp8JNxPHj9eex3ozPvyzek6DI6DqXvyjstWDwpuU0Pv5UoiANQT0ZKzusxMtXDznIdRYS2CuwmcUL9pr3pDX9oZvKua+tm9d/2rVVAwDFRMHIRG5GtIpghu4JVjoTQpYKmeB4SCb04T3rtej+BX9YEqQjArdzzyS4AQCiWKXGwMtBt8+vIbYgFHTCPwM13ERRE2k9TT27NbxzLO7JOZjAYvcdGtQtYl9/lNEYKlujBop0jUWmxQjviJDi5NCnZXzuHuSBKx6Zy0CS2DFSsKRDyAI2sKTQMJqLczDp5JYbRmeV8XUCAnELMAYh27koeksYPWg+zmEVOJKFF6uWAcqiNDJw6C5SKebwg/meJbweqwtRqgNojpmNBjKsGwWPHB6SZTCPA3NTku6V7k8JWkdZLMNkaxlsNAnFRTnTKOsPjdBffW/I15Uqri1tti1pkA15MT52sEYVdxJGC52iULjkHmNC2qJKeACTQ6ZbR36+coN+PUCgs029HYg8l+5/rEF6mo9NHT4Oa8pZskDihFWArNUD0rGZDZAY7GII0M+LMaGIaorHlZXTdQ6EVJ5WzqepkipXrm2pGAqhOlUvUyjVnOwvLyKdreJfCGD6elRZGwmmdIqhmkQzcVgnqp1PnRz8/FRBY2VdDZek6qrTafCQCHUiPpSgSSDjf6MnATnQ09PtWvj15KgncqkPjw/gpm2xa5SBpfkgQxONH8YeXmtZv3Kou8wkS2Dle0eSZdDFXVVgMjxDvaDWQ/UtAxWqx0h5LWzJEbtIJ2ykbGoUMi5cNoGNdK3USFgu+fxx3idste0DxZ6XUrpGuIQg6grAQod5UYH75knnGEd6H4IwyuhttJFz11GcdRGJleCGSdotDOqtrv97rXk+LGcvCqMciqCSAyyMqkif4Iq6NvMGNnLwDn0Of5iwRC/0VSIXzpsQ3WZlCokP0dBnBnk0iGHgQPN7CBg4KqRZ4bEmPQiiueFjv/aD54/myIMSl34UU8Q0YZuwRM+Dl0QD81VH0sLdTi9JiYmdezdn0axzD1kobFqoLYaSYCvWz20Oz6atRwsvYzIXxFC5smZNEojGmzKkvtEfDho+MsyUtLpFOG4JWhRBibtOatiHEeM76NS41x76DqbRV3hVNCQFllneY4aSYboCGkLaBvI7RN39JgwaF0JdOFxBXRg220RNWi3LMwvuTBJ4JtyURlNC9oshCNFBn6H51LRmP6YPJe8Z3GQHCOeyR2xprmyDkGpFnPciBlKxAZ2eZM1uC4rXe97FCR+82Hy7RYSlG9QtrZ/rDulYf+/1VpTp6yKvRsd8pvtONH+LVsbD7CAnxzD36ASh7VFrOFE2ekRheuh2yshiMpgGCtrKFIiGKKFHSPNh/dw/7tEUk9xBiZIS65PhiAeba1nIcWmkH8JxZIP2yqhtkzxHRMa0U3xPRFGDgL8OWZrmjDJA0X/JX0/noODtOXATLsidFGvhzLaS/uXyVEZ1RM0fy6bh9+hf28KQoPF8UtzDiJzFNnSGAy48tnquamC3AAtpa6Kj1j8LK8rbiZtJ3ZJEuakGMHENokvkrW0XXtEpAzvo8SGgoJ0kSt0kMmGkgBxvJOiSiTlIv9YFDliD90eUF2NUK1RdW5EEDw6xZSEPJ6FJ8bFLCjEBW5ByySFZhapiHiJ0egRUdkOMuYqmQ5VS5gfm3KhGdTgsiVukQSeMaoUHOJCljGwUcmYy2DNbIYKUa9Y2xRWC37trtlmDLvOpmz33ierYKtnLlZB7pMi72eTQ5B/TOgDJqtKcEaKNEw64cALDFSrQKedR9oak3yHTUKOhHLklEeCkJLYVU5gLeH/emRfEsMka28r25Ygt+Q1XNsmkV7k9CE9RksKap1OTwRjcraF/Tv3w8oQRbwiNsR3c4iiNDoUV+l6qNUXRF1zamIaabsL6C0YFGoJ09JMip9mf0RXFblV0VvsBX3sutE4EmUrHp9YjZ4FcnncqsFMzlNDz6PbCnHx/HmkUl0cun4UhaKP0GsjFauervcha4pZ8Zkl5nb9c1YmKUZybbBopEC7PrfbzK7H+eJg7W9dHFuTu8UxO+1Av8A5tPTXvDZG/g1Ol0U/xsaGCBSJut4axM7wha3Lgfprb+BR1Donz62iueLaZlFTaD0ClU/x776WF37pVruDxYsZpLQplCrkeOsmiILNXOC1bc+rvPqrNg6u9ST6jYY4714bmw2Qp8neS/ydQmkmeZ4q8Cp+YtqOnqJ10hjfZwdk6HFeKcXc0FZFrdjGcU2qZ6DyOin+svkbQ96o8EtBCI7wa6k6QkfH5LiP557fgX0HyfFFz28Lt936408PgSVz/+o/LkJ2s/WIpLdpOB5l5n0lQZkEbv0RPHHtawpYkljQmRomAp9KYV0ZUYh83qy0JON6agW79mSxczSPufkG5peJkipJYhz4LSlMaUxe+pw9625hPMetBSlkrQDlSihjU9XVAD2fDjrmH4mDNS4iJk90hClCXraAfuvkjZFArY7xKRPlcgG1Wgea2cN11xUxUSHXCAnsdYHSJl1ZVdWMnWuMxFJFiMQ6MgiKg/PkdUNrI/bz/QvlAlwTv64tol7xu/6v+12N4e+91m349V9/tU7XdgLAr3oWa+7bFTnPlUlQv5ug/OKmh9gUGSGhA9HQaBl45bU5nDnXQeibisg2PtYWzgiyJxEf0Ou1JNjjdmKQrcZ1M4KSCCMiOExY6YwYI3a7eD6C1trsSBrdSZuE+484xh4VX7qwshHSaaqGssqfBJRxy2RYiU0jV44rBSC1R4iB5L4hYowdlzSMVBopC9AI5w44HrIJ4uyqD26r98UIjqt+hnpB4pgEdSVoNRpzjlZQ0t1Hz2EST0i6ASvNcQiOoBFxlYJt5aBpKVF+pGOnQ/62Dwmc6FziYHcjmPF2z4FrMQgdKRqo2DYlxblUmshZKtgOiHYTx8rv47W2yU/T60DzO8iZTFLJpRVibGIPlhZVB1khINTZbDfJV50+ImKpSEhfYMH3qVzGOXxFts/RujXBc7JnmBxLJ5UdKk3gzdDayGbTMIy08DnRr8gIgvgZdS85PsgAmggv3hOp7bPAw2JwyoRtWeSK7zvv7d7feIX1GyCqA8x90kOrzRFNjnRw/XRhpQ1JkIslTRBYu3YVBaVEm9BpG0qFDB7qnWW02j6+PNmA29Gwb++IjBOTQJqyxuRa5J4n506900K9peP4e1XMzZE4uahqTywks6gXF7A2ejbS5WaHOgrg++Qckd4wdCNEylT3Q/Hi0ecysVfqVNk8oew69CAtap5TMz5Gx9JoND10ehrKefIvULUqra6PfHjsykcmXJcJhSOFYSrwGIYa5ezXacTerOtMD/m14bQ02SfJs+J6GeaxWPMMB0Dngf9c/7lb5rib/1L5sWSMPC5urHl5zBmRuNt1H7VVEepqJeHNzirOpzYN/AfFsf7GGkKwKB7PwSDgoOlGBGOr7eGLk6v46MQyag0TuplXvBqCYmdlOgZUxMhnQVH2r32APFAoL4ofKBJxroFmNwO/5yFrdrFz1scdd45jarqC5SUf739Yx+X5jthitc8SlVsWUXREQYziJwG038b0jIED1+dQHo1EtdZxDPR6PfHNZlopY3MMybYyIHhLg4N0CqjXXZz4ZElQ/z3fhqlRdGXtOPfwfuK94n73A/pmIkHpG9W43lbBQlKgSuxcknAOK/ht26ayTC8NFn5ngJFSiL37Mhif0JHNAnbaQkonCiuCgCHT3KMhdPIeehEuXmzjg4+WsbRCu5mJk+0AfsjiNo8EQclnOzxCGO/XGC3jdDmCvITDN+jCY5vNpKWpQEJ7Nh6kjRAn6GymSHEsdiBCOD+0aYf3hSqqDorXa/b2EKpgI7t9tTjz2mz913j1OpQK+cGSK07QWWJK5DIpUBWi3fXx2eer+OC9KlZrRDDlxV4aVFSOBXCSIrFaN/F4edzgGy6QJn6dr1HrZHt+e1DoYuyUghf00O01EUUuLFshZdqdFkwYKBdmZFxUN6l6yCZ/Fr1OD0bKgZ5iA4yo4jSy1qRQBYRRV5pLXBsDbsR4EkZiLuaUpG9QI8ecTlD92FBG5Rk/+AF5oCN0ew3xn5Jb6qb4fT9qIdS6Mn7FmNf3O8gXQhw5MoXKuIHQ7xKHrJBXif+IF6HYtGEQwLq1yfXbLwglBfuNilLqgV7pmzYx3rKjrmgubO5/1oMP+JxZ0BN+I7Gtg0Ny0oExjqWk4iiGPH+kKBDwQwy4SL52nSNSta/BghaU3NAYoR+QHkgV0cT8k482Llix+cZ4LymyuYElMUGt1sXJT1x0W2Xk8iXoKUUzAcYx19Ac/Ro79E/grcrQsWHuum2ZEEmZbLKyuJQgXRO7QZ+khBrUVAl96KABKEX9hAJGqGGUsF7yKJMYQH0aY8Hk9fw8Ckdxb9NP8Pmswut1cPBAhO/+1S7M7mLzkxAAIrCuXJt/YgUs1Y0lFwDRVVShYiAqKA4APacG3XBQKIxIYi1rm0z5hK3xBobZKxBYnG3mOBTHLEjAyUTD6wXotZvYsy+Px5/eg9tuH0XJ1nBp3sFrby7h5yKtDwAAIABJREFUoxNU2yABIU0lzRG7SZsklLyn3FC+hkLOx8yONNwgkDFEx6cxs9Fp08iqz6ACGYk6VeeRVX7Fn7LhEWTguk3s3AM89uQuzEzbWKV8uutgZppkgwnRp5yE3KPYhsXw14HjUEBLtaRUF3jIvsSEa+p+8v/WVsSHizCq57u2y75pP1kEvdbety1j9z+Bbf1NnkLSbf9Kn7lV8UoeIj9d9DSEGLXrpfDSyyt4/bUVhEFerdkNDikkBCZqtXMYnQjw4EPX48CBUcFuXDi3iE9OrKDe1DAzOyIdsLPnmuh1WexNwfV6Qva92RFQ3c4N4RFMERgg7Y7nrcKyu8JZFQhHHQs6NJQk7GQnhueZyCQn8op0Rj4WFuclCM1n0xgfySCXT2NublG4ucIwh9LIqAQnX+/YoKofL3gV1G+/kJQUZng+qqNMpE1aiEc7rSqMVAN33r0TN960A5l0SoKkL768iIXFFnw/i9oqC3QpaAZJJRMG4a93dX+od7OI6voNpDMtTM+MYe5iA+2mgcrIBFyvqxzX8BHD5lnAq60Seu9jx5SJm24cwe59GuwcuZDK+O1v5nHhYheWrZKda0m0kg4x+ZJWq3TS9Cc9dDotzOyYQKFAgtnNLJKBdtPDwvyqFNcyOQ3j4wWYZhrZTCVW06JPUUTSXMd+0EW3V4uT3Cxaq+wgR0jZbYxOpDBSGoNpUIaSnFzs+l3rQb/BTqMagWfQ5no1uEEDoYzT5bF3dxF795axZ28eIxVDFHc5dielZCnoqREqrms/itBzQ1y+3IbvhJiZKaBQZDAR87BJgZwBhuL5cjwTJz5t4JU3zuHyZQemXkDKYLeNyapKvJMkZ23irfYQC6Us6gYch49HUUyjrGSXmazqDlyP/Fp89q50+NJ2EaafRs5u47bb0zhyUwk2R+dTFrIZFtU5qsnCQYJGir1ggr4WItAELTDgtRuMjKhnoJAY23se4ku36HqsVSneoKK1xddoV+O+i5+hcgHrT3hAHr6J8d+wF/9NNHC2c++uaMSraGXDPcjXsth5ec7FG29dxKefNYSXRyPfhhSwmHXGCHZZXAO0krp2VcBS56UKe9KFDxgLdlGneqjWwi1HRvD007uxd58FMx2iVnfw6msdvP9BSwrdCtHH70lUQzl5yPhRh9MmwXMXjz4xjbvuLqNYJCqJ0+4KKaoScuXTFKhKIWEkUSZqxNdxeSHAa2/O46MTqzC0kb7Kd7J/+n/K/iHmjKhEV2JkXcspbhC5yKGx/HUPf7gTn6yb9U2t7a38+M4SQS3718MNh1J48CEW/4gyJaqVaYZSemPiwZTQiMz4uiK0uyE++riBV1+9hLnLLDpnkU5TrYo2UY1FCwpLYtS1BSzaLSLD+Vwa1RqKpSr+9j9eh6N3TigCeY3obDa7+bSkUqjs17qkVJF3b3ZsPda6lf/ZWsLnWu7w13/tmgL80B67Yg/GBUFOjdTrmii/vvXGPJxeHql0DjDVmk4O4SV2XWlossG5PuFP+NH4+yuoMLYwNAlnFtcqC53dVhbLKyexY5eO+x/Yi9mdRWRtA61mE+dO1/DlFx0021mSOQpnltvpYXxUx+13jGNqFxu0ET56fwnvv9OCaYzDoFIna96G20cuDkYIiZD34TlNUUY0DBsG4Xwa1Rc70oAkOrPXZNLeQWUiQnmEY1QRqstt8VdW1sXUrI0dMyMol7KoVDIyUlsqmTIKzzidY66JvVtTNL2K71nrT+Li6hZFqWspwmyOBb5yDa638Qr5lDQXB0VSZXHXHsPpzIBKPUZEboVIXr97r8hNkykscQL9eD1Zan0kViyyRBV2jnl/fGIJx99dQa2WhZEqSEEt3AA9/vV34h/vE1RxUN0fJVQ0XExWhUDXr6HVWUW75SBt5jEyMgo7Q9QwGwmDc1exHcVQPBFgsmxL9r8qbsdghOSpD08QCWI49vGk6pAxTyENVxN14i84EaGh1ewiZdQwOWHi0UencPNtZWRsNW1En7LRWr2GAhaJukiWzKv6tkjc1YUxoKUcZLPeRa1Wl5tv2Qb2XVfAvoN5dNs6Fi47cN240CLoqGECSO4g8nSQH4QJSwdWNsCO2Rymd+ThtBtw2w0cODCGO++cRakcQYs89HwdH3/u4YUX5nDqywbsnI1CPgvpi21WUIhVnkI/RNpsSDeOQq6Lixocz4bvWVhZriIQ0mwXxaKN2Z2T8LwuWi2OPA5LqiebUP0ZRj2MVIB7H5jCrTcXkLMjaOQDE8WshN9hGxvkau3VuMg9+KS1Ve4rTNG6m9FHRgyffvym7QS227iCv7xk6A4kQYh6DBEiXQDfOPUF8OOfnMPKEpEIgyLkMDJIxqZCH4VCG0fvLuOOO6aEc0iQUl0Nq1UHDvk7iiksLPl4/bUFnD/HdCGjiip9ZND6lgmtg4fVaheNaohUxIKThlyxhlvvKOPGm2dx9myIEx/Nwe2RWyQOfqRyz8+NR6rigla7rca1SsUMRsoWds9mMT6VgRs4qFZ9nPmyg1qV3QIWsrdfZLpyIQ2CWcWTpwI0pdzB+fyrIbSUUU66UDJWQV4uAi8DoLrUQa/VxvSkjYcfnsHd95VRrpDDhV19jjC7OH+hjVNfNHHy8ybaXVXcUxxH3+4RBEwGlMwunVHi7Lb61qRIPvwaXn+nFcANqrjx9hzuvHsfzn7RxDtvLcJOjwjZeb8DzKcVcMRGjZPSjuWzmiiC3XZrAZPjKRn5gk6y9QiffNrBr37dwNIyRTWsobrBeqO2UQtPjZ83G03U6lWRxzbTRBqu4tDhPei1Mui0lCqiSjAHYRc525gocX91enXp7O4/sBNnvpxDxpqSkVjyEtLxN2p1ZPMpTEzlMDJqCOHs0kIbr//2PNKpERy9ZwqHby1i/nILZ071FP+iJGvXeihlNcASEulWu4qZXSYeemyf+LdK0cJkiegrIiZFYzBO3WMYuMDYFIpHyRJy7SoEmUo3RcdL0IOKNmr4HvN56WAX8/QlB2+/fRGfflqD180iZWRlnIsqVQwCbduKx00SJ8ACNfe8j2zBw8HrR5AvGliYX8HceY6txJwJehczsxkcuXEaq7UOTnw4h3Yri6BrIp9u4bHHKrjrnjHhgRQzJATWPMe1e1Sh9ZLANm7sJMiKfiNnbcB9rU9i09dv5Gu3iubXfdBWxaQ+eix5z/pu9frvHv55G8W5zXz11QpcaxpcG13/VucxjLyNc7NkhDvSIzhBhMvzAY4fr+PjEw00G0qBkAUgh+M8tLccc49H4ga3U/k/duBph1mI8lwPzWYTU1NjOHhYx9SEhcPXFTEzRbVZFYi3Wz7eOObirbeX0W5zJFUF2FxjLITTXjZdH+1GF7bh4sEHJ/HU07OYnjChXMVQQW6D59EXi5WRC8jo1skvHPzyV+dx+RKLOGb/evprWLhc2BxyUCybKJVtGUV3e7TZFLfgFxOFsPG4u3wOvTc5GDleQ7QExyFTKZgpFsCuAdWqrLZCR5sB7r93BPffS449WkoPOth9T9C2vozs6IgbyxHjFKKwPPz0x6fw1u8b0PQCRioF5HIcJVinMCtomGSf6uh2HDSbDaE5uO5gCtNTAe64YxzlIm2WagRHQuQu9MD9BEw9hsHDSDho+2tlzfpUxe5Nj23so2/MlnwTH3QVbjSVFCpOReIcVlZ0fPRBG++/tyxxVkTxA00XDlPyORJ9wb1GbtJkpDApEyb8vkTlMIYiulmQgrI+146CbXRpyWhqu9XD6qKL4kgT3/v+dbjzrjEUReUSCFzg1KdN/OIXp7FULwPpArqdOnJ2C997bq+otXO00I8CfHGyh1+/sIL5eQNIaYiEmJqXm/gL5ftch2q+HSmSzc7YWJivodVysWMHfY2JixdWMD9XhxmGuOnWMdzz4A6MT9iiarq0SBU3B5WxLMbG7BhUoArUUvxmZVAQovG4s9o+V6ywNctqo9DmT23dxeuqT6+1jRyz/8y/zrWs8xdrYT7ycNXXxJSIEh4kJiRis5G23ES97eHzU0288XoNC8uOCiF8EoVvTHXxTWzFP8RnDHw1GyRq2ov7lSqECr2mbCFfR8V1M93GoRum0e36+PTjOcnLqBxOGoZkX8s7okjUQelDOHmQzeSkGZlwy8okWcjJER1+QAVSojcVOlGmyAI1xs/GDqfSSOOh/JHyWa1WE8ViHvc/mMJ9d+/C6CjpIXgG/D9Vc9qIN3bzAhYiNJrAK6/O4fhxQjlZaCHMV0Eswy3IN7d+UOsCxzWLmYvPQ9AdRbvuwwkuYHYnsGM6h1LJwOEj45jdVcBqzcexYwv4/LMuHNeSJctRKBZ3SD5GMscozCH0TPhuDWNjPu68s4wbrh/BSIUjUgzsAduigeXZBlJJpiNvdXR89OESfvfSSVyc82HnZmCnU9A5YxsTTCYdd2X4OTII9FiLiuqY3ZWWjvfKoiPKh/W2jeXqCkzTlc9gF+GGQ7PoddpYWGCSnkXaKsYqOQpRRpSZnQFmpjq4/dYpHDw4iWyWkMuEdyFGfSms8/b2xdUMzDY/ZntfFr/qat95TR/29V681al8G5f+jRjrTS85iUoGV8Wub7cNvPzyBbz5+0V0nAoMdmkZ2LECz+AxcGCnezi038Cdd+7G7j02MnlVRJCD3Y2+HKqPnmvg1JddvPLKHM5+QYLkIuw0IbtKmQJGiFCIVpksptAjGWivDsvoYe/OEg7sL6MypmPnriIq4xlcuNTFr16Yx4XzlMzOQDO7wm0jYg0a0RRpGduKgiYqox7uvHsXdu8popAzYadJXKuIXh3XwIlPm3jltUuo1tPQPSId+RRVQss9mZA1iwGVMS9luMW3DeaIBBJLp8VuOEkJ6/UuOl3OeKeE+Loyws6yIcgywsMZ9BM9SWJ6FtMoLhF4Ojodypxz5NGEZbPkraPbaiKMVnD4Rgb5u3D4cAnFIk8j7jTHMzCsY7/1+yWRhm67RLsRrKkQBUygVAConI/Ad4eTcD6zUCGTGDBJl4/dJkJ9qdjKQosQyDPhSMEmh6CukDetToROy0MhY6FUNKClIjjSvY5RB/xM/ifBVwhXyFJ5p5n4EPauEiGnp6FVa2N83Mcz35vArbdmUVvW8C//3yKWl9IwbZJxO3C8PDouOW1Y9GGxxMUNNwFPPzGDw4fKyOd511T6IQEfIrTbEd4+VsUbb15Gq50D9Kz8lraUrYJAp3QvR1LpcBkoUiGIJKwsKlrS2Wm3LmJ81MH99+2VBka305RRs2NveLh4IYJpp+CjI6NsGtd2EKHbacOwHdxy2xjSKQetegvjk+N4592zaNWm0W6HKI3omJxII4iWcOi6MVx/aBqjFQuZrIaF+TaOv30ShXwZN9+2C5kin/EiXn91BZ6Xi9di4gv553ARJtnXa5Mp8TXkr/NzaK40kbUW8N3v7cf9D82qcyd/GklJ13iFoWg5CeaS9bNOznlNAeOKILorfAfCnRdpmJ/v4PVXz+OTDxvoBBl0IwuryySw72F8LIdinjxX3I8ufCOEEZTgd7qY2dnGk0/PYGwyj08/qeLdt2tYqvJz2fV2cesRG099Z1JQLMfeaeK1Y200qz5Giw6eenIKt946AktUC+OOYkzC3DeVyXlvatSv+oJv3tFcQwFru+5c2esNTvVbdWZf79Zs+93xOg04oqKcF1arHj58bwXvHV9CrU4DmUW17aHT8VHM55HNBUibHN2li2CzVRc+HI7IQsvJGGyvM48Dew08/90bceTWnNAv2AT/xXxStLUsWh8/7uG11zm2SGJmMcbiGltNH9VlF80mebhauOE6Cz/4wXW4+ZYC0qlQoemlEj4U/2xYvIvp56XSSm4f4N13LuLFl+o4fZYKqRZKeR0Wx2FhIQp7CMMeWp028iMBRkdLmL/sIArzsG0KGMRfsm49yGkIXyRtpMtqGVJEh/kBOl1SXOgojFaEDJ7E+AqxtFaVj/+ilP34GfwpLePRXreNUjHAs0/vwK23Eq2jihSK33XoBkiDSiGq6Lvop7rdEB9+cA6vvDGHi+ep/lVErpAS0nBEtlyPpnnQQxIHBKLM6zgBmlUXExMRnv7uBG45MoaMTQ4dgabFc39xGDNs//o2b4vVdy1x6p/D/hq+FQnrtTxcxZm1tOzhld+dxycfN9HWCjCiCvx2iHrjS4xOBpicGRO0ltsxoEcZSnEgNNqINAeBY4u9DnwP41PkMLOlISUqwKEJ12NzLkKaIgQMXUJHkfizwRFa6HQoMtLAWHYBjz65Dw8+OitxWKK2zrW1cL6Lf/znT3FmfgwwK4jcC7j3aAZPPb0TpbJ6QLQc7V6IY29X8faxDlbrOmA6sqYY77JpRQW1wLfRaNWQytTx/HMHcfSmUSzMV7G60sSu3eMolbK4dKmOTz85hXzOwE237MX0TFnGY7mmSU0j9AAUmekT/Cd+m5svXjDJuvlzWT/X6kY3tIPb9ghf/YXD+1+I4FR0RP7c1UaEl16q4t33q8KHTe7g4fHEr/6la9+paCbW5x+xrZJ/TxrwcYOx79xjrJoEZtJaFPCKNJo52xSw5MwiEeN9FqR04VUU1FnkyrgkqRusLPcP41p2GVgj6UBDFznDxKGbAjzxxD6Efhq/euE8Pv+8CSubg6HllCAQ6ymRiV6rC9ts4N57p5BKp/HhRx6qtfPYs28E+YKFSxerqC5FWF50kCtouPu+vRibSGHuch2nPq1J0erg9aNotBx89lkTnSbQbRKxSwoI4LpDJTzw0EHcfGMGtqh2Mi+LBRfWVCHX3dtNSdxBVYoIL7+iCliOa0PTWcDijiWHxlc9FCRMZZJ8ekOyAXRWgQu3XcbK4jKO3GziuecPYOeshZRBHgES1kbwQo429STIOH26ixBp+KEPg8GG4QrZp+/Z6LYc5LJ1PPbYNO65axylwoDvZD38Phl/4Bpvt33hJnjtzQUsLeek266SRlUFVFA89V8AH13XR32FVfcmbrljBFOTeVw838bcRReX5tnFaEgSO0Kp80wKe3ZW4HQdnP5yGZcXWvAD8iPkZWOl0iFGx23s3V/BgV0GZibpADjDn/joJDlPFvWfi0X8quvpv9X3DSe3JD9Wier8XA+/f3cen5xsoccpJY4aUUAiFUj3dvfODG47UhLJ35RF6P5GeN+kI6ehTbjtR0289LvLWJwPYZsZmEYefhjCsAKEelv2gxSAOh3s2JHD/fdM4PqDWZSL5OVh4YkccgEWlwP86sUFfPYZ32cj1FqIGMCEaUAnp4AFPTBQLDh49PFpHDmSQ8ZWCjiKQ4mBKseQDJw538MLv76EsxcMpEUJgwU2xXGSyMtL6UUCM8X/lvAxDO99oX7u+aIc1WmFaDVdgbDT6VjktCtbglBiByGbpQ30YWfJceChUePomyGIkFarjdqqA9815DpIoFIserjnwQoe/84sdkxbsE0tnnpRA71JIY18+cferuNH//IFegzmqVzVbgmPSibD/a+KM+o+qIIjTSe7GVSFJDeY5weiZGin0whcF67vQSfZh66h2XKErJukpvk0CUd9NEne3SJqBijl0piasMXR+bH0OxeNOBFB46jxMNdPCcIu8FJI2yyOshDnCmHxSFnDow/P4N4HRlEZ6aDbsvD//sMFnDoVIDdiIYhcrFYtVOvLSFk9mHoegdvD08/vwDNPTGOkuLFtpqldXOzhd7+9gPc/7FD3SvgqfKcBXXeQsll8ZOCh1DcjrSeFHCE09y3pMo2Pd/HQgxO46cgoCnkFe+Y9++lPVvDWW4vIlooxaSwJw23ogQbXq2LnXuCJp3ZhcjQLrxdCM3V88tkS3v59A7V6DwevGxWJ70olxEjZQI6jbXECyPNm15rryEzrcPwQx96t4te/XITrZiXoiJ3g0AYcznzXZBkqpKE4SBiiXedsfR2PPjyKp76zC+Uy948aT1eds2/jiIM/CaZ4/wLMX3bxe44/fd7EcruAxTkHgdeWUcRiPicQRM3oocfn4RQAp4ujRy089tS4SDZ/cqKJV19dwkKVUUUOkdfGw3dl8cwzE5LMnvzSw7/8fBWXz1dx/YEMnnlqFvv2ZkSlU8UN65ph38Zl/+Uz/2h3IB4uJ95fav6NeoAPP6rh3eMrWKoCizUNy8sNjJQLqFRSsNLkcNSghTaCUMNKrYHVKon8OabaQyG3gr/9wX7cd98EMrkBJ5/srXj8lciRDz/08MorK6hWHdVYobqdDtRWXczPEbLpiR995KFJPPTQBCqVpOOfjFJsdcsSv82kPY7hQg31moNf/K6On/78LHwXmBjPI5dJiwo1ueLIaZe2PGjmKqxMFudPcxSqiGyeDVxXoT2GC0d9JBhjVHLUdbBzqoDr91dQKaVx5mwV7344Dy8qQjfYcInVvCShuhJ1HOpE6KQQBjbajRb83jJuu3UEzz+/Fzt20BdshVQe3A/FwRSi23OxVAvw+ecOPjy+Ks9J02m7LClwyEhgYEjBntQEqysd+I6PJ5/YgSeermBsJGla/dGW55/JF8eoNybvLGCB6CkNpz5t4/U3FnFmmb6mALg+0ul5HL65BCOdwQfvL8NpMd4oIdTT8A2qwAbo1TXMX1zEzp1F7DmYxeXzHZipjKCfPM9EvcaPClAuWshlidhgs5AJuIkwSEvCS27QHzxbwhNP7UOuRN4qxoBJsz6C0/Lws1+cx+vv63C9DKYrq/i7v92D3bvJpxgI6knaY1GEE5+u4Le/WcTSItXkNThd7jk/VsUkQb0u1A433m7h+391EHumbBmZZ4ygOMCIHlGK2BQAI+l4Ej9uxSn4Z7I4/rwuo19XZKGoh2bHwJtvNfH6G0voeRbN/LVLuW7rDsXCbbGf6Rf6+z8PVVMSNXZVIJEpMjofKZiyNyC1B65JjthHcB2CdRRfGxFXjVobvS7jX0MUOWd2F2BlApz+cg7dJpFVGehGF5lMDzddN4GHnxjFzbeMwHcMvH1sFb8/toxWx4ARZRHR5uts4hD52MKR63L47nM7pRn+25cuouuu4JHHjmBsvID6qoe5S12cPV3F7K4KDt9UQiYXic/+9MSKFKMOHRlFqxPg3eNz+OLkArwOMDlexPWHx3HDkTJGRiJYRG1dQxdvixHCCLVGiN+9dAnvvUfm+Sw0gxWzb6KARWOkEk31pypi0ex4ToBWjTe4ix/87SHcdtuodMn40GSWUhythnZHw9vv1PDGm4totdPwQibX7BRp6LpAu+XC91Zxy80ZPPvcTuyezQsqIiEKXLvuFK+TJMnxXO9qw8M7x2t4+1gTzQa/XhEaJqo2SfDMRL7a6KKx3MOeWQvPPrcDew6U8PHHHbz4b4tYuNTC/kPAY0/P4OD+CnKZFLK8nhCo1T1cXmgK6kOUrTQdhaKNsYmMKCvlKYooSbgqXqkY4S8FrG3ZjP/GXiTNXEGdAKtNH2cv1LCy1BNkIEmwSxULO3aWMD6eEr43QWxcEasOIKYc5WU5KICBVkvH+8dX8Mbr57Ayn5dKP4sjdp6qP1R4IdcV89Majh6dxHeenMV4BTLqIQVfVvHhoVZL41cvzuHtd1sI9KzwK/S6LrQgB9sOpAPSa7Wwdzfw3/2n6zAzxWCEHVwmEbEEssJeYGHZw09+egEfndCQZpAR9pDNERnGYIjIIVPOiTxeRpooKh09R5GmD8+Cs4fRbrtoN334LtXjZMgyLoT5MNihj6VeszlFBsqCFbu+Ti3CxISJGzmrnQMunm/gi8+qqK+Sjy/CjTdV8MP//hAOHGThKoQRkYiQtiQp2sccLhHw3gdt/P3fH0e9NQo7V4DTrQusnd+Zy7ErkUKKhWxBHyk/y6Cq1e2i0erACyJkslnkCN10CPf3YKSIUSKStoueQ2WoDCxyjWiBKDq6AZUliQrVMT5mI5e1YGdsEbAgkkl4/zQqSepwegFaq100mi0EHjmHiMIC7KyHqRkL9949ibvvHEWpzPECB0GQxQs/X8C/vXgeMLJwA6BZ9ZDLtXHX3aMoF7M4d3Yed927E/ffswMZa0BevDYwjOB4gXDg/PKXl3D2PIv5JeFD1FItVIoF9DpEX9hC1k2RAfoJKi912h4Ms4dHHpnEgw+Oidy6kuKlTQ3x25da+OnPTgFUnaUyoRtBC2xoQYDRSguPf2cCt99RksIUUXoswjVaAc6c7oILY2zSRmXEkFEarhjxL2xysOsa80cJOpG42lDD+x828ZMfX4TnZmCkEqj7oBlyZUFrvZfiXozQaqzgphuz+P5f7caenZmYeFOG+GBo2W/H8g3V22TcJHSlQHjmyzZeem0Fn5xSSabwfpQZDKYEDaibbThRGm4rQsZ08Oyzs7jznpKgPk5+3sGvf72I85c1NDom9LCF7z45IgUsCqxcWtTwT/+6gM8+Oo2HH9iJZ57aidFKQh66HWjFt3Mr/vKpf5g7QCvE/2RfUVMhirBai/DO8VUcP76C0+dDNNstlEsZpFM6shkmlyzuG3A8DcvVrhSdspaFkXIP995TxLNPz6I8wjGIwpqLSHwCR8FPfOLipZcXsLjAsVkibunDqN7ZwcLSEiYnQjzx+CHcfXQMkxMG2CdQSKXt4OGHG7ZqhJcujlbp3OUAL754CR99uAjoaaTSNuq1rnAlTk2lcdttBZRGAqwse3j/3RoCfxS5go1Q76ikOkZ7CIIpJoZmIk4/4YctPHj/Djz84BhGyyFWqhFefXMR77zbQBDkRVFUBQRD6O5+MkWkNXmvbHiOherSHCojLXzve/twzz0TwlMyXATcsnyX8KMIRiZArRHgnWMrOPb6Klwnr8YIWbCgHaV4h96D5xuornQwWtHwtz/cj8M3ZpERX/iX5u3X34lKbVp4x4S3jGOsOlaWNPz61+dx4oseAjdCpRzh1ltzOHD9CC6cb+FXL5xDp5VDJpNHZOhwAvIWhui1XFipGh5+dBcy+TR+88KXyOZnEOmeCHQsL3hoNlyMj9sYGSN/qWAsBdUWEkywAAAgAElEQVTN2Ovc2dM4sH8C//P/sEs4ijnpI5zBscK1RH+hiw8/7uFff76ClWoPjz80gqefnESKCpTk/ZGGWxqhpuHzL+p48YVLmLuYQbXWRY25FnmWme8FpowpHbjOwhPPzEginyWyPBZSGKZGSdCMiZ34SxHr66+8P/gn9AtYVDj20GwZeP2NJt74/bI0Z7+tApaiNKCSLRv9FHCjeBBHa9mEZn6zDp7Wx/doiFwWjwIY5AnkMA3Hzn31H2mWVpY78L0uRkaA0TENWapLRxaiIIN0NsTM7hzsjIZzZxZRX2Esn0YQdmCYbezfm8Ujjx/Enj1ZaaacPt3Dy68s4PwFNg9s4a9mTEnxokPXVXDX0XEcOsipBh9z820R1ZudrSDDgkaky/5mzsWpNsPkvuYkBP+ddRXGggrF23UMON1QCs22rSNjk8eUIj89GFrhmsY4r1rA+u3vLuKdd9oIwoKcFCIWsSgNf/VjmNR48PcYgRUTWwqsWPir1Fxmt8nkcxUPPTiFJ5/agWJBwVrVXL1SXpIaegB8frKDF19YwLlLESIqPFEQ1iE3SIhOp4nx8R7+6vu7cNddOUlCSKi+cdVcdak4v69xdAcO/Ag4cy5USdPpAIZpywNgN0DJP3Lm04TrR1LAKtk6Hr5vCvffX0B5zMTHH7v4v/7hHHqNNv76h3tx5/15FPLs0DPJESYzMdt+yGqqmhPl9bNIRrSMCsTIdxUHB0lC1Eet/QWBdfUV+Gf8iiEIrzKQcfOA8/ZaJGNjHG1LaDGo0GWmFMecMUSmMhini61mYuQJ6xZ8IVergVYjwuef1fDGq22cOrkA19eQtk0YaRYzqO5mIpdp4TvfmcLdd48hn6GdoGSxKWOGNIT1VQs/++l5vPRKDT6K0K0IzVYLkZdCkeNjoY5eq4Y7j5bwv/yv16NcovXmNqFFTLgLeH0B2j3gxRcX8KtfrqLVZnGXyMWiFFXYRWchj0bS4ehfSvGEtDsdKQopEkGVdASc2fY5VhEhChQ2lEVyJt80OSyMcxSYNk/UT2UkwoOhB5gq6bj3vlE8+NgUKmNpLC26OPXpKhbn2+KoDl0/iTvvHoGdIXKVjoXKUfwGuah+ukPn8cWXLv7+/3wXn31G9EBBnEYQsAAD2LaJYpnBYko6h9JhDIBWz0Gz3UPXIaKNiZSl+GE8JSus6ey8U7WKyFZbRC7EqYgkriLeVtjmAFbKQCaVQqU0AupjiNiESUVWjrgQmdZF1qijMsYODklcdYxUSsIruO+6Ig7syaKc58eRvJ7Oy5Jr+t/+9w9w+gzHQDSMFnU8+cQMHnl4ApYBXLiwispEFjtnizF/zEbE1ESMhag3I7z22hxe/OVlLK9kBIWrpV2M5G10Gk0U8gVBqzmuK+qHHPnstms4dCiN7//1HuzfbyIllT9WJA2x9+++5+Kf/vEMlpZ0eFQ9YpUt8JHPebjvnhKee24G09NE1KlKb4Se4pLx04ioWsR7KH1dFl/5RGndFfml8mkKAi18A9Dw8Sdt/Oi/nIfrZoQwOiF3HhAwq1A+4b5JAp9+s8TXUV1ykck28YO/mcXdd5ZhWwy3mbhzDJ4oRHrBb+GQJCdOcgVWzqJ0GqvVCC+/XMNrb67CcXvYMVsU4ttum+M9FsxUEx0ni26jid07OHK1D3v2qbGnc2dc/OrXyzjxqYtLCw6KWQf/49/txiMPj0jnr9ow8G8vLuP8l5fx5BN7cfutJdjMeThusgXx67dw9X/5yD/CHWD4zBIWScAT8nPGZZ+f6uE3v7mETz9zYWdDlEo2lhY6yOeLSKVorwN0ej5Wah2EXoTRkoFbbinhsUemsGuXBVN3AZ1jvOsKxDE66JOTDn7zuzkszJEzhwVTcqNkhH+p1Z3DLbdZePaZG7FnRwYmkY/k6aCFvypffzJxEBe8xIdTBVYJCFCsaGEpwtvvLuPYO/Oo1SwsL5O+o4Nbbi7hhz/chR2zGZw53cJP/vUklhZs2NkCzEwXJhVThN9lcNDnsSBXr/fgOW38zQ8O4aEH88jY9McmPjsZ4p//+SzmLqvxc46Fpy2lzkoUK32FqmsxRuWYdh7thg+nM4977i3h2edmpbBG75iIN2zcIB6c06B5FAm6yo9CnP6ii5/+aB61akFsumaSPD8tKOZQ78LtpdBudWVU8fnnZzE5rhpSfzm+iTsQFyyZZwiCWalat5o6fvfbizj+AZEdbdx4OIMnnppEoRTh3NkefvZfz2H+soF0JisIuXYnwspSB8Uc8MijY3j08XGsrHr4z//HR3DcCWQKtvDlrC51Ua92MDZuCa0E90yEFHSJFR2srpzE9793O558vCRKwXL065TJ/uni7EUN//n/Pg3f0/A//aeD2LMrAUMotTI2IVnPPXmqhZ/9V5XDOb4LI+shbYUo5NIo5XKYmSjg8OEiDh6ykcspdbXkkNg4VjhVuOOEqmFQOP0LCuubWIN/oM/oF7Bo2wJUq8CLv1zG+yfq0AxbNZeHa0nbPK3hNbCRyIOq2VOhmgIi5IZLIZezBd0XhonyYbKmBrRA9HlOx0W73YVJ2VqDcapq6LoeFZt1OA0H5REXtx8dwc03FbFzRw4Wu+6BIe4gZVM1ljQfIXod+gN+pytq1Yxbd8yWhJ6JfvbCZQcvvTyPL06R5YQiQRTQa8PONvD0M9fh5pvLyFqKV5Wq17xWJe4aj+3GCGCZhJC4OEb19gVQEtqHwT5Suga0QWyKUuBONWS3e1yVA+s3v7uIN99YBVD6/9l7zyCrrjRbcB1zvcub3ieZkCRGgEB4OZBAEjKUTJVcl1FVdb/qiImZmH7v30TMRMy8mBfREfPnRXR1dVd1qUyXXEmiSpQEEhJCEiAhIYEQ3iak93m9O27i2/uczAsCRKZISNA+ihSQefOYdc7Z+9vr+761WNBN7DfZ9zqndrEDXaw9b8yqfOwZ4dVQXNWebiIBK0HPy2hs1PDUkzMwo5FKQrkTCWkRMMqHGHlWemegvT2HP/+5CwePFWB5ZPgtauWRkM1Su2EOy1cE8dhjjZjRSPeekLqUYxlfqnMCi9qnWO8VEmk3Pv1kBB/tHEVB80BxUVmp7bxAi0hTYa05mlHA4kUR3HdPFerryK5bwsnTBfzpT8dRHnbjyafnorKGcCNlZ97ONFaFYZMJY84oTLiShByotNcRlXOEaIuz9YLAutKH/Kb9nD3YsoWuM/oyQtgZVMYVPFlO1m7/GSdQeF/1eITgeJ/yChL6HPf2YkbYoJbq9rMajh0hYcwM01Eid89YjMSsZcxq8eLhR2rQ0uxlrnLMXYwmfWrBYBOGiU2vtWPb2zHkjQAkV4bZIHtcKoI+MM0PavFau6YB99xbDo87z94XVoFVTGBBY8TKoSNZvPTCKRw+qkF1exGJBG0Ci8rVSYfBQi5PixVetaFpRGxx0UCnJ53eOxpT6HypkoYWyORuRq14iRQtgjRG4HEi0IKbZZsLqKoM4s7lFbj9jlI0zCBXNAum7kEuSzoqOnOFIwHQQIA0rIi84iwj05OydZ4c3OneDI+YeG3TcbyzNY5MpoyV3LMJgAhHxWRZDlpgaIU8LJ0T3hqVEdMXGxipF16FpZFluW3yoKRQWk6OOdT2YWB0WEJOp4UbjS9phEMuBII+jMZpkUD99UAo4ILHQ4QIEZPUnmcgTWwhNCxbYuH2O9sQCJvw+WQE/D4EQyr8AQlu2Za/JJc0pikoIZ1V8cc/tuNvm3sQjki4864qbHy4HvW1nKyk4BMunYm9fk1Y135p2VRILaqmhN7ePN59twO7dg9jeNSLvKHC76aq3RQikQhr9c5mCvB6iQTUEPBlsPHhWty9thLhYI6RmKSPQy+LgQKOHNXx++dPo/2MzrJCpBvmUtNom+PB44/Owm23RuH1FjHFrDWR+WrBAJEwjhMoFwy2zdvtoNsRJObvF3FjJ09l8fpr3Uil+fNCGxfO52017KGUaI7hAQ89qjRnMHto8Cq4wb44Zs6S8OyPGjCzmRbjlNjhVsP8TT2/NerqjX2kZ0L+8zTvkBhqgelhJRISPvowgR0f9MOwkmhqKUVP9xDS8SBC4SjcXjImcCGb7MfqFVV4ZGMzSkooWJHR22MwAmvv/hzaOxOorTLxv/zDXCy+ldqiNCSzLnz8SRyJWBJ33VGDmmruaEPzImXXRQPh1bu703FPnASmKlzK8NIrUGB6o+c6dLy7rRPHTqRRXg34fApOHE0j6K+B20djD5GrBgp6CjXlEcydXYr588Kor3PDTRUW9D6RANYFm/MeHjmVw3vv92GQ5B8ocyyp0LLkwhlHZW2BzU23zK9GwO2YJNBYwF3OLv9M8jmVf8oJ0sfbhsllkC70XK+GTW+cw4H9OpJxSn3Ecffd5fj+4w2orvJicNjE5r+exO6PhlmyI1QqIxCmBRHp1NqLCXt0MgwdsZEEwgEJzzzTikULvHCxClugfwTYtKkHuz7qQzbHyatIiR+REspgaMxoiAGvu1gSA/Ain4mjvl7C44/NZFWg5CBIOpB8TuVt7le60XhL1cCxUeCdt4ZwYH8eMhHyLh4rU0skjQMUd3g9GsN95fIofC6a68YEh670cOJzF0WgOOazax4timEk7NrZi907abxNYe09lVi+2g+Xu4DYiIIP3+/Hvi8S0OFh1csUA8ZG41i2tBKPPlqLhiZgaBj49b8ewpmzHkTKypHNJZj7u0exUFoWhupWkNVIk9MPtxyAS06iJDiAZ55egIZGOllaJDtOok7cRM9XDt19wP/85V7MbG7ED59uRsBPySUiulWuh0pyEpKFw4fT+MsrZzE4YGBGWxDzb+NV4iEyGHK7EPS5EQoocNN8TGR0kV7R+MLcYTZ4MuqbSFrxoE1jBNjiiOIXC319Bl7f1IXT53Jw+wJ2Bdb4udNnOEnDuYrznJXHSBsex9HPKZZjJhnMFOj8cZCe42xaQzyRgUslI44gW0sQn8IJHGdOoHlBYdVa2UwO8VQO6RwROy7q4kWB1jUWpXYMuGQDjWUy7lpTh5Wry1FdSesWWqnxbjbW/s42xzDIcRYkAo80tLzsnGWZJz+7+rJ4b3sPThwjnThy+zXgVrKYO8+Ltfc2oLzc1sMlnqTIXMNZS3FDHeauY89xjo5v0axok3l2wFwEtv1Xni2+4u2yBFYyJWH7jk7s2jUCSYrA5aYqhQKzFaWl7cW2S7GRxRMrLUiY0a1mIZnI8gUScymS4A/IuO/+cjyyoQpe6mcmpT/G0tOigwutU4kosYed57J4/ncd+PTLFAyPhiBzWvGyBWRDo4rHn2jGnbdHEfBSxQEBc+ngnhowqL2EuywWWKBhWG6cPZvH29uG0X42zRxb2IKCqjvyvCSWLJnLyi088GAtli6JwM8WPAq6u/PYseMMZtSXYSUJn3loQUoi1fbEy+yVixEcD2QcfS3+0+IPXVBqeBGtgiu+8+KDNzACRQPFmO6FzWSPacPYbbrnESZcaHVcP8YRbXcmaEdXxoFmLGVhK76R1hI5tniQTgG5PAl7FtBxNoaenjRaZ5Vg2bJSpjVH76fjRkTJPUOi9o8C/vJaO7b+rQ+W5EN1nYyZrUHUVgcRDsrMVCFa6kVTUxClZbRwyLOBnbX2UmaMXSsneEnCmxbPb77VjjfeogCcHJncrAqGWiap6ojGClZ9xISeiwJsFrPxwVWxLLhceTQ0+TC7tYQtEKIRysZIOHE8hlNn4kwjxNCpPF1DWUUAXr+FmTMrcdvCctRUq1BcRGrQm8qrRHlZPNWu2VbuRQM6X8DQCdjkIZu7TBQMC3v3jeDlFzpx6pQLVJTJV1r8iyYHltmwy/25hwb/mUqtzbY7EDl70FhJLiAVFRJuW17FtJr6ulLYtbMT7R1elvVR1ThamiOorK7CiZPDGBqgBAGV+WaggLKYMhRGpifh9RQwZ2417r8/jPkLauFyUwsOZcn54o4WMIQ7L77n10fZFGo//fLLLH7zqyOY0xrGQ99rZtU3brLmZkYANJjnGPlGrToX2+gyqeqC1TRpFjo7M9i1a4Bphp3tIGFYLvBKDkZcCJaCCQOqp4CFC4J4+vtNaJvth0raWIzs4ULLRGB1duj41S+/xPHjCbi9EfiDCqqrVNxxZxVWrqhEaYTGe1synw3DnMrlFVNclOD8OOWCOZHNJfw91CzgzLkC3tjUiyHSS1R5dRbL+FrklmaxdlrNyDJS0OP2MhLQMrn7Fs25ZBJADrp33BXBhkcqUBalJ4ySMiTMyZ9pbmYwFRstZjkhzU1PKPByI5OW8PGuFLZv74DsTqBhRgmOHxtAX5cfdTUt8EUySKeoqnoAGx+ZgdWry+B252EZLrao2LZ9GB9/lkFHTwJtbSojsFqaOJeXzCs4eDAJo5DH4kWlCIWIFCe8bALrGytepgIHsc9rhwCNJdQ7SGMDxUtU+Sejq0vH9vc72Pg/Z5Efo7Eh7N4Rg2VUM80cxVVAfX0JI1oaa0NoqPUjFKLKIhpyuIPlxQp4HALr0Kkstr7Tg+F+nr2mKvjkKLU5xHH72lKmp1cW8THdKEa80z7tceLyBJaj6kWfKhaftL9PCxMrj3jOhdff6MX2bYNwqz6URNJYd28t1txZw3SD8pqMPXuG8OrLp5izb6DEgxCZR/j88HlJBJ2qZpi6NDRdRzo5jEXUzv79RtRWkng2kfUa0gUZ738Qw2uvHkee2ppVnsyh6gBa4OTyZNxgwSqoSKfpnc+jslLDQw/OxJq7alES5vOqrWg98ceCyeqRtqKFr75M462/9SCR9sLlI72MAmRDZRqNkPKYPceNdfdWoLnRC4ViaKoenqqhbuJXcmP/hj2/UrzheNGSpunBr4bwzpYRGHoGTz05Dy2tChSVCEUXDh9K4e23uzE4Qt/zYWQkhWCowAoGli8Ps0qN0YSMf/vVIXy2V4M3VIFMdogllRYuICmVMvT0ZdA3nIRmUPV2JbzSINbf48fatVXweBnLbL8n9HfH+IbeGx19Qxr+4/m9uHfNYixfHIGi5lklF40P9GiQWy/Nh4e/SuKvr55EtCyK1Wur0Dw7yBb5LH4hAx+LCC8ev7Dtsgto8cDd2A+6nbmWqF1NQlenhhdfPIfeIQu+oJ+NdcW0BnVy0Djq8/kYiXUhgeXMF1SEQ7EwOf05lajn40RV+6QHlcfoSJrFqpVVUYTCLlYNxQ2LaC1Gx6D4hsTYNQwNxzCS1FAwKQluwOdT2Vc+l0E6nUJdtR8Prq3BXWuaUFIqgYpwx6rIHOFz9sgWk79sdrC/Rz2J9NwzOgu9/TlsebsThw/RtQQhWzmUl+r43kaK271QVSKJOcHGpKTGnAHpIM5+ac52dFiLySx7jUmBqi2xwdY3jsMgk9qw55MJPGRTRmCNZZVZlnn85lOlCBsmdQrMqZ8/zXqiKSglEFrmqPjJczOwZB5pkdCV8FYNS+aQsYYm1tJjoacrh9/8uhO7v0jAChXQUKogl5GQy2ewfEU5I7BaGtxskcoWL5cpTeNNgYQnX+CzNiPISKYNfLA7zcgoXaMFMgkDS8hk8qxyLBJ2YeXKMNasp8UstZtQSKMgmcijpyuFsrIwSstJiJM0tuxFG6uAoGsrDmIYNXzerXMWg+ffT+czxZUzE7jj4qM3AQI8M82fWOovti9pjAHninLnVVaxf4/ZJ9gEShEUdsXVuCNGcXWWPbCzAIfIZi9vDSSaxjCZ6UEioSMUUhCNqLy8n+lx8Eou4mro3U2mNOzY3oPt27pQXVWGFasqMXuWn/2Ox60yHoNadFXVIZx4Fo03Z/GBlveSEJFDmkQKzrSn8Ma2AZw4OYK+7jS0HLk2UfkrvfOc1GOtKJRgI30EOjeLhOB5OavHosWOG+vub8KS20oQLQG8VChpkEWyjoFBcslRYegGXB4L0TLSJgECQRXhgMzcZxx3EIYmw4icGYknoTHHzn7Y1Whjmn+O4yMN3BRsyQUMjFrY9Pogtm7pR1ZjKye+yyLCjetxUasatTnm4VbzaKwrQTgkIxJUkNML0CwJ0WgQLTNDmHdLkOmeJUaAD7d3Y8euOFKZGJqbFCZA7vX5sfOjDhw5YiBvuGEoeSimH4qhwCVl0dhgYdGtYaxYWYfWWW54vZTltytEqRWRgj/Sm2AVCERZUVBICyQiOPKIJzzYvq0f81tKMGteBLLbFobn6n52NdjFLXKdqZcILCpyJj00EtMfGDTw+Rcx7NzVjbNdFtLkAFkgEwByH6P2sjTqmlx45OFm3HtHlOECnVobaYbnWh9UcZuKW3jzb6fQ3ZNCVV0lomU+1FT5MGOGh1mzq0z7hlf+OtSuyt6hIkEofofsCXyc8OUEpe0cSW0ZpHHTrePNzf3o6soyG2HmCGNSlRs5JRYQG01C0zOoqvEhEilhzzgZDIwMJ1gmmgKsyjIFjz1RiyVLA/BQN6TtfMYJrIvJL1+t4Y6eaVtJlInuUpJHRa4g4+D+NL46OITyGgvVdUEc2D+AL/fq8HrL4S/JIjWqorw8hyefnIHWVhWylGPmEqPDFt7ZPsCeye7+JFatDuMXz7WhIkokrJstsDvOkYifjlnNAbjdtCin8Y7akh1zB7GouFp3ePrtx37zWBUuBbvkekrJQZ257ZZXRLB4VQlGYqPYvoXcjiy4/AZz1l18axVWLPWhLOpmGoksgUrEtUSjsw7vRQhzJ2b96mQWf93cgdFBBX4fT2pm4hJUzxA2PFqFlbfVwu/y8Pib9qtQtpvPrt9MYHGDifHYz6nKIgF6Ji+NVMGDzW8N4b13T6GttRpts1UsWViOptoQZMWCblno7Nbx4n+exe6do6w92x0w4fV64A/42QKJYlPd0Nl4aRkx3H9/Ax7dWIco6VaSkyAKyBnAJ5+m8cJLXyIQqmNZ/o5zfTCoMpaMkTQSU1eYeyFVy4ajFtauL8WDG2pQX0XC7/Z4cOUdH+OP2FgxGrUJFjASs7DlrWF8sjsP2aVC9qSgp2mN4IU/lMUDD5firjsqmFQHtdAzbkO8+lfnlWUhlpOYofhFZrEVta9+9GE3jHwO962fg/JyIhYpca+gqyuPzX/rxtHj9G8PMtk0Fi8N4PHvV6G+RoJqepHRZLzwQjs2vdEPU45CVtJYcIsL962vwMigB1/sH8XZnmEkki6EvaXwq334p/+1Fbcs8EJWqBXeWeNQrEvzDT1vZNhTwGjSxO493Vi2uBnVpXReZLjAHXI5t8m7Vo4fIdmLTiy8tRFzFrrgc1PLq5PcpRjRSSQ6hQXiobo6D9V03Qs9FeTgSrGFhv/8z7MYGAUCkfMJLBrX4/E4CloB0ZIoM3K6sD2Q/s1btOOs6oq6AIjE+trnSAM1r2N0mDQZs0z/qqq6BOGIm+kDk4wSJ7BIowrIZnUkE2kkEhlk2GNvMaOM25ZWo7kxhMRoAgM9Q2hqrMCqFaUoKw+wfchsnnNiULtY4WtFMs7PqcCAMgh29Swk9A3qzBzh4FfUYRGGqQ1hZrOCp59sQ0mU4mZuakJV0AojZy5YI7I1KV0LN50aX6M6E4TdqWC3K3OChys2sgpmxpxM7P27jAYW2MLggw/bsWvnEEyzCoqLLFDJOp4WkJc4EFvPmWzyy+dNNgFSLzOJJ1O2nhZA5BaW00yMxnIYGSlwZwhDQsBv4b4HPfj+E7MQDdICjQf5vByU4neeX2atNZaMnk4Dv/1tOz79fAjuEhm3zac2JwPBkAt3r52JBQtC8Hso20+rScq8f71s3HnNxugjhwywxSbpZn2+L4sXXzyEgUG6eVThZcDUC/CoWaxYUYMHN1SjpdUDN7P35nUIZFWsk6CZqjD3Cr4YdTBzysg5gcW/+3UC63yHxmK8nb9P7GZP1yFFnNdEEXAyuU4gXPz7xRVWF4bTxQtvR7D9QvLL+cwF7YXs8bQHJdtuliqHePaAi9GSbhs5yrBAo7jS0B7KSI+quyuLc+1JVFYF0dwUhN9PQbJtoMBEDalclkenVKnpDDM8lLEHX7uCk7LehYKFM90F7NnTh61bTmNkhHSe/MxpT2E6TiTwrrIyHnIVrKjkgoUDA0lGatVHc1i3bibW3FODsgoJqkJECBc1NcnGm5HoVAnDdeQZ/2HjwK1ebRLRITGcFmCnwoo59dmDuq1nx4JFtuKxiQ9GcOgo6DI+2Z3Cv//HVxiIB21ehFedMi6EdK0ow2ipbFwrrzRQUVbAiuXNaG6MsIw4nS41Q/v9KoJBhYlqKwqNVyr6unUcOpaGbmSYY09tbYCJ3H+5fxg7tnfh0MkU0qR1aHigWlm0NKks87/stlJUVLrgpayoM+GxpIC9ZCMhYgYT4UFVCXT/6EyyME0P0xqI+BTmGMgISXs+41qAvCriUtv400xVPHz/1D4aj1toP5vCsZN5nD4zgp7uOLIpCbpmIByVsXx1LdasqUFdlQwXz5qMW9zbpKapSxjoLzBNgWDEw6rWSAyaibJL9EW0GVFy4xsfsYszWg6B5YzhfEJm1VX2uM5aKiGhp1/HW2/249jRJCMO6T1Jp00kkwZSKQ3pdIYF6mVlXlRWh5nb4tBQFiMjSeb8okgWli8K4dlnGjFjlpvrhrHED9lC8+NPnbCxU+bOxwFH40s3ZIwOG0ildYRLJLh9FgYHC/h8bw6HD8eRzGSRjHswbx7w9JPNqK6g209EhIuZxLz19iC2vd+LRDKOB+6vw7NPzkLYT1GbB5rBW/TJFSocJhMCe2xhZKlN7k4w4JnoSCs+fz0R4HqDzpjjJC76egzs3tmJGbOimL84TLXyaD9lYOcHQ+joyMLtl3DnnaW4YwVVW9gxFs1ZdiUwVV+6LyEnQYuPgyfSePX10xgZdCMQILFdC9mkDpdnCN/7QSNWLKqDi9rSnViRC+CNpYcuHZUVz83OmOd8jxYUNFdRm7eEnbsG8cUXp7B06UwsmB9FKRFxLLHDnXbTaQV/e2MAr7/WjlTeB0sx7OQPJWpoYTWuU4GWN7IAACAASURBVBIJZ/HU481Yt64SZA7KBd5N1pLy1cEEXn71cwQiVfD5Azh2pA/9vdTeXcJal0nrUTEyCIcUrL6rHhseLkdTI7WMU0LBTsheOqy+7MPD1k9MZ6sA3VSw7/MMfvsfpxFLuVmFqpbm7ThNLRae+WEz0zGjZmk2aXDxlev5cN48xx4jsOwKb3tBSfIE/QMZNl1Xlfuh0jqGtFFNCSMjOrZu68Z722NIJhVEIiYee7QWd68JIOjXYOkR1h66b18ev/vDGZxuTyEcAdMwW7++DF99mcGHH6TQ3jOIoVgGil6JaGgU/+9/n4eZLVTJYpuRjJ2bXfHBJjpKtkmIxcnN0A0PW19RxRVLc9nhBY9vR0dyGBrMobI6AH+4AJVaHm2dynG2ucjAQMwnN89z/bUr4QQKryC30HG2gD/+4Rw6ew1EKsJwMS6HF6+Q7uHocBy5fA4VFVF43GQy4CTPubETbQVdR3//IPIFHWWlpQiFA2z9ML5Cl2Eyx2mNdZTlsjnEYhJcniACAUr2U65ft83hJOYcPziYxuhohp0qVdxSh9eixSGsXduI+ho/CfMin9aYsVOA5HIlItd4XMbdrekfdsJ/DIOLrAUtZ27l1U8DIzre2tKJAwdMeD1BWGY/blscxsaHZsDn50lrThLzAli+OX9xJsPi7zlpX3utyTPxdozqcCIOgcV/b6IdBBcnsNicajEB5IMHe/DZZzEM9EdQMH0wVXJxyDOL24tuErVLFBCP55GMm0zIldzB0uk0a7kL+oLw+yTkrQIGRzKIUY+/4YZbzmN2qw8/fiaChQtqoZBuDN3dsZYn+iuxlPQHlZKr6Oww8dKLR9hCpqq2DMsWGAiHA6ioCqFlZhnIkItVC7D6D3o6J6cPcu5cDi+8cAyf7s0io4WYQHLAncOC+Qo2bpyBW+ZHmCYMb1MsukGXVPV0braYgG/i0XKKL20qnqGLDULfdBnF53Hpc2JhJ2kZ6dTmS1VWjliss/AvHgjH34uL7/F8slczdJxtz+E3vz2JA4cK0K0AW9RIyNtC5V7IpoGAL46586NMf+f48T5UVFVi7VI/7ryjHnX1ZNJAVR0src7HmssGyHYg/bWc+4UYXgKTsW/bEw7pfRgSOtqz+Jdf78PnR7hWHrn9cX0kHmRRhsJlaoiEClixugoLFwUxd24pSkvcPHxjVUMyr4QvykSy5j6W3eGTnMdDZfRkwUvVohaOHY7hvV0D+ORACrlkBnU1KhNcv/vuOlSXe3iunQLFywZ4Fz4L/PNEGLI7+q2Hu3FsmTC6ZiGdtZBIaBgd1hEbJk22AkpKVTS1BFBe7oJLdUi2ix+f60tdyKE5Ach4auHC6fpybwVvT2V1ebboPy05ZQxS0P/WAPZ+OoxAuIQFUYNDaYyMUgUZGXqQkYgJv1tBXZMHHl8APT0ZjIymQG63NCc+vCaCZ55qRFkVX8PJ8NnPBgUEDsHzTe/s1fg5vxesHs1+hGnhTPoSpFfW2WPgrS09OHI4j3TewL33BvDoQw0I+4iI5AuNWErDG1tH8fEn/QgHCrh3TQ3W3l0Lr5tn26nahj36lJvjBTQTEvi8Glcp9nE9EaC4jZ4FTpRQVS1pIg4PmNj/eS/qW0JonUsLZXI2MrB//wh2f6AxjZB71vmxckmYZc6dqMwZfxyXvktd2fH2NF597Qz6u73whUj71EQqlkMonMLjT7VgcVspW3hcNOc4KbjGxzUinmgBNdifQyKRRmVVmGXqKfdKVYdE/tJrZuoKDh8q4N9/ewBHTlF2hQTl+fsnsdZ7EsUOMF2/pgYNzz3TjKVLo6z9nSUaJCL7JQwPF/DF/m5ILjKWkPDpZx04sC+HeCzIphyvt4CGKg9WrGzA6jtK0dio8hZwloCxrYwnOa7zq+YmGHRf+/pMvPDiSez8eBCGESGpI/hCMdyzvgrfe6wFVZUk9u1oBRZ3L0wKdPFLF0Xg/DneoMU8LSzHckz8rmUyOnbvGcSrm4ZYReQt87149gcNmDdHherOQzfJmEXHaMyFPXvi2PNZNyRk8dBDM7FwYRCffTqKNzbF0E4VWFoCeqoJVWUZ/I9/bkZLY9DuVik+wfNjC1a1YZsXXboAgFyoSeuHkng0WVKCVXSufHcffJ0n1pnhhoauzgL+49dncPx0HlX15fD7uXZsoWAgmwYSMZK3MFFdG2F6aRq1FBo604V1eb0sAMsXNPT1D7NEWzgcRGlpgEmhsCpA9sjK0CkJoCQxdyZV/2k4dFhDJhdmWrvk/mqS6yolmU0TJNvU15fHyGiOxdsNNSrmtrmwaEkQS5ZUIRqiOJ+qgp2S+wtj8itdF9rmeUxnm8dYQzENW7Z2Yv8XJjzuINzuEaxeVYp199TARXrE7FMkWTF1adKJPpuXrsAyKYtjYmAojyOHC/j8syQSWTd0KQ1Z0Ziw48U2yoyS20N/fxKjQwV4fQGEwm5WgZVOaVDhZtUBkktDIlNAPkfuWCYqK3U8/PAMbLgnioBPtSsdnJI4Z5HHowaqAiPBvv5BEx9+eAqS4sHMtjrMrKQeUZkRXy43EUqMiSsSFptcqohcYHbvHsAbb3ShvcOAx+vFgvmlWL++FAsXeBH0+85bHU1EyHKiN0x8XiBwoyIwUZHXK71OE0nk8z7s+CCOl/98Er39lI32MxF3JhllmggFdSy+NYiVq+sxOpLAlwdOY8my+VhLJbglJKrNtah4dRXvR//2hMs3XYEzPnFNLKZ3lLaw9b1ubNpyCoWcgfKyGqRITH4wyVqXaXIkG/f6eoVVmS68NYJIUOKLFzaXXT6w5xpRDtlBTibcjELLWzh6MoMt755GIpbGiuUzsGJVOSoqwHvr7Va1b7qia/Hz4hJt3eSLMbourcAzbIqLtLy44LdyHQJWbnzAtRp5tZ3FRMfjKRPb343h/e3d8AZCrLW1ry/Gstm6Qa3ytEAl1zUTlbVuBEIRDA1RMJNgz2bAp+AHD1bj0UdqECrhbejXj8C6yJ1mzx+JjOpI5Vx47TXS8emH5M3jJz+ZhbtWlcNDQrljBFYBf3tnFIePjGB2qx+rl5ehtSXInN2cessLpTbF3Hot3rDpcgyn0phnk5ljtamwir8zJ2KoaQigpsEHg1oDLYPZgL+1KYFcQcNDG6O4db5/TIB3IlfU3pnGq38+h1MnFASibsguDSO9OdQ3yHj2J81oa6Is+0T2eGWfpapG5p5mk1hsrCaRXUo0MFdgvnRgQ70hI5m08PobnfjLm6eQyZH9OHUZ6KydiioIYJCWVQ6LF3nw02dnonVWEIpKFaykYcgdqWjOIS1LQrpgmDh9Jo7jx9IYGiIOmZxmVbS1RNDaSoYdJiOviH7m0gX2XDNJLMYpcF59VtAUHDqcwQsvHcCRI4PwSkEsXFKCRx6dibnzA/Az0XyuESOqr67smbqan3LmXWa+pZs4ejyFP73Qg+Mnslh/Xxm+v7EaVWUKoBRgkhuuRW6XbqQyFnr78sjnCmhqDCAclHDoqwReeakPgzED8fwIYv0VaKo18H/+93o01ZLRzOSKDS683gvbucT8cTWfiBttX9SmzdueicDq7cnj+edP46vDaVTVVyHg5/xCIl7AUH8GJAFIQuuV1X5Ew15YBlWapxlpFS6JQlZdnMAaiCEey7EK/sqqCKIlPpZooNZzIlrzBkkN5XHPXVUwjTxzbR4ZDSJAPIilk1YFG99zeR2xmImhIQ2pdB6KWkBjrYRVK8uwcnUVZjT54XVRmx0v5GHbJMdeW8iJvWdcQ95CLKlj6ztd+OIzHYriQzicwZo1FVi1PApFoUQSHZYnkyZ92Kv8yFymhZB0YgpIZUycOW1hx/Y+jCRU5M0sLyXVHaGu88+IcM1pBvr70hgeyjFLc6+PHJUMpnlFgpxkeU9WucQ40mTtdmewdEUJnvjBbLQ1BOzqYK7+z7eilg1Gu3OhYtKJGRrJc1vUsASf6WETGynrj9/c4js9OdgtU0MiaeGrg0mcOZdAaWkE8+ZG0FBrMUFj0sVyWirFAHmVn1Cxu5sGgakKJsilybSC6O238OKLx3D0WAwSShGPUXuyBrdbw7Kl5XjwoQbMmuVllTsjMQ2RMjdKfCQCzgkdXq1Jm21JPrnhYgL3i8Ym3jfOhjXmoiNjKGbgqyODME0FoUAJTp8awuefnkAqYTD3ngWLy9A2pwzNLUGESauJZebtClUmKnzpU6CKFi4Iz6cj9n87m5PNmujsyEArWKirDyBUQmxQlnWmw/JwPZTrvBUH0fbJ2xpnhp0lpoUuaS7SfaUqtim/iV9DhAvhEoHFtTaYm41sIZGx8MGOOP6y6Qwg+WDJBhP2zKS5eCeVkrNqBAPw+iXW0pPN6cjlcizgqqsO48dPNuH2VWF4/Q7Z6jpfFNMRo72G94nRdawinFecmVYOWd2LN/4ygD+/eBxNs934xT8uwqxmtx3+cCWxeLKAN7cN4OSZIaxaWYmlt5ailBko8GeTWzGLjPk1vJXT8FBOhpneayI6ZGRSJkZHCohE3QhQ2zRpkUgS0zR57U+90C0dTz5Tj7aZpKNjh4ITGAd6BzL48ysd2LdXg79UheLR0Xc2j1vmh/Dzf2xGXSVl0q/+ZllcDJhpoRhcB5KN1TJ5TnHZCdni7nw0X1Erx6l2E7/5zac4fESHbpawhYgpabyk1JCZG/fau6L4ux80oaqCnAqpuYIqAvj5M61IW8aXYmqdEVrkdkVVCmDGTV6mW2ixFmYir7iGkE0ksSrTbzPG0v3lbfYmXEhnJRw4OIq9n56BCh9W3d6ItnkB+LyaLZpPRkjfrvLr6t+578Yei+deqszq6MzgTy904tixLJ54qhr3ralA0EOO0SSIQGWClE+TobP3lmNEFVAUbrW3Z/Hay12wlAAGkx049HkKC+eX4f/4v+agtITa/K4OgVV8Z6YqgfrduPs3w1XaOp4UH0pUHWjhzTf7sX1HN1RvANGoFyQrMTxAYuuk7UbDaB7RcjdqqqjFUMFoLI5sTkM4EmW62pQsGRpKIpHUmLFtTU0E5WV+yFKBSx2ZXLOwpcWNhx+oZc6CW7cOov0sySmRoUYeluwCdZEMj2ZYMjOboTmgAI87g+YZMjY80IKlK2oQCklwMY1tZ7y1tbMmdWt4fMV6OhiBZSCRMfHue73YuycPy/KgolLH/fdX4ZY5xMmQURW1GvL38tuM+JM63Uv80qVbCGnKNPPIFkx0dcl4e+tZ9A+pTM2DtZ8blyCwyD49Z6C/P4PYCN1Ehbl30QhmGryNjwFn0cKrgEgki9lzXLj3vpm4dXEFwiTS6JgFnDcxOkQUX/SxqZS0V1glHU2Aabhg9007bSuOeMy3hdte15KYMNmhU0aMSSuwxaDJ23YmaCF8NW+i2JdA4LuMgGllIUke1oZ19GgaX+4fQF+fhs7uUWgFAzMaw9jwYDPmzQswC3FWsWN/SaQrxdxNbXdAR5jQaY+YUmDHK0RpccYd6WhyJX0ScgokNXmZtfj19fKMUCgSQHm1Cp+fuxKSIyOVIfMphRM3l19PjJccc5tgGs/pe5yEsGiMdoTHFBrsiKBXme4UVTRd7+3rBJazQuXXwMZhhgPXvLoep8wJLAuy7fDCKrBkA6kcWJXgH39/AqmUizmcGVTSbrq5kKdM1c3ktuhjRKaikLMm7SkPzUjjlvnl+C/PtaJttouZgrDGRKq0YAta51m69iQjQ55aJhnmtBDNQte92PnRCF74wyGsursWP3iqFUE/qbNR9o4JySGR1LFlWw+6+0bxwAMz0NrshYeVQnKhfRPUUukYn1zvJ08c/7ogMJZ/tJh0AxvnTKpSsltoKRFqcYfqjk4NL//hLFxeCc/+uAX1VfRe0Tg5sXErkcxjy1t92P5eEmrIBcVtovtUHKuWl+Lv/7GFmY5MbI9XipzOdQ6ZKys3PjKpwpQqEll7MC3+uYU5kcS06NBMD3bviuGll06io0uFJbth2o7bZqGAUCiDBx+oxOMba1EW5S5ZPME7njwZ74XkbVnO8D+u5MIrwxiZzPAsqgBgCZNJosHGCxrfuGsvp8eIvFOQzbICMHgoJy2bTDSYZH555de3Jc2u9H6Iz10KAXo2+wYyePXVDrSfNfHEUzVYdmsAHsnNnPyobYolvhzNMtu3npmsWBK6u7N45cVj8Ic9iFbnMdzrQVtrFe5e44db8YpWcfHoTQEC4wQWJdoyeeDTz2J48aWTSCRl1NREmUFBX3cGmTRPmFhSBhWVAVRWEoElI55IIZ3OQnH5kCuYyFO7YUaDViBJFAk1NWGUl/sgS6SlSwSWCdWl4JZbfFi3tgRaAXjrrX58/kUOXp8HHiaX4EUmr6N3MI6RUY0lPkN+DVVVJhYuCGPduhmobwxAkU1mLMTrn759vMd1TInAoq42HcmshQ8+HMSej9PI58gpUceTTzWjsZa0ujjZdb64xhTcognu8rIVWDRJ5plImYrNm0+hq0eG7KJqIxMyCSNfZKOFIWVw+vuyGB0mhX2KbIlgopmRC4BRuZwHHlRGLaxY6cfKO8Jobgkh4CdhWlpQMq7+EjyfHdHYVQNcFouLpPGsGF/Ijf/+JCfX4msr0rXm2u724pFdk50NmiDw4uMCAYHA1UGAaURReE2i7jlgeFjH4aMD6OwdQSgcRvOMKFpn+hAKcr8Lvth3xNedicAhdmi8uJYkQPHxnXMobnvm4yBrKyFyisRzWTsJ16YY970qrjS9XH3AOIE1jr7tHuLomjjafawyjbc3jg2tV+eWXcW98MzQuNAzH595doH+vPZaKRQYcAKL5khODJKgbUaz8PEnKfzu+Xb0D5CDJS1IFeiaDq9PQ+MML4ZG+pGIRWDpAdYW6XLlASkLWclh6dIq/PjvZqG5yWWLddpznb0Q5Nc9FbUhl79dNv3JCSxWcZZn4v29fRq+3JfEnLkhNDXTOeehSu4xqflU2sC2d/swNJpkBFZdDbV8cpdBPr0XmGPa9Mn3XcXHVuzqyhAYe7adbLMdzzEFcNK14a5+pHvV1a1h05/PIhx143uPN6I8cnGZi286sK6bOHQgi7++2Y+hFKdWRrr6sX5tFZ55phnB0FTND04FsBPDOmMZH8/YiG+7m5ogUyQNBV1BLuvD+++N4K2tp9DRm4VmeSHRl6Exk4/vP9GEdfeWIxwmBzfuxju+ALJJQcc11XajO69HxWkVPI+2466QfHyd5JgzFsrrrP6K62HRAs2WCnEqBM6T9nWIN2FD+E3P8VT/PBbL4Z13ujE4ImPdhirMalKhMtMtGToTsrbrZ+01kxNEUNFBd08ar79yEA0tYdy5pgxupQJetwyvOwWYzCpTbAKBq4xAMYFlomCaOHg4jt/97iR6e2XUVJdD12QM9KaQyeRY4Y2k5BAp8aK2rhKqoiKZyCCRzjFdxngig4LGHdGpKtTtBjPgKS31s0S5W5WZGyy1At51RynuvLMEWl7G1nd6sOPDUXjdEUQiKrS8hKF4BgPDOaSzBlxyHg21Bu65uxErV9agulplXWaUsGakMEsYOO31k5vj+MxSTGBpSOUs7P54FLt3JpBKAjW1Gv7ux62oKbM1dVnxkc1/TFEKZ6I3/LIaWDRJaqaB0ZgHm984hVNnDKiuIAyTC0lebKNhK5MzMdCfQXxUJy141vLnEFisSULWEFKBxfOD+P4TDZgzj7LR9JsU5F64EHMCFvtoDh81dnxnQerYOtLnnIqEIqe1b8Nj2Zllnv2zd8SqyuiY9ABNVUAz0dspPi8Q+O4hwEhlJuhZYNlZctyj7Eoqb0BxSwj6ZbjJpclZCpPILSM9vBfJHl84wHybgeNK78UFg+kFAR8vJ+LZan6hzmLOGXeKJzT6+0TL7+39stT7Ra7XOZ+pEH65Uogu+Tnem8/1WIpazsfaQa99BQ9f8hKBZQcXjMAi23oLX31VwPO/P4eTp7NQJFIzUGHqGZRXarj97lqcbD+Og/skeKQ66AaZkhioqHBD10ewajXpX81EGVkaO4o45zk4Xoyc/NYAf+MOxvM7RCrYTj/UBmUBec2CVyWxrgIgUyuJe6wiJpe28NHOYSTSeaxdU42yMru1lQSobadDwkcQWN94C27eD7De6uLWbqfakFptubMgG8otA509ebz9Zieq64NM+DvonmRwb1ESxMTrb3Th0wMp1k4hGf14cuMM3LOmhlV4Tc1WPA8UH6Po+3Z5lGkVuCMhtUrDjdFRepf68fb2Y+joycMoBKCYFuqqLDz77FysvL0CXh+v6hqvSLswiC+OvflChW1M+PiCjZmdODH3JONfJvI1TqXREWyJZV7SWeQ6Oj4G0GhDpOW1H9en5p7fuHslSZgv9g2z1vjblpWiIkotrlTNIUPnSj38frKyPvs6Ze7h29efwbtb2tE2N4pFSxS4lXI2h8tqEpIREkuqG/exmMZnTmt2xyHdgmbpONOZxX/+8SwOfplFJByBZSiIx7IoaGmUlKnwBxRoWhY1NbVMXzaRyCCZyrN25+HhJJMjIbdoCo3JsZWcv8vLQgiHfHApKrLpLHzeDB5+qAZLl4ZYhdcne2P46+ZuJOMqKksDKORldPaPYCSls7ZEVR7FskVePPn9NrTNjkAhboSNtUQJE0FMc4NjTkei6pPbeOEPJVFNJlGRLgCf7U3gox2jzOW7eaaEp55uRmWJ7e3JEot8reB4fU7uyFfvty5DYJHYow5DMpDOePDXv7bj6FFaEIagGzkozqKKncv4oo96o2PJPAYG0sim7CmJWZxSYOuGIakwpTzqKkw8cn8d1q+rQkmEL0Ik2WeLKDv7dKIT+4LH5nQn51v8J90Mp62xaPK/cE6eBHY8QLct4qnyjK3z6CGmnXtsTYBJ7Fj8ikBAIPCtETAMmjxofMmOEVMURJFrk2EPBYzeoAomemXlDDumZfm+PhCfN8YUj23f+jQv2EHRwHThuuVryYGicc6pHmbtHPbJsvGIPkOBPW1XunArIjzsGJN2yVs1GEJjFUScOJsoMXa1MbvI/lhb0YX3ycGLFrvXPpXLK7DMMQKLtWpKGvKmgdOnLfzuj2ex78shFoxQvUFpBFh9ZyVW3BFF3/AA3nitF13t9DMFDY0y5s6thKKksHhJBZYtroDPY7f60OJ13B5qjNS6Bqifd4hxAosIKqdij+tMWKQFYRBRXLCJBnVsAZ3PWti3L41sVsdtSykbSbeLOwbzWkn6v1Myf62vShxveiDgEBZ2ZSwT8Kb32yawmFAUzyb3D+Zx4IsEKuv8mHdLAB55ksSKCWSyJja/3Ym334vBNMMoLRnET59txYJ5UchXOrxebQCLpwxqb7FI948nVS3TQDonY//BNPbs7UJ/rwbqAG+qceP+B5owo5UE3J0x3R4v7f2x0ZKRRRTj0hxZLM5O77NDQHCs+XDr6NI6NMVkLpYTk1RX4PRdsDvGst5MFJLP5+zPYnKeTeKTOaD4nauIAGkEDQzoyGoWKqoUBLx0J0mfWILO1kU8luAuk7a7M8VlkNHfn8UnH/ZhwcIKNM+yoMpBfk/lPGB4BIF1Fe+T2JWDAHc35hp6lGbUMBy3sHXLKLa+2Y1Mhgxm3NCpqgopzJpTiqraME6eOIuK8mrIshvxRBbUYk4E1mgsDZ2FNRL8Xom1DpJuuGHoqCitgKEZyOXSaKpX8cQTjZjT5mJj3dGTBbz8yjmcOZVDaSQEGR509g0hnjEguyzMaLDw/UcbcceqKHxebmTHui4sioUcAoviJBo/rx6BldUkfPlVGu+/N4jEqITZ89x49LE6lIZI+oFLO3ACyzbTmAYP1iUILLv/k6noA7mcgr9t7sb+/aTB7oKspqEYdukxMXiSrTlCGlG6ib7hLAYH47BM0k7h5WckUGmYFHC74XIVcNsCD556ogXz5nmhkI4BBa2Wm7UBnZ/fulS264JFFgNzkgHLN9wIfiTnxjl1HETK8aBqqvJx0+D5EKcgEJj2CBjMJpleUe7Mxl2KKHTi4xcPg+1xhcXBNtHD2n8vN75M5ZtdHJB/0wA0fiX8dGlAveDcnOostqsrDe7PJ7CcbDjf84Us2jRdNFxI/hWf+lTevsvcMv7UjWepqMWVghByTOztM/DHF85hx84hWJaKoFfDmtVV2Pi9BtQ0qcjrwN/+ehqbXh2ALLtw111h3L6iApGQC1U1QYQjqj2f2s/1ZPVnruJbPf6OOYSn03JKKR6d6faMVQ/a2j50+Hxex8mjcWiahNa2KAIham/iLWFMb4HpuV2nm3gV8RG7+jYIOGS0Pe4VC9g6rc3sbTORyepMd9UfUBEpoVjySsfBC87P4kZEH+7qw+Y3YkjG/aipHcHf/7wVs5pDzBnwumznTRmO3h/X+mMC92RslAficR2JhI5CroCAV0JNbQA+v514HRvb7WsY07wax5lrXTl56aIB9oLjOzPr5Csknch6HM8xrsoB+OLfuC7wi4N+/T2hZSDxjcQVkxkOr6+ix4evxZhkw9gXj03oU+T0dvhAD5pnlqOi0su0fdjERpUmTMJgku+uuEkCgUsiQJ0XpCvLCSyKTXIFCQf2xfHySydxrD0PywxANr2wrATmLwmiptGHA/v7UF1ayTRpB0d0jMYL0CjJQW0ehgzVBKorgdZ5EfQOxJi5QXm0EZl0AYXCEJbeGsYzT7aiqYlzJe1ndbz08ll8eSgDjzcAn+rB0Egc6WwB0VIdGzZU4sH7qlBR4uJacIqTtaY/nfeC8xHfhvOgtm2esOAJIGqpPHEqgx3b+9HfLWPBrQE8sKESkYDdus6WHZScpRliariWiT68lyCwKPAkATIOXC4n483NvdjxQQqW14VQRIeLjVMcUC4+zIUVc3kD3QNJDI8k2cNiGkTw0ANjwDQLLGNUHlXx0P2VePD+GpSVkngtdyAxoJKpoyCEJnoXxecFAgIBgYBAYFoi4LTtEJE1GtOx6Y0ebH6rH6m0iZlNLvzoqRYsXx6By2fAjVRdtAAAIABJREFUlCScOZXFr/71LGLJHJ77SStWLAnBo0iQVRkSBTPXaf18tcB1hPg1TUPXuTjTnahvLIGPAiW7VJ63hN7413q1MBP7+WYEmKs1I4slKI7N3jf/2tc/YQKaZWHfgRH8+aUBdJ61MLM1g3/4RRuaGwPTVmCam3KME04OFlSlKYjgyTwI4nemCgEtb2FoMI5IiR8ej5tXB7J5rUhweKoOLvb7HUXArsCyzXUsaDBNCd3nsnhj8zl8uHcE2awE1aDOjDxmzXejqjGEA/tHUFlSBo/LhYERE30DaeQ1HYZhQLFkRIMurFwWRfPcAHbvOY0jR/MI+GtRyJowjCGsuaMUf/dUK6qriaOV0NVl4uVXzmLn3jg0U4FXcaGQ15DPZzG71Y2fPDcTty7ww00vBJX7ThFXxAgs1pXC2/J1GOjszuGD9wdx7pSBJcvDuOeeMgR9VLXGWlh4VT3rOZuik5rgk3mZCixu7c4JLAlbt/TjL3/phhwIoLJaJbWqccH0Me0UGZlsAX1DaYzGUoync6le6LoMQ6c+TnLWyqOtNYynftCM2xZxsTMivkxWWkq8vahomuA9FB8XCAgEBAICgWmOAC0uszkLH+0axp9ePIve3gzuvL0KP352BmY0eGC5qOVORy6t4j9f6MWxk534x1/chtktbtvPiUT8b3D2irXuch0eCgBHhwrQdAulpV64Wbm8o6tTXAUyzW+sOL1pgQARNkTWfM2pdIJnR13JlLs9cSaFPz7fjcMH41h8m4p/+MVc1FWRk9/0qw651DV/WywmCJ34uEDgihCgd4zWhKwFltbpYwKlgsC6IgDFhyaBgF3dbbehk7szFQcm4xI+/HAQ23f1Iadlodqi7OFSCWXVZdizpwuVJZUIBXwYihno7U8yB0KYGlTFxPy2KH7wRBPC5W68/MpBfLInBlUtZe2IEhLY+FANnnyiDtEo8UQS+vstvPaXDrz74SASGROKBaiSC1ohgTvuqMLPftaK+loJMomIyuqVN1RMEJELCSwDBvoGNezYPoT2UxpWrS7B7XdG4XPZQoVUtcYqsIjAmh5z4GUILMrmEEdlIJ8H3nt3BC+/3AHZ50dVrRcuKvlk7fHkkEWflaAbJlPpHxktIJlKwx+UUV1ThlTcxNBAjlVgRcIFrLunHt/bWI+qSru/k9oHqZWfSf8J0dYJPofi4wIBgYBAQCBwAyBA7a4nTmbwu9+fwOkzMTz6aCse2VCNSFCFpWqwpByMvAs7P0lhz+fH8KMfLkF9tYuZplhUn3wTtNQ5BBb9WchZIEw8HpnFatKYQYETNN0AN1Wc4rRAoFig/Hyx8gmeHjNdADp6c/jD813Yt7cft99Zgp/+rA3lJbwNZLpvxZVYN8OYMd3xFuc3MQSY1wcz3uF/jhNYtJ8JyCtM7LDi099pBLgQOmeEqFwmx5Id+ayCzz4bxsd7B1BTH0Ak5EPX2SRiySwCkQrs2HEKpcFyhIJeDMdzvIVQJ8MCDeGQifvXN2Hjxipm3fPyy+14551emAhDVbxwqVk8/WQjHn2kDAEfb9cbHjWxeUs3tmzrx0iCawwSaSaZMTz2+Gw8/VQdQmTEyQqISBduam7axQisgWEd298dwLkzGtbcU4aly8JwKxbXRbxxCCyeJeVCijpT2t/xfhIvvHAOpupDRY3PFo4ETAMoaBprE6SWgNHRFLIZiZFV0QodM9sqMNyv4+ypLEwzj7ltPjz9xEwsvi0El5t+j/5zXIdILEwQWFPzuIq9CgQEAgIBgcB1RcACRkYNbNnagfZzSSawfOv8ELNctmQKgfKAruLkuQI+P3AK6+9tQ2WJU65N6tFTFM1cJ1DGFjIkWzfWQnJzXeN1glYcdrIIWIAhWegb1vDSn3rwya5O3LO+Gs8+MxPRkL2omOy+r9HvCQLrGgEtDjM5BGxfgDF1nxu/sHhyOIjfuoYIFBNY9HcNpmVCK8jYv28AB48MY/GyOlRVhvHp7nM4eSoOb6AW7+84haAnimDQjf7hQWTzMizTA0XKs0qpp5+ajTtujyKn69i0aQCvvnYWhklaiS74/Dk896NZeGBdBF67kimRNvDO9j5s2tyDgRGqRpeh6BKC3iR++KO52PBAJTweIo0Imqmruj+PwCIVLNnA0IiB97ZR23we6+6vwMKFQbgk0sriOqZk9sErsKbHC3tJF0LePkjtfRrLkO7elcfzz5+GrvjgD8nIpqgHlNoMeQWWqrrZvxPxFAyNW9qX12iYs6AMg30FHPsqjmiZCxsfnokH761CSSknx3g2ixTuJQbOdLFnvIZvlTiUQEAgIBAQCHxHECCXm47uPGJJA00NXkRDMnPItBQuei4bMuJZoGsgjhkNIQTcjtIyBRHTI3C4urdKZNyvLp5ib98KAVaBZWI4YeK11wbx0fun8MCDDXjiiRkIerj1uNgEAgKBb4vAuP3Ht92T+H2BwDcjwF1P+fjNRdCJ56ACnSOH+9HVncKSZTUojfqw+6MufL6vDx5/I3Z80A6vWoKSqBt9Q13QDRf0vBuKlMHChX788O/mssIc3TKw9Z0kfv3vB5HXI8yUoKzSwM+fa8Oa1WG4KElHpngFEx98PIwXX+lEZy85ycqQNaC2Io9f/JeFWLY8CBdzjOWx3lSFfMUElmWZMGUDwzGLuRB2deRw/4ZKtLV54Wbl/+4iAkuZNjPgFRBYBZiWhS8+l/Grfz2CAnyAqiM+okHXdEgyaVbJUFUXKJuqaQUokgZFNlBaZWL2vBIM9GbR211gD8ejG2sxq9YNWSXHMMNuiVC5c9j4PfvmZ1F8QiAgEBAICAQEAjcUAtRub0IzLOiWBFUig2JuXEJV2vQz2QA0SUIBFivfdpFrJlkYsxbCG+pir+BkiRBwHC4vvDhBbF0BgOIjVxsBRmAZiGclvPm3OD7cfhIPbWzEhvur4VEo6WobDFzt44r9CQS+Mwg4LmqOlvJNN7F9Z+7kjXOhRGBRvMG7vIivoM3QTXR0xJBM6GhpDcHvU7D/i1F8tOs0VF8Dtm07DZ+rFCVlCjQrCZc7jOG+DLyuPO66uwLf29iM6goLhqRj7xcSfvnLL9E/qMJSLDS2SPj7n87DsgU+pmNKLIdmGfh0Xxp/fKELJ8/mGEMlFyy0NUv4r/+0AC0tLt5SO8VVTucRWGTbJxmsvXH7ewPo69Ww4aFKtLTIcNPJmJ4bj8AiQVWyVySW8uBB4F/+5SDShSBrdYjFNBTy5CrICSwiuVhPM0xEQhJqanzw+1MoiapIJwqoqizHnfc2oHWWC0GFqEiq7ipm4IVo640zEIgzFQgIBAQCAoHJIUCVVgZMStpYvBybhe+O7BMTkbZgyjSzUsE2CYaQITnp70zuiNP3txybdWchU3ymgsCavvft5j0z1tYqachoMt57J43dO9ux8bE6rFoRYbok8rhl2s0LgrgygcCUIlA87k/9Yn1KL0Xs/AZB4PxkGecrANO0kEpr0DQT4ZACVZHRfiqJHR8dQt4MY8f7/dC0EniDJiprfSgrLcFg7yAqShTceWc1li+rQMBvMHaqb1DF7353HDt3jkJSApg5V8LPf9aG+bNUqMzszmQE1pETBv70YicOHcmioEmQ9QSWLPThv/3XRaisVCBRu57lxHtTE/RRFEpRpUPD0L8HR0xse7sHo6M6Hny4Do2NgEuiCJUqsOgT9N8NUIHF2Si64RJMS8LRY3n88l+/wuAIVWBZSCZMpnlFApH05fTcy5KF8jIX5s33IhSIIeL1oyTox9yFFWiaFYBCGWVqGRSbQEAgIBAQCAgEBAICAYGAQGCaIGAxqZQcCqaCne/n8MVnnXjo8UrMn0v26j7gBhBxnyZQitMQCAgEBALTHgHTMmBYBmRLZQpPqYSOYyfOon80i09353HgsAZD1TFrVgi1tR7ouRHMba3EkltrUV/nhqoQ4eRCTpewZ88wXvjDOXR1mVi8KoK//4cGNNWoUFnlrgndstA3JOOVV9qxY8co8nkX3K5+rLu3Bs/9aB6iJWPKcHYV1hQRWMxEwWAkFiVSadobGgG2bjmHeCKDRza2oKHebderkYi7xpKoNyCBJePk6Tz+9VcHcbrdhCVb0DQXs8H+OoFloqzMxMpVYSy4JYDGqnJURP0IRixA4aLtMrF5YhMICAQEAgIBgYBAQCAgEBAITBMEWGuJlINuqdj7cR4H9vdi/cPlmNnsgmT6bMu0aXKy4jQEAgIBgYBA4FshYDFXQguSKUOiSikLyGgaeocy+Oj9ODa90Q0NBtragmioc8HjSuGOVXPQOisCv4/M5yyYJPMgy+jqNfH8vx/Fp592Y9XdM/CznzWhrlJh5Bgdh6rr01kZb2/rwubNHRgYBHzuIfz8pytx3/pKeEnz9JKyCt/qMs/7ZV6eRAQWHU5mzrvDMeCdt89hNJbExu/NQm21i1VgwSQ3RDIZIrrrRqjAskXOeFOghM5uE//2b4ew/0AaOpvhvRdFkhi90mgB6++rxPr1tagt9zOdDxNkEU432sW+xCYQEAgIBAQCAgGBgEBAICAQmC4IcAIrD1NScPBLDYcP9uOudRVoqKFA3svEecUmEBAICAQEAjcHArw1zoTMZB04f0Si5sm8ji1vduGFF/pYRe68OR60zFBQXmpgzZr5qKhwQZYM25VPYuRULi9hy1t9eP21z7B8dRt+8uNZKAuTqBURWIzCgmbIOHkqg/e2d+LzzwdRWy3hpz9ZjrZWFxRZt9WyHPfpqcGYtxASu+MQWBZiCeDddzuQSmfw0CMzURYltkYlTYsbmMCyTAyMAL/+zQns3h2DZlIS6uJVVERVVZRZeGhjLdavq0RpWIFM7B3TvCKoxhQ/puauiL0KBAQCAgGBgEBAICAQEAgIBCaIABf3LcCUFZw4nseJEwNYfXsNKkqpA8QtCKwJ4ik+LhAQCAgEpjMCTgUWI7CIZrLoOxoKloWtW7vw/O8GkM9LWLTAg/lz3ZjV4seSJTPg9dNVEfFFLXYWDKsAS1LQ0SHjna0HES4J4qEHZzCnaUBhEvL8WEAmA+z/cgi7P+nCwgU1uOv2agQDJngzH5n2cAJrqtIlnMAyIDHSToIhGUhkJHywowN5TcO96+i8AcW0bYZk0kSn/6jNcnpsl3QhdGwmWZGZpSOetvD733fhnbcHedEZ6+f8+kaMXk25gsefaMDae6II+yVIFvOEHN+m6o5MD0zFWQgEBAICAYGAQEAgIBAQCNxoCJAkCHSYkoyz5/Lo7h7FolurEPGTurs6db7mNxpO4nwFAgIBgcBNgAAnlRwiisZ5MDKqAAkffTiMf/nlWWRzJm671Y31a2oxb24UVVUBWCo5RBPVxB2i2bwBIK+5cPDAAOKJHFYsq0ckKMFinWiAaem2eLqCWNxE37CBqgoXQn7ArVqQmPY4EVicJpoquuRCAotcCFM5CR/v6YFmGFi1qg4lAQOK6eE2QzLH6AYjsAADGjI5C6++HsefXzkHnVVUXRxWYg8balQ89XQTbr89goCHHganZdB2GpqqO3ITvEjiEgQCAgGBgEBAICAQEAgIBK4DAsz80gA1hgwO64jHc2hoCMLnomw1EVjX4ZzEIQUCAgGBgEBgShAgV2hGYLGqJ5bBAAm765KEz/fm8M//32FkcjncudKPHz61EI31HqguwCBShwgsSbG9pE0mBk9GH/2DWfT1JDGruRrhEBFYVKtFuyaxeOpFk6GbQB4W3NSWbphQZWnMI4RrVPH/pmK7GIGV1SUcPppAQdMwf34pQl4NiunjToUKd8/mBNbUnNNEr/MbKrB4MyiV0uV0C29vy+K3vznGVPNJ18s2YWTtgU4fJRFYrU0Knv3hDNy2NAiPi4Tbqd2Qtw/yr+lx8RMFS3xeICAQEAgIBAQCAgGBgEDgJkXAcpRKZGTzEjTNQDCoQAFpuFKriIhfb9I7Ly5LICAQ+A4iQMQM0UuSQ2AR82FZjMA6dljD//0/vkQyk8L3NlTjR0/PZ9VSxEKRrDnRGZzA4ptpmUzvO1+wkIjpKAkF4PVyGSliVFjLIdFSpsQ+qys0r8hQLBKQJ3qEOtx4rRNZ3k0VgcVE64lSs3W/qIVQtyT0D5ooaDpqqjzwuPKQDQ9kInxk+g264huCwCKgORNJN7dgGfhsfxL/8W/HMdDrhWnqMCRiFT2wpDxkiRT8/XBZOha0qvjRT2ZgzgIPFCUHSaK7Z2euhAXxd3B4EJcsEBAICAQEAgIBgYBAYHojYFkGdYXAsmQUCoCmmfD7FciKyeJcau8Qm0BAICAQEAjcLAhw3Suem+B1Uha5CloSOtpz+H/++QvEkjn8/Ce3YP09VXCpBvusSROFJEFmkkrjiQ1GP1EboiFBkSXItjY8R4uII85mMU0picgzoqrsD7GToJ84e5zKhIl9FHYuJC9PCRsJhmnC65EhSTokS4E0lrQhbKaLAhbxfHTXLrXZavyWREykgY6ePP70x7M4sDePbC4DQyYCKwzDykGRLMiGF145j7tXRPDUs02obqJJPwcJPsCkzJUovrpZXndxHQIBgYBAQCAgEBAICARuLgRMmOQ5ZMkYGc5hdDSJuvpS+PwKy6xL5MokNoGAQEAgIBC4eRBgXA79jxIYxOgosEwZo0MF/M9/O4KegVH8t3+6A7NbVOY8yHkmqpayv0Rn2TV/Fi5JYLHyMro59k3VoDOF+tdf7cK2LZ1wud2sAiueUKFT7yYRWKaJimgej2+cgXvX1yBYQuwkTfheXqZGG6+Ru+YXKg4oEBAICAQEAgIBgYBAQCAgELg0AjaBBRm93TH09w+jdXYjAkHqIqCFiyCwxNMjEBAICARuKgTGCCyua0WchWnK0HImXt08iCPHT+F//99uR0UpyavTz20egxFYNxUSN8zFXJbAoho4ZrFIFVikyG8o+OCDEfz5pa9QVlHLbIZPnYxDKwBel4Ww38ScOS5sfKQZs9sicHtYh6hNYDnkFX1n+pSg3TB3SpyoQEAgIBAQCAgEBAICAYHAFCJACxhK3kqIjaaRSKRQU1MBxUUtJhZkWRBYUwi+2LVAQCAgELhOCNhtZ0wDS4JlSKwa9/2PEjh87ASee24pIkFyK7Srr4i5Ep1l1+leXaaFkHdD2gQWU+QnW2ELZztk/P75PYBaAhMqjh8dgUtRUBK0MHNGGKvvqMCCBREEw9QX6pBVzoTvPByCwLpud1wcWCAgEBAICAQEAgIBgYBA4GsIjKtqSDANqsayoKjcnYoILEnouIqnRiAgEBAI3KQIcFUlJm8FCbpmYecnQzjX2Y3HHlvECnW4hhVnrpwuwpsUjGl9WZeswDqPwDKJyirAlAykMz68/tohdPYZyOeBjnNJ1FSHUVGq45a5JVixsgaREjdkW+eSK+gXE1aihXBaPxHi5AQCAgGBgEBAICAQEAh8BxEoJrAc3yieZucLm3FB2+8gOOKSBQICAYHAdwABLuouwTAMfL4/jrPnuvHghlsQ9FEbOQmusxIfTmAJYaTr8kRchsAy+E2hFkLyf5R0mChA17145912HDwaRyoNdHfG0NoawaIFISyYV4qGeh8UxcOsFnkgQCXXouLqutxdcVCBgEBAICAQEAgIBAQCAoErQuA8XyOJXJeK2kUEgXVFGIoPCQQEAgKBGxkB0zS5e6Bl4tQZDe1n+3Dn7TPg8RiQbQLLtN35BIF1fe70ZTSwqEzOnriZpbAByAYMQ8HO3V34+LMRZFIKersGsWx5FTZsaEZ9rQuqogPwAIzA4rpXImN1fW6uOKpAQCAgEBAICAQEAgIBgcBEEaAA1iawxnLsQq13oiiKzwsEBAICgRsNASKuOD9lYXhER19/ArNmlsGlck6DvqgCi7WWCxX363J7L0lgXXg2xEbSDaM/Dx0bwoc7h9DfmcPwwADuuXcW7rt/BiIlVF5N1Vb0JSb663JHxUEFAgIBgYBAQCAgEBAICAQEAgIBgYBAQCAgEJg0AtRGSF+qqoqOskmjePV/ccIEFpFYQzENR06mcOpIH1LxBFavbsaCheXwuOgEqd1QkFdX/1aJPQoEBAICAYGAQEAgIBAQCAgEBAICAYGAQEAgcK0QcNrLRVfZtUL88se5YgKreDe6BaTyJrJJA6ZhIVqiwOehIjpbmV80hE6PuyvOQiAgEBAICAQEAgIBgYBAQCAgEBAICAQEAgKBCSHgCLpTBxptQtd7QvBN2YcnRWCRQ6EB0sjiSvwyTMhM7FIBSPSdNlGENWU3TexYICAQEAgIBAQCAgGBgEBAICAQEAgIBAQCAgGBwHcJgUkRWBYMWNAhQbW5KkfoUrH1r75LEIprFQgIBAQCAgGBgEBAICAQEAgIBAQCAgGBgEBAICAQmEoEJkVgkeo+LCKtZLvSitxa6Ov/Z+89vOSqsjzd75rw6b1PeW+RAwmEsBKmqrqqTfXU9Mx77w+bWbPmTffq193VhfcggyySEJKQkJfSexeRYa9765wbmQgKKEpIkFLuoLIEyoi493znRpx9f2fv3557iIn7g5w0eW8hIASEgBAQAkJACAgBISAEhIAQEAJCQAgsJgL3KGB9S68qt5oEr/wLycRaTBeRjFUICAEhIASEgBAQAkJACAgBISAEhIAQEAIPksC9C1jfeVZzmVji4v4gJ03eWwgIASEgBISAEBACQkAICAEhIASEgBAQAouJwH0WsBYTOhmrEBACQkAICAEhIASEgBAQAkJACAgBISAEhMDPQUAErJ+DshxDCAgBISAEhIAQEAJCQAgIASEgBISAEBACQuCeCYiAdc/o5IVCQAgIASEgBISAEBACQkAICAEhIASEgBAQAj8HARGwfg7KcgwhIASEgBAQAkJACAgBISAEhIAQEAJCQAgIgXsmIALWPaOTFwoBISAEhIAQEAJCQAgIASEgBISAEBACQkAI/BwERMD6OSjLMYSAEBACQkAICAEhIASEgBAQAkJACAgBISAE7pmACFj3jE5e+KgQCAIwjIAAnwATA0MPzcAvD9F8VIYq4xACQkAICAEhIASEgBAQAkJACAgBIfBQEhAB66GcNjnp+0kg8MAwXXzDI8ACLJRkZeCA/jf1d6GoJQ8hIASEgBAQAkJACAgBISAEhIAQEAJC4OcnIALWz89cjrjQCPgBgVfUP4YdAyumUrLKApYSruyFdsZyPkJACAgBISAEhIAQEAJCQAgIASEgBBYVARGwFtV0y2C/k4DnU5ocJz8xQry2jmh9M4FtY+CVywmlhFCuHCEgBISAEBACQkAICAEhIASEgBAQAr8kARGwfkn6cuwFQSBwXDI3rjFy6SJ13V3Urt+IH0/q4kHTMHQ2ljyEgBAQAkJACAgBISAEhIAQEAJCQAgIgV+OgAhYvxx7OfICIeAXS8yc/4L+k8epW9pN0+4nCWrrsQIDS4lXkoC1QGZKTkMICAEhIASEgBAQAkJACAgBISAEFisBEbAW68zLuOcJePkC6c8+Y+DoESo62mh5/nnMlg5t5W6p5CsRsORqEQJCQAgIASEgBISAEBACQkAICAEh8IsSEAHrF8UvB18IBNxsjszJUwx/ephYSyPN+18k0rVMyVdawDJEwFoI0yTnIASEgBAQAkJACAgBISAEhIAQEAKLmIAIWIt48mXoIQEnVyRz+jS9hz4m1lBL1/4XiS9dTmAoAcvAEA8suVSEgBAQAkJACAgBISAEhIAQEAJCQAj8ogREwPpF8cvBf3ECAQSZIjOnT9Nz6GPizfV07n+e+LLlBKYqIhQB6xefIzkBISAEhIAQEAJCQAgIASEgBISAEFj0BETAWvSXwCIH4AeUeicYOXiQsfPnqF7WRduB54ktX0pgKvsrUzKwFvklIsMXAkJACAgBISAEhIAQEAJCQAgIgV+egAhYv/wcyBn8ggQCzyf9+Q1uvPkm7uAAjRvW0qoErBXdBFZQzsASE6xfcIrk0EJACAgBISAEhIAQEAJCQAgIASEgBBABSy6CRUcgCIL5rCqv5DB7+irX336P0uAgzZs20PrSs8RWdGLYKgNLXNwX3QUiAxYCQkAICAEhIASEgBAQAkJACAiBBUdABKwFNyVyQg+awN0ClqsErLPXuP7We+QHh2jetJH2A8+SWNGOYasMLMCwHvQpyfsLASEgBISAEBACQkAICAEhIASEgBAQAj9AQAQsuTwWHYFvC1iZL65z5a33yPUPawGr68AzJJe3Ydm+snAXAWvRXSEyYCEgBISAEBACQkAICAEhIASEgBBYaAREwFpoMyLn88AJzAlYAeCUSsyev8q11z8i3z9C8+b1tL2yj8SydmwTdO6VKR5YD3xS5ABCQAgIASEgBISAEBACQkAICAEhIAR+gIAIWHJ5LC4CSrUywiH7WsAqkj13mZuvHaLUN0bjY+to/vVeYkvbsbGw1XNFv1pc14iMVggIASEgBISAEBACQkAICAEhIAQWHAERsBbclMgJ/WwEAnBLRTJnv+TG64cpDYzTuG0dzb8KBawIFpYIWD/bdMiBhIAQEAJCQAgIASEgBISAEBACQkAIfB8BEbDk2nj0CaisK/UoZ17pf1d/F4CfL5D+7AI33j5CYWRSZ2C1/Gov8XIGlghYj/7lISMUAkJACAgBISAEhIAQEAJCQAgIgYVPQASshT9HcoY/lcBdApYqG1Q6luEHEBgURycYO3iSvqOf42UK1G1dTfure0ks68AyLCxTmbj/1BOQ1wsBISAEhIAQEAJCQAgIASEgBISAEBACP4WACFg/hZ689uEgUBawAiP0vVKWVoYXgBOQvtPHrdfeZ/T8NaKmReO29XS+spekErBMC0MErJ9lju/uDPmzHFAOIgSEgBAQAkJACAgBISAEhIAQEAIPFQERsB6q6ZKTvScC3xKwDAJMDyj5pK/foee1Dxi7fBMzYlP/2Dq6Xt5LxbIOTMvCMCQD656Y/5Uv8n0lLaqGj+KY/1eik6cLASEgBISAEBACQkAjOaDDAAAgAElEQVQICAEhIAQWBQERsBbFNC/yQYbaCIEJSrdS2T4RlY7lBGSVgPUf7zFy5RZW1KZ261q6X3qK1HIlYNkiYP0cl44y03cdfSTLLjP/OY4rxxACQkAICAEhIASEgBAQAkJACAiBh4aACFgPzVTJid4zgcAPPdsNAyMwlPUVPh62UyJ78iK33zzL4K3bxGMWLVvW0PLKHsyVXUTsKFFJwLpn7H/2wnImnF/2FDN8H8M3cHN5vMvnKAUGFVu3UYrHAJcoPgZ2qDyKD9n9mwd5JyEgBISAEBACQkAICIFHn4COvdX/GfN/6EFLXP3oz/0jPEIRsB7hyZWhlQmUBSzfMDCVgKXFLBdjJk3P2wcZOHiN3EyaWNSifnUn7S/tIbFxJVY0puQTVBWhPO4DgW8JWKYy0vehNJtj/NB7BNEErXufoVSRwBAB6z4Al7cQAkJACAgBISAEhIAQWLQEvqsT+6KFIQN/VAiIgPWozKSM4/sJfEvACnceXJzRcS7/+zuMn+jBLblYtk+soZLmvVtoe3onifo6LNOUTYr7dW19W8AKlIBlUJxOM/3pRxiJJA179uFUxDDwiEgG1v0iL+8jBISAEBACQkAICAEhsGgIfK1czf2bSsEydDsrtTMvnrOL5lJ4BAcqAtYjOKkypG8RUAKWLhsMM7DU13ZgeDhDw1z94/uMnuij6DoEOMQqo7Tv3syS/U8Sb2lSruKSgXW/LqjvEbDyk9NkjnyMEU9Sv2cvfk2KABdbBKz7RV7eRwgIASEgBISAEBACQmBRENC1JnqkQVmoUvc+vlMg8EpYkShY8UVBQgb5aBIQAevRnFcZ1d0Evi1g6VJwj2LfINf/+B4jnw2TxwWjRCpu07l9PR0v7CbW3YoR1UWEwvN+EPgeASs7MUnu0MdEKqqpfmIPfm0oYFllAUstvjID92MC5D2EgBAQAkJACAgBISAEHm0CKuAOM610DK3+0/XIjQ2RHh2ksbsbs6ZpHoHuuC4PIfAQERAB6yGaLDnVeyRwt4DlhxlYqh9hqXeA6//xLsNnxsgaHoFZosL0aVzWTtuzO6nesgq7qhLDsO7xwPKybxD4AQGr8MlHuFaUuiefxmquITA9LWCBHS6+glIICAEhIASEgBAQAkJACAiBv0BABdyq77qKnq3wX4suM9cu03Pxc1bt3EZ05XrdaV3EK7mYHkYCImA9jLMm5/zXEQh8ZbWkK79NJWBpIcWl1NPPtX9/l9HPJ8hYqsywSMpzSNVX0Lz3Mdr2bSPe2IhhqiwsefxkAj8gYGXee4ehiWna9z1H3YZVGJFABKyfDFzeQAgIASEgBISAEBACQmBxEdApV+XOgxa4BsFMjv5TR5m4epG1z+zF3vQYprZJkS3ixXVtPBqjFQHr0ZhHGcUPEQiCciV4uQMhPqbn4d4e4MqfPmD43CiOrwQslyguyaoEbU9upunFncSaGrBM5cYUVpOrH2V7qH70V36g/LTCRF0zIBTHyt1qF58/4tc19572G1Ne+QGBaeBaBnbo2a4ZGcrAXVlJGpCdmGby9TcZ+vIGXY/tounFvQRNSSwjwApMAkNLj3KNCwEhIASEgBAQAkJgYROYiwHnXYjC01VxonrMx4oGeComWsB22ip6DvD1P6p+wdQZ8RKPLewLMDw7NW/6HgUTzw/w+4b46l//EyM9zbpfHcDavJEgbhMYBpaa1zkd667r92EYp5zj4iQgAtbinPfFNeq7RCXfUF/pHpbj4dwa5MobHzN0bgjDUQKWD4ZPRWWcric3U7t/B9HmeiJlAUtl4M4JWPPOWEEYgKjAxArAnFO6ylm7iwu0WixDw3w3MLFcjyBTJIhZ+Kk4kcDQrFTwZnqKW4BvQnZ8hsnX32Hw0y9o6FpKy9+8SGzrMizTIKqFLjUvUsa5uK4lGa0QEAJCQAgIgYebwFz3t7mCLvWnimasciM4tywaLMg8f33ygY6NtRhSlrCMoCxgSeLOgr049W1PeVNdbRSXVCXKjdtc/19/pDQxybLn91L71C5oqsE31QZzKGBp7WquSaHM74KdXzkxnQih7xDlIQQeXQJ3XeFKwAqUgFXyKN0c4MprHzF4YQTT/VrAqqxK0v3ERmr3byfa0oBthRlYc9rU3RlY3w5KlDgzl5WlttUW1/e/2urxtIDlKQ6zeSa+vAEVMerXLMeyo/hGOTPLA99U2VkBpdFpJl7/kBtHThOpq2fZ7/ZTvXsTVsQipmGqVVgErEf3AyojEwJCQAgIASHwiBLQmfoq8lRWRGH+kspIV/Hhgs7Amo+ddRpP+Li73GxxBbgP1cX55wKWh3f9Nrf+9+uM3bpNw7b1LP/1SySWdxBYFpYWJ0XAeqgmeZGfrAhYi/wCWBTD/5aApaQos+jgXB/gq9c+ZODSKIYX7jKp31UkorRuXkHTgR2kVnRiRbSM8vX6XS4fLOcGzWdlqS9/VR6nBZy7Sg0XBWM9yFBs8hVHBWciQ+/hk5CM0vHEVqzqagLDxCzXXGoByy0ye/0Oo2+d4Pa5S0Qaalj/uwPUPr4ePx4logQv/WYiYC2e60hGKgSEgBAQAkLgISPwXaVXOlBUsZGPbwW4WgAysLXNQmijEP7Nwn3MiSFz+tVCPteFS/HnPbM/E7Dw8G/2cON//ImRGzep2byaNX/3KslV3QSmiV1uliQZWD/vPMnR7p2ACFj3zk5e+bAQuEvACv2UfMiXyJ27ypW3DjFyO61ThnxT1fj7xIyARFstrft30Pb4FqKVFRhKdCmv3ipp0TANPF+Zw4e7acoVQD+jXE6oBCwluSwqpwDtNaYy2QJwXUo3+hn4+ASJxhpa9+3AqK8DKxIaYfngWz7OzCT9R04w+uGXzIxNEW2o4rFXnqN61zqCmkSY2qwpioD1sHzc5DyFgBAQAkJACCwqAvMZSl97XWm/T9enNJ2mMDqiYyGroRrfVFGN2swzF5xy9XVRTugZq8I15RFrmGaYDQ9EVec6NTZRshbsJT4vYPnKvz2gFLgYtwa4/j//yOjNHqo2rmD9739VzsCysQLVjVAysBbshMqJ/RkBEbDkonj0CXxLwMJ38aaz9Lx7iJ7DZymkLZ025SkBK/CIeh6JpkraX9xB+97tRKur5+QpAs/HsCytTClXAFUqZ/sBRqlszxkxCSxTL/rzRu+PPuFwhDrLPCzFDPI5xg6foe+DY1Q21dJ14AkS69ZgRJM6IlJxkG95eBNjDH14iJ73v2I2WyRSEWPlxlVUbVxKcusKzLoaLEOlN4uAtVguIxmnEBACQkAICIGHisBdApbawNR9r1VYWHSZvHKDvuMnaVzaQevurVBdgWlEMAJrQQlYdzvKqFN3A4gom4dsGtMIiMRiYMXwtF+SMv6Wx0IlcHcGlmv4lHwP49agzsAavXWHyo0r2PD7V4nPlRCKgLVQp1LO63sIiIAll8biIDAfXIQ+TaWJNJf/7S1GP7uMV0joDG/X9DEDj5jnkmqspOP5HbQ+vYNobXVYF6he6no4nosZscAy8TwPMgWK49PEkgli9dWQiOiuHuqxqDaodOWgH2ayzWYYee8Yt17/GD9p0rV/N237nyOSrFTKlRb4VNfHYHyI8fc+oefwANO5Ip6Xp9o2iK9sZek/vEDl2pUYhl3Owlocl6qMUggIASEgBISAEHiICJRjTB3baP1KCVgBQd5l9Mx5+t7/iOr2Rrpf2ke8uw3saJijv4CysL4pYBk4BERyGSbOncObnqBu6TIind34FZUEpk3kIZqexXaqXwtYqmx1TsAa4sb/eI3RWz1UbljOhn98RQSsxXZhPELjFQHrEZpMGcoPELhLwAp8l9LAGNde/5Dh05dxCnGdOqsygozAJ+4HJOur6Xh+O01Pb8euqQo9CtyAqYFBRkdHqG9vIVVbA0WH7MAY43cGqGttpn5FN1ZV8uvcapVnfZeU9U2LhPC/vm2bcFfC2E8TwHSaUzkzTKV/P+h87zkBy/Ax0mnG3jtGz+sHcePQuf9xGg88R6yyRgdsqvQSJWCNDTH57kfcOjTIdN7B8guknALxpQ0s+6dXSW1eGwZKhrKY/PPHN+l+8/c/9Dv5rAgBISAEhIAQEAKPMIFycPV1jKXioXs3dvgui6t5euVQS3VWDpu4BTpmDPIOY6fP0//6u3gRFQs9SdOurVhVVdoaQdtTLJCdzrDps/J3CPBMyLseVm8//e+/x/S1q1S0tND2/HMkNm/GiEVREtzXcdbXg/hBTlrc+0ZYvOAuwPsWgz+gkc3zLXvufl9srK/2QPVdVwKWT3BrkOv/83XGb/ZQvWE56/7x5VDAMm1t4q6nRl2OqvG3rhGdG8ACuUAfEE9524eTgAhYD+e8yVn/FQRUOrf6QjaVwGKpXTGH0o1Bbv/nRwxduEbJg6pEgVg8h+PZFAsVUN1A+7Nb6Xh6K1adMh/3MScyZE6dZ2xwgIY1SwgiNu7QFP5IhkypSPW29dRuXoudrNCrgM7oUq/T7QsNPEMZnBuY6kd5CihTT9PE0+JMmI6tnloqr++qrbL6CV9f9tdSG3blEOx7lxQdhHh4+VmcsSlMwyLSWA+JRFgKee/x2w9T1yWEYYabPzbG0LtnuP7RBYg5rH1hE/UvvYpZbREEPpZh68DNGR9l4MMPGPjwNjM5Vavvk3Jz1C2pYeXfv0DF5o0EsejXJZzl3U0VaM3tcmKG7Oa1wnJnH6fMSe0SyvL7V3xg5KlCQAgIASEgBB5CAnOZJyrGUnGXirlUpz/L8DCZBaPyL4tY36VgBGHHQPWYiyfmzdfnsq/KAoDqRq326FzVzme2wOin57j51iFsr0T3c9tofHY3QV09hmFiqaZCKm1rrgecVg/CKM8vt7B5UHYUOlTUpY4qJlXuDgHeVBZ3YgqrNoEVWPQf/5y+T05QGB4n1lJH94tPUL97C3ZFgohp49tqBGAblvb0UkNxlU/WD1076gnq4KF7RyialOP0X9rRXpdOfh1yhzH4L/Q5COcnZKPvA8qxrb6ew74AuBY6E06Xc87dJ5THoP7K1sFyQBB4ZK/c4av/8wbZm/00ru5mxT8dILpyCQFRbN/EMUO/rKgfYJpeuXmVumdRExUeQG+5683wX4rKLzQZctgFR0AErAU3JXJC95uA/t6/W8DyHErX+rnznx8yfPmqNhOvSRSJxTyKTpTcbBK/uoG2ZzfTsWcrkcYa/QbO1R6GPjjG+EAftcvacMyAiTsjmNMFog11dLywh7ptGzATKS24hKbwwZ8vPGqx0btcHp5p4pYNPVVbZbU2qJ0v9VB/3JU4FoY3dwVQ3yfKKIHILxSYvnqT4c8vkayooOXxbcTbm3XA9MDWnTBeJHBLpK9e4ebrJ5i6OEqkEtY8v4H6A69iVKuegj6W6sFTFrD6P/yAoQ9vMZ03cA1IOjnql1ay8m+fp2KrErASYTw3l5qvFnHX0x4MSryaM9KfX8DLxqNauCwv7CJg3e9PlbyfEBACQkAICIGFRaB8nx36T6kSPu1bWlYAAhfs+PdvaZVjsHmF6u7//hFBxFz54N0CVjCbZ+TwWW6++SlmIUvT9lW0vPgUsaVLsCIq88XTApJuB6SzXsIdy0ALWOrvwwZBP+Lw9zQR8xu8Kvb0Xaau3WTi+g0aV3QQ9yNc+egEU1/cws75RCoSNGxaQeXqTsy6FJXtTcRa6gmiypQ+FLBUDKgEoB8sLyyLMap6Muz9XRZpFoAsos5FMZnLclIC1oNi/2Mm7G4Ra05wDK8LdY2E14a6vL8tYIU+bEroCgUslVmXv3qHr/75TTI3e6lftYQV//RyWcCyiehN9wA/cLCLbujz66o/LYjF9L2KIqHmVV3fD7yi48fAkecsagIiYC3q6V8cg9eLY3lTSy2YlIrkL17nzmsfkBkYwEzkqYp62KZBPh8jk4njVdXT9uwWOp56jEhDLYHnkj/zJTf/8wPSw0M0LG2FeJTB3hGCdImqzja6XtlL7faNkEzqZUWZXuqvfGWwpRZ1ZW6uFhQVUBWKBI4D8TheTJUwmnpHRccuZhB28iuXF+q0buWnUBawVIBglVveftcMqiCkODbB0Men6D/xBTVtLSx79TkqVndjROwHtxqXBSyvVGD4zBmu//FTnN4i0WqTdQc2UffiKz8gYN0gnTN1i+m4m6d+aQUr/+5ZUls3EERTut303C5d4Lg4uTyGZWLE1A5gVGe1fSML6y6x65cMPhbHJ0xGKQSEgBAQAkLglyegBQhfbRIC2Tz58VG1q0a8sQEjWYFp/4BxejnW0nHiXEbQ3OaZjinK3aa/R9T4LgHLz+QYOXSW2+8cx52aJN5RQ/uBp2nY9RjRiiSWCvqCADNQsVkYBCppIoz45gSsBxfFaKEjCDN6XLfA2MUvmbj0JW3Lu3DHZrl0+ByloQJxJ4ap4tSkTZAwoTZC6871dOx5DEtt8uoytBDcXyzULAtYumv3XUObr1p7cMP9ixfonGCk5/+un7/4wgf1hHLmnxIFVcqVWXSgWNQVIEYijmWoHuh3VSDc1Qn9bgHL8Dzyl2/z1b+8xcydfurWLGXVf/0V0RVdBIZJRGfgebjZNKXeIYyiz+zkNIFtUb9+FTTU4hkmMXUvpVPuHtSA5X2FwI8jIALWj+Mkz3qICczvyKlNCBO8mTTjh0/S+8EhrHyGeE2eCl1aaJHNxUmno3hVdbQ98xite3dCQw24JXKffcmd/3yf/MgwTUtaMRIxBnrHCWYdqrraaH/pSWq2r4eU8sBS3++GDgrCvRxlpOjpyMrIFin2DZIfnyTR1ky8s50gFtOSVLir4ut/VLCgdxBzJdxMLhRsqlP4URvbUE2Yv3uV97wS2Zu9DL7+KVMXblLZ2Urb/j1Ub1mFWZnAMB9QdKD4qs2eYoGhU6e48dpRvH4HowrWvbSZ+hdfway2Ve9GnYGlyyzHRun/6ANGPrrKTFaZhlokPIfa7hQr/+EZUo+tx4+ksNTOngrpggB3coaRG7cwbJOGpR3YtXV6l0iHTlro+9b4HtBwH+KPhJy6EBACQkAICIFHjoC60S8RECsEOLf66Tt1HM/N0fnUXhLLlmJErO9NHgmlo3CjcU7A+LosK8wd/zojKpSYdNw2V0JY3jiby8Dy8PDSWUYOf86dd09RGh8jVp+kff9TND29i1hFCstUnZtVMnm4uaiPr2rDfJVJX8S0bIxoDENlwugQJwizz+/TQ2cbBWrfNMBz80x/+SXpCxeorEySvjXO7ct9eMUEfjGi4zArcDGMIiQCmrasYNkr+0iu7CCIRHQWmd5o/QtZS+GmbDmrfm5zVuecqawzVb52/8Z3L5jmK0jL1XJz5vb3k/uPOq8yJyXyOYbyVPMo3OojffU20eoUDZvXYVZVhhOofWXn7jZCEVE91Lyq3zvpDAMHP6P/vaO402lq1q5g9X/5FdGVnbrpVFSXGTrM9vYydPAU5mCOzOgYJStg2UtPUfvUdoJYnMicydsP1oj+qNHJk4TATyIgAtZPwicvfmgI3BVglMYn6X3jfcaOnaAy6hOtnCWuS/1s8kWVgRWhlKrRHQibnn4Cp6EWXIfc6Yv0/uf7FEZHaFnSgpmIMXhn6msB68Buaravw6oITdyVeKVTbbXRoocfuLgzGWZv9TN1/gqZ4REaN6yh+fFtmA21GJaqMw+fp16vQ4FskdnrvYxcvkG0IkXdppXE2puIqIDmOwWsAL9UYPbiNQb/dIzpa/0EtVU07NlE+zPbiLU1YKnjPIhH2TM+yOcYOXWKW6+fwB1w8KthzYGNNL74KlaNjbKUVOnmhqq5Hxth4OMPmT58mclZn4Jnk3ChurOSlb8PBSwvmsTStZMBpuNSuNXP1SPHKbpF1uzZQdXqVRjRcDXVTzPKZL4RhT6IAct7CgEhIASEgBAQAguFgBKvnCAgOpFn6tPP6TlyWKdjdT/7JLWPbcZqqAmzsL7j4Si768ALs+Epl1SV/UlNtZmoahHLGS96s0xbipbFlnKWuAo7tIClrQz8UMA68jm33zlFYXyMitokbS/uoX7fLu0hZeNgVsR0aaPOMtflXh6lmRmmenpIVVVR0dkFka8Vg/sppCgBS208KsnDcwrMfvEls599jlfIM9Uzzfh4Ft+qouhY2gvJDjzsoETUdmla3U73K/uo2LCUIB77RgHgD0lQSmScz9JSfrBzepahBCyfiNq8/QUeWqia93qa8+sIt5XV435y/9HD082RlP+aD4UiY0dO0/f+Mex4hNW/3U9qy3ptpaF+ys3S5986HIra+PXJDIxw6T/eZfazyyi7ksrV3az5h1eIr1mqM7B0QlVQInPtJrf/+CHZr8bx83kcy6HxyQ2s+sOr2Mq3jUiYKCgZWD96CuWJD4aACFgPhqu864IiEC5Kar9M7WSUBkfpe/09ps6cpDplYCXzRD1P1+87foTsrE0hUU3jnl00PPUkpYZ6As8hf/oCfX/6gILKwOpuxkjGGOxNQ8ajuquFjgNPULd9nTa3VAud/pKfF7B8glKRXE8/PQdPMH3xGiqlt3XXFtqee5JIWzOGHRqcq3T3MIgJ8CdnGfr0c25+ehozYtO8Yz1te7aSbGnRgtefLahBgJ+eYfL4OfreP016cBonEaNx22qWvrSb5NIWLFuZot//RxBGQfiZWUZOfqYFLG/Yw6sJWPnieloO/OZrAStQ3Xe+FrDypy4wmXHJFqPYBYuqzhpW/f45Uo+tw4nF9YKrSjKZnmXm7CVufnKUQj7Lsl2baNqzJzSpt0N/L93hsPx4kN4R95+gvKMQEAJCQAgIASFwrwSU9bTnOLg3BnW2yei5y5gRk3hnA+3b1lG193HiKmvlOwQJZbquYj0rU8QvFvFrkrixCBHHw8wUoaRq7SwCy8BMRDGjNr724VSilfJ/CmOPrwWsAC89y8iRc9x65xS58TFqlIC1fw81e3fgjU/jTo5Rs7obs65ev15lORmOQ7avn94zp6msraVl5w7MqqowrryP2VfqXJWYFPolBQRFh9znl5j46Bgzo+PMTnnkSz6BnaCkBqn/F2AFHgnbpXVlG92vPE1q/VJQApahMuXD9/shfWPOJF2JgqE/bZj1pjcgTRPLehAR6g9fUXNiT1hGEAqYczWE39gYvdcL8x5fF3aGDAsbg2KeoQ9P0P/GJ3jFIt2vPkPLyy9gJePaBOsb5ZhztR9zAlbvIOf/5Q3yZ68RidhUreli3d8eILZmGb7K8lMz67vkrtyi598+ZOTqOPgOvpmjccsS1v7Nc9gtzVipmnCz/S6N8X5fk/eISl62yAiIgLXIJnxxDvfrbjRq18fpH6H/9XeYPnuSqgqDSMrHdkq634tvRMgXLHKRauoef5ym3U/h1jfooCZ35iJ9r31AfmSIhu5GgmSM/v4cZH2qO5vp2v84DdvXaqNL3Ro5LFnHc1xUWZ9RLJC/cYc77x4m89VtjLhN0+6tdLzwFLGu9lCQ8n2c2QyZyUmSsTjBbIGh41/Qd/Rz/HyJipWdLDvwFNUbV2Mm4pjaWPGuh+9TGhyi970j9J+4TCnr4SVitG1axbKX9xBd3kTU/r7sLfA8T6eoq/f9s/f+gYsnzFIOUCJWenCIvkNHmDryFUyYeNUBS19YqwWsaH103sRdrbZzGViF06eZyjhk8gnsQpTKjnpW/v55nYGlAkgVzxhqV7JvKDTSP3Uep5Al1dFA9d6n6NyyiVhdFUHMwjN0n5Ryev+D86xfnJ8lGbUQEAJCQAgIgYVJQMUhzuQUw8fP0nv4LPnBGZ3xHVhFVq3roOq//z3Vba34vq9jnLtvvn0l5+SLFC7fYXJgiPjqTpJLWrGzJSY/u0yhf1zHF34ySt2KLmpXdKsW1jjqfj4wQ9sHVUg3n4FVFrAOn+Pmu6fJToxSU5OgXQlYT28nf72P6Stf0f7kViJLu7CtGBQ9vOk0xd4++k6d1E19Ol54jqqlS+bP934KBkpM0v5KKjbO5Mkcv8j4e0eZHhkj7yrLCSvc/PU97c06585q2w51yxpZ8sJuajevxqpModzyf0wXwsBV1hhF8mOTOLN5IqpTpNqwNSFZX0u0ve5nv7i0gOYHuMUS2Zm0zqyrrK7GjEV0B3Hls/pzy2pz2lVQKFHIz2KaAaNHTzP4xiFKmQy1u7ey4re/JtXcGApYKgvrW75dftnAPds3yJf//Ca5s1e18JpY3sKal5+icvMajGSlrotQn4ni5Tv0/tvH9N+cxA9KmEaG7jVttGxYRqmqkvqVqzBrazEqE/Nz9CCE1Z/9ApADPnQERMB66KZMTvheCLio0MTH9gK8W2P0/ukdxq6cJl7lUJU0iHjKxDLMmvKcgGy8hsTO3TTu2otf2wBeidkz57n5xgcURiepqq7BNCLMzJZw/CLVbTWseGYn9Ts3QHUNBrZOH/enpinevI2fz+j9kOzwNENf3GbqzrDOKKpbs4zO55+kYvMqvKRFpFikcOkKg6e+JGnGdFvjyb4xpnsmKZUcEp01rNy/m/rtW7Aq4xiq1a2phC+V0aQEpCLF3iGuv36E3s9vErgRrLhJ96ZOul/eQ2RZJ5FIOQOrbPYYdoHx8d0i/vgoZsEl0tCCmUphKCB6C2jO1fS76YcLbQD5AuPnv+Tmu0cpXZvGLFq4FR6NG1tZ8vLzVKzoJoha+CpwDHyCkSFGPviY/OlTzM4WmSnFyHoxIh2tbPrtAWo3rcCNBETsKCUDcndu0v/OJ0yf7cPLWpgxi2h3BWv37KBu+wZoqMY3FI/y7tkDbLp4L9ehvOavIxDuO5ZbRhvhzq4OIoOAgt7l9YjqUNPE0bvgqiW5CoQt3dFSZe7N9eqZu6lQQXjJCLBdA0uJneX+1Ia6U5i71E0PDCXmqutaZTqqDlHqwL6+bo2wrdX3fxjm2hhZYVdRN4CIuqnxAnytxoav1pmW6oZIfRbLNz3KfNhXwehcF8258ueyUavSxtVnQf1eFZXo7qXl3VbVXuyAW+4AACAASURBVFu9b+gHF77B3V2V5n43d+a6fKTcLkK32/72Y+6vvi2U/3XTKM8WAkJACPwsBJQIUegfZeCdTxg4dREnGyEIohhmhuWra2n8v/+RiiXtOLjaa0m7ZwaWLqNylVSTmWXqyFF6PjtDZfsS2vY9rcu17vz7m4x+OUTeC7SRedemZSx9cSf2kjY8M6YFLL1MGF4YR2LhqryWdI7xw6e58d5RctMzJCuTtG9dQePmZRSnJ5kaGKF295NEVy8napmYM5OMn/sCa3Cc6dv9TJdKdL/0Io0b1mLFomWhIsx00n5ROto05j2Pwr8pJw/NqRna3yhcFAwzfK3+VXnTUXc89D0yPf0MfvApU6cuUVIeYkYyXE3U8+b7BapSSpUtZZCqitG9cyVtL+4g2taKYUa1wKc2G1W5oX6U1211wHDNgyA9yfTlawyevUZhIENM8TddihGX5lXdtOx7mkh9DUHU1Otn2LhIZWppP4753UlXnVdZWFLvO/f+82ufNon39ea0WuZVkyB9VtqFXP2hyu7Ub0N+QdHFvdlLz2ensDyXjsc2kli3ksCMYkQi39sASb+b51GcHMVQXfxcAztVj1uZ1KKcyka7l6JIRd1TXmgDw6RvXifW3MrE9Zv0vXOQ/JRHor2eLf/wMhWPrQd1fnMmWHPeJb4SHsELAm3MfvWf/4Ppy1eJRlX2YIz6DSvo2LsLa91KnEgCy/XJXe+h9z8+ZOSrWXy/iGlPsXR5DY1t1WRKBWpa2/GXdRHfsp5YwcTLFrATNoY6ZiSOG0tg6ykK76fUdaZiM/WnijEsHcQZeGWjuNAnuBzDlKf2Z/mikIM89AREwHrop1AG8BcJ6GBCZVd5MJNn9tR1ej44SHbiOtHaErUJiLhhSZtKjcb1mU3WYO/cQ8POp6G2HsMpkjl7gRtvfEhueJq4ncJ0bUqBj2MWSVTbLN22hta9O7C7OzDsGKVCgemLXzF17BRRt6BNGGeniuTGHIrpoupRS7yphu5nHqdp71aMugTO0DCDHx1j4tQVvFyJogpS/Ai4UVwjoKKzkhX7n6Bqx2YiFXEsZfauAhZ9BxxmbxVv9NDz8Wf0X+rXxpuRhEn3hmY69+8kunIZZjxxVwtc1TZXBTcepUya9JWvCDJ5atZvJqJ3dZQ0oG7af5yAZeTyjJ88x423j+L0TutzK9lFYm1VLH35Wdoe306QjKNutJVglrt6hZF3PsK4fUm37M26UdKBTbSlg40vPIdfkyBvQHX3EqyaKnJ9avH+kPHTQ/izcX1ufipNx4YVLHv1WaIruwjMCKZfDtKUgPVzb5v9xQtSnvBjCcyVI6ggRwfsyshUNUJwfBzDx4oq7wabIDAomRDxHcxiEceM4Jqqs45qoa62x8O+naEvSUDR8PRnXlnyepaPpaK8gvqiCAjiNp6KVdWxdFMoVbZh6s+JCtJCnxLVZfS7LywdY+uuUo4OlH0ziupGbfue7h6k/drUT7ldehhrmmHmoKpQKXdmKt9vhEF5uYogNAtWcrMqdXExHQ/LiuuOREr00hUYc3cn5ZuX8GajfMeiAvmwv7yeAnXjEsx/tr9DwCpPlPocy0MICAEhsNAJ+H5Avm+Ikbc+ZPDkJQqFJH4QxbRn6V5dQcd/+ycSy9opmq7+VtPFU4GKpCxcP8AbGGHi0EHunPwM10jR9dILNCxvp/+1dxg8P0rRM7EiAY1L6lj+8g6dJW7Gq8sCllowHL1YuUaEUmBgz+SZPHSKa+9/Sm4yp4WGaLVNVWuCaMLAjsVp3vssiVUriag4sfc2PQcPY4ylKWYKlGIx2nfvJNncRDSZwlRrRypJpK5aN/RRX9+qNY5a3/T3ebmEb24tCMWssoCl1q5yhvrcxoXaVFF+pKordvraDe688wljF2/j+TE8JfzprCtPLyJKKtPrhvJ0NTySUejcsoT2v3mKxJJuMGN46lmep9fcOfEq3HhScWTYiMe5fZOr737CwOd3iGYsIsr21YacOUuyrYbabdtY/sR2op3NFJW3vQFxVWpYUhtLZrhIqtJN9VM2tZ/LkFKxQFmfwjcDnT2l42Q1t6at10d1/qGpiOKlrDvCDVhvMk3m2DluHDyEk5uldddmlvz6BSI1jfAD3St1JWRObd6ewZkexcpDw4oNGGtXaBHupwhYvluiePUWMxe+oGLFeqYGh7jzzsfkpiJEUyab//4Zap/ZBYmEnke91Je7WaqLw3EN3dTA7xui5//8f6SvX6UikaCY88lXpuh4Yiu1B/bi1zdiFcC5pQSstxn7Kkug7EzsGZpbo9Q1xHXcEEsk8VubSK5dz+ydSWYnJqmpU0KdR6Krjar1GzGUGBaGKmHcZgb4TokgPaPVrEhVDX4iEgqT893Xlc9XKFTKQwj8GAIiYP0YSvKch5uAXj3D9IbSwCR9bx9j+NhJ7GCSWENAVcLB9tUipsIZj8D1yWoBazeNO/dhVNdjuQWdgXXjjU+YHZrEMpIEJbVrpDKtHMyIS9OKVpa8uJuKzWshHsebytB/8DhDHx6lwghwLYNcpgR5ZdZu45k+keoES3ZtpGnXOszaJFPX73Dj/WMUesZU3gmupW7OoxiuTWAFVHamWPrCThI7t2BVxIkWHKKlADMZxXOKDJ39kukzF8nc6CU3UYQgpbobU9Fi0L13I3W7d2E0NGCqnT51Q50vaWN5v1jCz+WZuXqNUr5A/Y4dxJd24EXUrata4stbKN8jBumgSWWmzOaZOHGBG+8exJ6cIBGxyPgF3IoUHS89T9fTu/GTqsQSyGcZPnGCkfc/ITnbQ9RWQZZFwbGI1zTRsmI9ozNZcrEkLc/spaa7g3z/bXre/4TRLwbwsxFsP8CJZWha0cma3x0gtn4ZnhXBuisDS/Srh/fje7eAFe43B5DLk7l+G69UpGbNCsyKar2zql000hPk+/oxEykdSBuzs6Ta2zCqqzGsiC7xUMGdysY0PbVjbmhx28hlmb3Th1tySC1bgldVoZ8bVbu6OYeg5GLGYhjlHWFt3vs9F5anu0iVyI8N6o6nycpGgpJBcXqa3OQYla1tJDo7IK5uCEIxTn3WAzuCo95UZRCWd2y1bKTaVqs/yyqW8ilxJ8ZxhwcIskUSy1cRtDRSihjE58Sru9qUz2/HzyliKrqfi/AD9V1U3s3/lkZ1t5wlfq0P72dIzlwILCYCXuCR7e9j5K1PGDp5hWI+gRdEQgFrTSVdf/h/SCxro2CFmTkR3d1Y5+jo7//pM1/S+/YnzNzqxY1E6TqgLAqW0vP2xwyeG8fzlYm1i13p0/jESrr37yXR1oVp2lg6sFECloFn2LiBgTWdY+bQZ1x57yS5KQd0NnkRL5LHt4u0d7ey4VcvQlWS4p0BJr64wvDl6xiulo2IVFWQbK6nVHSpiKaIxirIRWwaN6+jYdtaSFlaBdCdmvVxlRCgFBUHO/Cxgoj2lfq2j9N89q3KOhpPE6RVg6Hb9Bw5y8SdSUrEsPwAO+LoMXmOGrfyDlOLXx7TmiUV82javIKW3zxHaskyvXmoyhFj2ss1zJ4K10OVlebq83FyOaZPXuDq+8eZHc5iF6NYga2wkA9mcS2PSGMlSx/fTPvjm4k21VBKZykOjGGlSxRNFc82kGhu0p2o1RKG9iILM50tI4ZddjNXIb2KC9Qqr4UrJWXpjK3Q2NxXYpgy31dZz55H9vptbr91kEnF3/eo3biK9X/4FbHWlnDB/55NK23+Pp1l5tOjTF2/Sn62wIpnnsV6YitEdMuiv9CX8bs/oTrvzSkye/EK0+fPU7vuMaaHRrnzzkEtYBlRl01/+wRNB54CJW6WBSwVYOsKkLKAVVSbXn0D9P7vf8G5foWqZIJs1mfCTtK5fSOtv34Op7UN0zOwbvcy8K+v0391SkUneq5jCQ/L9qmpTZFMxfCMCK4fZ2p4moJTwLZd7Fig56vjlWewq9tDGxUtDHqU0mm80RFyPXdwI0nqNm3BrqvSm4lqrnQ4oq4VEbAW01f1Tx6rCFg/GaG8wYInUM7AUsuW0zdJz+sHGT16nJiRJtlsk0qU9O6Zp1OJPQLfJ5uoIbpjNw0792FV12KXcuTOqAysT8gMT2OaSXzHxjCiumtgxPap7Wqk+8U9JB9bg5uMYU5lGP7oGIPvnyDI5vEiNoFvYrmhJOSozI+YSUVzFZGWStyIhTtdpHBnHC8TPl/tGAVqx88zMGyPZGuCFc9so3rnZpyIQeZaD0ykqV+1BKsyxo23jzB05DyUPAzfxgtSOl/DTBXo3LWSrv37MLtaidgWtlfCGRil/9gZZnpGiKjFLp3GTMZpfOIxaratw6ip1NknukHyXDr6d0y4+pWrgpTZIhPHL3DrvfeIZ4aorbSZKXnM2knaX3qZ1r2P4yVTRFV8MzHJwOHDjB85TswbJpUwdAq9XwwwrUqKXgWT0z5eZQ2Ne7fSvmkN/vQ0vUfOMHhpgFLexPItPDtNqrGKrn27aH5mB3ZNdVgOGia2/Oy+BQv+8/AQnWBYJjFniuvrEtn8jR5uvn+QhG+w5MBz2Eu6KcajGJ5Dqb+HgROnqG1px/d8Rq9cpnXrJuq3bIKEupbDUFJ9Jgzld6G7HoExOcnI6dMUC1man3icoLFFlyZGs0Wmv7rBTN8ArUu6seqqtPeDXVetbwq+6xG2QC8y+cU5bhw6ScpLYAcJnHyObGaC5pVLaVa79rVJLcI5MxliVRVEl7Tjp1IERiK8cQnAdjyCbC78DCfj+DmHkUtXGT13Xu+oWo5P07Yt1Dy9g0hHM7YKsL+rEvCuEsXwc1x+UvmGR7dxv7vsZG5g8yWED9FFI6cqBITAoiXgBB6zAwOMvnmEwRNfUSpG8T0bM5Jlyao6lvzh/yK2tJFiueJK/RGKG+jOe9Mnv6Tn9U/JDU5gxC26n3uM1seW0/P2QW59MULgRHSmvpH0qNnawYpfPUty2TIMO6K2IcL8p8DAVZuiBBRv9TP6wRH6P7uFk1MxWURnDjlWHt/K0bm8mTV7NtHXe5vhczcxphxctfdoR/WmoGWbGKpO3HGIuqb2ycoYAV59Nav3Pk7Xvk2YTUltI6E2bVTpvF/KUxgZIOZ4JBraMdS6Yof+SHNxnFpjVGmZM5lm7PwlSoPDFPqGmbgyRDFnUbRipHCIxnIERgEnnyBw63VQZdhpEolJKlMuFWvXUffyC1rAwgoFLNXVW2Uuu1pAUl0dXZidxRkeJjs6xsCJqwydv4NTNDGDWLh5bKlsaVW27xBXmT91cdo2LKW6pY7M+AzjqqP2RAEn5tOytIOmpV24UROrsZrKFZ1EGmtwDOVDprJ/wvI1/dBLYtjpUClqjjqUbrDka8FEn7CrPLgcCleucf21T5i61a/VlKbH1rLmDweItTXOZ5R955pfKpG/fJ2+tz5i6s4dvRG17Q9/R3TPNgzLxFLpZfdgvh8KWKqr+BWmv7hA7bptTA+PhwLWZAwjVmLz3++i6cDTBLF4KGBpraxc8qnufYoGRQPyg/0M/Mu/4F+/RHVVnFzWZMKronpJG03P7ya2eT2+F1D87CzTb3/MyKAycFedJVVRikckZmBaPoFRROWuU7Apqaw2W5V2FrGNEp1Pb6b7988Treuet/FwnRJjly8zdvQ4iYkp4qvWUPfMPqINNboZQkRXkIiAtWi/sH/CwEXA+gnw5KULn4DaGVHuV0WVHUQEf2Cavjc/YurYceJGllStTSJZ0ouyq8QT5Xvj+LhVjSR3PUX11ifwU5XEXVV6eEYvHIXJWQIzjlsy8FRmlEpDNw1qulroenEP8cdW4ybjWOl02DHk/c/wsy4l3WVQ7TjMtVhWCotyXXBwLR/PsrD9CPGSSmpX64Na+g3dUjiqn1fETwY0rV5C145N2kfq+tHTOBNTdD6+joblnQwfOU//mX4KnjI+VyNXaeAGdtKjbftKluzfS6SrCStqECsVmLlwhatvfMzU9UEslZESQLSugpYnN9P27C6s1ma9cCuvHeUhoFOT5+KCuxbkUMDyMbIlxo6eoe/Dd4mn+6itssl5JsVYDXVPvkDDvl04FRUkCj7ZK9fp+fgTCl9dIRnPkUhYRFQQ4xkUSzGmZixm83GMWIL6VVXULGkhKED6ziRDA5PkVVtnL45tTONZLq2Pb2bFb54l3t6sBbf5rBVJwVr4H9TvOcO5hCIddKu9VCfP6PEz3HrrI5J5j6bHt1H/3F5KLfXEVOemi5cYOnqCmsZW/JJD3+UL1G1ey5L9z2E3NOnsplB2UncsrtorV/ntGKNjjBw5Si4zQ8uTuzGbWjCyOZyeIW4d/YyZ/kGqaiuhJkG98q178knM6prwncreUfPGunoT3iV37iLH/9e/EYx5REiF5RNGgUhVhFhztc6gVGUbhUxG//fSA7uoWruawKqhYHjYno85Ms30pesQt3SnquzAGJc/Os74V3dIZAK9Q262VtH+7FaW7H8Ko6IyLIfQ6q06XjmQ1zvfqpFECatUxM8XtDlvRBnvplL4EQvPDD8zujpj7gZgzohLKggf2s+QnLgQWEwEnCAg0z/O+JtHGD71JYWcakqjMtlz1LUkad3/HC07NxDUVuDboSdSKGAFuE6B6VOX6PvTMdL943qPomldB6n2atKXbzI4mIeSErDASKjso3aW7t9DfOUyiCe0ybZWRAJVjmjqMu/RE6e5/fq7uIMF8BM6g8tVnk/qTewirZ01tHQ3cePaTSZ6pohHasK4TXXj8wMinsphUm5aqixdGc8HlFQOseqsWFvBjt+/SMX21RBL4VlhSZ03NsbYiVO441M0bt9JavVy/HhEixtznkNqjVDG6c7QGGOnP6c0MEh+cJLJ2xOUnCglyyLJLNU1KoepSDZt4xVr9CZsNJGjsmqaRNwhtnwjtfsPUNEdCliOHZY02qpJj7bPcojkCmS+vMrgidOUpmYoTHhkJpR/rFpsVDaP8qIKM+LUGhR3VXaUqmxQm5m6HhNKYLgWvp3DiPq6a3dJuQNUp+jcsoaGVcuoXNqN3VgX2gaESs5dIpZ6PeTNAGd0AmdikmRTHfmpWb1pmqxKMPX5eQYOnSY9PIkZ2DRuXceaf3qZSHtDWLr4HbGkWv+9mWnuvHuQvo9PUpidxa6rZPt//Q2VO7Zi2FFMtaFq/fWLqLomA6dI+sJlps9fpG7tVqaGRul57zDZCRsr7rPhdztofmkfJJPzGVg6TvccCoPDeGmPSHMz2fQoff/+r0T7rxFNmpQKUSamK3CSFs2Pq2ZS+yh6JfrffBv35FkKRWXsnsAP4rq8VnmFeThhWaGhNrTt0ArENIj5YLsFqja1sOwfnqJq7QadzaU+XI5TYurseXr++CaRsXFq9u6h8eUDxJvqtA+WCFiL6dv5/o5VBKz7y1PebYERUF01SulJSvksVrIadyxD77sfMXv2M6ptl0RlhEi0qHeAlIClFlFL5SFXNFKx8ymSW57Aq0hhZCfIHDvG2OET+Nk8rmnp2nK1s+coY3gfqro66d6/j8SWNXiJOMH0JP0fn2Dwg3MEWQMnGpnfjVIpzbp9cNkTIEx1VjsRls4qUgbvrunimR5x26Uq5mEZLjOlIkE8QXN7B3Y0wdjNPtx8hsb1XSSbahm72MPsCBTNGBEjp9OlXSVMxQ1ad6xjyf5niHY04kcCYk6R3LmvuPHGIWauD2N4yinAIFYbp+upjbQ+tx2jrRnfihBRC7CndqzCm+JvdyjU9+wqqMvkGDt+gv4P36EyO051MkIRk7yRoHrjk1Q9v4ugoR5zNMPosdMMnjpO5WyaeMrVvhK2XuNNCsU4U2mbdD5BLBKhq8PGqzCZGS9SmoZ0qUhB9RZyU0SMvDbcbt21kWV/8wxRJdDNuTXcW+b2AruKF+/p3F1CqIsEi0VGj33O9dc+wBmZxKqrpOu3L9L4zB68yRmG3vmE8bNfEolVaI0qlx6jedcmlr76PNEWJcaGJbE6B8v3tbhreh7enQEGPjjMWN8A9evXEm2oZepOL7O9oxSGp3RnKpcSXtxj1eOb6P7tb7CaW/XEfLsjlErAUr4iU6fOc+r//RPmtNLKlH+EEodKWOR1pqeO7zyVVeZiNMRZsm8LXS/sxapr0d9DpZEJxo99zuiFy9QsaaVqZQcjF28wcLGHUsYnWorpLK2smaV2ayfb/9tvsdtbwqCyfF5KklLfMW4+R/rSeWbu9GGlC6SHxonEojStWkKspQFqKom0dhCNx8tGWqHPiBbDVIWGofIU5CEEhIAQWNgEVPiW6Z1g7I3DjHx2Gt93iEWjOIUcvulTu3Ut635zALO1ARJJLeSHFoEBRafA5PHz9L9+iPTgOFqBicfw4gHRbI4CCSwvrgUvP+6Qao7Stmk5zU9s1x5QRkzJYWqnT2VfmXjFEqNHjtL75lsYMyVsO4HjmeQLSo6K6u/5VJVNRU0l4+NpMrMuhpXUApfyZ4p6vja+1kVwWizwMG0f18kTU0KRadCyWTUC2kXF8mWQjOPOFshevsbAx0fJTUzS/PQemvfuwKxTGcgGdrm8XJXc+Y6H1zvAxOmz+BMTpIenGb89pqoP8W1IxQpUVoeiXDYTUMypdcwkGiuRrMgSiQQklmyi9pnniDa0YKVSUJHQYodam5QvpacqFMZn9GZu7yfH8WezOCQoEdUG46oJUWjfEapDiq2qhrACNXZ/3tNRlfspUQ8zp/LM9Iaqzq5SIl88Sqq6ivaNq6h7ZguJjhaIqNJKnYsVPk/94QbMmh6TZy4we+kabeuWM3q7H1VjUN/VSv+xU0x/eR2/6Opzatq6gTX/7W/Ca0UJYt8hYKk4QlUG3H7zY3qPnCObLxKtTbL1t89Tt2cHZiyhm8XcSylAKGA5pC9c0iWE9eu2MD06Qu/7B5kdNzFjAWt/vZuWl/ZhqBJClR2nPbB8/FyGkWMnmbg6SMOWrVQ0V3L7T/9OrP8aVjKgWEwwPVZJPurTvnWDvndxDZfeN1/Hu3oJgyocN0o+b5F3bHyVOahEPN3rJjTFV0dTTW6ivk3Uc3HrPVb9ZgcNv36eqGcqpxQKjkP+7CX6/vVNnJFhap7dTeuv9hNvrtf3EyJgLezv04V8diJgLeTZkXP7yQRyuRy5y5co9PeTaO0mmUjRc+QQ2YtnqY362FEb0y5p7yUlYKm04qgb4EdrsdduJbnjSazGOmYHbzH60fvY16+TtJQJdKB3jZRzct4NyHsmifZuvYuR2rQOP5LAmJlg+NAp+j+4iJs2cCIqddzF0v3T1C6dqv1WAY8KdspdzcqZJmrhRpmMRouk4nlqogUilkG6YDCjPLTMSiJmCrfgYJgODZ21eoEe65vAcRLYMZ/KaFrX/juuiRezqdu6gfbnX8Bqa8OxDWJeieKFK9x84wjT10cI/EhYupSCtq1ddD63ncSKpfjx1HzKdWCGrXZ1oHFXC+owA0t1l8kwfvIwI4cPUpnOkLKjuGbAdL4EtSup+fVeqlevZPZKH30fHaF4+zr1hkeipqTu5sutqKMUSgmm0ibpfIyIGaWlPoIbd5kansWftfETPo7tYhUSWnRTC2r7ro10/+4ZIl0N2mBbZ7qJgPWTP0O/5BvMddCbz1rMFxk9eYHrbx0iNzhOnAJNLz1J++9exp9Ic/Of32T6wg1cP6ZlKivq0LZnC8tffZZYe6NOWZ+zuVVto/VnMJclffpLbrxzhPTAOEZVAuIRClNZzFIE07GxtZ9JFj8yS/fGblp/c4DUqlVYKkD+dmmA+hxkC9oH7qt3j2BnbQgqdFaUaZSwfZfA00WM2KaJbSqj9wK17XV0PLuLit3bieVLDB49w52jJ/FnM7Sv7MJLRBn+aohCWmVmRvQOpx2Y5Lwcya5atv3dASrWLdGBe6C6a0Ui+jOqPP0yA4NMffIJvReuUsr6FGcdLNsiVRMnURUh0VBDw6q1xGqrCBJRYg01RBuqMONR7d0XRXWjklTGX/KzIMcWAkLgLxNwfcj1jjL+1odMnDuOFcmTjMcwSga5kkeyvZWGbZtxO9qpX7UGO5HS2TXq+9kplJg+cY7+t95nZmycoKQM4FPkVSdkN68tHSJuPNzwjBYw7FkqmypZ+dxTND+xU2cD6XqoQNlFGHiFAlOffsrge29jFXNE4rZKziU3a1AqxXBdFfu5GJEYBd/CUbKVYRHxVb1AaHzuqzJvL6pcnLRvqgrGfF/FkWHGkp2C9seW0/74YyRamsncHmTg2OdMXrqJHY/R9eKTNO/bCfUV+is8qgaqBDgzwJ2ZJX3mPKPnvyBhwOx0npm+UaKuhxVxiKcc4gklMLk4JR+npLdstB+SGXW0+X1F90aqdz3OTL5ErLqK2jWrMONKTIGCFWbm25MZ+t85Ru/BU/izeb2pGSiv0rK3qvJLUkyV8KXWZCU0Kl+ysHlQGN8pvyTVMTjc9P16LVKZzbaSUjyfSFWUpqdWsXTfLuIdjWHnwLnnqmF7LrOWS+7YWYY/OIpZk8TN5KlvaqVySRuDp78gc/N2uMEVBNRtXM+K//Jb7La2HxawJqe588Yn9Hx6CSfnEImZNG5ZxtLfvkCysw2r3Hn4L1+933xGKGC5pM9fYvrCOerXb2ByeIC+D5WJu4kVtVn98tO0HNgLFZVYWvgst3nJTDL84fvcOX6Jlh1P0Lp5JXde/xPJvuuYKWV/m2BqrIKMXaKhs5POp3cRq4ozcfQTigNXiVkWnm8zm/VJZ00cL45HXPtqKYEsEvjEA4uib+P7UW254CRzrPn/2XvPLjuOa0twp8+8tryB9/QiQYJGlERSvqV+rZn13nybL/PnZs3MmpnuaUqUSEr0JEAHEjQAPQEQplDeXZM+Z+0TmbduXVTdKlzQqN9jakFEodJERkbEObHPPvv88X4M/dsfUdU8KSzTjGIE736GK//nM2guzmLklw/jwH/+NbypsR8BrFsdED+ev6kHtDRNs5sc8E6NInVur9uqohWDHTu7wIPeebD27O6q3CaQlQAAIABJREFUnlb3NLFrLd3d7X4861vvAZXdrw5Z9BmzilKszs5h6ZUzWPnoUzgT05g6uBerlz6Ff/lTlM0YuqFB05meRw0sChoTwNIRZS6C0T2oPfoUqkcOoTHzFW68/BxKM1dQsXWEmkrvYwTCp+g7WVPThzH91K9RufceUDk9uHQR1//xJhbfvUzeMlKLyeIxDL0N6JFEM7jwx4xuMNwlZYdTaBR3zwhYhbBLKWqlACWzLbTsILax0nbRaHuIQ26MCWal8EomJQTQbMVgRZRq2cdwtQHbiJDEOlq6De+++zDxy99C23NQHCUvCdH64AK++utrWPl6XgAsGm3djFHdV8WRXz6E0YfvB4aHYZC5wkgTncPlJcS+j1K9DrtaRUbmGuUFogTB9euYe+0FrL//DmpxAtsgaJdhZb2F0N6Psd//FBM/uQ8LH3+Ni/94HdnsNYy7Gkoj7JNQHBOKcIahi7U1A+stGlEXumUhMQNoQQabFPZqjNRoQ/c1NGJPnMJ9j57E/n/9DawDo6K3ycilCr7tvOpsOyC7Uia/9UG73Q1lKH8Hbb7t+/bpgZ2W7X6v0+faol5eUZkmbTMl4wN89peX0LixgFrawPQffo7pf/0XpEtNXPzfn8bKh18gST0wlcQoJZh6/AEc/cNTcPaN5VU1Fa8rorNHkXaCrq+9i0+eeQPhQku6XqLT1J7Ty0hYoZTFFBBAMxoojVrY8/ufYd8Tj8CtV3K59ULglVolCYIvruDD//5XLH9yCVlAkItRaZ4q0vJIubnJv7HJ1InYh6vH8I7vwb7/9U+orUT48L89h6VLV+C5FkbGa0iSFCuzAaLYRKyrKojcz0g9pZKDvfcewdi9UzAdG5rroDI9Dm90GBR9nzl3AfPPncHy1QWECTdreTqzRn2SCI6po1YbQuIaSMoWhg5OYujoHtSOH4A9NYzMqhUKWR1tEZWiu9OHV7WeiuM2RvXA02+7Fv4QbRnYcSpsW9/+7v9Gg77vzl944E9zWxcO+j7KR/hhjttp8w/T4l08tU9ndmEHHe9s0x37Oc99O6vb39u4o6zsBE6+uYGlvz2DxvkzsOwWbNOSQjjtMEU7qyOo1WAdOYCjP31Mimro5ar4Z7GfYO3N93Dj+b+iOT8Hv11CGNURWDps3YeehTCYAqgZiDT6Ky04VQeHnngM+3/zBKzxYfHfiIbF7RjR8goa772FxVdehJk2JSWOQutRaCLwHUShgTRNEGQaAqYcEmDSNJTILs8SpEaGMOO5ZcQxCwalyPQMmqQKqqImhp7AqhkYv+cQJg/sxfwXVzF74RvEjVAqFR7+3U+x54kHoY1UpGgJ/UTReEeGcGERV59/AYsXzmNidAyNVoD167OokB9ltGF6GQxJfWO1agJzZOALvVfE2aPUQG3/nZIydu36HJxqHft/8TOYwyPi35KBFccJsplFXHz2dVw9fY6UHOh6AtPSYFKTklWF2WUErghkCWuYmlRMWVPVIRUHLYVGe8USwQw4k90l+JbakUqlYj1GaY+Lw0+dwt6fnYQ1XBXfXlVQ1JBqMRppC8Gr5/D5//FnrPlNeLqNoZFxYKiMZHERdtgUUfI4iuAePIS9f/oXeHfcCTDAnVdw7Ji+vB/TpSVcfvpFXHvlPNImKwMD0ZCFn/xv/wuGKbRv0V5v7E+65wDHrPghfHfJcMj1qwjcUZs3jrH+4QWsfvg+xu66C42F65h5+UUkDTq5JiZOPYTp3z4JfWICuk5WH4dfjHh1EXPPP4erpz/CnlOPYfL+O/DVM39B9fKXsq9oJg5Wl8tYzgKpbrnn/ntguzrWPjkHM5pHyWWIzYAfAI02EEQMcLtIEn6XBJZOAMtEkFjwYxtJnIku3NGfHkf9X/+EseqYpAg2mwHWT5/Hlb+8gub6CkafehBHf/8kShOjSAxmXai9Bb8j9y6M5XdP/c3LwA4raL+F/Z918b0dY/RDvdOgbS5qgX1LTpmWJEkHwCqArCJtQyZWz59dmLO+pxSTdfuTuGUZtHdut3XbXM+oQB4p6GwtiybKonl7+83vqNX/wW6reDgcO6xCE7fbyOZXsf7JRVw7/SGWLs3AsnVMTNRgZU1kPisJsnoGSVSR2mTlFbm0zKReJlLDgXXsQZQPHIHZXsTC+beBlRk4OoUMWc2EgBf5zj7aAMKpY5j8+b9g+M57kKY+Vt94G1dePIPW4rqUanbEYIcwDbKNItErSDIXoW8haFOjQQFYhpXCs5pwyLpyDNiWJk6KVEik85PYaLQdqSLCSJ+uOUhiIKVOAOm8RohyuYVSPYJj+KIptYoSzHsewvgvf4Nszz5YYQpzbg5zb72Lq2+fg7+wKpVgsoS0dAOma2H0/uMiil6686CUbjYFvYqx8vGHmP/yC4wdP4Ghu+9BVisLKytbbWH1/Y+w8PIL0Ga+hlvOkJVMEcMMmhlW9DGMHz+M0cMnMH9pAVc/+hxaYxHjZdLoQ2gGFYlYT5k4ooV200arYaAVeGhlVaQE9TQfJTdCpZLAsQPp+0ZQxVpTw8Qjj+LA//yfBKgg3CApZ3QIBp6guVjZ970eqXJBA85fUSfdbiHbiEYOcPd+GqTyxD7Ldt9rd7PcS1UdDWkrwdLr7+Krv/wNrbllwGxj/2+exJH/8icEK6v46v/5f9E+/wXCyEVIPbdSivFHH8DBP/4O1p5JaNQVySsQhYoLD31hBQsvv40vXnoLrWUfRuYIMJ1orFXIg9oXjDrrSJNIyn2P3rsfR//wKOp3HQZMRuSVSCsdbDR9zP7jTXzx7CtIVtakUhKdUqbHcihKOggrTNFxJ1OQBRVYDjyOgZqHE3/4FdA2ce6Ft9FaaMAxdLiMeGsxolTJ0SrGpiEFHvhfRkUNN5M57/LfKy5qDxzH1AN3wQhjXHntfSy++xWiJvX7QhFjNbmpyyzEIQsnGNBSBwHrmRsJKo6BykQFk4/fg9HH70E6MgndYC1CrlNKJ0tGqeRL9nzAnqErTLduP2I333uA8blpU9DZLBSbhs2bXLZI6ap9v8dO86R/a/o3mPNju3Uj33MO9LJiVX+AvtqpsdtVAd3pOv5eNkrf8yH49Q7PHLhZMt4Hvnpgu7CTlRKRbHlv5ZuphGT1d/pZ/Xqk/16Ule1y+5xvitS+hUCLJoLkq889Df/COzD0GKbuyFrZinzMLowjZABvtISRI3swee+d8CjCPlyHrllYOvse5l/9G8zZWQQtG2uxqmhbczM42SJik5mFNtKIKYIZQq+EPY8/LClY1mgdadSEkaZozS9j8bPP4cx+g5WP34MjwckcBEmBmNITZPvngUHKUPCwTFMChlEYwrRMhLGN9fUqfJbfo39oMshIBjzfNUGc2IhhoTpmYWy8jsXZFawt+qr4z2gFB3/zCA7+4hSs0aoEZmQcUnMqzRAuzePK83/H4tmPMVofwVoUobE8jxHHh2u2YEoKXjFqi4BgLnjPkI5uwBmbglMew8LVFVTG9mL01INwTxyCVq8hbraQrKyj/fVVfPnKaax/fQUVaHCtNhw3gWmaUmxFgCEKgtO+0cdN62i1Agn0aLotEaUizZBjSf2PL0KQR40UtjWKI2SehtH7juAoK4IfP4DMIZfNEHaSrycw/ACN0x/iw//7rwhW1mHpTAm1RavLsXxUh1J4Tgg9DBG6dZQfeRLTv/utBIVEHF0APYrPq3WRbneyNI+Zp5/D4qsfIG7F8E0DsWnh/n/7zyg/8QCMagmmxqrHRYB9Y8pJ+DwFnFRp8GoIkKUhUpPi9g7iKEbj/AWsv/8xRvftR7J2AyvvvQ4noIyGibA8itFTj6B0972wJycljZT6YfHaIm78/WXMnPkIx04+hJGfHMfH/3gWtcsXUXUi+NQCazpYi4HY9DB94BDSsImVq1+h6mSwPfXd6adEcYooIuhoK886Y+YHNdkM8dXDyEC7RTV8A0MT43D/pz9g/313Y311FcmNVcy9dBY3Pv4CoZ5h/ImHcfQ3T6E8OiwArW5L/U/Zy7AzU1Z4yteNmzMvFRi53bHTenQbK+R3Yi12au9OD/2h3mfQdsvqz0yE3ByQPaksl9q3MJ37Vg5hYMkNyLzoqqq0yWEpBtO30FvS7l1GVm7lRb7Lc3sjyB3Ht+iPQb/md9no/2j3lgGrJkHcamL1y0tY+vAztC9eRePaPMJ2C7qWwDESVCsmPKYPagowSQ2CQ8q9FCNJccI4QxjGWPemYNUnMEbRw8XLyNqLsHRSmRWAJfTlLEDIzfXUcYw/8ntUDhxBY20By2fOYO6995HGEVxTg2cznkFnKhYmVioaMzai0EHg64jJfc+Y2pPCpeaCqn6cL+ZFMpXE3BBFFnyf1W4MGAavT9BuRTANC2XXhOPFMLwAFpWiEh2rKMO752GMPvkbpHumYK00MPvGaSy8cxbJ3IJskvkwtoEVRvw4ASZGcfDXP8fkYw/CqJF+nkFvtnDjtTfwxek3MX3Pfdj31C+hT4wgi2P4l6/h2quvITj3HoaSdRilFAmLmCQaUh9YiG3ArMIqTWJ9NUDUWEXNbGKkFEvkhxtnaFTqlOQqRIGN0DfRChysRy5L68AyApTcBGUvgW2Rwh4gSYaw3AZKPzmJvf/lP8HdO6VE3BmhpCi/zM9BJil36TttOb6DiUZQYNDNiGxit2tzvoEYcB0fGMDaQf5hp029OIo6Y34GsmaCtTNv4tqzzyCcX0RLTzH50GM48LMnEbfWceWV5xBeugI/UGm5JReo3nsXJn/7W5iHDyGzLUnNoDguZXERxwg+/wIzz7+ElU+/RMQCDqkOnbooeookZTSVmw46n3SyU/hBCL1WxpE/PIl9v3oc8MjCUmFDiRQ3m7j49N/wzQuvo5yQRUkmF1uvKQ0PAlAxta/UhoZ2l3/oyEeWCXf6ABJfx41vFhE2I1iMOmshLCuB5SbCGgX1KBIToU/bbSGJNITcEOkWbAq2WymcQ6M4fPIOuEkiIDUFfamjZ1jUYklhWdzUWQh9HVFAUE1HYKqNgUVKo6GjfvdBTP/8JEoHD8AdGwdsF6nJvlHbGlZyVCjgzfOrGGaqGPz2UdUBh+OuJ95GOzYu+QFmdefhg4NBZCYo0PXmg9H7Pl1yO5g4b5tvrnfd6d/HibfzEX+g9+lfiCzbVCTl1rqwAIhu7Sp19mCDYyeLqkJIxd0Lm1ZwavnvgwNYTM8T3DwHZPJNjDDIuSTFszfQeOmvaJ5/B2kSwtQcAUHaaYD5hWHEBJ/oI5RcjJ04BPfwJIZO7MPQ5CRWPvkYc68/B29pHlniYTW0ESXUIc1gpQ0kLHhh2tAiC3ETaBoWJh95APt+82vEtom5y19itF5D2Gjj0rtnMRG30Lr0KUym/OUAlgA21LbK/6jJywAIARs1x6MokhT1JDHQaFoSVKVvJMwlBjWZSpjF8AML601d7JTregiCEEkSg/EGs+JgktIRT/0M9oG9yCwKiqslm2BftLSEmedfxo3Xz8JMNLS5lKchxioJXLcpwMJ235n9H2safMNG0AKi1RSWN4JsehJjp+7DxInDmL90Gf78HJxmG9988AG0tXXUbAuOQ/kOJUPBqr2qPwgss0/YNheNRlME403TET83oR9JsXDGRBNmGqSwLRtxTL0qxRSjz55QR3a4hslT92PqF6o6r0pXNEDSkheEaJw5i4//69NIltfg2iVkCQXqA9h2iNJwBtcJYcYxmrEJ584HceiPf0Ko60gMwB0blcJGwmKT99eQLc5i/pnn0XjrI2R+CKp0hVGGoTtPYOTJhzF09ID4EG65AsNkpkNeEEm0bmlw6bEa0NMY/sx1xH4TpX17YVgVJEEb7QsXsHz6fZEyCJvz0Ba/hqMnaGcGVpoxouoIKifuxYGHfwp3YgwBWWRphPnT7+LK6XPYd5zBrBP48uxplL65hJLeQkQ2YOLCZ7AYJirVISD2Ea7Oo2wBmpXDzgRYOa9SBr04Z4UmoFJlJQjIdFkDcZQhijgmDZR/+hTG7zyKSxe/Qr2VYO3DL7F6/QYyz8LoL8hW/BWcWg2Nxiq8kga36iExS4g0A04RXSjc7y6AWq1W23sMO69Jg6yP3901O7V3pyd/177T1p7GTq3a/vdqB8K3zlEVYZEWxjiV7Jtb2at1GFi9AFbnnt093F2h+zZ6bjuCgNzydr/o4H3b/8r8fTvN63p/IXj8ePygPUDiA6N9GsWPZ27g2kuncf3N95GtrsOyUlhOBtPIkMUhPMeAa+XaM1mCrAvAUnQ6QwCsVjvAcuhAMyuoexqcrAFbC1TkSyoWKoFIk+LOjMiMHcLIPT8FKkO48tVnaH75KbLlWZRcA4bGNB1iQIqPIDRh2Zlz8beQxjTQibCMdJObZgcaqR55tFJFG5XnIUxJ0qsZsiM1WjMQRqEYb8u04FiulF3OzEDSg3RSfPUaqnc9iOFHHkdcKSG8eh1fv/gSoktfo0ajXrYQc8OeUFxex1qUIHTK2PvAQ5g69TCs/XugVV1oi7O4/sIr+ObsBxi9935M//q30KdGoYUxGhc+xtd/fxb6N5cw6WQwHOpUqaqCrP6ymmZYbzgIwrI4H2UnQN31UbFjaCZTrPiOUmpGqT8klmywo9hCm+VmKAZqprC5+TaYihkz8RN6WkYjNaEduwMTv/wlSoeOwHRc8QmZq8++HuxQkbZBsaTBnqmc1MF3jDmTcMuHs38VmDDI0a8bd0qjHvhaCfqSfcX6NxbQThC8+yYWXvgz0oU5rMUGzOG9cEemZY4F8xeht9cRBJSCsuFZGuL6CMoPnMLQqUegT07AslS6bcTFPAqw+vZbuPr0X+CuLEH3DPhC42fpa4JDCXSW5qbzSsAJkHUh0krY88tfY98ff4e0XIZBBpUwADTorQYuPf1nzL/+BsY5Tu1IxinHEos/yFaF4u2bgkbKqEeZiWXfgM9oZmbCIiAljn4E04xg2b7CijJGrhV7CpmNIMjQbBvw0zEBwWM9gF7VMTpRhZtGCOfnBcx2OC/NBJoRC9gNpjBTIy8kWJehTZYZ1zI/QxIkCD0H3oEp1Kb2Y+quO6GNDAPDddhkK1iqAiu/rXqrbQ6WUC9s+z+rfR9kQgxyTbcPNcD1/Vey7V37frD2Ts3IYe+dTvvef39rsdrNzRt8FRz8NXf8BreDQd22kRpgYu54SfHGxYsVo7fYsPQBzna4t7Bnc24Q3agClJHaOCxO8/XnaLzxAvzLF0TE3cxskSdgKY5GowK/kSHwWQnQg1b1oI85mLp7HyaP7kO0PIfVj96EsTQnDNVWaiPJIrhcy1nwg+nkBERYbi/Q4FMH6thBTDz+BCLbxufnzuLQvn1w7BIunn0fY6mP1rUvaWwk9U9AqvwPR5P0SqqS5HTakVRt7mgfFDOJbC3F9qF/S/9TtLTpz6YJwsTCyoqGKOB6bsK0U9hOBNvL0/3KdYycehhDDz0shToMzZTUu1BjtcIlLDz/Kq6/9jaSdV9kNCqOjeFKAsNpQtep13rzqsP2GWRxZUCDGrDrEZzIQZI6WEAG98A09h09gBtXvgHCFsarLlZvXIOVxRLMFZ8sr3rbubsYEzW/+G4hEbuMtpfvRaALwsji+1OTi6CKYnARXEkkqEKdLsS0h0A2No7pXz+BsccfBmo1WjWsA/CaPoJ33sLFZ58B1pZhmbaAhGmYwmKMtUT9rwBmkiAMDegThzB830ksLfnIqCn2k3ulAji7JaMNrJWgBw3MvPB3NM99DDdTBVraayHWYcO76zim79yPVruN+vAeuN4Q42ai55WR5e3ZqB47jKBahtUOsXL6XayvLmH/kz+D5pQRz98AvvgUc2fOYXl+BaYRYMhpiR1nwGqdmQ+hBn1oGocfeBTu+ATmF+ZQ8hz4F69h9vyX8Oo1HHnkbqzMfA3r2mUYyRoyYrqZhTCz0E4JuFGDNobH1ECLmykGATeObqkhgg70jTYMu9ICZbpoEMTwJk8idDXMLs5iT6kMbX5Z2N+hmcK5+25MP/FLWNUKLn12AaNVB0PTU0inD6JVqaEqKaQqM5S+zqalQHzjPlZwJ1d/p98PvrwPduWOa+gOt/0h3ue22pz7KJImmzOvhI2rftI11rvf/QO2BLBUNCMfJmrV7M6gU07rYJ9L9mZSPaJwaHvu888IBsmc2eaQfOMfAawBR8O3d5kRs/Iex22E9NIVXP/rS5h/95xsHL2aBsdJZBhTxJGCigbNmQzrTAQjOwNScvDJhsgQEZShdlViwjZilJ0MjgDEBLCYYiTF5mGKMdWQOHWYIweQ6g6ufXMR6eoSqraGWs1BlrZgiDClSmmTjHwacUFZiGzRIFJVIISmkzXEPH9bUZaFqryBoDJXnncgg6OYiBT17GyIWa1FcAxWaiE92UJqVOHuPQbvwGE010kT/garly/Bi9uoujoMKxEGlFTfzTSsR4CfOrBrk6gfvQMTDz8IZ+8kGufPYf6NN9G6sYDhk3lK4vgY9DBCcOEsLr3wHNIb1zFsAaZNRkgGjU5HCviZhmbTRjtgOhbTACN4Rkx5AKSaApxAVpzGd6FxzFOWUgMpQTDS56UICjuEkUGCC6wipyPQbPjVMVTvvA8jJ0/BPrgfET+WhlwMtcsQ38KwY8rm93HIUzY9aneWaeu1uF+bd3ff3nfeaW/VZysit+pHeOh7bW6MYi1FwBgqhWTffwdLL/8ZWLqBMLLQbusI/AyuzUrmIXQzkvFiaBYMLUM7NhDXJ1G//xRGHzwFd2pctj4+xc4JYJ05jRt/fhojISuVavApFNtRtlKGkM5ZUbyALMUAZYw8/hQmfvsbpJUKdFb9oQMNA2aziRt//RuWzpzBqBEg05oyblmwgdopikKtekTpsyljLiM809Fsa2j7ZFzZsGxbqnMScNJYwVCLRStD0gcppkrjk5nifPptAw2/jgSsXspqVjFsI4OjU4IjQ8km64pMa8beVSlsSgUzesoNFEFC3ySTxxCtucxP0YoiRKYB3RxGZXwcSb2G8tFD2PvQSegTY4iYYsJUzXxYdY+u4u8U3e22950p1T14v4Nptsn5LqZXMZDzqlTfx9zufsZO82Srebfxb7QFuQMvxix31Don9IlN327/DrZsfLfdezvv9EO8zxbtlVSoHKiQCmK34AB3s7luGgo79Xzv5Oh3/jZ9Ja5LT0YFX5EEiiL1hyBHob5RbFjkdrlkYHeX9D6m3yeiv1W8vzwzT3NlGlq8sozm6dexdvYNGK15laadWZI2F5oxgraNqJ0h8g3RlfJTpi3psOseypN1eKUM5toNmK1VxQbipoqaTdRAZJobg5dc52MdVmyAmElEoP/YXShPTOPal5+jZJdg2RUsXL2KWtyC1pyX6oESFZEA5taDt9vOFCwtsT954ri6WKVtK/+RjBcT7RaDGaqqn+NRRFylidONagcp4vo4Rk4+hvHHnoA9Ni7+a5zGSG7MYOHFlzB/9gPEa225V81zUfZiZFZL9GG3m2YSfyXTiD5zoMGKKEFhYplpiHoGx/bg+00YWoJK2YRpkjXPVD/6hN15LV2YhDyM3OkCHFGWWO1vC0BUVB830sxEK0ppKMWSh2khbQItuKg99gimf/8raOOTIjgf0MrOL2Dp5efR/vhtWOGadCnFyrXUFHZzyjR6PRSwMg01hHoJoVtFexnQbA+jhw5IkRTx400L7sQIyiMuVi+ex+pnn8ADg9Um4vUYqy0grg2hMjKM1WUyysowzXouv0+fIYI94uLEH59AcngP7DBF88W3sLA8h/3/8jvKhWH57TMwLn2O9rU5LC414HjAaDWFTTuusyhAKEFeP7LhVsdhluuYZ+pemsDyY6RNX5hjkyf2wUxbsJbnocfrsr1gUSZWvIwyDW0yy5HCMxncZ4eThrWxud2QGOqeyYVBVbOVQKKAWP441hNfXHgHMdwoRslhWmUGvzyEsbvuh1Ot4fKn51FBKuzu2k+fhHHiTmQm92f8o3IJiq+uMAmyVAfz5SU+3r3OdTu1hYTpTuvmNr/vt1b1zp9uBnZnWPexZcWvtnpGtwzCrZjD3nvd1Mae9+xdp7ms7/a4aY0XPbqiBaogg5Rp4PchMHwr9y40sLqjwbx1B+fMjau42fkAKAxQ8QIdGmznjTZ3T/darTbfG5Miz2TeuLIDJuy2e76H8/KqHR2LKWupst5SmnVghsf30Pb/II8wEg0xV7zYR/rVRcw//zKWz58XEMcpQRZ7ddBwqv/lflTP5lpRu6W8b5YijRn9oQAjmT8qMiRCmgK68A7MhScwpSHKLPipjSjOELWbMLIMZc+FI1VcaDqVgLNsVWXSFi3IZ6wgpco4k40kJWvF+ytm9Ma1ahO7sQgo1o76mdcmhdgnn8PoUuYgdSrITBvRagOtxjoonOW4GlxXg25EArBxw0/xzHaqi1EMQhNGfQyj994NfWQIax98gHTmqmhMle+6F7VTj0EbIQMrQvrVR5h//21EK8soEbgi+MaIIUHrDAi4gSeYkDINKoBls5IOf2ciY5RNXlNpfal36ZguBfx1YTwFYs9/NJh6BROt0IDmjaF+/0nUfvow0j0TgO3BziuzSG9v4ThvN0WKGMH3NYU21u3uN93+6R1cYFurvNW1g6Ht/Bo5j2bLBhXOxla/3M21274xL2ZqHCtEUYeKrKBz72Dh1WeQrMxBi3XEzRiZn8B2NElbTYlmc9yzPDfFZgPAD02kQ+MYv/8BlA4eROZ5MPfsF2bV2vvvYPb5v2EobEKzUgFdJQKYjzm1aqiNpvyd6R0mU3Lvw/CpR5CVazA9V0qIc2OT3JjFwiusdPoRakaISGtJGW0jpVtu5rpsW7s8HJ9Kc4JzxFC6W52oDyswcb3Z0GQsbC8ZjYxOM7VYiqMWWiecH5ohDDGTKcDixXFxyyFFAc4FDpdocESiI0HhOJUiGGSdxUzriEsI4gy+rqN8YB+OPPkUnDvvQFSpyPlMy5ReylOR2YZiFpucJY0eAAAgAElEQVSi7afmXke2JnceJSPuFhyW3c7FwocpVljpMTLeZO3N2zbYVNhtE7Y8j6/K3tjNK98MSvR6Szc/YvNSsDHGxF71Tb7Y/rVEcW1HD303b9T7jPym/e69TbPk+/aw2W5FZ08lwnQdm9CgHRrUPw9w246Upaznt8VWkP8sm7bdToae7r55rNzWMN3VxVt9g26bxACbRVaHSW9BMYy48e94Kj3fr3c69ttUSYBL9C1JbEok/TqNlBREtrSE1usvY+Wjt0U4ndEDK7FkDAdWhDSy5EPwFmliIAh1hJGGIOa6DjjVDEN2Bo9sZQYuuB5qZM4zh4/2QXmR9Dn5R5iraYK2W0VpeAzR+hqaqw3EGbVJE1TNBEN2At3ql+ZbjLluv27jM2z4i1277vxUBjIYZJVAJ5g6GECnDRTgh3IYKdbbGbL6NEZPPYqxkw/ArFfg35jD6pefovnphwhnriONImSpibLlwLZjxBStz7MMtrTr4gPze+rQmHZPFhAICKZoRBFSsub5tZkCb2VwWGhIpCIzWBmLh2w/zJR/2+33Fis5/9sdDiv8RPVf+r3MJLBCHX5swDh0FOO/eALuoRPQ9DKyNELz0wv46m//H4ba8/CsSCrhMQ2fek48WOlRmPtJLMHRhEEl2sKWjZBgj4hZ0u9UvrlRLsEbL8O2AqC5AjNpi86mHhkIydBjeqLmoN0CfLL+MjcXpicAFcOuaTj86J3wx4cxXK3DvTSDJX8dU7//lRRlmvnbM8DVL+W1Gz71zxLU3RglYbBpIoRO5l27naHtZwqQ4miNYnimJRU4m5EPsFiSo6Oq0UuJc3kNJgMyJExAU/kFpjCf2J+bAazNX6tId85XMKaCyeRXhQX8hodWTHF4G3HY4qPhlWzpW4JyljcqPn+8ugo7iZB6JdQffhzDjz2BtFaFRhV8ZbSJeMoclsrKmins+E1Ld/5DMTO6Z1L3eR2WZj6ytlrGBzBFNw/igvyT/0ZGcddi1r2uia/Wh1O2lVXt/BtJjF1+VcE12tXi3Wv+utuYa7t190VvsKQbwNqpz3rfQXZ1nD98TjGVWTSJNvDW8Ct0NLCk/Xkru5ZIQtOIg1BKeW4wkbpTUVTztre7ii5bHIVoV3ekoVs/Q+u7TRrk09z+Ncy3V2FztfsVlDD/u9CYBxe1uP3G/XgH6QE9ZgUXRhtWEXz2KVbffgf+zBUkRiBGk2WJi6PLrVcOj2wpZBR30bnVWcJ1ElaWmm2iPyO3UjOPbAW12ZWpgjhRtGrqLzH1yLDMnBZO5yoXPJaJVIAzWy1RfFqRY56f1xEiV+dvH2tXRkSBbMpD1FNu21gGlxtjgkaqVHOhpsdIHasikpkhjDSKQjN9MTMRh3QKDEmT8rnoLK1K9UbN0ZANj8PddwyZ5SFuNqAvX0e4NAstTmDS6ZN2pgLkcd77fDKdTum3IvdZLd8UT92oFniz66pSsDZWegGO86+mC2XbRObryFoG4rFJVJ94DLWT98GsDkksp3PvvJLO7qbNppVwd5d8K2f1AbC61tICUNncWzu1ebBdu9y1zx5VWtzHkvWL2PS7Vs0/AlGRlNhOlptonn0Tax+8hqi5BpPfM8pBUpPlt2MZ+2Ic6ZQxZYMOfqgi0XZ9GFq1irTsobT/HtjVCpIbl9G88AHcqCl1HDoCrTJf82FXaJXk3zfWLYTVGpw9+6FR160yAndkBFqSoXn9EoJvPoG1tCwFHwLOF/phibi1Mi+360u1vaOOh1o/RHer068bwLusVcX+P9cRUEKYBLnyNUPYXmRI5XoxnY4uxkBx4yIanuSgvEpx5AOKtrLAQ+hHUuErK1dR3n8E5SN3Iq2PIMnnembqsGsllCYnoDm2gGhqnnKtydN8ZD+TIG62kQQhzFoJGqlzxbguNLVucx4Vm+tOoD5O4K83JPJfrtaQ2dxU/zBCSIOKx4umEKtObuQT5f1WbHoFItjoua6+LAIng3VrRzJ5i8tzv2iwG+dq6ju5wFvffBMzfodqs2qudD2Hu7SbHYKNf+uz1t1Wtl7XkFN79ELoRUo7DBwMVcS8fo3u6kNJX+t+/S5AW6hRG9OxkBbd6gtsrB7dW0bl7zO1rbm8jGRpEbXRUfh+IOtEdXQEmak2xsqn2vgm3dF3ZQG7At1c47q0cRJbysTCZGrZShNLn36FaLkBi5XQghbihYtIl64iY8Eew4Qd21LPzrcCpBFL6qh0PAF5KMcQ6YgjA1EaC0Dg2gYs8fVUR7G19EFoW4rtAP1BpQEI2fz79Jkoap6mCP0YjZCbbgMlKxVRbF2qNW9nf3faxhac4Ju/ROGjkr3PNEXFzqLvp4AJ0S8KWMHaQDo8itKBfbArZQTzi2jPzcIKG3DgI5LK2pZUliMEEjENHfa2VZxVEFcBfDL24kwABvkrh5QUGOGhZBzEd84BDq6+/Ysw3AQxd7349us2v0+sJ3AoKcLURtuDPnUYxvAhwBiCjgbSuatY+/RDjDjUlMwk8M0CSiowVDB8RJBL+RFkdqWJBLPbSYYWga1Mh0ORfEJB3A9aGWyHAvzscVaAog9MRhrF+FmtkfaaMgSsqk3/WgWayXomu68k/rUOt1ZDnePJ0jB8/wOIfA3z75yB0ZiFYREQtZAihmP6AgqB96P/Tv+eWShhjJDfgdW/kwy2ocNxGViPEGWxaOqWbUcyM5i1ob6JcnM6mmw5FkBpku1DLSo4rQ7FgOuAEfzWFHZn6i714pJYcimYPkuAMYlilbIZ6fA0AzY545aBRnkI3v4TcMpTUmWZRda1koOhA3vgTY5SE4K1OTf5mdJ6maaq0M6mkdGbfthjZqTeZeHf5W+ya0u0Cd0perBriG66UdcPhZ3q+JVbEKn7GKZNaZyyr6KOqqrSKdTXW6pssmEEin7smMSbplhv521c22taN69QvT2q+lxnRo1UXdWgGTr0qotI12GJL7lLO6aCkllGEbxCnG1T37G0qR9gbXYeraVVicoq54vIMaMRxbEZpNoUYxT/ZmPR1jmxM2rtpPB9X+Uud1lTYbPcloewlam9vX9jWgdnvggOGjq8UgmaxdLqnDQ57XvXI//22vLj1Vv3AAGZJGqjPX8Na5+cB65egp00kVHoW6PmjdU1quiEbGz0s06SmUrREEq/Wg/F+MtWmPfPI/hcI4oUoEwtzSqHl7sLmhIKddJpIBhL+lGuqyVDRETFWWlPibFvcmjy8+R8jdRtpQWlcHZaWQUJycZLtKJ4x/z3nYiVchKUIWYEjgsFo100KgliLYZvGzBTE1ZkSBSJRiw2IqlcIqBXLkitHCPaYrI7VPlnI7MA20fIKoq6h3JlSsDDcH0NSFt5alIugi1IeyrVC3nbNlMU2Tap9uiJ05BqPlJ9HZZUfstFXaU6Uces5huPjdh1NyGNPcDIaJBlKMGFva5hDRbCYwcxdOddsN3SJhusjPTuZpHa9BUk5t1dM9hZvcyK7Z3ZbkNTOBybI1JFm7dqiWzrB2qi3LVPv3UAg23u3i/a2u9aAXx0Rt2YiqchWlxD9Pl5WItX8nmgxpYwrVKmxnGcc5yqDRArfcbS8BRGlMBmxJwVdQwdkT6ONhlKegs1BMqR4uRmZU+mBEsqr3ppAQs7A0ed41MPheBaUoKPCiLTgZnGcLIluPYKqikdNiBwCQYDTqzAcPr1qmLcFgeZVDlYW7CVWa2LIJ6kLuvsh3xdKFII8xQLRpITI4QTEyzTJaWRm0Yj02ER57NUmqPSdctBj846qNgMfKYQuplWI/UXFG+U1UzpeJq2gyBhdNtGmFaQ6hUYoECuEqP1xoYwdeww9KqHgJmJ8ihqa6jNgMX1Jk7RWFiG32iiPDkCs17ubBR3Ozd3GsTdY0pSXcIYK/PzwtKYnJiA5tlSPer7PsSa3IIOVvcwIdMU7QB+q61K0+dgfGEFurgteYp6sYZuZhDe+jsz4LFdZ+Up7gP6bOq+XY70LtlNvUuR3KWP807wo/saag11u+83E7C2W+w2gz+30pfFmCzuLLaLTrtlqSIOt3CzfFXqXNEJsu7iHje/GdfQPCDXwx64Obti8wOUJMLGv3XejVX4Vlegry2iWh9Co9WWqrDVkVHAtIS1pHyNjaM3ra7bZvS2g4yjNEpRshw0l1Ywe/EbBOtNmIz76RFqlRjDLvWqAqS6CZcAVpaibfui+6fYSjmLiyBCHmRT2XkMHJD5qop3iAfA7D+5QoEP9B+5UnOtlqJ0GVnCurDabeqI0gcBN2WsKEj1Rl/UUlVi1FYH+3+7EaBkLVR/FX3W9fc8xZAhQnkPUOeCQQGVKs6gA5l9xDm4xw1jSlUwu0uHqVmSXg4jQNvOhMlux6aSxTBYq7Er+NfT7KIlEuSQ9DElxk67q9Y4FtlR7ht7kbaPDzY02ib27/YLsMo+EMu7OdOg+HmbaFkRNtXTAGaWIIo0rLRMrLVrCJI6LG8JNStGKWijUraQuhqiHKhUjOtcV1ZYyXx6rlOlZbAJumj0G1RhIlMKZhPAUu00CM5Qn0swaQapqFFG/zcTe6ySCtTvCxCU59A/oQV1AxProoMZSMpfUhqGjQqyxjxsow1bs2EkntoBGE0FIKVKJ5fPVWwe5aezr7n1EKaVsWH3KQ+i0Z8i+EZ5EWG8MIOk2O9spOPKvn3bT8T3yItf0Q/puEeKzW3J/oWtUd9R2pwobdHU5D5EgxE7MMjc00LRA1sNCbI6iNf5rVKETDUtuajvmcDQHgbFyPOO8r1XvtJIhpgqYMA5y5TIApVSBRG6F5jN73OTDt0u1s7OmLzJAG3Yk9616qY9h/Rp0X6VYbD1kduszq832zDel8Aq38N2bJjU5tvtO/QEZIWY0/nYG9kGxe3yWn/5t9xMoBDbuu2DN/+OKw+zBegHEsCiDq09NYaJk/cAQ1XourspcLHT6wiAReHmojrGhkVUTnsaxQiaLUTMj82jDYLr91itm/NSuxC6rpejUTJE6C2E36YjRmd842MqtsbWRk2td9+/15nIYpQz1DQNjucqUE5syGYHbKcO//H3300PMIc79dewdvFTLL33NrylOVQocmgRdLVgSTk8LvJFalshis5l1smj8Vxwi8QXOi8ErUKh01q6I+lKSuCBBoFMjwwJlRBFmD0RrSepliIbTarh0DBtwCASY2V0SjSq1EIrAqTUA8h3IZJ6Iyg9WSTdTK0cwBJwa6NaH3tTcZmKlCA6K4xSFBV+CgCLIBajc4Bvesq00N9K8rRG8ThUBEo1hnpYXBxpJJWDx+iHqZUECIsocMmKKKz4kppw6CCJcDyNKw25irqJb8QUTFasEWCQm2MaPCX7rFPzSieIJQRSpftFkKyY57lzSVCiO6WLNyyWc9moRz483UQcO1h3RxBN7oE9OSpU5CJK2rWqdP4qAfC+m6bBGEu3N8q7nLYccCuWRDoCJoGaOBKRU67Rtm13AhDClqM495ZHtzNYRNy619od+qJP7fnNd7754f16sd+1BFDoYDoyThPAb0O/+g2cpTmp7BebjBSzVpIjKW9uFsJIYwFqUrL6NFsKCVCEl+ksHiOWERCaFlqJhUajDTuNMV6xYLspAi1BCAe6ppx45ZpznlMwVUNisxUpnChDJsLpOoK4hFbsIKADn0UoOz6GayFKdq7NQaNMfQ2ptqScelkLOP9yMEPi6/kUVv8pmL0q5V5p43BdIXCttOoEqpZKSASKuCFQ11kJgWkVPVVRUgaFVEEFBcj12tBcl0/mXeGiaUgIpsmOTofNzVDC9AJWG9Lgt3UsrSSIUk8Vm9CpmRfDHa1j8tghoOpJBJVaKxbZsfkaxTXRZvBqfgmtuUWUSjYMR0crDOBV66gMjSKlMC+BM/4RAGxr78iSTVk3+NHlH8hGQa3lcgZLxgcBWs0mXNuBV6urNXi7mdIHSVMM7K2vldGyk4vS8Ru2evhmgEQ52eo80Y2JE2FgFYGWzXfY6KctgYdbis523blXO6Sn2ZteVxzh7Q9pYT+UsidXodtl712nVVpv/qybxH6LGnjFeN7cppu9tu4xVgSLtnkPAZB3vVXo3ISzMNHpH3BtgqTWlaoVVIbqMB0yJphe1E+avrDNRRd2I0e790NvHhsbAeheplonbXr7iZIL8KoTVMBPMSKYgmXGgfQUAVfxZgxTzhG/QwCirn1Ct32h79Njb2RuyWYpQbywAn91HTW3hIVrN7AyOw/NZ8EaQDNjVGoxxlyCCqFikwuTiOtvGwx1xWkESrprlIQQkII6m7rIEQjrRtLPmcZE1kfupxH8YcGfPI2b/p4EEwke5OmFJPYZLK6RWEo7i1KmZhtZ6suGTQCh/J1V36r+YvqaQGWy1hUBLPV75Y2pdHhJjS+Ie/nfVRuUqLb6tmr8iu8mjFz+x5KK1zHBC5PaXRGsoAWdGkoSkQ3gm/RNbdH1oph3bNGWqiBmcWwiG+Tfg1+W6V0SYOI3NxTDzcjCnL2UwjRs5uYJY478LtpSAkHKV1Y2ymSQg8xjyXigmHNxbJ5r4peqUJWyozkYKgB2wfKKQ2FzxBGw2qTQvId24sKzFjExMYzx6iiipWWEcQOBRaCPfqzSWVWKPCrLhkHoWA/Fr3Ujgj6sIGgL80nayirmUsSJQRrAoo9gMqTKlFWmJaaIRUYgQkzmlmRsSA5Ezkzmd0qAOCD2iTYrttSqqExPI7TLcHQH6Tdfw1idkaGSaaV8QWsLMBszOK+HErzTCXrFZFlx3Cr7xKqGHFkpI0my6OSBeMnQI/uQRQEIVHLcsKAUQRCuT9SXLbCgIuBV2DyezYB3qMBezgf2V57TbejUGmNFdLIaY1i6qfbLxBOSPOAoiwUlRRIYkrOYB8sSAzcaZdkjpUzVdC14wzWM7J1CaaiGzCpKs6tuUKzNXBSG3579l88vjgdZYwoToZz9jvuzKXjCvRiJB519Rw9LVSHeG2t5V0BzYz0tTuiyWt36xVuNZ7nPBnDdzUqV2U9wq7MOkjXXZeMF7OSCBziOC8d1wL7Pe0b5eds4I+KPiV7cxhzr6Cx31vFu+9I7HbvaISU1N35WgKj6WdYuSU1V13OmkQhSpESTZFEeGcbo4QPQK2WAqaO7DGLJ9y80sOSHngs7lMJN1ZIKUHz3BnzTfYtAQ44AkgLX/+hxh3ZyDne42yC/7n3T/hveQZ7w4zW32wOivZL4SBauo/nhe1h57yywsqAE0SWqpia2ygTtTgMkxZpi37TysUSs1J6V5zPiosTfmYanC0WaAAEZHASwNKlEQ6aUYlXRSXKVE6G1YQoThFGBFAnvLalD1CogG0yxrBRDSWnuFNEY4mRkLKjUVIF5NhhY+WCUlDpJw9uIBKqoFzlhhnquODzq1UT4nKWHY55RguEYiDQfYRpIqWZusGmI1IYxhS3OBPWwEjEkZKYEcYJy7MLVLSS6iaRWRVKvQnc9aLzv0hKS5UWYFA/VIuknaT37LqFYJFMwlYFRjBY6ImTIKS0AxQzpBrD4jvwmLPebG2QCYqJJoaJjfEBgMBoWyQYvcIbg3XUK4w89CqNek03sjsD3D7Cm3NJ473YgZdGmJhF1PzhWMxiWDY06AQJY0CG8hbt3L2479cPul/xbaED/U/OgLSjpQVuRBg2sf/A+1j84i8xfQaqx3JAFLS1LlFlDUxwrzs1Ms0XPjX1CxzINYtkIaJVRoDYEs14T8DVdbyJZug49XGIuMiKdgDZ5RXTi8ogpx6CgTIrpRZ87gQNr5ADs0QOqBHQcS/lrK2pCW7uOeH0OHoFWbgi0HCSnsyigk5prBf7C+1Hjl4afAuzc5NHOSPQ/n8eyLMlgzvXghK2VR16LqJ4wLSlISxBblONlc0VHnOW7e/UjNnqfc5JjSIH8BEhUdS8l8M50AFZrYuXVWLOge0Mwq2OAXZX0XUaRKW5cIoB1/AiMWgkJUzoNDXZgypiUgg5M74xj+HNLaFyfhW1qMG0DTT9AqTaM+vQewHTUhlLkucgK3XrgcaNJYLs4NjO3NyMacgemMTdZWUuHUyl3APCtR2CfybDh2d90qTyn3zzaYY7d5Ft0+2SFA77hc24/eXIws9M34szvNMG/rWm7I4TV9aCd2tRvgfouF6RbeYdb6Lc8JUlsNQM8LJAg6aycqoXt2+p+t1dBdvMde/stlxO4hdfYfOp2faV8KlU+rigrpjay6s8O374b6FTLXr5RypC215GEofg64eoa4vU21q7PwV9bg5lG0FevI5m/DMNviM+V6AREKI7gS5qcQBQMBElONFMHDfghbx9JoR6uSYqoSvBKbZBFakj8EQbTioAie0KpCAkCQVZ54qDlp2j6IQxbg24F8DwNlnznPL0vZywV/SiwDgMInbWuACtVoI71lgvwaiNwroIebBP/V9y7YJaIrnGagfV52qymWKqjdvAI3OE6wtkZtC5dRNxowrF0lK1MGC+sSGexkqEWC3uNoFux+exmrBTLnPi6AkxSZ1V9HgIoCQEyKbzLtH4NkVQJJNtGsTnNRPmbUvlaUuBUwFbY+pmGkH7iNgeDRGqtV75xypRqASr4FVR2AsXVA2YgeDVU9hyGN3kAkeaiMf8F2u0GDg5Po/n55whppynaTgCRvoJCiZQvquLRwrJLshh2ZCNsAFFkImbhE0HpmHIaifF2TR0VK0WsMdjlwmbQnNXB9QAxK1lG1FtLlMwIsw0IrHJsUuaknGJochKVfftQ2rsf1WPHkbou2gsLmH35H8i++kQg2HZM/yOCR0q1wXfkDAigRYkwOZvttoTgybKi9I+rZfBs7klMhCFBLh2WZyBKAuj0GTnM+J1FA4XFptReiP672iYVwHgR4FZfnoF+0aHL5wb9CuXTKyAoin352eTegiAjNT3zAEoYmmhTbNMyYQ9XYVZLwti2h6qwy2XYtYMwXBeG50C3LZEYsCsl6JQa4DwWQDo/uu2cNLhfxsQO6013gKcYXtsNwh5Aawcvts+vt1rXu9vZQ4nd8k5F1YxuhlnxvbZ5585auu0L3oI16MVoetRyNwWsZNJs3FstGPl3o85GbySqfzO0KIqyYmHiwOs+NkRrNxbdjXGzk+ORn5kvcN33VZNi6w/DiHTX220i1Sp66vd/qNSKruf2OIfff4t+fGJvD4SCAKWwkxDpjRmsvfMuFt57F0ZjVQQt05zay+tUSmuXiHpKx4GGjxOPkSwaYqWNoLNKl0SX6KQw4qJE3KlPSXim7NNwRoiNVNhIUWhJmoqBUBhBsulzWG05lEFEFhM3mKJTQyPBe+bjS1GL1YZ048gX5MKo5umKws4SEEeBQRIFEwCDywOdBaXVwP8jmMV/DZlub7jQKXDJTTYF7kmekDx8yAZUonFk9TC9MDLgs3qg68HZNwVruAo31rG2uAK4DoZPHMPwHUeglyuIWj5an36G5ffPwVhegpn6iA0lCm0kFFE1ENApkrYwIsP+JyrBvotEaF1SCAvHkC9HdhYNJXUNyLDLv5nFXsx1ffiObZPxLg1+mMI+eAKTT/wW5TvuRWY5OVO0N0Vv8xrzzz+bugdEHoVV4kJbHAXzZLdv1XuTfpvCH2L1VWCupB/wiH00Pn4fMy89B33pqoAhum/BjDwYponQaSMyfTVWWMmTznIMJEGCZgyUjxzH5EOPwhwdh1Epw7AdxKtrWPr4XTQ+fQ96Y0nERQmtmozNE2QSs0hKPkFdlY7hexWUWJ3z/odhTR2gKqnapEUh0Gxi/u03MX/uDIbByCpTWQjKcP2gjorSlStSyUTQsgCwmMaoBYjoyBusBqQi4PwqAsp1avOwTeoXKoinWFYiviqpuV1ReNlgsUCDSnfe6lDMT6XzIunRpPsTBEtcSYfxvRSpZSH1KqgePIzho8fhTU6piKg44lx1MuiOBb3igXpYCkTkZkW9q0TbZb0jiJVCp2gH2ShkjzEya1qij7ORKkO/o2DB3dxqtdfb7Ox1xwGLlGs5Kz8tpTgLV0NTPLgt+0KZ9+3H+vZXqtvtDKsMPsfUSlZcv70/pPxTZcuUzetOEdjt2vA/8nm3k/ots22bl883twN0jWwFC4mMrjQi2fgLY0UFnrY+NthXAzy6/yUd+YEB7tzHF5bgWqGTUwzEjuuviul0H70/b7baxa5BjX/qNeW1mJUvxerSLDyRpshWV7F85nUsnTsDx18Xn4tsKLX+hqLlSR+MZavjNhCHOiJWKGQ11aqF4QkyZhvIkraAF1KzWljkGiyp1poJe0i2aakGi1qhrRBNP0FgcA0rwyzVYdguTCtDGjagpy24FEUXoKnA4TbWAcVh6dUcUv3Ds+jfSRGKXJEilbxFtS+hy5awomCeSVPs43gd2xxFOpr1IYw+/hgmTp6EWa4iW1nFwvmPsfr5FzBvzEBbXUQ7DdGCAc90UWH6lh7I2xdHL4ClWp/Ph5yYQOYyq/RGFNTPXIQRgRLAsDPBHpg+xkZ7EQEeBkJzlm/Op1ISMpSb6MNEFPkMBXQRdMpJcOpnsny0BC3HgbHvAEbueQDVY3fBqI2yEQiaK2gtLUC/cQOLb7wKfeUaMoN+uBKi75QPUgiz8gKoLeWHiEMTceIIQzuxSojob1BQfbKGPXvHgJVZ+DNfwWK/6TqM2BLW8mrQQrBWBqKKsMW1Ugl6pQKjXIVTq8KqO6jsqWDy4EE401Ok0yBz6S9oCJtrmH3rdSy89hLc1SaCdiyg2XBNF02pKLVgUYKL4vlRhsh2YNVqWFlcQ9pso5RFooMl5QfiFCWCQcTVUr+jl5QxhY97h8SBRikPauEy0LYlQzkfs7I/UkCSAk7VKBF2Jb9hFCKOlEA+NZrI+rOZuWQY8O1JYOQQhvZOobp3Au7EMLKSg8yzkZkmbM1R8jxFwYci5Z42rG/+/QbYPMBKttnm97KEe9e5b0vroJPxcnOLC0u/3e5FZl43ENUb4NpJ/uTbeoeevkmE+d51dLOzZI5urCkdHd8i9fNWgu8S9ElTZhGq3OVdRiuSkzMAACAASURBVOi6qWa7GSjdhqlI/FGvoIigm6hrPX5jt37Wbp71XZzT67Ls7KB+F6348Z79eoD2k66BQDVBiOTqVay++y5WP7kArM/BFDAkdweEMq3oxzIKO3owKjVAVXXRkSRkbdBosbRuBNNmiVmV306gh8a9HPCZkeTB+7GF9aaqZmM6gKen8MhAcLkYR3l6omI1qDmhhJLl7wKiF1oHeS57sTBsilQqI23kNGoFqZFFxmtyYI4LCDWt9FzcOjURZQ5Cq4Tq5H6kmYFmYxklFuNZXoARNKAbCVIrV1GJNSkxHSQOAreK6vFj2P/Yw/D2jiOK26Jfw7euTE3CGqlDMyxVsWz+BpbeOoPGu+/Baa8htmMELJucUFeBvRShEWYIqR8gjpIGw4qRshphmleB6byror+rVEalOUBNHQLcBLDsnGZEFkuotSSNqQUHUz97CmO/eAoR2SGaIapa/ZIy/secVRuObdF+2gjZIMmv/j2tUIpjyE2EvFUSI5q5iOt/fxr61xek+mAcOsgCFVW3vBiwAsQSRZTkO2RBijCz4R09gcnHfw73xN3Q3JIAU1LZkKKilz7DyivPIfj6MwGqJIoprExxz1QFN9Fw0OCUqzDvvg/1U4/Cmd6PzC4JC4mHTiApirH23llcf/EvqK3OiTYGq/fxeQbTcQkn5ecXqYDcmBRMSaYj+DyPawfTdgneCoMp12cRMFfCrMppJIsgpjhqKul9BMciRnYl7TeFq2sCVNs20wW2Di2Ssh/qhgQAnJSi8xpasYFAr8CqjME4WEVpcgrW6CSqh4/BGBlWFH9hi9KxzKOiuZhGt5/JzZ8CsBQsoGA4xQ4oKpMpID4fw12TUiLtA+OmN1/YeXu57TbzZBfTZyfyyOBt7r8i9YPiu6/cCtr6tvzVndfMWwXotjt/qw/ffe4OA2PHj7TNmxTCPVv+evu0jJ37pRhzBauzyLpRI1F0Kncx9nbznL7n3BT7GHiCKY9qm4Ele6tNt1bMaXXkSNaAL1Nk33XI9ALc5wnf62tYe+cM5s+8BHdtAUw15vrMtDUGG9fo27Q1hL6FhJo7DKiVHdhVF2PTIxgdttCc+RxJcy5/N8UWYoob8RcCYWSTynrGKn+iqWWjVaogm5jE8IHDGJreC6dUlvU38xtY+foztD89C625poDlnvcmM1WqNm8kPCktGL6TMNhUiprIIYgWr/qIUrUyMRCGKVrttrBcqGfMP2TWp7oFvzKM6oP3Y/TxR5GNjgm71eG9Wi2Ely9j9fXXsfLxR4gZHNIA17AwbGoCxDAw3IHLe/aICuxRSB5F4jOKk2c61ts+LK+M4WP3Y2VpHnrqY6RqYW1pRtLdCJCwKIjSdcwT5hnE6aR7E9Tq2skWYyZviFTYljmap2QWWVgSvTWgDQ2hdOw4ag+chLn/IGKWIRemklKV1eMQjXPv4cbfnoGzNMsIq3Dz2KHMGiBKKBkQTHELDbQaGaJQRzJSx9TRE7CqozCHJ2AMDSG2NRk3lZKOudMvYeW9NzBCjSfQfppIvJJo/DR9D2nioT49hfL0JKzhIdi1qoi2myUHGhl/ltJwUsL4Kt2KQfl4/jrmX30VC6+fRbzmw6tqqHptmMxcSJmuSqF0gwJzGLv/AZhj41iaW4JHu7w2jzhootFqSkDdCdpoLc7Aoh4mxzFjVZpihXE+UFPLdTM4NgsCiEe5kdJarIsSMaOOVmHzVcqrAlKpOxbBGT0oPtTV2RnURocxtmcK7SSEW69j+N7HYO87AaPsSoVBgrFSjTh/kkpiLCxYniae74V2Wh5Vi7v846616VZwi63S1Qd2q3ck3mx+q06Tc4LCtr5ErtsnKaP0kvtIfNzqMrtbLKiz2+jq596CTd33ku+zyaUr7MBg2pIdDSwudv2O3o9/Sy/YPYiK7dU2VWP+GfdfvX7QTpPoVgfLj+fffg8o8q+o5Ki0qiBE9M1V3Hj7HbQufAi3sSzsBFKBaXNNm+Xm8ypjAuCqOJe6nACWAb8do72u6OdazYBlR6gigZdr14R0aPhHdJp0tCMHq5EHbXgEQ4cmoQWrSFdmka2vwEuVNg+ZXKkhHKmc2qGWXD5TRXxyp0VCa7mrx1NFIF5h8mwr9ayUMC3nLY0Y97B0EOm4kOQUSFoeK+/oiYUAFeiTh5SBGx9FSpp9ax1Xz7yF7PpVuKTGG6w0ynLUOtbgIR6awtBd92Ly/vtR2j8NIl4EBkxGOtkU0xB2muQzswuiFpqfnMfiiy9Cv3EZme4jMAlgWbAlhTDDSqphPdKghxlqGlB2GfYMobGP5YWVGeP7Mp+b/2WUzYgNNElzJ1WbIIJ4T6Sf0wfykVgeksmD2Pur38G9405ElidOJ7vie9kU3P4Q3t0dCgvQY02LzX+/vPfdPeCf8Ky8qpKsu4yANxax+MqzCN8+jWYrgrfnCFJvCI35OTjri3DillTdyUwDtqahnWiw9h/Gnl/9Gu4ddyFzKxLvpiMsMrV0nudmsPbKP7D+/rvQfF+6UQjJpL6LKK2ByLFEkH346BEMP/EUzH2HoenU1hNUO5+sarMR37iCuRf+Av/8e2DRbF8h1JKWSDSK7DCxdaLpklPAuQJR3FIvSQreysoKtFaICtMpqPNlMhVSlblOCFoxjVeRpaQoSrNNxk0NsUXdL1uB2u02nCiSiLpbasB0WKFI2XoVYVUOYsgUg9SBk4SwUhZo0NEuVZFNH8ToHXdj6J59sOpDgF1Barn5vKfTmuv3bcEc6exVc9SoU72ryzVW+g+F1p/a8XairLk4/7Yjcqt996aHbm+plV7h7W3c+7XrRx/hB15H+oJQO7Vth7GxqfzhTvfa+P1GOo76NxkjtyDov/sn/fOcuU32b75WDt7OIjOxg3Pk/SjKSHGExucXMPfas9CufAU3YhU4Q7SJqIW4sl7BSjNDqFdgj06hMj2B0YPjGN0/jHKphPD6Fcydew3a8nVB3WPRj8rgiCPBgFoGi6yWBGixmIdTwejRExh94CSsvXth1uvIXDdPP8yghSGaX36K1b8/jWj2qmLL5mQBbjqFPGAoGQrREMtBKq7T9PF4ThLlUgE8N8lLBxHc0jIEcBGbVQRRCNuyxWeKohCGYcIbGUHtnp9g+KEHYUyOIWZJbto82TdmSJdWsPjyq1h4+y1ULAPrUYCo2cSwkcKzyKC/GWwrvlpMu0PYKYRUcUxhgwShRpxi6tgxTP7q14ib60jXKOa/jKsfnoXtN1EzdWR2LEVSRNeUEhpkucmrq2qTDD4VovDdmUFkMxNwpEYZHd2UeluGKbpyTqkEb2wCpTvuQuXECWjjE8oOamKhhVHNoisyPs6+gyv/9c8wF5ehszAJydPUz3QTOHYKSxh+BtqBASYc6O4oJp76CQ4+8gDs6ijgVgDXFZaQZE40lnD12b/Af/M06iE1r2zMpjac40dx+InHYAwNA7olAI5eKQnTSEoa5cxYpQir0oqVl6+YTfLfOEL8xde48tyr0BoBquUU4cpXMPx1kdxYaQOBXcb0Q49h6mePQ2NwKU6F1R0vzSJpr2N9bQVO28fqRx8juHYRnsmxRu0yW5iHzTaJ44KaoV7RUCnRJy+sWF6oQ/yUvNgLg4MSf9+o2sghTQ006luP/PTfMLRnD86f/wjThw9i/PABNNsNWMN1uNP7kTrlDY2tIhkrf5wkF/SAPh3srMDUtlk6unmz35F1H3zRGvTKLmei95221jQd9EHfznW9GM4mX+imj7IBUOa731tqRIeB1Zs+uNNdvisH7bb8jp0aPeDvb4dhPeAjf7zsFntAicbRIOQy7IygtH00Ll7BylvvYv3TC0AUiD4TN4FaFsKk4mde1lexLXLjSTHDxESrFaOZVuBM7cXYsWloCSNWF2Gtr0HLqJUjZT5g8JkxJUFr0MePYOje+1C/6yAQraF95Wssf3IB0cxVmH5L0vXIvCVbShehZdLXWU2C+14qvCvNKLdkMMU9h+VU5YZC3FPijGmGKKJzQV0bV/QbgoAMCwueq8N2QmGimNyiJwZaWhXlux/CxC+egrlnQtgdydIKvnr2RaydfR+1hCmOgRIDtcvA9EEM/eRBqeTnTLD0tSF7dIKE1DGVgGeeXpV3nVCHk9kZrL32MpofvQ09WhP9A0Zq2AaCSvqefUgqw1i/toTo2lVUshZcL4XucFOfw/MiMEjLTQeOwpKWRL20iSoiM0K2ugJjZRVmEonegJHE0CYPoPrYL1D9yYPQaixEzJvlOga3OJb+uU8vcua3W4H5kf59cc4KWLOzGYqaWHv3DBb+9jzamo4Dv/4t3IOH0Zi5juV33kJ0+RLSOEKUpLCZvzA+jvGfPY76qYeQVodEH4LAc4ZQRFBFlHdlFctvnsb111+TeUFA3OSvwhgmRUjdEuKhKip3HMLkyftgHDoOOGWYImKab3gL54obXEY9330DF599Bp4fCkvK0KkJkSGxTOiOx3JQSPxARFZ5KQsjNCPAHtuH6TuO4evPv0Djyg1UVZkjEZAvkQXKNIRURxinaMcJfJ1zy0B1bBJDk0dg1oeQUsgl07B29Toal64gXV6EYyzDsjNYpik6JabMaV0ipi0fCBJXwHh2mTM5guH77kH1nnvg7t2DmFFinemCSug0V+XLeRTdzIF89myKsuUVzoRhuuHBqO7KK5MWk66jLFBEUfuU8u7roRYBiW3mSS6kO+hc3+7RxeZj0Pv+eN231AM5e3ewu/UTcc91nQa6sdJO2i7x87vCUwdq6rd0UV+s73Z2mMVONV9zO7NcCCMpwtlrWHr9efgfvg23HSGhJ6SzeqqP5dUhrCY27H0HcOwXP8fYHQdhD9mwPNmBY+Wj87jx2vMwbswgC3Q0IzJcIlTsBJkZSVq3qTtoRxoWMx3ekaM49uSTGLrjBOC5UqlcpXuryqssvOB/8w3Wn/9vaF/6sgPMyJou+k15FV1qChGAI7pEfcOMuoW6BCbXUwu1/QdQHxvF2pUZJLPLoslK4XXr4GGM3nUfbNeFZdtoNRpYmJ0VLaIxXnPsOMxhVn+krldXp9N/a4dY++A8rr/xBipI0Fxbw9rMDEadDK4bi37rdoeULiIDLdJhOTUEhouFKMHQ4SM4fOohuHcfU+z3VhOrX36Nz196GcGlKxjJNHheCMOixmQuEG4ySyBDahkwHEcq+hLM4ztIhbkcqWSaZEqtWdOGxpR2Ms1cD97wEOqTE5LWrk3uATxPJDEU31mBV2RVic5jHGL1rbfw1f/1DPSFprCxyXj24yYsN8JIzUDZVsDMgq/Bdycxdc8jGH/qXnjTI0rHVSp1M7CVpyoHDSy88ToW/v4SMLsInwLsR+7Gvqd+jvrdR0THiUchOs6/FyFpxSLstVPqZ54T8a8Ly1h+7wI83YHZXMD8h6/AWF9EklmYT0zU774Ph37zexh79yKzcg4TJQ8SFvpJEEdt6HPz+OK/Pw1c/hJlgxkh7Jwq/FTHckNDq8VU2QxDpQj1qg/dYtaKmmD0xxlDJyiqKlMSfIyEaUZ93Ij9wGJCZQ+m66H6yL9i7OABLC/Oozw6DGe4jky0ElQBlALA3Srpq7u4SvcSsZm5s/Wo/Pe2hu6Eh2ybcf4trd+D3GanNb/fN7pVkyAAVtHI3bKqbtdJ2zbNcTd6ZYP06G1e0+nUW+3d23zuj5fvvgdoqJQulKrHx6x2KX3cTtD6+jKunTuHpLmGUc9EMD+DxtwVlAl+pBQbL4ATAliMKphIYhMs1ZztP476A/dj9PgBwG9g4fXTCL76HFq4Lvn8srxrQKjbsCeOYvi+n6F8511IxmpSztlYX8P6559j9qMPkC7Owc0SpHEglT2p30Pcrc1oieXB+v/bu9PnKq40TeBPLnfXvq8gIXYwYMxisxkbG7u27umZdsdM93yabxMxf1NPT3RXVUxX9VR5KZeXsrEBlwEDNrYxICQWSUhC+3q3vJk58Z7MFFcYgxAgJejB4aqwLd0893fOvXnyPee8rxlHZjIDKy2rLBLAstTNW+0E8auJqa2iroF8zkA6I4kUo9D1JLJ5HYW83AlNJKJ5JEtmEUnmEdWz0Aoa0pEKlL1wADUHXoFW7QWk3HQOwye/Rt8Hn8IcHYYRtRFvrkDp2g6UrtuMVMd6aJVlKhGzbL5Wh7jkesGdN0jM7DdPNh3r6TSy509h8PgHiE6OIKrpaotzVo4l1jeh+cBBJFZ1YPLGEAa/OINczxUkJclpUoJvc7d0tUXZystWfx16aQ1KduxAzeZVsLUsJi9fQv5yJ8z0NGw3p3IUJLbvRuUbP4dW34yIWh3yDyv55YwXPpKegp980FmgBR4Ffwre6dwESu453nl/aXUe6e6r6P+PD9RRttU/fxN6fT3cXBoT35xTBRzMdBbjA2MqJVXNC9vReORlRFqbVIVGCU5JAl/oabiarK7HoOUKmLrWhd4vv0Sm97b6bJoy55Sks2Yc8apqJFc1o2LLOsQa6uBGpNyvt2o8d2QzOJojzx8FB07PDZz919/C7h1GyjURkYB5zIbe1oDqdR3IjUzgduc16BlLHXOx8hamdB31+w9gzQvbMdTbi9Hvu5G53q9eT0tFgHwGeian8spJADujGciVJFC5rg3r925HaXM1tFSJKrIgk/7C0BjGv7+M3jPnYN0egm7L50xXyVXlYUdp5vPI5eQYRRwoi6G0vRHNL2xBhTyA1FSo3FdSeELs/Tz2/o7VoEajrMre76ifHNzwJsJeNcU7M4DgFby41p1JezApWXTWy+J+uddAV9db3A39fovAjzo3ejo+k09LKx9lmfV+Y+Pxve68B7S5IztPi+8D2rmA+fxiJVXS9OCh3z+aHLRGguTW+ChGjr+P9JkTKMlKIYgocrqOaclHZNUC1Y2o3vU8Wve/CK0q5R3Hk4PihQJmu7sw+MkHyF2+jtykHAWLQTcspCJZGLEMzJjsQE0hY6ZQqKlD/QvPo+H5rTArZM5X/K2i8jrIuSoUhoYw+/E7mL5yEbYt8z7ZWSU7pSR3lew4TyBvyfexjWhMVzn6CnYGuuyAiqeA1RvRsGc3SuuqMXnlJoa/+Bajvf1AbTk2/c1R1Dy3SeUQVOm183nks1lvkSKZhBaPe9+78h2t8vV7dirdqVS+uzWMobNngfERpG8PY7bvFkqkAmEsh9i891Pc35K2QnahST5VDaU1TdCq6+E0NKJu+3Ykmhqgxb3jjzLG8xNTGLl4FUPnfkC+ZxCx7BhihpdsXe4vZlUZzLoq73idFN+JlSIi7ZbJr5/iRh1aULvXDOiyk0xWmCQpeTzhFRKKS/Z9KRgilR69+4laMtG8/U3eBiJ5LrAwdvocLv3mT3AGZ4FoRIpUqgrBQA5VCQdlSRsF3cZkrBS1Lx5B3c79agFVnXr0QlFzf3knKGTcXMPNDz5BYXwK8ebVaHphD8rWrUZBjmyoe593hPZHwaq5hdsf35PU8JHuSqcxfXMQMSOB3I1ODJx4H6WZKWRtwGpoQesbR5HcvA2OGVNFjrx37+VMU1WKJf/b8BA6//3fge7LKDXzaqNfNpfEtJy4yMaQyydUEv2y2AyqK7Iw4nIkVU5BaMjnvEV604ir9CoycGRs2rEoUF4OraoK0bo6lLY0IVFdjWh1O6KlKRWIdWWnnGzuUtU6vWOvc0usRXOm4LtwXuXTH30N//Tu2Ln78uJu6+H70n3A96d/ijZ07b7f48njjqUsLgfWI2RZmfdZvQf9fXO0LVNXqen2Yu+0y9TmlXZZS+VG8nYpyRe3rA7JzgopjetmM5gZHYYzk0Yym8XQudMYv/QNSlUASsrO+rnYvJPEageUJQkYk5VI7HkJ1Xt2I1ZVAWSzmPjyJCbOfAltehhSs1nyu1iyElVaiepte1Cxcx9QV4+CnGmX/VEybmZmkR4cgD05pnYNZcYnMN7Ti9zgbaSnZ2Akk2jqWIfSsgoMX7uF/s7rMHI5mLqFWMJFIiG7xrzjjbJtO2vJKlscGQlgqcTtEWiRJCLxCliOjkJ6CGWxCZSVyHbonMqF41Y2omrfqyjduQd6qszbGSUreJ396HzvI6R7e1FTV47qHWtRum094jUNauIkq1iS80E2PKujfYipVUX1efArtKl/kO3KKqmmDev6FQz85V24PV2ISnqegomMnJff+hza33gdscZVsMczGD59HreOH0NsagRlJTlI2RqVSNqRbekGslYE04UIarfvRNWRwyhtqQbsDDJdVzH+5Rlkrt2AnZ6GU1mD5tePIrZnj5dzQIpZBNv0n+BJoWX5jKnvofucO3nQF+yyNPrRLiq7FeWTraaBaueUC2tkBLc+OI5IRQVaDu4DSiTPhQN7fBiZ7i7YQ+Pov3IT2ayNtoMvofL5rXBL4n7JZUn2a0Mzst7xP8TULM9OzyJzewjWyITM7GTHP7So5KeIwiwpQbSyAlpZqcrZoILjQdVH/1ivH6LxVlYLGozJGZz9l/+LsXNXkJI8cEkDqbYqVB3YgcqN62ANjqHr81MY67wBI2upz6NTXY4t/+MfULO2HXYui/StYYx33lAr5RJ0Grp4BWM3bqnVUHkwSTY3onrzWtRuXY/K9lpoCTmaIZ9Wb6eUmS8g1z+IG6fOYfarLqQHJ9ROT1OPquC4rPJbTh6RVByJhkaUtTejcksHyte3Qi9LwTG9fBSGfCYlPYi8SZWMxXs8ULnCVK4t/wZ5z8mjF8Dycv3dozrOvIiQN8kNbrlzr/tTQ+h+9+X7LvUtPrfWg+bHnCo82uf98fz2I5zNKwqm3rMti13mV4EWv2pb0QsH40l9Qhb72o8H7bG/yt35UO6+wGI/K3JHmHvgvetF1QLm9BTGT36GqeOfITE7DV12+GgGZvIW9PI1aDmwD4mt62E01Ks5ztzXmuPAHh3C0LHPcPvkeWSGsrCNBFJVccSTBZg1CZTU1MJMVcEtqUS0sQmp1S0wK0rgytnuuWxK/neYfyTQHhvD7LH3MHnha1i5AnKWl1y9kJcFzQIKjiQ8j3jHEyU3aFQ24+dhJE3Ub9yAyn2HkNi4FlosAoynMXr2Eq5fvAyzoRLb3jyMWFXJXA7B4iPpaqqmKil6u+YlL6pKrK3a6VUSsDMF5AYGUBgdwuytQaRv9CAz0As7N46SKBAx/IrYMpdWCxDe0UW5YKbgYtoxUbVuC+p37kZsTTu0Glkg1RFx5VikTMO9ROvuTB4zvUOYvNYHa7gfuZlxdVQ9WVWJitXNiDfXI15dCUcCSlpUHRH07hvzPzN31ue843vedNQbDer+pHLJ3RkfkkQ8uFepGJ7jYursd/j+N+8j2z8ONxFBdXs9ysrimOq/BWNqDKmIjWxSR/mu59H48uvQa6Q6rjdOfnyr805+OOkMZrtuqD6UYE6sqlrltRJzb9ZWfIj4rpE/96aK7i5+QUSZv0tgNTs1Cz0PTJz7BgMf/hlJWbCLGmh+7WU0v3wQbkWl6h+vaqY/SVcrf14QS5+exdCxY5g9fxJGehh5y8D4dEqlHsjbCThmCgnJ5xVLo8ycQtQch66byOVMzM5IYNSEocXUmLVcC5HKBCrWtKFy8wbE21fDrK6CIfMjScSukmP6q/v+TjJVrMJfOPJTZfou3mdlbhqgFp+LprnzSObv4i7+6Aef4cf+JbaML3i/eEhYp/qP1OYHTa7u6guVA2sZ+4eXpsBjEVDxlLnHnuAeIxNC+Zc5OE4esEw4t8fR/5ePMfH1X1EWd9UqS1zd9Lyy9i4sRG359ynYLR1I7juAqk1bYUYT0Ao5TF84g9FjHwHDg94ah2MiI1u46hvRfOhllG7bBrek1LuTqhUXOWKkktTAtSVRlIN8JoO0bDPuGcTs2ATiVeWo7WhHNJnATN9tdH/5NUa+74E7PYNEYgYVyYy6oep6FDOWgal0DLnZhHf+3LSQQR6N69aifv1zmMkWcKvzB0RHelFjWDAiWaQNByXta1F/+DXEN26EEU14WjZgT6Zx+7tLSI+MoraxEam2eui1ZTAiUW9S4N9Y7+y18G/i95iJqt1rkmdg7DaGPv0z0t+dhebIDimpBliB+OGDaJJgQ6oMmuViuvM6ej74CLGr11CSmIIVt1Si9kjBgJsxkNVTcFa3o+HgfqS2bkE0bqrjgpK3YfjUOfScPAVtYhrJF3Zi3RuvwWiqgyOJMP1gh/+cvdiNFo9lXPJFHk1A+jI4PKsmqH5pcDeTx/ClLrUCW7dBjvOZqriCK+NjZhbWTBoTt26rxOY1a1YjWlepdhKqCncymZtLza6mPcHThvcZLXifVfWdIg83khhW5dyYH065+wEq+OeCPKY6OiLpAr79tz/i5vGzKI0l1FGVml2bUL59HaKyWj+dxeDZi7j62ZeY6RlEvAAk2xqx7X/9I1INtd7DhmWjMD0LNyNHZ2fR9+kZDHZek+RxqOxoRe2mtahctxpmVSnciIaIqvR355tQvnucXB7jff2Y/uQr9Jy9hMxEATFNvgPkey6HaLmJxi0dqNq+DaWtDYjWVkBPRr1Ewf5sfd6D9fw59rxJ6L17++4pxsJmKXe+0x9tDPG3KRAWgZ+abC/sExGWd/F42vEoDx7385JlNieTxsSZbzHwwSfQRgeQiGrIWlAP7caGbdj897+AtqpG7f5Ru0FUPievmqshuYLOf49rH53AzK1B6FEDTVvaUbG2Gdrq1UhWVSMaT6rdQ7oc1TZN78G8KLoxd2/wH68KE2OY+vxDjJ4+g/yUhclMRO140fIy6ZScgxb0iBwml6mjATceAcqTqF3XhlW7dyC1fg2QSqhryOJJfmoG46NjMKUadEMtdL8q4b16pvh79F5FINS8zbLg5DMozMwi092L3s9PIXO9B6lYHinZHe/mYWWkyG5MJW7XIhbiphQv0pGtakDd3kOofX4X9Moy2BLIk1yp6sJ39hupAJplq2PzhWwW2Uxa3V2SqRRiJSloErjyK88FIZggsPGgEReMpbk7X7BrvLS96wAAIABJREFUq+juJD8jpwQiBRcz5zpx4bfvYmZ0HNUb2rH6wPNIlcZw68vTmLxwBboc+e9oQft/PoqSdR1SNggqV/ZPDDx1fbmmX1lXHdcMfvgRPtzyuirdpeRCk517GQsjn59D3x8+QT6bhr25BZv/6Veobm2R0rpz3p6HF6hUhQSkzywXuatXcfuT38Pq60I2G8PQdDnyOQdmJIHytibUbuuQ05fIdl6G1X8RbkHHbDqCqUkNdiECQ8a8TIUqkqjevgGNO7ci2dYEt1wW9qS6uDdhu9dwvN/nfaFED/rOWOjrPGg88b8/HQIMYD0d/cRWPpKAlImVu3QU7kQGIydPYuCLTxDJTapdyElJJuloKKjKLhaiBRdaqhrx7XsRf/FFRGuboMtODaeAzMULuP3xh8j39KCQt1Sp4IwZQaS9FW1HDyO1cT0c2dIsKyH3KF2ugk7ytyS9SufVdm9ETWiphMoppWcLmLzWi2snL2D0h8swZwZQaWYQV0ndk0hno+qG4jhxxEvj0FIOpswcNh/ah8Y9L6qcOIMXL2PizBlgYAB2fhqyM71pxw40HX0NkbZWGIYkTPeLIDoOctMzsPMFr2pOPAJNrSR6fxZ6rFj9sB/AcmcnMfnFZxg7fQzITqu2ltWsQfLNN5HatB62GZPNayiMjGHg0+OwTn+DuD0AJ2GpRNVGQYOTNVEob0DNq6+i9PntcMsq1FFKOSYqSbanOq/hh08+RyJbQMurr6JqyyZoCVOtggZ5D+ZyUPKu9kifnuX+5WDDXzARl8mlzOosyTzqOojIVnVVWdR7EHEKkp9Bgy2fT5mIxqOqyk+Qtzt41rjXsPip9ZyH+RyoQumOBjPj4MJv/4grfz2H9g3rsP7wi0iuk51N/tGIgovC8ASunzyL7hNfwRydRf3GNdjwP99CvKoMjulP/m052uLAmc5gqvMmpkbGECsrQfmqRsRrK6GpYJMXXLs7+1nwfuShYfqbi+g88TWGrg7CyBnQTQPx6hgaNjahdecWJFa3QZdy1vI9KMeGg3wpjCQt90eA16cABRYooHa5WRamL3er3eWzV7qRcjTkLFsd/a49fAAb/vZ1WBVxtUAhx7cluCIpSGXZwpAFzFvDGP72EvJjY9CjGqrXtiC1phmu5OKUo3rBwt4DjusH37+FySmMfnYCfcf+ivx4DjN5E46bUnMdScPuJizUt9ejpKpK5Ug0qytg1FWgsqMNifoamDFJFeEttARzSFXgxs8n9DD3p2LG4N6qdjlJsK3goDAwhu73PsPwVxcRczIoKc/BRRozM5LSoVQtkMQSsyhP5BFNJRHbtgN1B15BrLEFmjrCJ7c/STQ//w579701+GeVsHuJ0h7Ik4BZAGYv3sD37/0FETOC9n27UL65XR0hHD71FXo/+hKZiVk0vLwHrX9zBGZVueonyQ25yFPnCxy5P/6xYAFPVZ+U54Z8AQPHzqL7D58iW7Cw5j8dRuvrLyIuCeX9xbkgEYeav6vekqrCXsJat+8W+v70a+RvXEEhF8VwOoWcGUV562q0H9iDko3tKqfv7ZNfYfSzz2BNZ5DJySuYKmm9HTdQ2VyLhk1rUbFlExKNddASkovM2+XmVcp8Jkt/L7oP+YtPToABrCdny1cOi4Dr7aaQiim6lJrv68foqZMY/Po0km4eKSPnBbBkgqAXVJU9vbwBZS+9jPiu3dAl8bN8+bsusj9cwcCHf8Fs13Wk0xnoTgKoLEP13s1oemUPzKZ6OEYUhvrrHjckf0VO3bDV7ME7MiNJP21XygtLDM3G1M0BDH37Pdz+XmCwHzNDoyhYUeQKCeSdKPREHNUtNShtqYBVbqJ113bEV7XCkqTMYxOYPHsBvX89i+mefugxE+0v7ULLG4egN9TAVIkYvYdjdW3HrzSj6ao6jexyeejglZpZ+fs1cmlkvjmDwU/fU9uxC24U9Vt2If7Gr6DX1ait/PI+9WwOY2e/xshHJxAZ74IZl1VIKQdjI5ePwGnuQPMvf4nEho1wjaha5VQ3ZLsAa2IcQ1evIakZqOjYAKOiXB11lAd5+aOCV0Fxs59MuheWAcp23FfAD6DMrb75xyHUeFN577zglcq3oZLCepWdpJrR3DguOko6t1B+jwhW8SQ7mFQXT7QX0lMSwHIdDZG0he/e/Rhjt4exef9uVG3qgJuQ4LHkH/GOP8ixQUnUfv3EWYxf7EZTRzva/vENRBISSJJkwF4eC7UMq6pRSc4USe5rQo9IHhAvSYm8nkp6e48HAa8Mu4PCxATGrvdjpOs2ClN5xBNxlLVUoaK9xguESbnxopxxcw8VDGAtpNv5MxSgQAgE1LTKcZEZHMTl949h5IsfEJsBcq6NktV12Pj3r6Nq50bko14y6YjjBbDk+1h24avjTXnZyZuGm7egRTRoSalsIbtPYqqExULvCd49SUNhOo2Bv5zF1T8dB6ZyyDlytEwWRS1E5Kja+jqs3b8Dpatb1fE7rSQJJxZRx8TlKJ1ktyqexiz0+g/qDi+A5R0TV9M+uZ1O5dD36Xlc/+Q0MD6BRIkco8wgnY4jn5UCOS6i8QmUJTOoWt2AqsMHUfrcdhiJMnWSQRwLUixpXovntyQIwgUBuaAy7oPa+6j/XSXdsFzYo9MY67qBZHk5Uq0NcEvjcO0ccpe70Pn2pxjtG8S6Xx5B/ZF90JIxRKTGkSzsLvFcci7A6E9+ZOH71ukLuPjepyipqsTOt95EYlWDnxze0wnmSXd2YVl+AMuA238LPW//G3LXO2FYUWSNMrirWlGxfTtqd+xQO6mMgo3hL7/HwO+OYWp4GLbporKtDo3PdSCb1FDSUo+qtjYYJeVeHjI1/yo6XikXXmKnRx0X/P2nU4ABrKez39jqhxFQeXMkp4B3Bt2QHATd3bj5/jso3OpFeXRWTQ+k+oUjZQAlYXJ1E8r2v4qSnTthypE3mbTYQPbKTdx452NMXulCLic5dFJItTeh/egeVL6wHnap5OIxVWWxu7/DfzTpUEsl3tOh2oI+FziS6mc2rPEpOCPDGDp9FjdPfQM77QIlVTDqapFqqkFdWyOqV9fBqEwiUl0BNxpDQW4mhQLs/mHcOH4ON768oB5q1x/ajaZXdkGrLkVEEjz7N7ri3S0qsafKw7HIAJZaxVOldZC7/D36//xHaLcHUIjE0PjSQSSP/BxOKunn55EUYgWkO7vR9/5n0G5eQDKqsompCeSME4G2bhOaf/ELRFvbENEi3g4av3aLHBVzczmvwkwk6W3jl7/88rvq6GiQTOfZKsr3MCP/2fjZon3jqsy4ilD60Sf/s60CQkXjNniICYI7KpBV9DpeZOvJ8Eh9H1n3jKTzGO28Di1iorK9BUh4x3LlOIDaLOYl7ADyNnLD4yrfVbwkhfj6FnUkRP67vCc1NZT3JmXTVToR76FIrciqf+9iQQ8AjqWOVNqzBdi5AvRIBJGEVETU/GBZUMy7KB/FkyHiq1KAAhR4cgLytTo1hRt/OYX+D74DhgvIlGhofXkrNv7dIZhVJZDTe/INbErQJggQqDQS/vO3vwAi1dOkxIXMP0zX8BYfFjhHmgtgzWTR98nXuPLuCegTGRUosyM2tJiDpvXNWPXKbpRv6oCWTHnzHBUQ8Cr0SRslT+uTuF0VB7DUJh9V+MjByNfd+P6dYyj09kNOM0rgp1CIq8I6skaoGTOIl+XR+uIGNLx+CGZzCwypDmh7c1nb+PEOrJ/q7MDoyQ2GO6/sBelkEVRihwVosnMoYkAV+pXCLkMjuP7xXzHc04+1rx9AxY7N6mhjRKqDz68/shTNnReQUsEpB8gOjGDs6k2kqspRvn41EJUx6VfcLjo6eadv/Scf20Chtwddv/sXuL09cLMGYnWtqHn1AGKbN0KvqYVtmjAtB9PfXEfvrz9H/0AvYs0l2HhkJ+p3b4YrqRpkN6AUMlAVnL3gp1ownMtALJlFn8RoXTJyXugpEWAA6ynpKDbzEQT8yYmqhCEBLEk4fnsYfe+9g8zl71BqTsFwDT+AJflvANS1oPzloyjZth1mIu49cNpA5nI/uv74KSavXoVlZ+HEy9C4cwvajuxGoq0erpzjl+CVrOI96Du8qMpE8cO1CmbJpEqOSc3MYvDsN+j+6AQwnUPD9i2ofWELki31iJZI9RVvF4ZshZenWzUJkVtJzsLY99fxw0dfIDebwZYjL6kbkFYaheGXJJ63VBPsspjL5bAYb6mK6LU9f/MG+j/4E/Ld3cgnU1j95lEkd+2HK6uK/jZ4qYyS7x/CrQ9Pwv7uJFJaXlXssSRQGC9FcscONL95FEZ1jVrNu5Oi3wtkBdkVTP92OW+jyNzS1ZMLVCxGiL/z8AJB3GnuIUMlpr0Tn1QT/KJuDrq+uNK6lwDev7a/+fFBH8+Hb6n3G5KyXL5CIrajPoeSQ0uOCasdV8EW+yCAFsThbFvtrpJZsqmS2N519eBNFf/rh/6sqtAXbFf2MXp/1I5LFRKTNnurqHen+pj3uVosCn+PAhSgwFIJSHA/a2Hk7BV0/fEUJnvGUL55FTa+dQiVG5vU8Wz5npbvOpkPzs2FgpW94Ps3qDvh/8jDroXNHeFOZ9F//DyuvnMSzvAMbMNGOpJFzZpaPPfafpTv2Aq9pEQFrqS0kHxPq0XQoorPTyImMC+AJVM3SXJuAZmbI7j4/jGMnf8GyJgw3KSXwF13UHBzQFRDqjmF9iPb0LBvJ5zSUsg8zJRzmHJv9nN4L1V3L/g6RXMA+R21udn/W1KESNETW6oXz2YRb66DW55SR+nVyYjgnr3giz3+H1Tz64IDN2epeb+aT/uV/OZNGfwdhd7uOglgyZs1kb9+HZd+87+h9w8in9WRWrsJbW/9HLE1bXD0iDfuLBsT33bj0q8/RtrJYuObe9C47zmgLCHb0FR6FC8Z251pijd/kFm593f8nudPHr8HX3FlCzCAtbL7f+W8e6+GrkppqMrSTkyj/8/vIXPhKyQwrg78Sa09dQzNNWC0dKDs1TeQWL8BZkR2JkhiZmD60gCuv3sChf4eIG7Dra5RZ8ert23wk2xK0naf9UHbaL1UOXM5m1R1P3Wc0A9gyU3BdpC+dRsDZy4gNz6Jph0bUbVlLbSErIDINnTvd9R6XbDrSG3OcDF7awRX/vJX5GfT2HhkP8o7mqWkjHran/fsW/xw/NAPxcEQUrXh4KoyxQYKoxPo/fOHGPrqPLTaGmz6r/8FybUd0AyvnZLouiBQU2mMHj+P2S/+BMxOwbZ0zOaAXGkl2l47jMaXXwLKUnMVXIKH6eJkpD+RVn7ljO1n+J2q+ZofoAqS7aoJsj/pnBdwKYpYqdLRRQ8dc5Vk/c9bkKbhQR/RxdCqTVF+AZ7gAWbe0b7i4KofjCv66P701O/uIJb/WS3+1/d9P/JQJ0cN73peU/VS/f+mXrKofUGg8GEf3Bbjxt+hAAUo8OgCUiynoB7YrcEZ3DjxDcb7b2PV3udQtaMDRiqqLiFfcypYP+971Z+EFQWwvJ/1/sXDLnoE3/9OJouRU+fR+ceTsPqnkTcd5MpcrD+4A2tfPwizshJaRBYuvMI53h7d+d/FD33xBUAGb12u5gVyXBiyq2Y6j4EzX+Pq+x9jeiCNqFuGghy9iwPJxjLUrWtF9boWVG5ahUhtBRzDgOmnhrizhW0BDVjqH7lrNSa4F6qpg6peKH97i8eymCT5IIPCoIueGj+u9zg3Tr37uMQKJVgU7JueW8Tzh7D6cVVxMghgGerkyaXf/CsKN2/BTEpF5BfRcPQgtKpq6LZfwbDgYKTzGjo/OoHW9e1o2v88tMo4HJXFXoKZ/rgsmn941VXlL6+EjAQz+YcCT1qAAawnLczXX3YBFeyQ5N+qDrwBy9GhpTMY+vgDTH/1BRL2qFrtklP7qsSwEUVy3XNIHX4dRusqRFQ1LssLYF0Zwo33Pkd0ahQ1qythrl2F8i2bYFRVqdWJubq+xVtC7iXgP7F6CS+9iVGwEqgWOOTWpLmQErqmpcGdygKS8L0sBjcZU6Vy1U/pciO7U543KJcsxwBzo5MY+v4KIrqBmi3rYVSVqslREPQKmhXE2+SfF79LWpRzKvePIxVbMgUMHvsCXR8cQ83259D2d0cRr5GjmF6SR5koWbq8NxuZ81cx/snvMdbTg1wmirQdhV1Vi51v/UrlqnCSEa8UdHGhn+JGBzOLoslJ8UM6H76X/SO46AZIP+b8Bw2ZEgWJ+dUxBX88qP69KyqjAi/+Tis1poNJnZywVZ9mQB5jnsg0y1/SdQ0Xtn9h038gCSbDxU0OdpCpIgj+WL5XIEpNSO+xHar4o3DfsR784NwL+VG24oe1uxzV99OTclr0qOAvUoACFPgpAfl2z6PgSl4jHZhNQ0ro6aUJFKKyA93bBT5vPhHshPX3ed8drpKFT/naVCkWHgI+CGC5ku/zqwvofvskMj3TyOouSjbUY+svD6Ns61q4iSAM4R3HUlcJAhbehR8+eraAdt4JYLneoqIs8UphFNuBfWsItz//Cj0/dGFicAZapAyVa9qx5uBWVG5tgFYiO3JkIdVbTpR2zwUEVfRtAQ0IyY8Et8biiscqT6v8Cx0o+OmvnsSC10IIlK//zKDCRIY3j/HGcdH8XwXivFe8E8Dy9vTJL2W6u3H5N/+G9NWbqFmzHqv+4U3om9bDMuKIOQZM2Z3tupgZn8RUdzfqO1YjWlmutmrLgrm6WtECVzDH8tKPeJMHlXBel5Mo/EOBJyvAANaT9eWrh0RAHZ7xz2sX5AvYmsXE559i+vPjiOQn1Q4riazIV30hVobUtj0oP/gqzNo6lX/A1hxVWjfb2Y8rH55AxLWxdu9WxDeshlZeqgJjUF/wRXft+93A/ZtA8MCqfrToxiB3CS/wJq/oJ2aQf9S9f6+OIsk/+9XHgufaO6/jws7lVVlkKX1rlkjZZ+/xNniILn7wLf79Rc87JFm+SsljqDw/o1eu4dtjJ7B+x3Y07toOLXEn0aMKQLgyWQImegaQee+36L/YjfREHLCTMNc2Y8t//wUq1q/yViSFNxhLxQ3/iYnS3fGtkAxDNuMhBaQf56pKFv3uj/r37jFRNM6Lx3PwEfPnpU8m16g/0fRTmKhWzx1/9Bsj/xfEiuYCWH5gSXJf3eszeI+3+CPNBX12veVm73eD8wf3+mwVPUMt18T9IYcLf5wCFFjxAt7+XLWj3steqvI/SJEcWWQMyuvc+7syuEMEiN5PBd+9Dxe+utMRTt7C6IXLuP7OZ8jevI1EczXqXnketbu3I1JaruaYfpFBNYecm8fNb8YT6dlg7ie7Z1SSc7Xg40Ir2HAmZjF84yZu9dxCqrQKq9ZvQLy+HIi5qsAI3KAio+Rl9CZjC7oHPZF38ugveieAJTux/MT5/m7uYJ300a+yyFcomgAEO6PvbtM8e5Uf1PYXyOXkg43Mzev44f/8HlOdQ6ja/Tza/9vrSNbXq5MpEryaK+7kODBsL0eY+jM3OH/cu16zgj2KwfZzzhgW2cv8tYcQYADrIbD4o0+pgH8eXAWDpFyyqhI2jexXpzD10XE4U0PQdFnPKKDgGMgma1C6az+q9x9EpFJ2VmnquJtpu8h39+PyiTMoqahA+4s7YTR4qxNh/BNUelnKMsVzMz1J/zM5jbHbQ6iqqkasQiY9852C1cmJiQnk3vkP3DzzA9IjEvxKoGRHG9b901GUrWpSub14pD6MI4xtogAFKEABClDgfgKu7WD6Zj+63j+GXN8A2vduRcW+56DVVsNA1DtyFcZnftm4Y9soWJYqFKJLcnnJ6bgEgTWOqEcVkCIvBRQ0KSglebxyyPf34eI/v43JznHUHtmHtrcOI5lMqgvNVR1+1Mvy9ymwRAIMYC0RNC+zjAJ3BbDUtldnBrnvvsOkTChGr8E0vOp3WSuCTLIOVfsOoWb/izDLyvwtxFLO3oXVN6J2DJXV16ryu4j5CaWW8e2F5dJ3bSCTLVbe0qUjpW2MH53XcqQajKYhm80i88ExXP7kS2SHc9CMCGoPbMbat15HrLpapTMN5eQuLPBsBwUoQAEKUIAC4RRwXViTMxj9oRPW5CRq17ch0loPOypJsQ3JLLSAqj9L/NZU5g0vsWRQZW5ekCOc67ZLjBTmy3k7sArQ1fqv7ubhDA7g+39+GxNdE2j9xato+duXVGBySRe5w0zGtj1VAgxgPVXdxcYuSuDOHml1bkfyuthuBtalTtx++2PkRzuRMGwYjo6ZXATp0ibUHzqM2n07YcjROw2wJDeWbKuezUG3HOjxKByZfIR099WinB7xl+SoV0AdJM1WcxyZBMkW5LsmPHMVemwbM59dwIV3PkZ+aFQlWW15bRfW/OowjGQpNCnXy8nSI/YOf50CFKAABShAgSUXUAt5Ntx8Hq5tQ5OqtBHdq0wr1QZ/VPt1yVt4zws6tpeeW4IcXkYLlSNCBdu4YyccffTTrfCSqksKd3U80LXgDt/GxX95F2Pd41jzt0dRf3TH3M46mY+zT8Pep2xfsQADWBwPz77AXQEsSawsX+v5qzdw8/cfwBruQqmeQ0zTMSUBrIpWNL/6Kqr3bIGRjKpz4ZLEUW7f3o3Au5FL8nSJX4U1thIEiJbqpnR3dTNV1cVLjPCTf4I2Tp27ia9/9x6cwX5UtNWi8dXdaNi7E4jFvB1YYUV+9j89fIcUoAAFKEABCixaQI5zSY4pWUP18kQZKlm75A6at+y36CssxS8u9ZxyKd7Ts3sNL19ucQALE6P4/tcfYPDqELb8w69Qs3ftXADr2XXgO3tWBRjAelZ7lu/rjsBcAEsSYGmwDalQ5sK6OYhrv/sQk12XUK7NSoE/zLpRZGra0PLaEVTuWAsjLqWNvQo08reqslKUgPkJFYd5KnvvXkmmFxp3muoawcXf/wno68Wal7ajfP/ziLc0wNW97c0MYD2VQ4KNpgAFKEABCqxwAVk09XbDeInlZVeMTGvkf2Tpb66UR6icHlQ4ZKHzu1C9qRXTGC+AJYWpDJWg3YabmcLVd0+g/9oIdrz1S5S2V3t5zR6w0LxiyPhGnyoBBrCequ5iYxcloAJY/tZnP4BVkMp2Q9O49ruPMXD2e5Q6o6hIZJGLRGG3bkTra0dQvrkNWjzqF6r1rhxU/bhTlWZRLXp2f2mRUayZoRlc+8OHyF6+go2vHUTZob1wk2IvJXmZYPLZHTB8ZxSgAAUoQIFnV8A7zKVqYUNTu/j9CndqfhPOAFawaPtTU7plr8r37A6Xx/bOZMecnBTxFtodOHYGs5f7MD1eQM2O9YimTAavHps2X2ipBRjAWmpxXm8ZBPxk4kEMS47zyyRiPIuut4+h98R3iGTGUGpmYCcMJLZuwqrXX0FJRysQkTLBsl52J4C1DG/g6bhk8UznIZfmcukc+j76AsOnzmPj4QOoOLwXhai31V72v2n6Q77g0yHGVlKAAhSgAAUo8IwLSAhLLYH6aSjm3q4KYMmf8JUhDIJY9+oaBrDCP2AlgOX4ASxZDLbdPIy0Dccx1QKxWVRQMvzvhi2kwHwBBrA4Ip55ARVXUdu1vWOAkpBdcllhMouuj07i5kffwJ5KIynJKlMuqvetQ+sb+5FsagZ0k8GTJRghBdvGyPnLuH36W6zZsQ0lezcjF/G22cvfIZzbLYEKL0EBClCAAhSgwDMnEKS2eObeGN9QWAVkJ6AcRlGHV5mZI6zdxHYtUIABrAVC8ceeXoF5ASwNKATJ2GfyuPb5aVz/01lkR9NIuEC8DKh7eQNajr6IeF0DwAp4S9LxktzUGppA9lo/yhrqoLfUIG96OccMTvSWpA94EQpQgAIUoAAFKEABClCAAmEWYAArzL3Dtj0WgSDDgFp58ANYhuQiyNro+fJrXPvDKcwOTiIuAawKHQ2HN6DptRcRr62HpnOP7WPphAe8SEG6xnagZyxohglEDTg+PbeqL0UP8BoUoAAFKEABClCAAhSgAAXCLcAAVrj7h617DAKyu0f+BDt5ZAeWZFcyLAf9539A178fx0TvOBKuqwJYTa9sQtNrexGrqYOmSZLDx9AIvsR9BfJ+n0gWCNVP/h9HUkb41R9JSAEKUIACFKAABShAAQpQgAIrV4ABrJXb9yvmnavdPUWBEVuKy2oaTNvB7R+60fXrzzBy/TbiDpCs1NFyZCsaj+xBpKoGuuTAWjFSy/dGpY+CuJVsvArSmQZJRMOX3nT5rHhlClCAAhSgAAUoQAEKUIACK1GAAayV2Osr7D1LcET+yM4eCUZJAEsqc0hy8JGuHtz8zXH0X+5BtGCjtCaKlqPPof7wbpgVVdA1g/nDl2C8yC654kqPcuwzyN3OI4RL0AG8BAUoQAEKUIACFKAABShAgZALMIAV8g5i8x5dYF4AywVsTQJYgOytGu8ZQN9vT6Ln225E8hbKGuJofWM7ag+9AL2sAhK+0rkH69E74QGvoNKTFVWTtgBVdNpkEvcnbs8LUIACFKAABShAAQpQgAIUeBoEGMB6GnqJbXwkgaK4iNrW46gjhHJMTcPk0Ch6f/8F+k/9ADM7g5L2ErT87EXU7tkJI1ECXZNsWTxE+EgdsNBfDs4QarJLzvsjRwepv1BA/hwFKEABClCAAhSgAAUoQIFnV4ABrGe3b/nOfkLAdV1ofmb26fFJ3HrvNPo+/RrR3BQqt9Wg+ecHUbpxK3QzCkOdX2MGJg4mClCAAhSgAAUoQAEKUIACFKDAcgowgLWc+rz2sglIEEv+ZGfSGPjwPK5/dAaxzCQadjej6ReHEF3dAU03GcBath7ihSlAAQpQgAIUoAAFKEABClCAAncEGMDiaFiRAkEAy8rmMPjpt+h+/0uYM2Oof6EJzb84hHhbBzRJ4C47tbgDa0WOEb5pClCAAhSgAAUoQAEKUIACFAiPAANY4ekLtmSJBSSIZVsFjHxxCVfeOQFMDKFBAlg/O4REW4eqQKiOGjKAtcQ9w8tRgAIiSTugAAALHElEQVQUoAAFKEABClCAAhSgAAXmCzCAxRGxYgUkgOUUbEycu47Lb38Oa+gWmnY1o+VnBxFb1Q4dDGCt2MHBN04BClCAAhSgAAUoQAEKUIACoRJgACtU3cHGLKWACmDZDmZ+6MflP3yOTF83mnevQsubBxFtWQ1d1SmUcoVM4r6U/cJrUYACFKAABShAAQpQgAIUoAAF7hZgAItjYsUKSADLdVzMdA/h6v87hpnrV9G6twPNR/cj0tQMyA4s+UuXUoT8QwEKUIACFKAABShAAQpQgAIUoMByCTCAtVzyvG4oBCSINdk3hpt//ATTV7vRsnszmo/shdlQC0fzdmAxfhWKrmIjKEABClCAAhSgAAUoQAEKUGAFCzCAtYI7n28dkADW7PAk+t49gYnLV9G0azOaXtkNo6YSrp+8nQEsjhQKUIACFKAABShAAQpQgAIUoMDyCjCAtbz+vHoIBDITMxj88DSGv7uMxl2b0HjoBRiVpXPVB3mAMASdxCZQgAIUoAAFKEABClCAAhSgwIoWYABrRXc/37wI5GZmMfLZ1+j/+hIaXtiMxgPPQy9NQNPgJXHnHwpQgAIUoAAFKEABClCAAhSgAAWWVYABrGXl58XDIJDPpDFx6hJ6z11C/c7NaNi7FVoyCl1z/AAWg1hh6Ce2gQIUoAAFKEABClCAAhSgAAVWrgADWCu37/nOfYFcLoPZb66h/8JVVG9dj5qdG6DFdRiuLSnc544SEowCFKAABShAAQpQgAIUoAAFKECB5RFgAGt53HnVEAlYVhaZK/0Y+u4ayje0o2JrO7SoBsMt+AEsI0StZVMoQAEKUIACFKAABShAAQpQgAIrT4ABrJXX53zHdwnYVh7pvhEMd95ExepmlHU0AxEduutAlxxYfjVCwlGAAhSgAAUoQAEKUIACFKAABSiwPAIMYC2PO68aIgG3YCMzNoXxvgGU1VQh1VQLx1ShKxXAYgasEHUWm0IBClCAAhSgAAUoQAEKUIACK1KAAawV2e180/MEbBeFdBbZ8UlEU0lEKkrgGF7YigEsjhUKUIACFKAABShAAQpQgAIUoMDyCzCAtfx9wBYst4ADyC4sJ5+HZhrQoxG4uhfA4u6r5e4cXp8CFKAABShAAQpQgAIUoAAFKAAwgMVRQAHbi1S5cNX/q0ODjFxxXFCAAhSgAAUoQAEKUIACFKAABUIjwABWaLqCDVk2ARtwdcD241aq5qDL7VfL1h+8MAUoQAEKUIACFKAABShAAQpQ4C4BBrA4JChgA44BWH7MKiL/zwAWxwUFKEABClCAAhSgAAUoQAEKUCA0AgxghaYr2JBlE5AcWPqdAJbJANaydQUvTAEKUIACFKAABShAAQpQgAIUuJcAA1gcFxSgAAUoQAEKUIACFKAABShAAQpQgAKhFmAAK9Tdw8ZRgAIUoAAFKEABClCAAhSgAAUoQAEKMIDFMUABClCAAhSgAAUoQAEKUIACFKAABSgQagEGsELdPWwcBShAAQpQgAIUoAAFKEABClCAAhSgAANYHAMUoAAFKEABClCAAhSgAAUoQAEKUIACoRZgACvU3cPGUYACFKAABShAAQpQgAIUoAAFKEABCjCAxTFAAQpQgAIUoAAFKEABClCAAhSgAAUoEGoBBrBC3T1sHAUoQAEKUIACFKAABShAAQpQgAIUoAADWBwDFKAABShAAQpQgAIUoAAFKEABClCAAqEWYAAr1N3DxlGAAhSgAAUoQAEKUIACFKAABShAAQowgMUxQAEKUIACFKAABShAAQpQgAIUoAAFKBBqAQawQt09bBwFKEABClCAAhSgAAUoQAEKUIACFKAAA1gcAxSgAAUoQAEKUIACFKAABShAAQpQgAKhFmAAK9Tdw8ZRgAIUoAAFKEABClCAAhSgAAUoQAEKMIDFMUABClCAAhSgAAUoQAEKUIACFKAABSgQagEGsELdPWwcBShAAQpQgAIUoAAFKEABClCAAhSgAANYHAMUoAAFKEABClCAAhSgAAUoQAEKUIACoRZgACvU3cPGUYACFKAABShAAQpQgAIUoAAFKEABCjCAxTFAAQpQgAIUoAAFKEABClCAAhSgAAUoEGoBBrBC3T1sHAUoQAEKUIACFKAABShAAQpQgAIUoAADWBwDFKAABShAAQpQgAIUoAAFKEABClCAAqEWYAAr1N3DxlGAAhSgAAUoQAEKUIACFKAABShAAQowgMUxQAEKUIACFKAABShAAQpQgAIUoAAFKBBqAQawQt09bBwFKEABClCAAhSgAAUoQAEKUIACFKAAA1gcAxSgAAUoQAEKUIACFKAABShAAQpQgAKhFmAAK9Tdw8ZRgAIUoAAFKEABClCAAhSgAAUoQAEKMIDFMUABClCAAhSgAAUoQAEKUIACFKAABSgQagEGsELdPWwcBShAAQpQgAIUoAAFKEABClCAAhSgAANYHAMUoAAFKEABClCAAhSgAAUoQAEKUIACoRZgACvU3cPGUYACFKAABShAAQpQgAIUoAAFKEABCjCAxTFAAQpQgAIUoAAFKEABClCAAhSgAAUoEGoBBrBC3T1sHAUoQAEKUIACFKAABShAAQpQgAIUoAADWBwDFKAABShAAQpQgAIUoAAFKEABClCAAqEWYAAr1N3DxlGAAhSgAAUoQAEKUIACFKAABShAAQowgMUxQAEKUIACFKAABShAAQpQgAIUoAAFKBBqAQawQt09bBwFKEABClCAAhSgAAUoQAEKUIACFKAAA1gcAxSgAAUoQAEKUIACFKAABShAAQpQgAKhFmAAK9Tdw8ZRgAIUoAAFKEABClCAAhSgAAUoQAEKMIDFMUABClCAAhSgAAUoQAEKUIACFKAABSgQagEGsELdPWwcBShAAQpQgAIUoAAFKEABClCAAhSgAANYHAMUoAAFKEABClCAAhSgAAUoQAEKUIACoRZgACvU3cPGUYACFKAABShAAQpQgAIUoAAFKEABCjCAxTFAAQpQgAIUoAAFKEABClCAAhSgAAUoEGoBBrBC3T1sHAUoQAEKUIACFKAABShAAQpQgAIUoAADWBwDFKAABShAAQpQgAIUoAAFKEABClCAAqEWYAAr1N3DxlGAAhSgAAUoQAEKUIACFKAABShAAQowgMUxQAEKUIACFKAABShAAQpQgAIUoAAFKBBqAQawQt09bBwFKEABClCAAhSgAAUoQAEKUIACFKAAA1gcAxSgAAUoQAEKUIACFKAABShAAQpQgAKhFmAAK9Tdw8ZRgAIUoAAFKEABClCAAhSgAAUoQAEKMIDFMUABClCAAhSgAAUoQAEKUIACFKAABSgQagEGsELdPWwcBShAAQpQgAIUoAAFKEABClCAAhSgAANYHAMUoAAFKEABClCAAhSgAAUoQAEKUIACoRZgACvU3cPGUYACFKAABShAAQpQgAIUoAAFKEABCjCAxTFAAQpQgAIUoAAFKEABClCAAhSgAAUoEGoBBrBC3T1sHAUoQAEKUIACFKAABShAAQpQgAIUoAADWBwDFKAABShAAQpQgAIUoAAFKEABClCAAqEWYAAr1N3DxlGAAhSgAAUoQAEKUIACFKAABShAAQowgMUxQAEKUIACFKAABShAAQpQgAIUoAAFKBBqAQawQt09bBwFKEABClCAAhSgAAUoQAEKUIACFKAAA1gcAxSgAAUoQAEKUIACFKAABShAAQpQgAKhFmAAK9Tdw8ZRgAIUoAAFKEABClCAAhSgAAUoQAEKMIDFMUABClCAAhSgAAUoQAEKUIACFKAABSgQaoH/D9tKq5GOIxOGAAAAAElFTkSuQmCC;fontSize=15;" parent="1" vertex="1">
                    <mxGeometry x="260" y="250" width="1200" height="344" as="geometry"/>
                </mxCell>
                <mxCell id="11" value="&lt;font style=&quot;font-size: 18px;&quot;&gt;Participant 1&lt;/font&gt;" style="text;html=1;align=center;verticalAlign=middle;whiteSpace=wrap;rounded=0;" parent="1" vertex="1">
                    <mxGeometry x="120" y="350" width="130" height="30" as="geometry"/>
                </mxCell>
                <mxCell id="12" value="&lt;font style=&quot;font-size: 18px;&quot;&gt;Participant 2&lt;/font&gt;" style="text;html=1;align=center;verticalAlign=middle;whiteSpace=wrap;rounded=0;" parent="1" vertex="1">
                    <mxGeometry x="120" y="460" width="130" height="30" as="geometry"/>
                </mxCell>
                <mxCell id="84" value="" style="rounded=0;whiteSpace=wrap;html=1;fontSize=15;" parent="1" vertex="1">
                    <mxGeometry x="270" y="710" width="1180" height="27" as="geometry"/>
                </mxCell>
                <mxCell id="83" value="&lt;font style=&quot;color: rgb(255, 255, 255);&quot;&gt;Turn 1&lt;/font&gt;" style="rounded=0;whiteSpace=wrap;html=1;fillColor=#E17767;fontSize=15;" parent="1" vertex="1">
                    <mxGeometry x="440" y="710" width="130" height="27" as="geometry"/>
                </mxCell>
                <mxCell id="86" value="&lt;font style=&quot;color: rgb(255, 255, 255);&quot;&gt;Turn 2&lt;/font&gt;" style="rounded=0;whiteSpace=wrap;html=1;fillColor=#E17767;fontSize=15;" parent="1" vertex="1">
                    <mxGeometry x="690" y="710" width="102" height="27" as="geometry"/>
                </mxCell>
                <mxCell id="87" value="&lt;font style=&quot;color: rgb(255, 255, 255);&quot;&gt;Turn 3&lt;/font&gt;" style="rounded=0;whiteSpace=wrap;html=1;fillColor=#E17767;fontSize=15;" parent="1" vertex="1">
                    <mxGeometry x="1078" y="710" width="242" height="27" as="geometry"/>
                </mxCell>
                <mxCell id="89" value="Silence" style="rounded=0;whiteSpace=wrap;html=1;fontSize=15;" parent="1" vertex="1">
                    <mxGeometry x="270" y="710" width="170" height="27" as="geometry"/>
                </mxCell>
                <mxCell id="90" value="Silence" style="rounded=0;whiteSpace=wrap;html=1;fontSize=15;" parent="1" vertex="1">
                    <mxGeometry x="570" y="710" width="120" height="27" as="geometry"/>
                </mxCell>
                <mxCell id="91" value="Silence" style="rounded=0;whiteSpace=wrap;html=1;fontSize=15;" parent="1" vertex="1">
                    <mxGeometry x="792" y="710" width="286" height="27" as="geometry"/>
                </mxCell>
                <mxCell id="92" value="Silence" style="rounded=0;whiteSpace=wrap;html=1;fontSize=15;" parent="1" vertex="1">
                    <mxGeometry x="1320" y="710" width="130" height="27" as="geometry"/>
                </mxCell>
                <mxCell id="148" value="" style="rounded=0;whiteSpace=wrap;html=1;fontSize=15;" vertex="1" parent="1">
                    <mxGeometry x="270" y="590" width="1180" height="27" as="geometry"/>
                </mxCell>
                <mxCell id="149" value="&lt;font style=&quot;color: rgb(255, 255, 255);&quot;&gt;Turn 2&lt;/font&gt;" style="rounded=0;whiteSpace=wrap;html=1;fillColor=#787CDD;fontSize=15;" vertex="1" parent="1">
                    <mxGeometry x="500" y="590" width="316" height="27" as="geometry"/>
                </mxCell>
                <mxCell id="150" value="&lt;font style=&quot;color: rgb(255, 255, 255);&quot;&gt;Turn 1&lt;/font&gt;" style="rounded=0;whiteSpace=wrap;html=1;fillColor=#787CDD;fontSize=15;" vertex="1" parent="1">
                    <mxGeometry x="270" y="590" width="100" height="27" as="geometry"/>
                </mxCell>
                <mxCell id="151" value="&lt;font style=&quot;color: rgb(255, 255, 255);&quot;&gt;Turn 3&lt;/font&gt;" style="rounded=0;whiteSpace=wrap;html=1;fillColor=#787CDD;fontSize=15;" vertex="1" parent="1">
                    <mxGeometry x="940" y="590" width="138" height="27" as="geometry"/>
                </mxCell>
                <mxCell id="152" value="&lt;font style=&quot;color: rgb(255, 255, 255);&quot;&gt;Turn 4&lt;/font&gt;" style="rounded=0;whiteSpace=wrap;html=1;fillColor=#787CDD;fontSize=15;" vertex="1" parent="1">
                    <mxGeometry x="1161" y="590" width="84" height="27" as="geometry"/>
                </mxCell>
                <mxCell id="153" value="&lt;font style=&quot;color: rgb(255, 255, 255);&quot;&gt;Turn 5&lt;/font&gt;" style="rounded=0;whiteSpace=wrap;html=1;fillColor=#787CDD;fillStyle=auto;fontSize=15;" vertex="1" parent="1">
                    <mxGeometry x="1348" y="590" width="102" height="27" as="geometry"/>
                </mxCell>
                <mxCell id="154" value="Silence" style="rounded=0;whiteSpace=wrap;html=1;fontSize=15;" vertex="1" parent="1">
                    <mxGeometry x="370" y="590" width="130" height="27" as="geometry"/>
                </mxCell>
                <mxCell id="155" value="Silence" style="rounded=0;whiteSpace=wrap;html=1;fontSize=15;" vertex="1" parent="1">
                    <mxGeometry x="816" y="590" width="124" height="27" as="geometry"/>
                </mxCell>
                <mxCell id="156" value="Silence" style="rounded=0;whiteSpace=wrap;html=1;fontSize=15;" vertex="1" parent="1">
                    <mxGeometry x="1078" y="590" width="83" height="27" as="geometry"/>
                </mxCell>
                <mxCell id="157" value="Silence" style="rounded=0;whiteSpace=wrap;html=1;fontSize=15;" vertex="1" parent="1">
                    <mxGeometry x="1245" y="590" width="105" height="27" as="geometry"/>
                </mxCell>
                <mxCell id="158" value="" style="endArrow=classic;html=1;" edge="1" parent="1">
                    <mxGeometry width="50" height="50" relative="1" as="geometry">
                        <mxPoint x="270" y="820" as="sourcePoint"/>
                        <mxPoint x="1450" y="820" as="targetPoint"/>
                    </mxGeometry>
                </mxCell>
                <mxCell id="159" value="&lt;font style=&quot;font-size: 15px;&quot;&gt;&lt;b&gt;Time&lt;/b&gt;&lt;/font&gt;" style="edgeLabel;html=1;align=center;verticalAlign=middle;resizable=0;points=[];labelBackgroundColor=none;" vertex="1" connectable="0" parent="158">
                    <mxGeometry x="0.8939" y="1" relative="1" as="geometry">
                        <mxPoint x="23" y="11" as="offset"/>
                    </mxGeometry>
                </mxCell>
                <mxCell id="192" value="" style="endArrow=blockThin;html=1;strokeColor=default;endFill=1;entryX=0.458;entryY=0.609;entryDx=0;entryDy=0;entryPerimeter=0;dashed=1;" edge="1" parent="1">
                    <mxGeometry width="50" height="50" relative="1" as="geometry">
                        <mxPoint x="508" y="580" as="sourcePoint"/>
                        <mxPoint x="817" y="580" as="targetPoint"/>
                    </mxGeometry>
                </mxCell>
                <mxCell id="193" value="" style="endArrow=none;html=1;strokeColor=default;strokeWidth=2;" edge="1" parent="1">
                    <mxGeometry width="50" height="50" relative="1" as="geometry">
                        <mxPoint x="570" y="580" as="sourcePoint"/>
                        <mxPoint x="690" y="580" as="targetPoint"/>
                    </mxGeometry>
                </mxCell>
                <mxCell id="270" value="&lt;font style=&quot;font-size: 15px;&quot;&gt;Turn Length&lt;/font&gt;" style="edgeLabel;html=1;align=center;verticalAlign=middle;resizable=0;points=[];labelBackgroundColor=none;" vertex="1" connectable="0" parent="193">
                    <mxGeometry x="0.1595" y="2" relative="1" as="geometry">
                        <mxPoint x="-13" y="-9" as="offset"/>
                    </mxGeometry>
                </mxCell>
                <mxCell id="202" value="" style="endArrow=blockThin;html=1;strokeColor=default;endFill=1;strokeWidth=2;" edge="1" parent="1">
                    <mxGeometry width="50" height="50" relative="1" as="geometry">
                        <mxPoint x="1077" y="680" as="sourcePoint"/>
                        <mxPoint x="1321" y="680" as="targetPoint"/>
                    </mxGeometry>
                </mxCell>
                <mxCell id="217" value="&lt;font style=&quot;font-size: 15px;&quot;&gt;Speech Rate&lt;/font&gt;" style="edgeLabel;html=1;align=center;verticalAlign=middle;resizable=0;points=[];labelBackgroundColor=none;" vertex="1" connectable="0" parent="202">
                    <mxGeometry x="-0.2087" y="2" relative="1" as="geometry">
                        <mxPoint x="21" y="-8" as="offset"/>
                    </mxGeometry>
                </mxCell>
                <mxCell id="211" value="" style="endArrow=blockThin;startArrow=blockThin;html=1;startFill=1;endFill=1;exitX=0.884;exitY=1;exitDx=0;exitDy=0;exitPerimeter=0;strokeWidth=2;" edge="1" parent="1">
                    <mxGeometry width="50" height="50" relative="1" as="geometry">
                        <mxPoint x="1320.8" y="622" as="sourcePoint"/>
                        <mxPoint x="1350" y="622" as="targetPoint"/>
                    </mxGeometry>
                </mxCell>
                <mxCell id="214" value="" style="endArrow=none;html=1;dashed=1;" edge="1" parent="1">
                    <mxGeometry width="50" height="50" relative="1" as="geometry">
                        <mxPoint x="1335" y="710" as="sourcePoint"/>
                        <mxPoint x="1335" y="622" as="targetPoint"/>
                    </mxGeometry>
                </mxCell>
                <mxCell id="215" value="" style="endArrow=blockThin;html=1;dashed=1;endFill=1;entryX=0.485;entryY=0.133;entryDx=0;entryDy=0;entryPerimeter=0;" edge="1" parent="1" target="216">
                    <mxGeometry width="50" height="50" relative="1" as="geometry">
                        <mxPoint x="1335" y="737" as="sourcePoint"/>
                        <mxPoint x="1335" y="768" as="targetPoint"/>
                    </mxGeometry>
                </mxCell>
                <mxCell id="216" value="Response Time" style="text;html=1;align=center;verticalAlign=middle;whiteSpace=wrap;rounded=0;fontSize=15;" vertex="1" parent="1">
                    <mxGeometry x="1279.5" y="769" width="115.5" height="30" as="geometry"/>
                </mxCell>
                <mxCell id="218" value="" style="rounded=1;whiteSpace=wrap;html=1;arcSize=50;fillColor=#E17767;" vertex="1" parent="1">
                    <mxGeometry x="1077" y="685" width="6" height="20" as="geometry"/>
                </mxCell>
                <mxCell id="219" value="" style="rounded=1;whiteSpace=wrap;html=1;arcSize=50;fillColor=#E17767;" vertex="1" parent="1">
                    <mxGeometry x="1084" y="685" width="6" height="20" as="geometry"/>
                </mxCell>
                <mxCell id="220" value="" style="rounded=1;whiteSpace=wrap;html=1;arcSize=50;fillColor=none;" vertex="1" parent="1">
                    <mxGeometry x="1091" y="685" width="6" height="20" as="geometry"/>
                </mxCell>
                <mxCell id="224" value="" style="rounded=1;whiteSpace=wrap;html=1;arcSize=50;fillColor=#E17767;" vertex="1" parent="1">
                    <mxGeometry x="1098" y="685" width="6" height="20" as="geometry"/>
                </mxCell>
                <mxCell id="225" value="" style="rounded=1;whiteSpace=wrap;html=1;arcSize=50;fillColor=#E17767;" vertex="1" parent="1">
                    <mxGeometry x="1105" y="685" width="6" height="20" as="geometry"/>
                </mxCell>
                <mxCell id="226" value="" style="rounded=1;whiteSpace=wrap;html=1;arcSize=50;fillColor=none;" vertex="1" parent="1">
                    <mxGeometry x="1112" y="685" width="6" height="20" as="geometry"/>
                </mxCell>
                <mxCell id="227" value="" style="rounded=1;whiteSpace=wrap;html=1;arcSize=50;fillColor=#E17767;" vertex="1" parent="1">
                    <mxGeometry x="1119" y="685" width="6" height="20" as="geometry"/>
                </mxCell>
                <mxCell id="228" value="" style="rounded=1;whiteSpace=wrap;html=1;arcSize=50;fillColor=#E17767;" vertex="1" parent="1">
                    <mxGeometry x="1126" y="685" width="6" height="20" as="geometry"/>
                </mxCell>
                <mxCell id="229" value="" style="rounded=1;whiteSpace=wrap;html=1;arcSize=50;fillColor=#E17767;" vertex="1" parent="1">
                    <mxGeometry x="1133" y="685" width="6" height="20" as="geometry"/>
                </mxCell>
                <mxCell id="230" value="" style="rounded=1;whiteSpace=wrap;html=1;arcSize=50;fillColor=none;" vertex="1" parent="1">
                    <mxGeometry x="1140" y="685" width="6" height="20" as="geometry"/>
                </mxCell>
                <mxCell id="231" value="" style="rounded=1;whiteSpace=wrap;html=1;arcSize=50;fillColor=#E17767;" vertex="1" parent="1">
                    <mxGeometry x="1147" y="685" width="6" height="20" as="geometry"/>
                </mxCell>
                <mxCell id="232" value="" style="rounded=1;whiteSpace=wrap;html=1;arcSize=50;fillColor=none;" vertex="1" parent="1">
                    <mxGeometry x="1154" y="685" width="6" height="20" as="geometry"/>
                </mxCell>
                <mxCell id="233" value="" style="rounded=1;whiteSpace=wrap;html=1;arcSize=50;fillColor=#E17767;" vertex="1" parent="1">
                    <mxGeometry x="1160.5" y="685" width="6" height="20" as="geometry"/>
                </mxCell>
                <mxCell id="234" value="" style="rounded=1;whiteSpace=wrap;html=1;arcSize=50;fillColor=#E17767;" vertex="1" parent="1">
                    <mxGeometry x="1167.5" y="685" width="6" height="20" as="geometry"/>
                </mxCell>
                <mxCell id="235" value="" style="rounded=1;whiteSpace=wrap;html=1;arcSize=50;fillColor=none;" vertex="1" parent="1">
                    <mxGeometry x="1174.5" y="685" width="6" height="20" as="geometry"/>
                </mxCell>
                <mxCell id="236" value="" style="rounded=1;whiteSpace=wrap;html=1;arcSize=50;fillColor=#E17767;" vertex="1" parent="1">
                    <mxGeometry x="1181.5" y="685" width="6" height="20" as="geometry"/>
                </mxCell>
                <mxCell id="237" value="" style="rounded=1;whiteSpace=wrap;html=1;arcSize=50;fillColor=#E17767;" vertex="1" parent="1">
                    <mxGeometry x="1188.5" y="685" width="6" height="20" as="geometry"/>
                </mxCell>
                <mxCell id="238" value="" style="rounded=1;whiteSpace=wrap;html=1;arcSize=50;fillColor=#E17767;" vertex="1" parent="1">
                    <mxGeometry x="1195.5" y="685" width="6" height="20" as="geometry"/>
                </mxCell>
                <mxCell id="239" value="" style="rounded=1;whiteSpace=wrap;html=1;arcSize=50;fillColor=#E17767;" vertex="1" parent="1">
                    <mxGeometry x="1202.5" y="685" width="6" height="20" as="geometry"/>
                </mxCell>
                <mxCell id="240" value="" style="rounded=1;whiteSpace=wrap;html=1;arcSize=50;fillColor=none;" vertex="1" parent="1">
                    <mxGeometry x="1209.5" y="685" width="6" height="20" as="geometry"/>
                </mxCell>
                <mxCell id="241" value="" style="rounded=1;whiteSpace=wrap;html=1;arcSize=50;fillColor=none;" vertex="1" parent="1">
                    <mxGeometry x="1216.5" y="685" width="6" height="20" as="geometry"/>
                </mxCell>
                <mxCell id="242" value="" style="rounded=1;whiteSpace=wrap;html=1;arcSize=50;fillColor=#E17767;" vertex="1" parent="1">
                    <mxGeometry x="1223.5" y="685" width="6" height="20" as="geometry"/>
                </mxCell>
                <mxCell id="243" value="" style="rounded=1;whiteSpace=wrap;html=1;arcSize=50;fillColor=none;" vertex="1" parent="1">
                    <mxGeometry x="1230.5" y="685" width="6" height="20" as="geometry"/>
                </mxCell>
                <mxCell id="244" value="" style="rounded=1;whiteSpace=wrap;html=1;arcSize=50;fillColor=#E17767;" vertex="1" parent="1">
                    <mxGeometry x="1237.5" y="685" width="6" height="20" as="geometry"/>
                </mxCell>
                <mxCell id="245" value="" style="rounded=1;whiteSpace=wrap;html=1;arcSize=50;fillColor=none;" vertex="1" parent="1">
                    <mxGeometry x="1244.5" y="685" width="6" height="20" as="geometry"/>
                </mxCell>
                <mxCell id="246" value="" style="rounded=1;whiteSpace=wrap;html=1;arcSize=50;fillColor=none;" vertex="1" parent="1">
                    <mxGeometry x="1251.5" y="685" width="6" height="20" as="geometry"/>
                </mxCell>
                <mxCell id="247" value="" style="rounded=1;whiteSpace=wrap;html=1;arcSize=50;fillColor=none;" vertex="1" parent="1">
                    <mxGeometry x="1258.5" y="685" width="6" height="20" as="geometry"/>
                </mxCell>
                <mxCell id="248" value="" style="rounded=1;whiteSpace=wrap;html=1;arcSize=50;fillColor=#E17767;" vertex="1" parent="1">
                    <mxGeometry x="1265.5" y="685" width="6" height="20" as="geometry"/>
                </mxCell>
                <mxCell id="249" value="" style="rounded=1;whiteSpace=wrap;html=1;arcSize=50;fillColor=none;" vertex="1" parent="1">
                    <mxGeometry x="1272.5" y="685" width="6" height="20" as="geometry"/>
                </mxCell>
                <mxCell id="250" value="" style="rounded=1;whiteSpace=wrap;html=1;arcSize=50;fillColor=#E17767;" vertex="1" parent="1">
                    <mxGeometry x="1279.5" y="685" width="6" height="20" as="geometry"/>
                </mxCell>
                <mxCell id="251" value="" style="rounded=1;whiteSpace=wrap;html=1;arcSize=50;fillColor=none;" vertex="1" parent="1">
                    <mxGeometry x="1286.5" y="685" width="6" height="20" as="geometry"/>
                </mxCell>
                <mxCell id="252" value="" style="rounded=1;whiteSpace=wrap;html=1;arcSize=50;fillColor=#E17767;" vertex="1" parent="1">
                    <mxGeometry x="1293.5" y="685" width="6" height="20" as="geometry"/>
                </mxCell>
                <mxCell id="253" value="" style="rounded=1;whiteSpace=wrap;html=1;arcSize=50;fillColor=#E17767;" vertex="1" parent="1">
                    <mxGeometry x="1300.5" y="685" width="6" height="20" as="geometry"/>
                </mxCell>
                <mxCell id="254" value="" style="rounded=1;whiteSpace=wrap;html=1;arcSize=50;fillColor=none;" vertex="1" parent="1">
                    <mxGeometry x="1307.5" y="685" width="6" height="20" as="geometry"/>
                </mxCell>
                <mxCell id="255" value="" style="rounded=1;whiteSpace=wrap;html=1;arcSize=50;fillColor=#E17767;" vertex="1" parent="1">
                    <mxGeometry x="1314.5" y="685" width="6" height="20" as="geometry"/>
                </mxCell>
                <mxCell id="273" value="&lt;font style=&quot;font-size: 18px;&quot;&gt;&lt;b&gt;(a)&lt;/b&gt;&lt;/font&gt;" style="text;html=1;align=center;verticalAlign=middle;whiteSpace=wrap;rounded=0;" vertex="1" parent="1">
                    <mxGeometry x="80" y="281" width="130" height="30" as="geometry"/>
                </mxCell>
                <mxCell id="274" value="&lt;font style=&quot;font-size: 18px;&quot;&gt;&lt;b&gt;(b)&lt;/b&gt;&lt;/font&gt;" style="text;html=1;align=center;verticalAlign=middle;whiteSpace=wrap;rounded=0;" vertex="1" parent="1">
                    <mxGeometry x="80" y="537" width="130" height="30" as="geometry"/>
                </mxCell>
            </root>
        </mxGraphModel>
    </diagram>
</mxfile>